<svg width="815" height="607" viewBox="0 0 815 607" fill="none" xmlns="http://www.w3.org/2000/svg">
<path d="M843.944 0C843.944 0 736.434 257.799 313.408 294.694C-109.617 331.588 18.1049 469.145 18.1049 469.145C18.1049 469.145 102.298 508.737 294.284 507.088C486.27 505.44 624.528 571.227 624.528 571.227C624.528 571.227 742.127 627.164 843.946 598.264C844.309 537.399 843.944 0 843.944 0Z" fill="#F5D26A"/>
<path d="M304.665 425.119C315.745 425.119 324.727 422.46 324.727 419.18C324.727 415.9 315.745 413.241 304.665 413.241C293.585 413.241 284.603 415.9 284.603 419.18C284.603 422.46 293.585 425.119 304.665 425.119Z" fill="#EA913F"/>
<path d="M176.491 413.241C189.418 413.241 199.897 408.09 199.897 401.735C199.897 395.38 189.418 390.229 176.491 390.229C163.565 390.229 153.086 395.38 153.086 401.735C153.086 408.09 163.565 413.241 176.491 413.241Z" fill="#EA913F"/>
<path d="M738.596 487.476C744.751 487.476 749.741 484.318 749.741 480.423C749.741 476.529 744.751 473.371 738.596 473.371C732.44 473.371 727.45 476.529 727.45 480.423C727.45 484.318 732.44 487.476 738.596 487.476Z" fill="#EA913F"/>
<path d="M203.241 436.254C205.498 436.254 207.328 434.758 207.328 432.913C207.328 431.068 205.498 429.573 203.241 429.573C200.984 429.573 199.154 431.068 199.154 432.913C199.154 434.758 200.984 436.254 203.241 436.254Z" fill="#EA913F"/>
<path d="M729.308 500.096C733.206 500.096 736.367 498.101 736.367 495.642C736.367 493.182 733.206 491.188 729.308 491.188C725.409 491.188 722.249 493.182 722.249 495.642C722.249 498.101 725.409 500.096 729.308 500.096Z" fill="#EA913F"/>
<path d="M688.441 275.907C692.34 275.907 695.5 273.913 695.5 271.453C695.5 268.993 692.34 266.999 688.441 266.999C684.543 266.999 681.382 268.993 681.382 271.453C681.382 273.913 684.543 275.907 688.441 275.907Z" fill="#EA913F"/>
<path d="M769.432 234.335C773.33 234.335 776.491 232.341 776.491 229.881C776.491 227.421 773.33 225.427 769.432 225.427C765.533 225.427 762.373 227.421 762.373 229.881C762.373 232.341 765.533 234.335 769.432 234.335Z" fill="#EA913F"/>
<path d="M358.906 405.075C367.524 405.075 374.51 403.912 374.51 402.477C374.51 401.042 367.524 399.879 358.906 399.879C350.289 399.879 343.303 401.042 343.303 402.477C343.303 403.912 350.289 405.075 358.906 405.075Z" fill="#EA913F"/>
</svg>
