<svg width="551" height="603" viewBox="0 0 551 603" fill="none" xmlns="http://www.w3.org/2000/svg">
<path d="M315.254 159.419C320.398 162.99 326.447 165.035 332.703 165.319C338.959 165.603 345.168 164.113 350.614 161.023C355.746 183.541 354.891 209.413 360.878 210.596C370.74 212.54 365.488 155.323 365.488 155.323C365.488 155.323 380.582 241.219 394.04 240.123C407.356 239.04 392.068 181.496 391.734 180.233C392.302 181.596 423.4 256.547 434.077 260.756C444.721 264.952 420.339 201.615 419.711 199.985C420.586 201.742 457.925 276.686 468.315 277.047C478.558 277.407 453.936 222.409 452.646 219.543C455.098 224.293 533.115 375.103 479.848 206.68C469.751 174.774 455.88 150.867 439.984 133.086C436.897 130.961 433.255 127.153 429.38 122.369C433.095 125.758 436.634 129.335 439.984 133.086C442.349 134.717 444.394 135.351 445.964 134.677C458.105 129.451 426.026 80.7675 424.676 78.7228C426.634 80.9612 479.139 140.871 490.499 141.432C501.831 142 459.254 90.5965 457.497 88.485C459.575 90.5363 518.242 148.882 528.144 145.922C537.946 142.989 497.201 98.9087 494.935 96.4631C498.818 100.205 620.861 218.093 516.578 75.569C411.112 -68.5784 276.305 37.6228 275.043 38.6184C311.251 24.7603 317.579 49.6835 349.452 50.0711C369.811 50.3116 382.801 78.215 392.129 97.9999C352.846 80.5202 311.706 83.6674 286.649 88.3914C273.727 89.6364 260.947 92.0654 248.469 95.6479C252.872 97.4387 255.304 98.6414 255.304 98.6414C250.683 97.8751 245.991 97.6174 241.313 97.873C232.237 100.86 223.425 104.594 214.966 109.038C222.149 103.486 229.406 98.6347 241.313 97.873C243.725 97.0645 246.11 96.3295 248.469 95.6479C217.726 83.1596 90.9044 42.24 26.9525 185.606C-44.8773 346.658 49.2298 206.373 52.5106 201.482C50.7466 204.442 20.2707 256.019 30.4605 256.821C40.7238 257.622 85.4921 188.773 87.4165 185.813C86 188.539 55.3837 247.446 66.3152 244.506C77.3402 241.553 116.262 171.494 117.471 169.315C116.703 171.306 95.4213 225.964 108.431 228.53C121.44 231.096 145.502 150.446 146.357 147.579C145.943 149.624 137.497 191.058 141.954 200.874C137.457 216.883 134.704 235.145 134.223 255.972C130.187 431.33 162.447 268.28 163.904 260.85C163.295 265.26 155.351 323.472 164.959 320.305C174.955 317.017 190.09 232.699 190.09 232.699C190.09 232.699 184.116 302.19 193.284 295.101C202.451 288.011 211.431 205.925 211.431 205.925C211.431 205.925 212.728 266.803 225.958 264.09C239.188 261.378 229.666 174.694 229.666 174.694C229.666 174.694 240.618 231.096 249.545 226.478C256.768 222.737 240.043 180.233 247.146 154.328C248.181 160.363 250.864 165.994 254.899 170.6C258.933 175.205 264.162 178.607 270.008 180.428C275.854 182.249 282.089 182.418 288.026 180.918C293.962 179.419 299.368 176.307 303.648 171.928C361.085 292.602 481.558 528.858 576.841 602.626L588 559.889C588 559.889 387.565 320.846 315.254 159.419ZM158.01 162.734C162.955 145.601 170.505 128.79 184.965 125.489C187.776 124.853 190.534 124.004 193.217 122.95C179.031 133.822 167.076 147.33 158.01 162.734ZM276.426 115.673L277.007 114.631C277.147 114.945 277.294 115.259 277.441 115.587C277.101 115.607 276.76 115.64 276.426 115.673Z" fill="url(#paint0_linear)"/>
<defs>
<linearGradient id="paint0_linear" x1="419.832" y1="506.808" x2="143.194" y2="-67.079" gradientUnits="userSpaceOnUse">
<stop offset="0.596" stop-color="#171543"/>
<stop offset="1" stop-color="#A2A7D1"/>
</linearGradient>
</defs>
</svg>
