<svg width="67" height="54" viewBox="0 0 67 54" fill="none" xmlns="http://www.w3.org/2000/svg">
<path d="M50.3414 26.0001C46.8747 25.6001 44.2747 24.1334 42.5414 21.6001C40.8081 19.0667 39.9414 16.2667 39.9414 13.2001C39.9414 10.0001 41.0081 7.13341 43.1414 4.60007C45.1414 2.06674 48.1414 0.800074 52.1414 0.800073C53.7414 0.800073 55.4081 1.06674 57.1414 1.60007C58.8747 2.26674 60.4747 3.3334 61.9414 4.80007C63.4081 6.26674 64.6081 8.26674 65.5414 10.8001C66.4747 13.3334 66.9414 16.5334 66.9414 20.4001C66.9414 27.6001 64.8747 34.0667 60.7414 39.8001C56.6081 45.6667 51.3414 50.3334 44.9414 53.8001L39.1414 45.8001C42.6081 43.9334 45.7414 41.4001 48.5414 38.2001C51.2081 35.1334 53.0081 31.2667 53.9414 26.6001L50.3414 26.0001ZM11.3414 26.0001C7.87473 25.6001 5.27473 24.1334 3.5414 21.6001C1.80806 19.0667 0.941393 16.2667 0.941393 13.2001C0.941393 10.0001 2.00806 7.13341 4.14139 4.60008C6.14139 2.06674 9.14139 0.800077 13.1414 0.800077C14.7414 0.800076 16.4081 1.06674 18.1414 1.60008C19.8747 2.26674 21.4747 3.33341 22.9414 4.80007C24.4081 6.26674 25.6081 8.26675 26.5414 10.8001C27.4747 13.3334 27.9414 16.5334 27.9414 20.4001C27.9414 27.6001 25.8747 34.0667 21.7414 39.8001C17.6081 45.6667 12.3414 50.3334 5.9414 53.8001L0.141394 45.8001C3.60806 43.9334 6.74139 41.4001 9.5414 38.2001C12.2081 35.1334 14.0081 31.2667 14.9414 26.6001L11.3414 26.0001Z" fill="#5A5C95"/>
<path d="M50.3414 26.0001C46.8747 25.6001 44.2747 24.1334 42.5414 21.6001C40.8081 19.0667 39.9414 16.2667 39.9414 13.2001C39.9414 10.0001 41.0081 7.13341 43.1414 4.60007C45.1414 2.06674 48.1414 0.800074 52.1414 0.800073C53.7414 0.800073 55.4081 1.06674 57.1414 1.60007C58.8747 2.26674 60.4747 3.3334 61.9414 4.80007C63.4081 6.26674 64.6081 8.26674 65.5414 10.8001C66.4747 13.3334 66.9414 16.5334 66.9414 20.4001C66.9414 27.6001 64.8747 34.0667 60.7414 39.8001C56.6081 45.6667 51.3414 50.3334 44.9414 53.8001L39.1414 45.8001C42.6081 43.9334 45.7414 41.4001 48.5414 38.2001C51.2081 35.1334 53.0081 31.2667 53.9414 26.6001L50.3414 26.0001ZM11.3414 26.0001C7.87473 25.6001 5.27473 24.1334 3.5414 21.6001C1.80806 19.0667 0.941393 16.2667 0.941393 13.2001C0.941393 10.0001 2.00806 7.13341 4.14139 4.60008C6.14139 2.06674 9.14139 0.800077 13.1414 0.800077C14.7414 0.800076 16.4081 1.06674 18.1414 1.60008C19.8747 2.26674 21.4747 3.33341 22.9414 4.80007C24.4081 6.26674 25.6081 8.26675 26.5414 10.8001C27.4747 13.3334 27.9414 16.5334 27.9414 20.4001C27.9414 27.6001 25.8747 34.0667 21.7414 39.8001C17.6081 45.6667 12.3414 50.3334 5.9414 53.8001L0.141394 45.8001C3.60806 43.9334 6.74139 41.4001 9.5414 38.2001C12.2081 35.1334 14.0081 31.2667 14.9414 26.6001L11.3414 26.0001Z" fill="#5A5C95"/>
<path d="M50.3414 26.0001C46.8747 25.6001 44.2747 24.1334 42.5414 21.6001C40.8081 19.0667 39.9414 16.2667 39.9414 13.2001C39.9414 10.0001 41.0081 7.13341 43.1414 4.60007C45.1414 2.06674 48.1414 0.800074 52.1414 0.800073C53.7414 0.800073 55.4081 1.06674 57.1414 1.60007C58.8747 2.26674 60.4747 3.3334 61.9414 4.80007C63.4081 6.26674 64.6081 8.26674 65.5414 10.8001C66.4747 13.3334 66.9414 16.5334 66.9414 20.4001C66.9414 27.6001 64.8747 34.0667 60.7414 39.8001C56.6081 45.6667 51.3414 50.3334 44.9414 53.8001L39.1414 45.8001C42.6081 43.9334 45.7414 41.4001 48.5414 38.2001C51.2081 35.1334 53.0081 31.2667 53.9414 26.6001L50.3414 26.0001ZM11.3414 26.0001C7.87473 25.6001 5.27473 24.1334 3.5414 21.6001C1.80806 19.0667 0.941393 16.2667 0.941393 13.2001C0.941393 10.0001 2.00806 7.13341 4.14139 4.60008C6.14139 2.06674 9.14139 0.800077 13.1414 0.800077C14.7414 0.800076 16.4081 1.06674 18.1414 1.60008C19.8747 2.26674 21.4747 3.33341 22.9414 4.80007C24.4081 6.26674 25.6081 8.26675 26.5414 10.8001C27.4747 13.3334 27.9414 16.5334 27.9414 20.4001C27.9414 27.6001 25.8747 34.0667 21.7414 39.8001C17.6081 45.6667 12.3414 50.3334 5.9414 53.8001L0.141394 45.8001C3.60806 43.9334 6.74139 41.4001 9.5414 38.2001C12.2081 35.1334 14.0081 31.2667 14.9414 26.6001L11.3414 26.0001Z" fill="#5A5C95"/>
</svg>
