<svg width="200" height="173" viewBox="0 0 200 173" fill="none" xmlns="http://www.w3.org/2000/svg">
<path d="M100.378 172.759C155.398 172.759 200 170.357 200 167.394C200 164.431 155.398 162.029 100.378 162.029C45.3578 162.029 0.755371 164.431 0.755371 167.394C0.755371 170.357 45.3578 172.759 100.378 172.759Z" fill="#F5F5F5"/>
<path d="M174.397 61.2935L150.089 83.7145H166.361L184.17 59.1893H179.905C178.882 59.1885 177.869 59.374 176.924 59.7351C175.979 60.0961 175.12 60.6258 174.397 61.2935Z" fill="#407BFF"/>
<path opacity="0.8" d="M174.397 61.2935L150.089 83.7145H166.361L184.17 59.1893H179.905C178.882 59.1885 177.869 59.374 176.924 59.7351C175.979 60.0961 175.12 60.6258 174.397 61.2935Z" fill="white"/>
<path d="M178.518 62.4263L179.9 65.066L181.816 62.4263H178.518Z" fill="#407BFF"/>
<path opacity="0.6" d="M178.518 62.4263L179.9 65.066L181.816 62.4263H178.518Z" fill="white"/>
<path d="M187.18 63.1987H178.389C178.061 63.1975 177.747 63.0767 177.515 62.8628C177.283 62.6489 177.152 62.3591 177.151 62.0566C177.151 61.7537 177.281 61.4631 177.514 61.249C177.746 61.0348 178.061 60.9144 178.389 60.9144H187.18C187.509 60.9144 187.824 61.0348 188.056 61.249C188.288 61.4631 188.419 61.7537 188.419 62.0566C188.417 62.3591 188.286 62.6489 188.055 62.8628C187.823 63.0767 187.508 63.1975 187.18 63.1987Z" fill="#407BFF"/>
<path opacity="0.8" d="M187.18 63.1987H178.389C178.061 63.1975 177.747 63.0767 177.515 62.8628C177.283 62.6489 177.152 62.3591 177.151 62.0566C177.151 61.7537 177.281 61.4631 177.514 61.249C177.746 61.0348 178.061 60.9144 178.389 60.9144H187.18C187.509 60.9144 187.824 61.0348 188.056 61.249C188.288 61.4631 188.419 61.7537 188.419 62.0566C188.417 62.3591 188.286 62.6489 188.055 62.8628C187.823 63.0767 187.508 63.1975 187.18 63.1987Z" fill="white"/>
<path d="M107.571 105.482L122.816 82.4113H169.105C170.351 82.4113 171.585 82.6377 172.736 83.0776C173.888 83.5174 174.934 84.1622 175.815 84.975C176.696 85.7878 177.395 86.7528 177.872 87.8148C178.349 88.8768 178.595 90.015 178.595 91.1645V105.482H107.571Z" fill="#407BFF"/>
<path opacity="0.8" d="M107.571 105.482L122.816 82.4113H169.105C170.351 82.4113 171.585 82.6377 172.736 83.0776C173.888 83.5174 174.934 84.1622 175.815 84.975C176.696 85.7878 177.395 86.7528 177.872 87.8148C178.349 88.8768 178.595 90.015 178.595 91.1645V105.482H107.571Z" fill="white"/>
<path d="M137.901 76.3405H81.5928V117.258H137.901V76.3405Z" fill="#407BFF"/>
<path opacity="0.1" d="M137.901 76.3405H81.5928V117.258H137.901V76.3405Z" fill="white"/>
<path d="M109.205 76.3405L81.5928 116.974V86.5012L88.4984 76.3405H109.205Z" fill="#407BFF"/>
<path opacity="0.6" d="M109.205 76.3405L81.5928 116.974V86.5012L88.4984 76.3405H109.205Z" fill="white"/>
<path d="M127.322 76.3405L99.5144 117.258H88.5806L116.388 76.3405H127.322Z" fill="#407BFF"/>
<path opacity="0.6" d="M127.322 76.3405L99.5144 117.258H88.5806L116.388 76.3405H127.322Z" fill="white"/>
<path d="M59.1241 167.394H165.118C171.9 167.396 178.467 165.204 183.678 161.2C188.888 157.196 192.411 151.633 193.634 145.48H11.7458C17.2444 152.287 24.3921 157.813 32.6184 161.618C40.8446 165.423 49.9215 167.401 59.1241 167.394Z" fill="#407BFF"/>
<path opacity="0.1" d="M59.1241 167.394H165.118C171.9 167.396 178.467 165.204 183.678 161.2C188.888 157.196 192.411 151.633 193.634 145.48H11.7458C17.2444 152.287 24.3921 157.813 32.6184 161.618C40.8446 165.423 49.9215 167.401 59.1241 167.394Z" fill="white"/>
<path d="M121.788 73.4969H147.576C151.347 73.4969 154.963 74.8785 157.629 77.3377C160.295 79.797 161.793 83.1324 161.793 86.6102V125.945H121.788V73.4969Z" fill="#407BFF"/>
<path opacity="0.7" d="M121.788 73.4969H147.576C151.347 73.4969 154.963 74.8785 157.629 77.3377C160.295 79.797 161.793 83.1324 161.793 86.6102V125.945H121.788V73.4969Z" fill="white"/>
<path d="M33.8499 107.174H54.4844C55.1795 107.17 55.8685 107.294 56.5116 107.537C57.1548 107.78 57.7396 108.138 58.2323 108.591C58.725 109.043 59.116 109.581 59.3828 110.173C59.6496 110.765 59.7869 111.399 59.7869 112.041V126.647H33.8499V107.174Z" fill="#407BFF"/>
<path opacity="0.7" d="M33.8499 107.174H54.4844C55.1795 107.17 55.8685 107.294 56.5116 107.537C57.1548 107.78 57.7396 108.138 58.2323 108.591C58.725 109.043 59.116 109.581 59.3828 110.173C59.6496 110.765 59.7869 111.399 59.7869 112.041V126.647H33.8499V107.174Z" fill="white"/>
<path d="M48.1852 107.643H34.3638V112.396H48.1852V107.643Z" fill="#407BFF"/>
<path opacity="0.1" d="M48.1852 107.643H34.3638V112.396H48.1852V107.643Z" fill="white"/>
<path d="M184.169 125.964H148.547V91.719L184.169 103.619V125.964Z" fill="#407BFF"/>
<path opacity="0.7" d="M184.169 125.964H148.547V91.719L184.169 103.619V125.964Z" fill="white"/>
<path d="M194.107 121.467V141.295C194.072 142.7 193.915 144.099 193.639 145.48H11.7457C10.653 144.134 9.62542 142.739 8.66288 141.295C8.38029 140.878 8.10797 140.457 7.84079 140.03C2.68798 131.77 -0.0162265 122.404 7.3251e-05 112.875H127.697C132.416 112.869 137.053 114.013 141.138 116.192L144.93 118.216C148.898 120.338 153.404 121.454 157.991 121.453L194.107 121.467Z" fill="#407BFF"/>
<path opacity="0.8" d="M194.107 121.467V141.295C194.072 142.7 193.915 144.099 193.639 145.48H11.7457C10.653 144.134 9.62542 142.739 8.66288 141.295C8.38029 140.878 8.10797 140.457 7.84079 140.03C2.68798 131.77 -0.0162265 122.404 7.3251e-05 112.875H127.697C132.416 112.869 137.053 114.013 141.138 116.192L144.93 118.216C148.898 120.338 153.404 121.454 157.991 121.453L194.107 121.467Z" fill="white"/>
<path d="M194.107 140.03V141.295H8.67317C8.39057 140.878 8.11825 140.457 7.85107 140.03H194.107Z" fill="#407BFF"/>
<path opacity="0.1" d="M194.107 140.03V141.295H8.67317C8.39057 140.878 8.11825 140.457 7.85107 140.03H194.107Z" fill="white"/>
<path d="M2.75429 114.358C2.61802 114.358 2.48733 114.308 2.39097 114.219C2.29461 114.13 2.24048 114.01 2.24048 113.884V100.458C2.24048 100.332 2.29461 100.212 2.39097 100.123C2.48733 100.034 2.61802 99.9841 2.75429 99.9841H98.7902C98.9265 99.9841 99.0572 100.034 99.1535 100.123C99.2499 100.212 99.304 100.332 99.304 100.458C99.304 100.584 99.2499 100.704 99.1535 100.793C99.0572 100.882 98.9265 100.932 98.7902 100.932H3.2681V113.884C3.2681 114.01 3.21396 114.13 3.1176 114.219C3.02125 114.308 2.89056 114.358 2.75429 114.358Z" fill="#407BFF"/>
<path d="M14.7567 114.358C14.6205 114.358 14.4898 114.308 14.3934 114.219C14.2971 114.13 14.2429 114.01 14.2429 113.884V100.458C14.2429 100.332 14.2971 100.212 14.3934 100.123C14.4898 100.034 14.6205 99.9841 14.7567 99.9841C14.893 99.9841 15.0237 100.034 15.12 100.123C15.2164 100.212 15.2705 100.332 15.2705 100.458V113.884C15.2705 114.01 15.2164 114.13 15.12 114.219C15.0237 114.308 14.893 114.358 14.7567 114.358Z" fill="#407BFF"/>
<path d="M98.7902 114.358C98.6539 114.358 98.5232 114.308 98.4269 114.219C98.3305 114.13 98.2764 114.01 98.2764 113.884V100.458C98.2764 100.332 98.3305 100.212 98.4269 100.123C98.5232 100.034 98.6539 99.9841 98.7902 99.9841C98.9264 99.9841 99.0571 100.034 99.1535 100.123C99.2499 100.212 99.304 100.332 99.304 100.458V113.884C99.304 114.01 99.2499 114.13 99.1535 114.219C99.0571 114.308 98.9264 114.358 98.7902 114.358Z" fill="#407BFF"/>
<path d="M86.7824 114.358C86.6461 114.358 86.5154 114.308 86.419 114.219C86.3227 114.13 86.2686 114.01 86.2686 113.884V100.458C86.2686 100.332 86.3227 100.212 86.419 100.123C86.5154 100.034 86.6461 99.9841 86.7824 99.9841C86.9186 99.9841 87.0493 100.034 87.1457 100.123C87.242 100.212 87.2962 100.332 87.2962 100.458V113.884C87.2962 114.01 87.242 114.13 87.1457 114.219C87.0493 114.308 86.9186 114.358 86.7824 114.358Z" fill="#407BFF"/>
<path d="M74.7797 114.358C74.6434 114.358 74.5127 114.308 74.4164 114.219C74.32 114.13 74.2659 114.01 74.2659 113.884V100.458C74.2659 100.332 74.32 100.212 74.4164 100.123C74.5127 100.034 74.6434 99.9841 74.7797 99.9841C74.9159 99.9841 75.0466 100.034 75.143 100.123C75.2394 100.212 75.2935 100.332 75.2935 100.458V113.884C75.2935 114.01 75.2394 114.13 75.143 114.219C75.0466 114.308 74.9159 114.358 74.7797 114.358Z" fill="#407BFF"/>
<path d="M62.7772 114.358C62.641 114.358 62.5103 114.308 62.4139 114.219C62.3176 114.13 62.2634 114.01 62.2634 113.884V100.458C62.2634 100.332 62.3176 100.212 62.4139 100.123C62.5103 100.034 62.641 99.9841 62.7772 99.9841C62.9135 99.9841 63.0442 100.034 63.1405 100.123C63.2369 100.212 63.291 100.332 63.291 100.458V113.884C63.291 114.01 63.2369 114.13 63.1405 114.219C63.0442 114.308 62.9135 114.358 62.7772 114.358Z" fill="#407BFF"/>
<path d="M50.7697 114.358C50.6334 114.358 50.5027 114.308 50.4063 114.219C50.31 114.13 50.2559 114.01 50.2559 113.884V100.458C50.2559 100.332 50.31 100.212 50.4063 100.123C50.5027 100.034 50.6334 99.9841 50.7697 99.9841C50.9059 99.9841 51.0366 100.034 51.133 100.123C51.2293 100.212 51.2835 100.332 51.2835 100.458V113.884C51.2835 114.01 51.2293 114.13 51.133 114.219C51.0366 114.308 50.9059 114.358 50.7697 114.358Z" fill="#407BFF"/>
<path d="M38.767 114.358C38.6307 114.358 38.5 114.308 38.4037 114.219C38.3073 114.13 38.2532 114.01 38.2532 113.884V100.458C38.2532 100.332 38.3073 100.212 38.4037 100.123C38.5 100.034 38.6307 99.9841 38.767 99.9841C38.9033 99.9841 39.0339 100.034 39.1303 100.123C39.2267 100.212 39.2808 100.332 39.2808 100.458V113.884C39.2808 114.01 39.2267 114.13 39.1303 114.219C39.0339 114.308 38.9033 114.358 38.767 114.358Z" fill="#407BFF"/>
<path d="M26.7643 114.358C26.628 114.358 26.4973 114.308 26.401 114.219C26.3046 114.13 26.2505 114.01 26.2505 113.884V100.458C26.2505 100.332 26.3046 100.212 26.401 100.123C26.4973 100.034 26.628 99.9841 26.7643 99.9841C26.9006 99.9841 27.0313 100.034 27.1276 100.123C27.224 100.212 27.2781 100.332 27.2781 100.458V113.884C27.2781 114.01 27.224 114.13 27.1276 114.219C27.0313 114.308 26.9006 114.358 26.7643 114.358Z" fill="#407BFF"/>
<g opacity="0.8">
<path opacity="0.8" d="M2.75429 114.358C2.61802 114.358 2.48733 114.308 2.39097 114.219C2.29461 114.13 2.24048 114.01 2.24048 113.884V100.458C2.24048 100.332 2.29461 100.212 2.39097 100.123C2.48733 100.034 2.61802 99.9841 2.75429 99.9841H98.7902C98.9265 99.9841 99.0572 100.034 99.1535 100.123C99.2499 100.212 99.304 100.332 99.304 100.458C99.304 100.584 99.2499 100.704 99.1535 100.793C99.0572 100.882 98.9265 100.932 98.7902 100.932H3.2681V113.884C3.2681 114.01 3.21396 114.13 3.1176 114.219C3.02125 114.308 2.89056 114.358 2.75429 114.358Z" fill="white"/>
<path opacity="0.8" d="M14.7567 114.358C14.6205 114.358 14.4898 114.308 14.3934 114.219C14.2971 114.13 14.2429 114.01 14.2429 113.884V100.458C14.2429 100.332 14.2971 100.212 14.3934 100.123C14.4898 100.034 14.6205 99.9841 14.7567 99.9841C14.893 99.9841 15.0237 100.034 15.12 100.123C15.2164 100.212 15.2705 100.332 15.2705 100.458V113.884C15.2705 114.01 15.2164 114.13 15.12 114.219C15.0237 114.308 14.893 114.358 14.7567 114.358Z" fill="white"/>
<path opacity="0.8" d="M98.7902 114.358C98.6539 114.358 98.5232 114.308 98.4269 114.219C98.3305 114.13 98.2764 114.01 98.2764 113.884V100.458C98.2764 100.332 98.3305 100.212 98.4269 100.123C98.5232 100.034 98.6539 99.9841 98.7902 99.9841C98.9264 99.9841 99.0571 100.034 99.1535 100.123C99.2499 100.212 99.304 100.332 99.304 100.458V113.884C99.304 114.01 99.2499 114.13 99.1535 114.219C99.0571 114.308 98.9264 114.358 98.7902 114.358Z" fill="white"/>
<path opacity="0.8" d="M86.7824 114.358C86.6461 114.358 86.5154 114.308 86.419 114.219C86.3227 114.13 86.2686 114.01 86.2686 113.884V100.458C86.2686 100.332 86.3227 100.212 86.419 100.123C86.5154 100.034 86.6461 99.9841 86.7824 99.9841C86.9186 99.9841 87.0493 100.034 87.1457 100.123C87.242 100.212 87.2962 100.332 87.2962 100.458V113.884C87.2962 114.01 87.242 114.13 87.1457 114.219C87.0493 114.308 86.9186 114.358 86.7824 114.358Z" fill="white"/>
<path opacity="0.8" d="M74.7799 114.358C74.6437 114.358 74.513 114.308 74.4166 114.219C74.3203 114.13 74.2661 114.01 74.2661 113.884V100.458C74.2661 100.332 74.3203 100.212 74.4166 100.123C74.513 100.034 74.6437 99.9841 74.7799 99.9841C74.9162 99.9841 75.0469 100.034 75.1432 100.123C75.2396 100.212 75.2937 100.332 75.2937 100.458V113.884C75.2937 114.01 75.2396 114.13 75.1432 114.219C75.0469 114.308 74.9162 114.358 74.7799 114.358Z" fill="white"/>
<path opacity="0.8" d="M62.7772 114.358C62.641 114.358 62.5103 114.308 62.4139 114.219C62.3176 114.13 62.2634 114.01 62.2634 113.884V100.458C62.2634 100.332 62.3176 100.212 62.4139 100.123C62.5103 100.034 62.641 99.9841 62.7772 99.9841C62.9135 99.9841 63.0442 100.034 63.1405 100.123C63.2369 100.212 63.291 100.332 63.291 100.458V113.884C63.291 114.01 63.2369 114.13 63.1405 114.219C63.0442 114.308 62.9135 114.358 62.7772 114.358Z" fill="white"/>
<path opacity="0.8" d="M50.7697 114.358C50.6334 114.358 50.5027 114.308 50.4063 114.219C50.31 114.13 50.2559 114.01 50.2559 113.884V100.458C50.2559 100.332 50.31 100.212 50.4063 100.123C50.5027 100.034 50.6334 99.9841 50.7697 99.9841C50.9059 99.9841 51.0366 100.034 51.133 100.123C51.2293 100.212 51.2835 100.332 51.2835 100.458V113.884C51.2835 114.01 51.2293 114.13 51.133 114.219C51.0366 114.308 50.9059 114.358 50.7697 114.358Z" fill="white"/>
<path opacity="0.8" d="M38.767 114.358C38.6307 114.358 38.5 114.308 38.4037 114.219C38.3073 114.13 38.2532 114.01 38.2532 113.884V100.458C38.2532 100.332 38.3073 100.212 38.4037 100.123C38.5 100.034 38.6307 99.9841 38.767 99.9841C38.9033 99.9841 39.0339 100.034 39.1303 100.123C39.2267 100.212 39.2808 100.332 39.2808 100.458V113.884C39.2808 114.01 39.2267 114.13 39.1303 114.219C39.0339 114.308 38.9033 114.358 38.767 114.358Z" fill="white"/>
<path opacity="0.8" d="M26.7645 114.358C26.6283 114.358 26.4976 114.308 26.4012 114.219C26.3049 114.13 26.2507 114.01 26.2507 113.884V100.458C26.2507 100.332 26.3049 100.212 26.4012 100.123C26.4976 100.034 26.6283 99.9841 26.7645 99.9841C26.9008 99.9841 27.0315 100.034 27.1279 100.123C27.2242 100.212 27.2783 100.332 27.2783 100.458V113.884C27.2783 114.01 27.2242 114.13 27.1279 114.219C27.0315 114.308 26.9008 114.358 26.7645 114.358Z" fill="white"/>
</g>
<path d="M80.7399 132.386H32.2981V125.969H80.7399C81.663 125.969 82.5483 126.307 83.2014 126.908C83.8546 127.51 84.2222 128.326 84.2236 129.177C84.2222 130.029 83.8546 130.845 83.2014 131.446C82.5483 132.048 81.663 132.386 80.7399 132.386Z" fill="#407BFF"/>
<path opacity="0.1" d="M80.7399 132.386H32.2981V125.969H80.7399C81.663 125.969 82.5483 126.307 83.2014 126.908C83.8546 127.51 84.2222 128.326 84.2236 129.177C84.2222 130.029 83.8546 130.845 83.2014 131.446C82.5483 132.048 81.663 132.386 80.7399 132.386Z" fill="white"/>
<path d="M48.6525 132.386H42.3789L46.7411 125.964H53.0147L48.6525 132.386Z" fill="#407BFF"/>
<path opacity="0.6" d="M48.6525 132.386H42.3789L46.7411 125.964H53.0147L48.6525 132.386Z" fill="white"/>
<path d="M54.8646 132.386H51.2114L55.5737 125.964H59.2217L54.8646 132.386Z" fill="#407BFF"/>
<path opacity="0.6" d="M54.8646 132.386H51.2114L55.5737 125.964H59.2217L54.8646 132.386Z" fill="white"/>
<path d="M33.8498 125.969H32.2981V132.386H33.8498V125.969Z" fill="#407BFF"/>
<path opacity="0.2" d="M33.8498 125.969H32.2981V132.386H33.8498V125.969Z" fill="black"/>
<path d="M91.9873 69.9047L103.291 59.4785C103.831 58.9807 104.471 58.5862 105.177 58.3178C105.882 58.0494 106.638 57.9123 107.402 57.9146H147.386C148.921 57.9146 150.392 58.4768 151.477 59.4776C152.562 60.4783 153.172 61.8356 153.172 63.2509V69.8857L91.9873 69.9047Z" fill="#407BFF"/>
<path opacity="0.7" d="M91.9873 69.9047L103.291 59.4785C103.831 58.9807 104.471 58.5862 105.177 58.3178C105.882 58.0494 106.638 57.9123 107.402 57.9146H147.386C148.921 57.9146 150.392 58.4768 151.477 59.4776C152.562 60.4783 153.172 61.8356 153.172 63.2509V69.8857L91.9873 69.9047Z" fill="white"/>
<path d="M83.5352 74.8665L98.0811 61.4499C98.8194 60.768 99.8211 60.3845 100.866 60.3836H154.456C154.73 60.3804 155.002 60.4279 155.257 60.5232C155.511 60.6185 155.741 60.7598 155.935 60.9386C156.129 61.1175 156.282 61.3304 156.386 61.5647C156.489 61.799 156.54 62.05 156.537 62.3029V72.9376C156.541 73.189 156.491 73.4385 156.39 73.6718C156.288 73.9051 156.137 74.1174 155.946 74.2965C155.755 74.4755 155.527 74.6177 155.275 74.7148C155.024 74.8118 154.754 74.8618 154.482 74.8617H83.5763L83.5352 74.8665Z" fill="#407BFF"/>
<path opacity="0.8" d="M83.5352 74.8665L98.0811 61.4499C98.8194 60.768 99.8211 60.3845 100.866 60.3836H154.456C154.73 60.3804 155.002 60.4279 155.257 60.5232C155.511 60.6185 155.741 60.7598 155.935 60.9386C156.129 61.1175 156.282 61.3304 156.386 61.5647C156.489 61.799 156.54 62.05 156.537 62.3029V72.9376C156.541 73.189 156.491 73.4385 156.39 73.6718C156.288 73.9051 156.137 74.1174 155.946 74.2965C155.755 74.4755 155.527 74.6177 155.275 74.7148C155.024 74.8118 154.754 74.8618 154.482 74.8617H83.5763L83.5352 74.8665Z" fill="white"/>
<path d="M145.259 78.0276H79.8818L81.8497 73.4969H141.965C142.549 73.5012 143.122 73.6363 143.637 73.8906C144.151 74.145 144.59 74.5109 144.917 74.9569C145.244 75.4028 145.448 75.9154 145.512 76.4504C145.576 76.9854 145.498 77.5267 145.285 78.0276H145.259Z" fill="#407BFF"/>
<path opacity="0.7" d="M145.259 78.0276H79.8818L81.8497 73.4969H141.965C142.549 73.5012 143.122 73.6363 143.637 73.8906C144.151 74.145 144.59 74.5109 144.917 74.9569C145.244 75.4028 145.448 75.9154 145.512 76.4504C145.576 76.9854 145.498 77.5267 145.285 78.0276H145.259Z" fill="white"/>
<path d="M171.283 109.463H165.287C164.698 109.461 164.133 109.245 163.716 108.86C163.299 108.476 163.064 107.954 163.062 107.41C163.064 106.866 163.299 106.344 163.715 105.959C164.132 105.574 164.697 105.356 165.287 105.354H171.283C171.874 105.356 172.439 105.574 172.855 105.959C173.272 106.344 173.507 106.866 173.508 107.41C173.507 107.954 173.272 108.476 172.855 108.86C172.438 109.245 171.873 109.461 171.283 109.463Z" fill="#407BFF"/>
<path opacity="0.1" d="M171.283 109.463H165.287C164.698 109.461 164.133 109.245 163.716 108.86C163.299 108.476 163.064 107.954 163.062 107.41C163.064 106.866 163.299 106.344 163.715 105.959C164.132 105.574 164.697 105.356 165.287 105.354H171.283C171.874 105.356 172.439 105.574 172.855 105.959C173.272 106.344 173.507 106.866 173.508 107.41C173.507 107.954 173.272 108.476 172.855 108.86C172.438 109.245 171.873 109.461 171.283 109.463Z" fill="white"/>
<path d="M171.283 114.927H165.287C164.698 114.925 164.133 114.709 163.716 114.324C163.299 113.94 163.064 113.419 163.062 112.875C163.064 112.33 163.299 111.809 163.715 111.423C164.132 111.038 164.697 110.82 165.287 110.818H171.283C171.874 110.82 172.439 111.038 172.855 111.423C173.272 111.809 173.507 112.33 173.508 112.875C173.507 113.419 173.272 113.94 172.855 114.324C172.438 114.709 171.873 114.925 171.283 114.927Z" fill="#407BFF"/>
<path opacity="0.1" d="M171.283 114.927H165.287C164.698 114.925 164.133 114.709 163.716 114.324C163.299 113.94 163.064 113.419 163.062 112.875C163.064 112.33 163.299 111.809 163.715 111.423C164.132 111.038 164.697 110.82 165.287 110.818H171.283C171.874 110.82 172.439 111.038 172.855 111.423C173.272 111.809 173.507 112.33 173.508 112.875C173.507 113.419 173.272 113.94 172.855 114.324C172.438 114.709 171.873 114.925 171.283 114.927Z" fill="white"/>
<path d="M64.0205 48.3556C64.5072 48.8074 64.9685 49.282 65.4026 49.7773C65.8445 50.275 66.2658 50.7252 66.6871 51.1991C67.5349 52.1469 68.3262 53.1469 69.0969 54.1658C70.6848 56.238 72.0251 58.4626 73.0943 60.8007C73.2228 61.104 73.3409 61.4215 73.4642 61.7485L73.6492 62.2224C73.752 62.5058 73.8242 62.7979 73.865 63.0944C73.9764 64.0375 73.8407 64.9916 73.4694 65.8763C72.9154 67.1825 72.1383 68.3985 71.1675 69.4781C69.4525 71.415 67.4773 73.1429 65.2896 74.6201L63.3525 72.7244C64.878 70.9672 66.2719 69.1162 67.5246 67.1843C68.0743 66.3594 68.4963 65.4678 68.7783 64.5351C68.8562 64.3062 68.865 64.0622 68.804 63.829L68.6293 63.4783C68.5111 63.2461 68.4084 63.0044 68.2799 62.7769C67.1927 60.8301 65.9203 58.9761 64.4777 57.2368C63.7584 56.3316 62.998 55.4501 62.2273 54.5686C61.8419 54.1326 61.4514 53.6966 61.0506 53.2701L59.8792 52.0237L64.0205 48.3556Z" fill="#E4897B"/>
<path d="M60.239 74.17L62.433 78.1651L64.5756 76.4638L62.8183 73.625L60.239 74.17Z" fill="#E4897B"/>
<path d="M43.5197 51.0285L42.492 52.3413C42.1529 52.7915 41.8189 53.2512 41.4952 53.7109C40.8427 54.635 40.1953 55.5592 39.5942 56.5022C38.3803 58.3268 37.3304 60.2399 36.4548 62.2224L36.3058 62.5826L36.2339 62.7485C36.2037 62.8095 36.188 62.8757 36.1876 62.9428C36.2017 63.3069 36.2709 63.6674 36.3931 64.0138C36.738 64.9696 37.1837 65.8918 37.7239 66.7673C38.8968 68.6989 40.1797 70.5719 41.5672 72.3785L39.5119 74.1746C37.501 72.6232 35.6783 70.8753 34.0759 68.9615C33.2113 67.9346 32.4737 66.8219 31.8768 65.6441C31.5227 64.924 31.2805 64.1613 31.1574 63.3788C31.0906 62.8713 31.101 62.3576 31.1883 61.8528C31.2063 61.7061 31.2408 61.5616 31.291 61.4215L31.3681 61.1751L31.512 60.7011C31.6969 60.0803 31.9333 59.4974 32.1542 58.905C32.3752 58.3126 32.668 57.7392 32.9147 57.1847C33.4285 56.052 34.045 54.9715 34.6667 53.9052C35.2884 52.8389 35.9718 51.8152 36.6809 50.8058C37.0234 50.3034 37.3882 49.8058 37.7753 49.3129C38.1504 48.8058 38.5203 48.3651 38.9622 47.8248L43.5197 51.0285Z" fill="#E4897B"/>
<path d="M40.8068 71.7102L43.2114 72.8002L40.9199 76.6295C40.9199 76.6295 39.3373 75.1271 38.9211 73.4732L40.8068 71.7102Z" fill="#E4897B"/>
<path d="M45.2665 75.7101L43.2113 78.7859L40.9197 76.6295L43.2113 72.8003L45.2665 75.7101Z" fill="#E4897B"/>
<path d="M57.3875 33.7164C57.3567 33.996 57.4902 34.2424 57.6855 34.2708C57.8807 34.2993 58.0708 34.0908 58.1017 33.7969C58.1325 33.5031 57.9989 33.2709 57.8037 33.2424C57.6084 33.214 57.4234 33.4367 57.3875 33.7164Z" fill="#263238"/>
<path d="M57.4643 34.2423C57.7263 35.1467 58.1167 36.0152 58.6255 36.8252C58.4001 36.9335 58.1516 36.9948 57.8976 37.0047C57.6437 37.0145 57.3905 36.9726 57.156 36.882L57.4643 34.2423Z" fill="#DE5753"/>
<path d="M56.5188 32.0244C56.4951 32.0238 56.4719 32.0189 56.4503 32.01C56.4288 32.0011 56.4093 31.9884 56.3931 31.9725C56.3769 31.9567 56.3642 31.9381 56.3558 31.9177C56.3474 31.8973 56.3434 31.8756 56.3441 31.8538C56.3445 31.8259 56.3527 31.7986 56.368 31.7745C56.3833 31.7504 56.4052 31.7304 56.4314 31.7164C56.6785 31.5897 56.955 31.5197 57.2376 31.5123C57.5202 31.5048 57.8006 31.5602 58.0551 31.6737C58.0992 31.6896 58.1347 31.721 58.154 31.7609C58.1732 31.8008 58.1746 31.8461 58.1578 31.887C58.1405 31.9278 58.1068 31.9609 58.0638 31.9794C58.0207 31.998 57.9716 32.0005 57.9266 31.9865L57.8855 31.9628C57.6832 31.875 57.4611 31.833 57.2376 31.8405C57.0142 31.8479 56.7959 31.9045 56.601 32.0055C56.5761 32.019 56.5476 32.0256 56.5188 32.0244Z" fill="#263238"/>
<path d="M47.3065 35.7352C47.9539 38.2849 48.6937 42.9483 46.8286 44.6496C46.8286 44.6496 47.6918 47.2325 52.8248 47.2325C58.4766 47.2325 55.3938 44.6496 55.3938 44.6496C52.3109 43.9719 52.275 41.863 52.7323 39.8867L47.3065 35.7352Z" fill="#E4897B"/>
<path d="M46.1297 45.5359C45.6878 44.7208 45.2048 43.7824 46.1297 43.4886C47.1573 43.1663 52.6602 42.8393 54.6024 43.4412C55.1176 43.5696 55.5584 43.8777 55.8317 44.3005C56.105 44.7232 56.1893 45.2275 56.0667 45.7065L46.1297 45.5359Z" fill="#263238"/>
<path d="M39.2345 164.437C38.9027 164.437 38.5719 164.404 38.248 164.337C38.231 164.335 38.2153 164.328 38.2032 164.317C38.1911 164.306 38.1833 164.291 38.1812 164.276C38.1778 164.26 38.1794 164.243 38.1857 164.228C38.1921 164.213 38.203 164.2 38.2172 164.19C38.2583 164.162 39.2448 163.508 39.8203 163.622C39.8825 163.631 39.9417 163.654 39.9933 163.688C40.0448 163.721 40.0876 163.765 40.1183 163.816C40.163 163.873 40.1871 163.942 40.1871 164.013C40.1871 164.083 40.163 164.152 40.1183 164.209C39.9744 164.394 39.5993 164.437 39.2345 164.437ZM38.4998 164.219C39.065 164.304 39.8357 164.304 39.9898 164.11C39.9898 164.11 40.0515 164.034 39.9641 163.897C39.9459 163.866 39.9202 163.84 39.8889 163.82C39.8577 163.8 39.8218 163.787 39.7843 163.783C39.3106 163.807 38.8558 163.962 38.4792 164.228L38.4998 164.219Z" fill="#407BFF"/>
<path d="M38.248 164.352H38.2069C38.1942 164.344 38.1838 164.333 38.1767 164.321C38.1695 164.308 38.1657 164.295 38.1658 164.28C38.1658 164.238 38.212 163.233 38.6385 162.901C38.6908 162.861 38.7514 162.83 38.8167 162.812C38.882 162.793 38.9506 162.786 39.0187 162.792C39.088 162.792 39.1551 162.815 39.2086 162.855C39.262 162.896 39.2984 162.952 39.3116 163.015C39.3938 163.404 38.6744 164.162 38.2839 164.356L38.248 164.352ZM38.9519 162.93C38.8778 162.93 38.8064 162.955 38.7515 163.001C38.5001 163.32 38.3602 163.702 38.3507 164.096C38.7207 163.826 39.178 163.252 39.1317 163.025C39.1317 163.025 39.1317 162.944 38.993 162.93H38.9519Z" fill="#407BFF"/>
<path d="M61.883 164.437C61.4934 164.437 61.1047 164.404 60.7218 164.337C60.7038 164.335 60.6872 164.327 60.6743 164.315C60.6614 164.303 60.6528 164.288 60.6499 164.271C60.647 164.255 60.6494 164.238 60.6567 164.223C60.664 164.208 60.6759 164.195 60.691 164.186C60.8811 164.086 62.5561 163.2 62.962 163.811C63.002 163.865 63.0234 163.929 63.0234 163.994C63.0234 164.059 63.002 164.123 62.962 164.176C62.8284 164.385 62.3557 164.437 61.883 164.437ZM61.0044 164.214C61.7135 164.309 62.6691 164.295 62.8336 164.081C62.8336 164.081 62.8849 164.015 62.8079 163.897C62.5818 163.56 61.5645 163.963 61.0044 164.224V164.214Z" fill="#407BFF"/>
<path d="M60.7372 164.352H60.6858C60.673 164.343 60.6628 164.332 60.6565 164.318C60.6502 164.305 60.6479 164.29 60.6499 164.276C60.6499 164.238 60.7115 163.299 61.1637 162.935C61.232 162.876 61.3137 162.833 61.4028 162.809C61.4918 162.784 61.5858 162.778 61.6775 162.792C61.9293 162.816 62.0012 162.935 62.0166 163.029C62.0885 163.432 61.2305 164.167 60.7783 164.356L60.7372 164.352ZM61.6004 162.93C61.4864 162.929 61.3763 162.968 61.2921 163.039C61.0257 163.346 60.8695 163.722 60.8451 164.115C61.2973 163.859 61.8727 163.276 61.8368 163.034C61.8368 163.01 61.8368 162.949 61.6518 162.93H61.6004Z" fill="#407BFF"/>
<path d="M56.5857 164.266H60.3622L60.3982 156.205H56.6268L56.5857 164.266Z" fill="#E4897B"/>
<path d="M33.9216 164.266H37.6981L39.2601 156.205H35.4836L33.9216 164.266Z" fill="#E4897B"/>
<path d="M37.9499 163.863H33.711C33.636 163.862 33.5632 163.886 33.5057 163.931C33.4482 163.975 33.4098 164.037 33.3976 164.105L32.781 167.2C32.7702 167.271 32.775 167.344 32.7952 167.413C32.8153 167.483 32.8503 167.548 32.8982 167.605C32.9461 167.662 33.0058 167.71 33.0739 167.745C33.1421 167.78 33.2172 167.803 33.2948 167.811H33.3873C34.8671 167.787 35.5812 167.707 37.4464 167.707C38.5922 167.707 40.9608 167.821 42.5485 167.821C44.1362 167.821 44.2749 166.399 43.6223 166.242C40.6885 165.655 39.5581 164.844 38.5973 164.077C38.4195 163.931 38.1875 163.855 37.9499 163.863Z" fill="#263238"/>
<path d="M60.3006 163.863H56.1901C56.1152 163.862 56.0423 163.886 55.9848 163.931C55.9273 163.975 55.889 164.037 55.8767 164.105L55.2601 167.2C55.2347 167.337 55.2691 167.477 55.3557 167.591C55.4424 167.705 55.5742 167.782 55.7225 167.806C55.7583 167.811 55.7947 167.811 55.8304 167.806C57.3154 167.783 59.4579 167.702 61.3282 167.702C63.517 167.702 65.4078 167.816 67.9666 167.816C69.508 167.816 69.8882 166.394 69.2357 166.238C66.2556 165.641 63.8407 165.579 61.2306 164.129C60.9536 163.962 60.6314 163.87 60.3006 163.863Z" fill="#263238"/>
<path d="M40.1079 45.4363C36.5986 46.1851 32.9146 55.0805 32.9146 55.0805L40.2055 59.5733C41.8794 57.2323 43.3467 54.771 44.5934 52.2133C46.5202 48.1424 43.6891 44.6733 40.1079 45.4363Z" fill="#407BFF"/>
<path opacity="0.1" d="M40.1079 45.4363C36.5986 46.1851 32.9146 55.0805 32.9146 55.0805L40.2055 59.5733C41.8794 57.2323 43.3467 54.771 44.5934 52.2133C46.5202 48.1424 43.6891 44.6733 40.1079 45.4363Z" fill="white"/>
<path d="M42.8774 51.1091L39.8613 59.36L40.2056 59.5733C40.2056 59.5733 41.5826 57.6776 43.0469 55.1516L42.8774 51.1091Z" fill="#407BFF"/>
<path opacity="0.1" d="M42.8774 51.1091L39.8613 59.36L40.2056 59.5733C40.2056 59.5733 41.5826 57.6776 43.0469 55.1516L42.8774 51.1091Z" fill="black"/>
<path d="M63.6557 60.9903C63.6249 64.8764 63.3731 69.7104 62.7463 75.7101H42.5536C42.2916 72.8666 43.6583 58.905 40.1079 45.4363C42.3289 45.0394 44.5756 44.7766 46.8337 44.6496C49.6915 44.498 52.5564 44.498 55.4143 44.6496C57.3853 44.825 59.3386 45.1419 61.2563 45.5975C61.2563 45.5975 62.9827 47.3225 63.5067 55.4123C63.6095 57.0283 63.666 58.8671 63.6557 60.9903Z" fill="#407BFF"/>
<path opacity="0.1" d="M63.6557 60.9903C63.6249 64.8764 63.3731 69.7104 62.7463 75.7101H42.5536C42.2916 72.8666 43.6583 58.905 40.1079 45.4363C42.3289 45.0394 44.5756 44.7766 46.8337 44.6496C49.6915 44.498 52.5564 44.498 55.4143 44.6496C57.3853 44.825 59.3386 45.1419 61.2563 45.5975C61.2563 45.5975 62.9827 47.3225 63.5067 55.4123C63.6095 57.0283 63.666 58.8671 63.6557 60.9903Z" fill="white"/>
<path d="M63.6557 60.9902C62.4328 58.9334 60.2131 54.8056 60.5266 52.4597L63.5067 55.4359C63.6094 57.0283 63.6659 58.8671 63.6557 60.9902Z" fill="#407BFF"/>
<path opacity="0.1" d="M63.6557 60.9902C62.4328 58.9334 60.2131 54.8056 60.5266 52.4597L63.5067 55.4359C63.6094 57.0283 63.6659 58.8671 63.6557 60.9902Z" fill="black"/>
<path d="M57.2999 48.7632C56.9813 52.0806 65.1354 60.0613 65.1354 60.0613L71.6711 55.1516C69.9604 52.4865 67.9094 50.0203 65.5619 47.8058C61.7392 44.3984 57.6595 45.0476 57.2999 48.7632Z" fill="#407BFF"/>
<path opacity="0.1" d="M57.2999 48.7632C56.9813 52.0806 65.1354 60.0613 65.1354 60.0613L71.6711 55.1516C69.9604 52.4865 67.9094 50.0203 65.5619 47.8058C61.7392 44.3984 57.6595 45.0476 57.2999 48.7632Z" fill="white"/>
<path d="M60.3981 156.21L60.3827 160.361H56.6062L56.6216 156.21H60.3981Z" fill="#CE6F64"/>
<path d="M35.4834 156.21H39.2599L38.4532 160.361H34.6768L35.4834 156.21Z" fill="#CE6F64"/>
<path d="M47.4091 31.7733C47.2395 35.2376 46.9518 37.247 48.6165 39.2612C49.1461 39.9207 49.8614 40.4338 50.6848 40.7448C51.5082 41.0558 52.4083 41.1529 53.2873 41.0254C54.1663 40.8979 54.9906 40.5508 55.6708 40.0217C56.351 39.4927 56.8611 38.8018 57.1457 38.0243C58.2967 35.0481 58.384 29.8824 54.9209 28.0341C54.1848 27.6137 53.3415 27.3798 52.4761 27.356C51.6107 27.3322 50.7538 27.5194 49.9919 27.8987C49.23 28.278 48.59 28.8359 48.1365 29.5162C47.683 30.1964 47.4321 30.975 47.4091 31.7733Z" fill="#E4897B"/>
<path d="M52.2751 24.5935C49.8191 23.6456 46.7414 23.8257 46.4896 25.5413C46.1813 27.6123 44.4344 25.6787 43.9205 28.7497C43.5917 30.7591 45.4157 37.7541 48.1903 38.3655C52.3573 39.2707 54.356 34.5125 54.8338 30.4795C54.8338 30.4795 59.7613 31.9013 59.2475 28.9488C59.067 27.9399 58.6372 26.983 57.9912 26.1521C57.3452 25.3212 56.5004 24.6387 55.5223 24.1575C55.5223 24.1575 57.7317 26.6597 52.2751 24.5935Z" fill="#263238"/>
<path d="M52.2852 33.4415C52.3982 34.3079 52.8087 35.1183 53.4567 35.7542C54.3148 36.5883 55.142 36.0575 55.2396 35.0339C55.3218 34.1097 54.9776 32.5648 53.9551 32.1098C52.9326 31.6548 52.1671 32.4036 52.2852 33.4415Z" fill="#E4897B"/>
<path d="M46.8286 25.8588C46.3372 26.0063 45.8142 26.0402 45.3053 25.9576C44.7964 25.8749 44.3173 25.6783 43.9102 25.3849C43.9102 25.3849 45.0046 28.0199 46.8286 25.8588Z" fill="#263238"/>
<path d="M60.6858 22.6267C60.7218 23.6504 60.0538 24.9536 59.5195 25.7877C59.3392 26.0855 59.1256 26.365 58.8824 26.6218L43.8894 27.8635C39.0493 23.0674 44.7475 24.584 47.8612 24.0721C51.9716 23.3897 52.2131 22.3471 56.3236 21.385C59.6428 20.5983 60.6447 21.423 60.6858 22.6267Z" fill="#407BFF"/>
<path opacity="0.8" d="M60.6858 22.6267C60.7218 23.6504 60.0538 24.9536 59.5195 25.7877C59.3392 26.0855 59.1256 26.365 58.8824 26.6218L43.8894 27.8635C39.0493 23.0674 44.7475 24.584 47.8612 24.0721C51.9716 23.3897 52.2131 22.3471 56.3236 21.385C59.6428 20.5983 60.6447 21.423 60.6858 22.6267Z" fill="white"/>
<path d="M60.6655 27.7592C60.2294 27.4644 59.8109 27.148 59.4118 26.8114L59.3553 26.4086L43.6431 27.6455L43.7253 28.2379L56.7811 27.2095C58.0263 27.6187 59.3446 27.8052 60.6655 27.7592Z" fill="#407BFF"/>
<path opacity="0.1" d="M60.6655 27.7592C60.2294 27.4644 59.8109 27.148 59.4118 26.8114L59.3553 26.4086L43.6431 27.6455L43.7253 28.2379L56.7811 27.2095C58.0263 27.6187 59.3446 27.8052 60.6655 27.7592Z" fill="white"/>
<path d="M60.686 22.6267C60.7219 23.6504 60.054 24.9536 59.5196 25.7877C59.254 25.2287 59.2356 24.5961 59.4682 24.0248C59.5503 23.7247 59.7015 23.4444 59.9117 23.2031C60.1218 22.9619 60.3859 22.7652 60.686 22.6267Z" fill="#407BFF"/>
<path opacity="0.6" d="M60.686 22.6267C60.7219 23.6504 60.054 24.9536 59.5196 25.7877C59.254 25.2287 59.2356 24.5961 59.4682 24.0248C59.5503 23.7247 59.7015 23.4444 59.9117 23.2031C60.1218 22.9619 60.3859 22.7652 60.686 22.6267Z" fill="white"/>
<path d="M55.5786 75.7101C55.5786 75.7101 52.4136 102.316 50.4765 112.282C48.3596 123.182 40.2003 159.56 40.2003 159.56H33.2639C33.2639 159.56 38.1759 124.078 39.1933 113.273C40.298 101.543 42.5536 75.7101 42.5536 75.7101H55.5786Z" fill="#263238"/>
<path d="M41.182 157.21C41.2128 157.21 40.5706 159.66 40.5706 159.66H32.7966L32.848 157.475L41.182 157.21Z" fill="#407BFF"/>
<path opacity="0.3" d="M41.182 157.21C41.2128 157.21 40.5706 159.66 40.5706 159.66H32.7966L32.848 157.475L41.182 157.21Z" fill="black"/>
<path d="M53.2716 85.1885C48.3545 86.0842 49.5927 103.121 50.5536 111.884C51.725 105.69 53.3179 93.7711 54.3917 85.3117C54.044 85.1557 53.6494 85.1123 53.2716 85.1885Z" fill="#407BFF"/>
<path opacity="0.8" d="M53.2716 85.1885C48.3545 86.0842 49.5927 103.121 50.5536 111.884C51.725 105.69 53.3179 93.7711 54.3917 85.3117C54.044 85.1557 53.6494 85.1123 53.2716 85.1885Z" fill="black"/>
<path d="M62.7412 75.7101C62.7412 75.7101 64.3545 101.738 64.3853 112.358C64.4213 123.4 61.7546 159.56 61.7546 159.56H55.3577C55.3577 159.56 53.6365 124.045 52.8966 113.202C52.095 101.377 49.4695 75.7101 49.4695 75.7101H62.7412Z" fill="#263238"/>
<path d="M64.2877 72.3643L62.4945 72.497C62.2344 72.5175 61.9937 72.6322 61.8252 72.8161C61.6566 73 61.574 73.238 61.5953 73.478C61.5998 73.5406 61.6119 73.6026 61.6313 73.6628L62.3712 75.9613C62.4742 76.2685 62.7053 76.5255 63.0136 76.6756C63.3219 76.8258 63.6822 76.857 64.0154 76.7622C64.1634 76.7196 64.3025 76.6539 64.4264 76.5679C65.3527 75.7727 66.017 74.7526 66.3429 73.6249L64.2877 72.3643Z" fill="#E4897B"/>
<path d="M60.2389 155.323C60.2217 155.321 60.2059 155.313 60.1946 155.301C60.1832 155.289 60.1771 155.273 60.1772 155.257C60.8863 145.253 62.5305 121.04 62.4997 112.358C62.474 103.472 61.3282 83.5961 60.9582 77.7148C60.9575 77.7073 60.9584 77.6998 60.9609 77.6927C60.9634 77.6855 60.9673 77.6789 60.9726 77.6731C60.9778 77.6674 60.9843 77.6627 60.9915 77.6593C60.9988 77.6559 61.0067 77.6538 61.0148 77.6532C61.0316 77.6532 61.0479 77.659 61.0603 77.6695C61.0727 77.6801 61.0803 77.6946 61.0816 77.7101C61.4309 83.5914 62.5767 103.467 62.623 112.358C62.6538 121.045 61.0096 145.257 60.3006 155.267C60.3006 155.282 60.2941 155.296 60.2825 155.307C60.2709 155.317 60.2553 155.323 60.2389 155.323Z" fill="#407BFF"/>
<path opacity="0.4" d="M60.2389 155.323C60.2217 155.321 60.2059 155.313 60.1946 155.301C60.1832 155.289 60.1771 155.273 60.1772 155.257C60.8863 145.253 62.5305 121.04 62.4997 112.358C62.474 103.472 61.3282 83.5961 60.9582 77.7148C60.9575 77.7073 60.9584 77.6998 60.9609 77.6927C60.9634 77.6855 60.9673 77.6789 60.9726 77.6731C60.9778 77.6674 60.9843 77.6627 60.9915 77.6593C60.9988 77.6559 61.0067 77.6538 61.0148 77.6532C61.0316 77.6532 61.0479 77.659 61.0603 77.6695C61.0727 77.6801 61.0803 77.6946 61.0816 77.7101C61.4309 83.5914 62.5767 103.467 62.623 112.358C62.6538 121.045 61.0096 145.257 60.3006 155.267C60.3006 155.282 60.2941 155.296 60.2825 155.307C60.2709 155.317 60.2553 155.323 60.2389 155.323Z" fill="black"/>
<path d="M62.8696 157.21C62.9004 157.21 62.6127 159.66 62.6127 159.66H54.849L54.5459 157.475L62.8696 157.21Z" fill="#407BFF"/>
<path opacity="0.3" d="M62.8696 157.21C62.9004 157.21 62.6127 159.66 62.6127 159.66H54.849L54.5459 157.475L62.8696 157.21Z" fill="black"/>
</svg>
