<svg width="412" height="605" viewBox="0 0 412 605" fill="none" xmlns="http://www.w3.org/2000/svg">
<path d="M239.5 -7.52273e-06C239.91 0.659993 259.4 32.97 225.45 97.47C191.15 162.65 48.9102 142.28 48.9102 142.28C48.9102 142.28 43.1301 181.31 37.1201 222.54L37.05 223.01C31.18 264.27 25.7101 303.33 25.7101 303.33C25.7101 303.33 167.95 323.7 182.46 395.92C196.82 467.37 169.01 492.86 168.43 493.38C169.6 492.81 244.04 455.82 201.23 342.47C201.23 342.47 287.91 407.55 273.5 472.98C273.5 472.98 331.82 413.88 246.49 310.62C248.13 311.22 353.29 349.71 378.84 387.94C378.84 387.94 401.65 300.99 232.16 250.98C232.14 250.98 232.12 250.96 232.1 250.96C232.1 250.96 232.32 250.92 232.73 250.82C232.36 250.62 232.16 250.51 232.16 250.51L232.22 250.51C408.94 250.38 411.6 160.51 411.6 160.51C376.29 190 264.54 197.25 262.8 197.36C373.81 122.38 334.54 49.22 334.54 49.22C329.89 116.07 228.37 154.04 228.37 154.04C301.43 57.38 240.46 0.879993 239.5 -7.52273e-06Z" fill="url(#paint0_linear)"/>
<path d="M232.71 250.84C232.3 250.94 232.08 250.98 232.08 250.98C232.1 250.98 232.12 251 232.14 251L233.29 251.16C233.06 251.04 232.87 250.92 232.71 250.84Z" fill="url(#paint1_linear)"/>
<path d="M181.03 236.66C181.25 237.22 191.8 264.61 157.04 309.42C121.92 354.69 39.6201 327.57 39.6201 327.57C39.6201 327.57 29.9 356.68 19.7 387.45L19.58 387.8C9.49001 418.61 5.18064e-05 447.79 5.18064e-05 447.79C5.18064e-05 447.79 82.3 474.91 83.62 532.2C84.93 588.88 60.1601 604.64 59.6501 604.96C60.6201 604.68 122.67 586.45 105.25 493.81C105.25 493.81 162.82 555.42 142.9 603.59C142.9 603.59 195.59 566.23 144.23 475.55C145.4 476.23 220.74 519.98 235.12 552.74C235.12 552.74 264.39 489.23 141.34 427.92C141.33 427.92 141.31 427.9 141.29 427.9C141.29 427.9 141.46 427.9 141.79 427.88C141.53 427.68 141.4 427.56 141.4 427.56C141.4 427.56 141.44 427.56 141.45 427.57C276.84 451.44 291.06 382.97 291.06 382.97C260.02 400.75 173.44 391.15 172.09 391C267.3 348.63 247.14 287.25 247.14 287.25C234.51 337.83 151.59 353.14 151.59 353.14C220.69 289.01 181.65 237.46 181.03 236.66Z" fill="url(#paint2_linear)"/>
<path d="M98.0201 454.63C97.6901 454.6 97.5201 454.57 97.5201 454.57C97.5201 454.57 97.5501 454.59 97.5601 454.6L98.3601 455.02C98.2301 454.87 98.1101 454.73 98.0201 454.63Z" fill="url(#paint3_linear)"/>
<path d="M160.51 208.44C174.4 190.96 174.1 175.54 164.62 168.01C155.14 160.48 140.06 163.68 126.17 181.16C112.28 198.64 118.2 226.45 118.2 226.45C118.2 226.45 146.62 225.92 160.51 208.44Z" fill="#484D66"/>
<path d="M186.05 224.33C190.92 205.96 185.44 194.04 175.47 191.4C165.5 188.76 154.84 196.4 149.97 214.76C145.1 233.12 159.19 252.8 159.19 252.8C159.19 252.8 181.18 242.7 186.05 224.33Z" fill="#5C637F"/>
<path d="M203.72 190.5C183.11 196.78 169.38 191.06 165.98 179.87C162.58 168.68 170.79 156.28 191.4 150.01C212.01 143.74 234.88 158.89 234.88 158.89C234.88 158.89 224.33 184.22 203.72 190.5Z" fill="#484D66"/>
<path d="M218.04 221.15C199.52 223.11 188.8 216.01 187.74 205.97C186.68 195.93 195.67 186.74 214.19 184.77C232.71 182.8 249.65 199.4 249.65 199.4C249.65 199.4 236.56 219.18 218.04 221.15Z" fill="#5C637F"/>
<path d="M214.57 245.84C213.45 229.08 205.49 220.66 196.4 221.26C187.31 221.86 180.54 231.28 181.66 248.04C182.78 264.8 200.15 277.28 200.15 277.28C200.15 277.28 215.69 262.6 214.57 245.84Z" fill="#6E7499"/>
<path d="M236.43 219.66C221.37 217.68 212.48 223.24 211.4 231.41C210.32 239.58 217.47 247.26 232.53 249.24C247.59 251.22 261.75 238.04 261.75 238.04C261.75 238.04 251.49 221.65 236.43 219.66Z" fill="#6E7499"/>
<path d="M237.79 265.65C235.83 252.1 228.83 245.74 221.48 246.8C214.13 247.86 209.21 255.94 211.17 269.49C213.13 283.04 228.02 292.11 228.02 292.11C228.02 292.11 239.74 279.21 237.79 265.65Z" fill="#8A92B7"/>
<path d="M264.35 256.08C253.39 247.88 243.94 248.34 239.49 254.28C235.04 260.22 237.27 269.42 248.24 277.62C259.21 285.82 276.15 281.7 276.15 281.7C276.15 281.7 275.31 264.28 264.35 256.08Z" fill="#8A92B7"/>
<path d="M54.85 376.78C50.82 354.82 39.02 344.9 27.11 347.09C15.2 349.28 7.68994 362.74 11.7099 384.7C15.7299 406.66 40.5699 420.5 40.5699 420.5C40.5699 420.5 58.88 398.74 54.85 376.78Z" fill="#484D66"/>
<path d="M83.6301 367.99C73.0001 352.24 60.4201 348.53 51.8701 354.29C43.3201 360.05 42.0601 373.12 52.6801 388.87C63.3001 404.62 87.3902 406.95 87.3902 406.95C87.3902 406.95 94.2501 383.74 83.6301 367.99Z" fill="#5C637F"/>
<path d="M69.7702 332.43C60.9402 352.08 47.5901 358.66 36.9301 353.87C26.2701 349.08 22.3302 334.73 31.1602 315.08C39.9902 295.43 66.4501 288.18 66.4501 288.18C66.4501 288.18 78.6102 312.78 69.7702 332.43Z" fill="#484D66"/>
<path d="M102.27 341.81C91.57 357.05 79.17 360.45 70.9 354.64C62.63 348.83 61.6299 336.01 72.3399 320.78C83.0499 305.55 106.69 303.71 106.69 303.71C106.69 303.71 112.98 326.57 102.27 341.81Z" fill="#5C637F"/>
<path d="M118.59 360.67C105.24 350.49 93.6501 350.94 88.1201 358.19C82.5901 365.44 85.23 376.73 98.59 386.91C111.95 397.09 132.77 392.22 132.77 392.22C132.77 392.22 131.94 370.85 118.59 360.67Z" fill="#6E7499"/>
<path d="M113.25 326.99C101.85 337.03 100.19 347.39 105.64 353.57C111.09 359.75 121.57 359.43 132.97 349.39C144.37 339.35 143.76 320.01 143.76 320.01C143.76 320.01 124.66 316.95 113.25 326.99Z" fill="#6E7499"/>
<path d="M148.78 356.22C137.29 348.78 127.9 349.87 123.86 356.1C119.82 362.33 122.67 371.35 134.16 378.79C145.65 386.23 162.28 380.98 162.28 380.98C162.28 380.98 160.27 363.66 148.78 356.22Z" fill="#8A92B7"/>
<path d="M159.04 329.92C145.65 332.78 139.78 340.2 141.33 347.46C142.88 354.72 151.27 359.09 164.66 356.22C178.05 353.35 186.09 337.89 186.09 337.89C186.09 337.89 172.43 327.05 159.04 329.92Z" fill="#8A92B7"/>
<defs>
<linearGradient id="paint0_linear" x1="23.0089" y1="211.66" x2="257.244" y2="211.66" gradientUnits="userSpaceOnUse">
<stop offset="0.045" stop-color="#171543"/>
<stop offset="1" stop-color="#232C5A"/>
</linearGradient>
<linearGradient id="paint1_linear" x1="235.542" y1="211.179" x2="235.542" y2="211.417" gradientUnits="userSpaceOnUse">
<stop stop-color="#171543"/>
<stop offset="0.527" stop-color="#232C5A"/>
</linearGradient>
<linearGradient id="paint2_linear" x1="44.8233" y1="337.574" x2="349.239" y2="527.614" gradientUnits="userSpaceOnUse">
<stop stop-color="#171543"/>
<stop offset="0.527" stop-color="#232C5A"/>
</linearGradient>
<linearGradient id="paint3_linear" x1="97.9401" y1="454.571" x2="97.9401" y2="455.017" gradientUnits="userSpaceOnUse">
<stop stop-color="#171543"/>
<stop offset="1" stop-color="#232C5A"/>
</linearGradient>
</defs>
</svg>
