<svg width="723" height="481" viewBox="0 0 723 481" fill="none" xmlns="http://www.w3.org/2000/svg">
<g clip-path="url(#clip0)">
<path d="M0.816947 359.329C1.14384 349.671 -1.30848 338.248 1.00188 329.012C3.5154 319.017 15.1128 311.201 19.8754 301.93C23.4035 295.088 24.8139 285.984 25.1669 278.411C25.818 263.917 31.5692 252.27 36.6275 238.709C42.8006 222.317 44.0092 207.039 44.0092 189.805C44.0092 177.011 43.4882 164.664 46.1086 152.209C48.8253 139.283 46.7076 124.294 46.7076 111.063C46.7076 105.417 47.0254 99.6896 46.7688 94.0526C46.4784 87.6646 42.7472 81.2844 44.1225 74.9614C45.3831 69.1139 51.0809 64.2307 52.2452 58.0909C53.5775 51.0506 52.184 42.3509 52.1306 35.1949C52.0694 28.3274 53.2688 23.9444 54.8473 17.433L54.5386 13.5698C54.7138 12.2202 55.2947 10.9553 56.2046 9.94167C57.1145 8.928 58.3109 8.21315 59.636 7.89125C60.1127 7.25582 63.0052 2.70784 62.996 2.71566C65.3064 0.669056 63.3399 -0.874706 68.3357 0.561176C71.5108 1.47075 73.0241 6.33846 73.6271 8.87755C75.4503 16.4052 73.7235 25.913 73.7326 33.6395C73.7326 48.3061 76.8816 62.097 79.1386 76.3453C79.9591 81.5612 81.785 85.7544 81.8996 91.2679C82.0298 98.8943 81.979 106.601 81.8462 114.23C81.7224 121.221 83.5666 125.092 86.644 131.3C89.836 137.738 89.9871 143.178 89.9428 150.119C89.9428 154.849 88.8046 160.85 90.3335 165.364C91.6359 169.227 95.1314 169.615 96.56 172.611C98.4029 176.465 98.0773 179.949 98.033 184.48C97.9796 190.134 96.7892 197.282 97.9027 202.729C99.084 208.506 100.795 211.742 100.751 217.851C100.662 229.613 99.3575 242.051 102.797 253.12C104.015 257.049 104.34 259.724 106.148 263.495C107.691 266.681 108.492 267.449 109.526 270.923C111.96 279.177 115.841 277.32 122.491 281.497C130.261 286.375 124.661 293.622 130.287 298.921C134.697 303.114 145.924 302.082 151.665 301.026C152.767 297.278 151.295 293.498 152.282 289.8C153.247 287.158 154.533 284.645 156.11 282.314C157.794 279.416 161.013 276.537 162.361 273.59C164.063 269.892 164.354 264.833 165.597 260.887C167.63 254.318 168.525 247.451 168.244 240.582C168.147 233.071 170.933 226.748 170.96 218.998C170.96 212.123 168.147 206.922 168.244 200.121C168.219 193.604 169.253 187.126 171.304 180.939C173.703 173.461 173.779 166.758 173.685 158.967C173.641 155.069 172.918 151.612 175.132 148.238C178.192 143.582 182.188 142.328 184.248 136.803C185.412 133.715 184.019 131.297 188.429 130.504C193.809 129.547 195.008 134.895 195.485 138.758C196.42 146.278 195.291 154.597 195.291 162.2V182.315C195.291 190.242 193.607 200.177 195.838 207.784C198.218 215.898 203.572 220.313 203.423 229.244C203.247 239.042 202.471 243.507 208.714 251.249C219.236 264.243 219.561 276.836 219.579 292.441C219.579 296.435 218.812 300.887 219.385 304.822C220.1 309.774 224.386 312.952 225.17 317.863C225.797 321.783 223.557 323.682 228.098 326.24C230.065 327.346 238.743 327.634 241.239 326.859C249.74 324.234 246.125 313.413 246.53 306.389C246.741 302.856 248.293 300.671 249.061 297.31C250.102 292.786 248.31 288.115 249.757 283.699C255.137 284.888 254.017 291.252 256.178 294.933C259.22 300.092 265.641 303.946 267.749 309.592C268.464 311.515 267.705 314.057 268.631 315.93C269.849 318.324 273.403 319.876 274.804 322.534C276.974 326.595 276.216 330.285 276.224 334.783C276.224 340.63 275.774 343.194 282.23 344.457C286.736 345.331 291.931 346.388 296.544 346.934C307.197 348.271 317.049 345.539 322.676 356.707C330.922 356.837 339.239 350.103 345.508 345.695C350.103 342.447 352.864 340.074 354.16 334.75C355.368 329.732 353.769 325.299 356.197 320.495C360.059 312.86 367.864 306.612 370.307 298.21C371.489 294.149 370.651 290.015 370.749 285.888C370.873 280.56 373.174 276.173 373.614 271.03C374.276 263.387 373.862 255.347 376.057 248.068C377.477 243.33 382.733 240.738 385.256 236.132C387.363 232.278 387.664 226.368 393.82 228.184C406.843 232.013 399.029 266.804 402.534 276.585C407.743 291.12 407.402 312.226 422.731 321.675C426.991 324.3 431.929 326.627 436.295 329.203C440.003 331.424 443.829 333.444 447.755 335.253C454.617 338.2 469.374 343.507 472.123 336.714C507.401 250.041 512.693 336.714 532.977 336.714C541.144 336.714 547.433 335.946 554.39 339.24C562.595 343.128 572.214 341.716 581.421 341.766C592.004 341.815 601.539 339.289 611.936 339.289C616.134 339.289 619.874 338.521 623.527 340.626C625.211 341.601 625.481 343.103 626.738 344.332C630.177 347.799 631.65 347.279 635.653 349.87C638.838 351.934 641.209 355.848 643.671 358.545C646.783 361.978 650.834 363.977 654.059 367.097C660.815 373.625 666.23 383.366 676.108 386.907C683.322 389.465 691.4 387.08 699.039 389.854C706.905 392.693 719.323 395.326 721.899 404.01C722.886 407.312 723.83 462.654 721.66 465.395C717.797 470.298 700.238 470.884 694.364 470.827C667.906 470.595 641.449 470.827 614.99 470.827C604.452 470.827 592.483 469.366 582.041 470.697C568.389 472.438 555.725 478.604 541.684 478.463C528.102 478.323 514.503 478.397 500.921 478.406C492.436 478.406 483.688 477.778 475.239 478.276C465.537 478.838 456.498 481.099 446.62 480.992C434.272 480.862 421.978 480.943 409.658 480.935C392.68 480.935 377.538 478.649 360.79 476.155C350.789 474.67 340.832 472.854 330.805 471.327C320.998 469.857 310.979 471.219 301.101 470.947C289.883 470.642 279.449 468.19 268.161 468.265C259.615 468.323 250.963 468.694 242.434 468.423C221.003 467.738 200.305 463.207 178.724 463.239C161.852 463.239 144.963 463.379 128.1 463.173C119.722 463.074 112.226 465.542 104.024 465.855C96.1303 466.16 88.1495 465.764 80.2117 465.764C68.2523 465.764 55.7381 466.754 43.8138 465.872C29.5271 464.815 18.8206 411.908 9.16237 403.011C5.38688 399.221 0.518711 367.207 0.816947 359.329Z" fill="#242C5B"/>
</g>
<defs>
<clipPath id="clip0">
<rect width="723" height="481" fill="white" transform="matrix(1 0 0 -1 0 481)"/>
</clipPath>
</defs>
</svg>
