<svg width="198" height="369" viewBox="0 0 198 369" fill="none" xmlns="http://www.w3.org/2000/svg">
<path d="M114.235 119.773C111.035 97.8098 154.449 92.8808 154.203 66.2218C153.957 39.5628 165.554 25.0078 165.554 25.0078C137.923 33.4018 131.254 68.9328 131.254 68.9328C105.348 89.4168 111.263 108.408 111.754 109.655L114.235 119.773Z" fill="#242C5B"/>
<path d="M105.464 91.1C107.189 68.978 63.525 66.963 61.988 40.361C60.451 13.759 47.897 0 47.897 0C76.035 6.509 85.067 41.519 85.067 41.519C112.292 60.205 107.667 79.573 107.247 80.834L105.464 91.1Z" fill="#242C5B"/>
<path d="M118.222 149.042C113.684 127.311 71.2091 137.618 62.2641 112.51C53.3191 87.402 37.4312 77.718 37.4312 77.718C66.2652 76.094 84.7491 107.161 84.7491 107.161C116.12 117.483 117.091 137.361 117.062 138.692L118.222 149.042Z" fill="#242C5B"/>
<path d="M121.149 213.524C118.858 191.445 75.5418 197.36 69.2208 171.469C62.8998 145.578 48.0708 134.328 48.0708 134.328C76.9198 135.662 92.1268 168.453 92.1268 168.453C122.28 181.921 121.227 201.796 121.048 203.115L121.149 213.524Z" fill="#242C5B"/>
<path d="M114.365 273.729C112.075 251.65 68.7581 257.565 62.4371 231.674C56.1161 205.783 41.2871 194.533 41.2871 194.533C70.1361 195.867 85.3431 228.659 85.3431 228.659C115.496 242.127 114.443 262.002 114.264 263.321L114.365 273.729Z" fill="#242C5B"/>
<path d="M91.3012 330.383C93.9102 308.348 50.3622 304.583 49.9012 277.933C49.4402 251.283 37.4482 237.052 37.4482 237.052C65.2942 244.692 72.9192 280.032 72.9192 280.032C99.3762 299.806 93.9682 318.956 93.5052 320.203L91.3012 330.383Z" fill="#242C5B"/>
<path d="M86.879 362.464C80.399 341.241 39.025 355.332 27.863 331.122C16.701 306.912 0 298.707 0 298.707C28.573 294.488 49.767 323.772 49.767 323.772C81.935 331.223 84.704 350.939 84.777 352.258L86.879 362.464Z" fill="#242C5B"/>
<path d="M86.4302 360.495C97.3902 341.185 134.69 363.96 150.854 342.78C167.018 321.6 185.11 317.222 185.11 317.222C158.146 306.871 131.066 330.835 131.066 330.835C98.0422 331.096 91.0552 349.724 90.6782 351L86.4302 360.495Z" fill="#242C5B"/>
<path d="M98.23 313.61C104.71 292.387 146.084 306.478 157.247 282.268C168.41 258.058 185.11 249.853 185.11 249.853C156.537 245.634 135.328 274.918 135.328 274.918C103.159 282.374 100.39 302.074 100.303 303.404L98.23 313.61Z" fill="#242C5B"/>
<path d="M119.715 252.622C122.31 230.587 165.525 237.067 172.193 211.263C178.861 185.459 193.837 174.397 193.837 174.397C164.974 175.339 149.332 207.928 149.332 207.928C119.005 220.99 119.802 240.879 119.947 242.199L119.715 252.622Z" fill="#242C5B"/>
<path d="M123.426 176.383C126.021 154.348 169.236 160.828 175.904 135.024C182.572 109.22 197.548 98.1589 197.548 98.1589C168.685 99.1009 153.043 131.69 153.043 131.69C122.716 144.752 123.513 164.641 123.658 165.961L123.426 176.383Z" fill="#242C5B"/>
<path d="M85.3722 368.191H89.8082C88.6922 368.191 82.0382 344.503 103.131 309.711C124.224 274.919 133.473 194.316 115.526 116.555L105.204 83.937L97.5792 74.688C97.5792 74.688 107.944 92.088 107.205 108.364C107.205 108.364 118.672 119.464 119.049 208.664C119.426 297.864 83.1542 307.855 85.3722 368.191Z" fill="#242C5B"/>
</svg>
