<svg width="311" height="333" viewBox="0 0 311 333" fill="none" xmlns="http://www.w3.org/2000/svg">
<path d="M87.2995 48.4847C75.3124 74.0133 97.9305 109.621 119.081 135.061C106.548 126.956 77.3562 106.854 66.0407 88.336C51.4222 64.4493 44.9717 76.5467 44.9717 76.5467C43.343 103.113 73.6388 126.644 101.452 142.492C84.7593 137.87 60.6414 129.818 47.3391 118.989C25.6599 101.315 23.5556 114.845 23.5556 114.845C30.7486 140.174 66.4747 152.347 97.7471 158.178C85.5607 160.511 46.6073 167.102 24.0433 160.888C-2.92696 153.453 0.625557 166.678 0.625557 166.678C15.4705 184.631 46.5657 184.163 74.9755 178.79C50.515 188.541 28.0287 203.056 24.6163 223.849C24.6163 223.849 28.2337 237.07 47.7717 217.03C61.182 203.262 88.5815 191.35 104.383 185.268C78.8374 204.177 52.1392 230.685 56.755 256.574C56.755 256.574 64.5468 267.832 76.3151 242.454C85.058 223.646 109.784 201.516 122.039 191.331C104.092 218.947 86.169 256.429 100.872 280.22C100.872 280.22 112.263 287.801 113.86 259.875C114.573 247.013 120.577 230.68 126.858 216.801C122.393 235.817 122.075 254.799 132.806 266.341C132.806 266.341 143.471 270.738 140.203 247.386C136.935 224.035 151.573 183.037 151.573 183.037L152.765 170.22L151.696 151.59L149.045 138.993C149.045 138.993 129.814 99.9455 130.389 76.3668C130.962 52.7652 120.871 58.3575 120.871 58.3575C111.254 71.43 114.169 90.9951 121.225 109.898C113.132 96.5477 104.83 80.3517 102.533 67.2127C97.7702 39.6272 87.2995 48.4847 87.2995 48.4847ZM144.165 161.092L144.123 161.139L144.024 161.009L144.165 161.092ZM145.665 163.501C145.604 163.478 145.543 163.459 145.48 163.443L145.619 163.435C145.685 163.449 145.753 163.453 145.82 163.447L145.92 163.6C145.92 163.6 145.851 163.581 145.688 163.522C145.688 163.52 145.687 163.517 145.686 163.514C145.685 163.512 145.683 163.509 145.681 163.507C145.679 163.505 145.676 163.504 145.673 163.503C145.671 163.502 145.668 163.502 145.665 163.502L145.665 163.501ZM147.568 163.505L147.587 163.436L147.659 163.5L147.614 163.502C147.594 163.548 147.573 163.573 147.553 163.619L147.568 163.505ZM146.772 157.947L146.799 158.014L146.752 157.971C146.755 157.972 146.758 157.971 146.761 157.97C146.764 157.969 146.767 157.967 146.769 157.965C146.771 157.963 146.773 157.96 146.774 157.957C146.775 157.954 146.776 157.951 146.775 157.948L146.772 157.947Z" fill="#6871C3"/>
<path d="M65.5277 241.615C92.4485 248.185 121.727 218.832 141.596 192.975C136.484 206.886 123.408 239.537 108.088 254.364C88.33 273.512 101.249 277.379 101.249 277.379C126.983 273.597 143.105 239.171 152.405 208.731C151.497 226.01 148.871 251.254 141.318 266.471C128.983 291.274 142.357 290.596 142.357 290.596C165.055 278.426 169.179 240.983 168.177 209.184C172.969 220.643 187.458 257.449 186.264 280.799C184.828 308.711 196.721 302.555 196.721 302.555C210.76 284.387 203.775 254.036 192.665 227.307C207.129 249.283 225.73 268.362 246.321 267.494C246.321 267.494 258.198 261.276 234.935 246.203C218.956 235.859 201.81 211.443 192.674 197.203C216.119 218.388 247.069 239.163 270.843 229.403C270.843 229.403 279.966 219.496 253.234 213.11C233.419 208.357 207.069 188.627 194.757 178.688C224.926 190.671 264.52 200.633 284.168 181.422C284.168 181.422 289.019 168.734 261.992 172.823C249.548 174.728 232.675 172.155 218.088 168.815C237.203 169.338 255.413 165.808 264.189 152.964C264.189 152.964 266.149 141.632 244.517 149.559C222.885 157.485 180.621 151.451 180.621 151.451L168.119 152.877L150.537 157.695L139.054 162.84C139.054 162.84 105.776 189.574 83.1181 193.783C60.4389 197.998 67.9058 206.747 67.9058 206.747C82.4224 213.517 100.51 206.703 117.094 195.969C106.035 206.595 92.3006 218.001 80.2251 222.909C54.8602 233.156 65.5277 241.615 65.5277 241.615ZM161.202 163.145L161.257 163.177L161.153 163.3L161.202 163.145ZM163.19 161.19C163.18 161.253 163.175 161.318 163.173 161.382L163.137 161.248C163.136 161.18 163.125 161.113 163.105 161.049L163.231 160.92C163.231 160.92 163.227 160.991 163.205 161.162C163.203 161.163 163.2 161.165 163.198 161.166C163.196 161.168 163.194 161.17 163.193 161.173C163.191 161.175 163.19 161.178 163.19 161.181C163.19 161.184 163.19 161.187 163.191 161.189L163.19 161.19ZM162.793 159.325L162.723 159.321L162.769 159.237L162.781 159.281C162.83 159.291 162.857 159.307 162.906 159.317L162.793 159.325ZM157.649 161.229L157.707 161.189L157.676 161.245C157.676 161.241 157.675 161.238 157.673 161.236C157.671 161.233 157.669 161.231 157.666 161.229C157.664 161.227 157.661 161.226 157.658 161.226C157.655 161.225 157.652 161.225 157.649 161.226L157.649 161.229Z" fill="#6871C3"/>
<path d="M291.105 135.896C269.299 118.01 229.229 131.197 199.376 145.457C210.31 135.297 236.961 111.931 257.69 105.507C284.434 97.1976 274.289 87.9754 274.289 87.9754C248.935 79.8766 218.689 103.471 196.499 126.543C205.077 111.496 218.802 90.0919 232.564 79.8541C255.018 63.1756 242.419 57.8151 242.419 57.8151C216.099 58.5716 195.53 90.2174 182.202 119.102C182.931 106.716 186.102 67.3366 197.664 46.9876C211.49 22.6669 197.798 22.865 197.798 22.865C176.751 32.8498 169.573 63.109 167.81 91.9687C164.36 65.8631 155.807 40.5021 136.488 32.091C136.488 32.091 122.783 32.353 137.415 56.2117C147.471 72.5908 152.294 102.076 154.313 118.887C142.251 89.4817 123.106 57.0943 96.8757 55.2152C96.8757 55.2152 84.0496 60.0056 105.764 77.6426C121.851 90.734 137.236 120.135 144.101 134.515C121.735 110.339 89.7977 83.7652 63.1261 92.1798C63.1261 92.1798 52.9815 101.362 79.6609 109.763C91.9544 113.612 106.314 123.441 118.228 132.936C100.889 123.94 82.5655 118.973 68.7425 126.544C68.7425 126.544 61.8634 135.803 85.3025 138.366C108.742 140.928 144.893 165.181 144.893 165.181L157.026 169.483L175.349 173.018L188.211 173.54C188.211 173.54 230.784 164.48 253.5 170.824C276.239 177.173 273.295 166.018 273.295 166.018C262.982 153.487 243.3 151.51 223.244 153.711C238.172 149.142 255.91 145.069 269.211 146.067C297.122 148.22 291.105 135.896 291.105 135.896ZM167.985 163.386L167.95 163.333L168.101 163.27L167.985 163.386ZM165.282 164.248C165.319 164.195 165.353 164.14 165.383 164.083L165.357 164.22C165.327 164.281 165.307 164.345 165.296 164.412L165.123 164.471C165.123 164.471 165.158 164.409 165.255 164.265C165.258 164.266 165.261 164.266 165.264 164.265C165.267 164.265 165.269 164.264 165.272 164.262C165.274 164.26 165.276 164.258 165.278 164.256C165.279 164.254 165.281 164.251 165.281 164.248L165.282 164.248ZM164.811 166.092L164.874 166.128L164.794 166.182L164.802 166.137C164.763 166.106 164.744 166.08 164.704 166.049L164.811 166.092ZM170.394 166.685L170.323 166.695L170.376 166.659C170.375 166.662 170.374 166.665 170.375 166.668C170.375 166.671 170.376 166.674 170.377 166.677C170.379 166.68 170.381 166.682 170.384 166.684C170.386 166.686 170.389 166.687 170.392 166.688L170.394 166.685Z" fill="#6871C3"/>
</svg>
