<?xml version="1.0" encoding="utf-8"?>
<svg id="master-artboard" viewBox="0 0 268.66204833984375 481.3272399902344" version="1.1" xmlns="http://www.w3.org/2000/svg" x="0px" y="0px" width="268.66204833984375px" height="481.3272399902344px" enable-background="new 0 0 1400 980"><rect id="ee-background" x="0" y="0" width="268.66204833984375" height="481.3272399902344" style="fill: white; fill-opacity: 0; pointer-events: none;"/><defs><clipPath id="_clipPath_uiO6z8H9NNUV2K3j494tJlFZ4YNYabNH"><path d="M 0 0 H 1920 V 1080 H 0 V 0 Z"/></clipPath></defs>
<path d="M 0 0 H 1400 V 980 H 0 V 0 Z" fill-rule="evenodd" clip-rule="evenodd" fill="#FFFFFF" transform="matrix(0.9999999999999999, 0, 0, 0.9999999999999999, -2.842170943040401e-14, 0)"/>








<g transform="matrix(0.7291666865348815, 0, 0, 0.7291666865348815, -219.63704800963956, -213.17579865336234)"><g clip-path="url(#_clipPath_uiO6z8H9NNUV2K3j494tJlFZ4YNYabNH)"><path d=" M 474.288 416 Q 558 606.682 501.288 728 C 475.421 783.333 448.431 886.343 474.288 915" fill="rgb(255,255,255)" vector-effect="non-scaling-stroke" stroke-width="4" stroke="rgb(0,0,0)" stroke-linejoin="miter" stroke-linecap="square" stroke-miterlimit="3"/><path d=" M 494 446.798 Q 474.334 438.969 466.203 431.051 Q 457.372 422.452 449 401 Q 444.929 331.07 427.892 306.038 C 410.856 281.006 476.203 345.419 471.03 360.875 C 465.857 376.331 483.086 458.877 494 446.798 Z " fill="rgb(37,37,91)" vector-effect="non-scaling-stroke" stroke-width="3" stroke="rgb(0,0,0)" stroke-linejoin="miter" stroke-linecap="square" stroke-miterlimit="3"/><path d=" M 508.758 498.461 Q 484.791 505.763 471.459 503.814 Q 453.734 501.223 428.225 478.8 Q 399.185 431.529 371.377 419.704 C 343.57 407.878 432.963 426.787 437.118 442.493 C 441.273 458.2 506.306 514.418 508.758 498.461 Z " fill="rgb(37,37,91)" vector-effect="non-scaling-stroke" stroke-width="3" stroke="rgb(0,0,0)" stroke-linejoin="miter" stroke-linecap="square" stroke-miterlimit="3"/><path d=" M 512.095 517.632 Q 500.994 494.875 500.804 481.334 Q 500.552 463.333 518.803 434.686 Q 561.23 398.887 568.562 369.509 C 575.893 340.13 571.35 431.775 556.375 438.207 C 541.399 444.64 495.815 517.533 512.095 517.632 Z " fill="rgb(37,37,91)" vector-effect="non-scaling-stroke" stroke-width="3" stroke="rgb(0,0,0)" stroke-linejoin="miter" stroke-linecap="square" stroke-miterlimit="3"/><path d=" M 517.807 543.644 Q 499.331 560.957 486.447 565.129 Q 469.319 570.674 436.567 561.674 Q 389.855 531.68 359.621 533.331 C 329.387 534.982 418.301 512.319 428.861 524.734 C 439.42 537.149 522.509 559.23 517.807 543.644 Z " fill="rgb(37,37,91)" vector-effect="non-scaling-stroke" stroke-width="3" stroke="rgb(0,0,0)" stroke-linejoin="miter" stroke-linecap="square" stroke-miterlimit="3"/><path d=" M 574.037 461.146 Q 586.423 483.229 587.388 496.737 Q 588.671 514.694 572.091 544.339 Q 531.784 582.51 526.148 612.26 C 520.512 642.011 519.797 550.256 534.38 542.977 C 548.962 535.697 590.295 460.312 574.037 461.146 Z " fill="rgb(37,37,91)" vector-effect="non-scaling-stroke" stroke-width="2" stroke="rgb(0,0,0)" stroke-linejoin="miter" stroke-linecap="square" stroke-miterlimit="3"/><path d=" M 474.805 873.509 Q 457.666 892.146 445.127 897.263 Q 428.459 904.065 395.128 897.521 Q 346.319 871.077 316.29 874.968 C 286.262 878.86 373.248 849.658 384.701 861.255 C 396.153 872.852 480.652 888.703 474.805 873.509 Z " fill="rgb(37,37,91)" vector-effect="non-scaling-stroke" stroke-width="2" stroke="rgb(0,0,0)" stroke-linejoin="miter" stroke-linecap="square" stroke-miterlimit="3"/><path d=" M 521.708 618.177 Q 509.513 640.366 498.558 648.328 Q 483.995 658.912 450.066 660.514 Q 396.355 646.486 368.124 657.432 C 339.892 668.379 417.393 619.257 431.283 627.785 C 445.172 636.313 531.012 631.536 521.708 618.177 Z " fill="rgb(37,37,91)" vector-effect="non-scaling-stroke" stroke-width="2" stroke="rgb(0,0,0)" stroke-linejoin="miter" stroke-linecap="square" stroke-miterlimit="3"/><path d=" M 492.818 786.538 Q 481.428 809.152 470.767 817.502 Q 456.593 828.603 422.744 831.422 Q 368.564 819.333 340.744 831.287 C 312.924 843.241 388.61 791.366 402.797 799.389 C 416.983 807.413 502.597 799.554 492.818 786.538 Z " fill="rgb(37,37,91)" vector-effect="non-scaling-stroke" stroke-width="2" stroke="rgb(0,0,0)" stroke-linejoin="miter" stroke-linecap="square" stroke-miterlimit="3"/><path d=" M 598.429 783.223 Q 595.213 808.338 587.937 819.76 Q 578.264 834.944 547.282 848.866 Q 492.166 855.493 469.909 876.022 C 447.652 896.551 501.765 822.449 517.813 825.295 C 533.861 828.141 611.981 792.244 598.429 783.223 Z " fill="rgb(37,37,91)" vector-effect="non-scaling-stroke" stroke-width="2" stroke="rgb(0,0,0)" stroke-linejoin="miter" stroke-linecap="square" stroke-miterlimit="3"/><path d=" M 508.191 706.349 Q 494.443 727.612 482.949 734.771 Q 467.667 744.29 433.71 743.466 Q 381.138 725.641 352.197 734.545 C 323.257 743.449 404.065 699.983 417.311 709.48 C 430.556 718.978 516.518 720.338 508.191 706.349 Z " fill="rgb(37,37,91)" vector-effect="non-scaling-stroke" stroke-width="2" stroke="rgb(0,0,0)" stroke-linejoin="miter" stroke-linecap="square" stroke-miterlimit="3"/><path d=" M 582.321 690.986 Q 584.573 716.206 579.92 728.924 Q 573.735 745.831 546.465 766.082 Q 494.059 784.392 476.731 809.222 C 459.402 834.053 496.337 750.058 512.622 749.391 C 528.907 748.724 597.494 696.886 582.321 690.986 Z " fill="rgb(37,37,91)" vector-effect="non-scaling-stroke" stroke-width="2" stroke="rgb(0,0,0)" stroke-linejoin="miter" stroke-linecap="square" stroke-miterlimit="3"/><path d=" M 639.181 583.529 Q 638.966 608.582 633.111 620.718 Q 625.328 636.852 596.29 654.468 Q 542.489 668.009 522.875 690.994 C 503.26 713.98 548.088 634.361 564.318 635.104 C 580.548 635.847 653.67 590.649 639.181 583.529 Z " fill="rgb(37,37,91)" vector-effect="non-scaling-stroke" stroke-width="3" stroke="rgb(0,0,0)" stroke-linejoin="miter" stroke-linecap="square" stroke-miterlimit="3"/></g></g></svg>