<svg width="50" height="61" viewBox="0 0 50 61" fill="none" xmlns="http://www.w3.org/2000/svg">
<path d="M30 48.2917H20C19.31 48.2917 18.75 48.861 18.75 49.5625C18.75 50.264 19.31 50.8333 20 50.8333H30C30.69 50.8333 31.25 50.264 31.25 49.5625C31.25 48.861 30.69 48.2917 30 48.2917ZM30 53.375H20C19.31 53.375 18.75 53.9443 18.75 54.6458C18.75 55.3473 19.31 55.9167 20 55.9167H30C30.69 55.9167 31.25 55.3473 31.25 54.6458C31.25 53.9443 30.69 53.375 30 53.375ZM30.625 58.4583H19.375L22.345 60.4459C22.73 60.7967 23.295 61 23.8825 61H26.12C26.705 61 27.2725 60.7967 27.6575 60.4459L30.625 58.4583ZM40 23.3859C40 32.4571 31.965 38.5927 31.965 45.75H26.9925C26.985 41.0276 29.1675 37.1363 31.295 33.3797C33.1975 30.012 35 26.8298 35 23.3859C35 16.7979 29.8125 13.7987 24.9925 13.7987C20.18 13.7987 15 16.7979 15 23.3859C15 26.8298 16.8025 30.012 18.705 33.3797C20.8325 37.1363 23.0175 41.0276 23.005 45.75H18.035C18.035 38.5927 10 32.4571 10 23.3859C10 13.9233 17.495 8.71538 24.9925 8.71538C32.495 8.71538 40 13.9283 40 23.3859ZM50 21.6296V25.1168H43.655C43.705 24.55 43.75 23.9781 43.75 23.3859C43.75 22.7835 43.7075 22.2065 43.6625 21.6321H50V21.6296ZM23.38 4.97404V0H26.8075V4.99183C26.2025 4.93592 25.5975 4.90288 24.9925 4.90288C24.455 4.90288 23.9175 4.92829 23.38 4.97404ZM14.0225 8.26296L11.4225 3.33213L14.4425 1.68513L17.035 6.59817C15.99 7.05821 14.98 7.61738 14.0225 8.26296V8.26296ZM40.4875 12.6728L45.3425 9.12967L47.34 11.9636L42.205 15.7075C41.7275 14.6146 41.1475 13.6055 40.4875 12.6728ZM32.9625 6.60071L35.5575 1.68513L38.5775 3.33213L35.975 8.2655C35.02 7.61992 34.01 7.06329 32.9625 6.60071V6.60071ZM7.7925 15.7075L2.6575 11.9662L4.655 9.13221L9.51 12.6728C8.85 13.603 8.2725 14.612 7.7925 15.7075ZM42.06 31.5243L47.945 33.949L46.66 37.1795L40.5975 34.6836C41.1225 33.6745 41.6175 32.6198 42.06 31.5243V31.5243ZM9.29 34.4599L3.4 37.1541L1.995 33.9745L7.845 31.3006C8.2775 32.4012 8.7725 33.4483 9.29 34.4599V34.4599ZM6.345 25.1168H0V21.6296H6.3375C6.2925 22.204 6.25 22.7835 6.25 23.3859C6.25 23.9781 6.295 24.55 6.345 25.1168V25.1168Z" fill="#EAE33D"/>
</svg>
