<svg width="208" height="208" viewBox="0 0 208 208" fill="none" xmlns="http://www.w3.org/2000/svg">
<circle opacity="0.32" cx="104" cy="105" r="77" fill="#3FDCFE"/>
<path d="M112.2 127.75H98.8C97.8754 127.75 97.125 128.478 97.125 129.375C97.125 130.272 97.8754 131 98.8 131H112.2C113.125 131 113.875 130.272 113.875 129.375C113.875 128.478 113.125 127.75 112.2 127.75ZM112.2 134.25H98.8C97.8754 134.25 97.125 134.978 97.125 135.875C97.125 136.772 97.8754 137.5 98.8 137.5H112.2C113.125 137.5 113.875 136.772 113.875 135.875C113.875 134.978 113.125 134.25 112.2 134.25ZM113.037 140.75H97.9625L101.942 143.291C102.458 143.74 103.215 144 104.003 144H107.001C107.785 144 108.545 143.74 109.061 143.291L113.037 140.75ZM125.6 95.9033C125.6 107.503 114.833 115.348 114.833 124.5H108.17C108.16 118.461 111.084 113.486 113.935 108.682C116.485 104.376 118.9 100.307 118.9 95.9033C118.9 87.4792 111.949 83.6442 105.49 83.6442C99.0412 83.6442 92.1 87.4792 92.1 95.9033C92.1 100.307 94.5154 104.376 97.0647 108.682C99.9156 113.486 102.843 118.461 102.827 124.5H96.1669C96.1669 115.348 85.4 107.503 85.4 95.9033C85.4 83.8035 95.4433 77.1442 105.49 77.1442C115.543 77.1442 125.6 83.81 125.6 95.9033ZM139 93.6575V98.1165H130.498C130.565 97.3918 130.625 96.6605 130.625 95.9033C130.625 95.133 130.568 94.3952 130.508 93.6607H139V93.6575ZM103.329 72.3602V66H107.922V72.383C107.111 72.3115 106.301 72.2692 105.49 72.2692C104.77 72.2692 104.049 72.3018 103.329 72.3602ZM90.7901 76.5658L87.3061 70.2607L91.3529 68.1547L94.8269 74.437C93.4266 75.0252 92.0732 75.7402 90.7901 76.5658ZM126.253 82.2045L132.759 77.674L135.436 81.2977L128.555 86.085C127.915 84.6875 127.138 83.3973 126.253 82.2045ZM116.17 74.4402L119.647 68.1547L123.694 70.2607L120.206 76.569C118.927 75.7435 117.573 75.0317 116.17 74.4402ZM82.4419 86.085L75.561 81.301L78.2377 77.6772L84.7434 82.2045C83.859 83.394 83.0851 84.6842 82.4419 86.085ZM128.36 106.31L136.246 109.41L134.524 113.541L126.401 110.349C127.104 109.059 127.767 107.71 128.36 106.31ZM84.4486 110.063L76.556 113.508L74.6733 109.443L82.5123 106.024C83.0918 107.431 83.7551 108.77 84.4486 110.063ZM80.5023 98.1165H72V93.6575H80.4922C80.4319 94.392 80.375 95.133 80.375 95.9033C80.375 96.6605 80.4353 97.3918 80.5023 98.1165Z" fill="#EAE33D"/>
<circle opacity="0.32" cx="104" cy="104" r="104" fill="#3FDCFE"/>
</svg>
