<svg width="48" height="68" viewBox="0 0 48 68" fill="none" xmlns="http://www.w3.org/2000/svg">
<g clip-path="url(#clip0)">
<path d="M23.557 0C17.3115 0.00714605 11.3238 2.49133 6.90758 6.90758C2.49133 11.3238 0.00714605 17.3115 0 23.557C0 39.883 23.58 67.771 23.58 67.771C23.58 67.771 47.113 39.08 47.113 23.557C47.1061 17.3116 44.6222 11.3239 40.2061 6.90764C35.79 2.49136 29.8024 0.00714655 23.557 0V0ZM30.665 30.454C29.2592 31.8599 27.4681 32.8173 25.5182 33.2053C23.5683 33.5932 21.5471 33.3942 19.7103 32.6334C17.8735 31.8726 16.3035 30.5843 15.199 28.9312C14.0944 27.2781 13.5048 25.3346 13.5048 23.3465C13.5048 21.3584 14.0944 19.4149 15.199 17.7618C16.3035 16.1087 17.8735 14.8204 19.7103 14.0596C21.5471 13.2988 23.5683 13.0998 25.5182 13.4877C27.4681 13.8757 29.2592 14.8331 30.665 16.239C31.602 17.1704 32.3455 18.2778 32.8528 19.4977C33.3602 20.7175 33.6213 22.0256 33.6212 23.3467C33.6211 24.6678 33.3598 25.9759 32.8523 27.1956C32.3448 28.4154 31.6011 29.5227 30.664 30.454H30.665Z" fill="#F5D26A"/>
</g>
<defs>
<clipPath id="clip0">
<rect width="47.113" height="67.771" fill="white"/>
</clipPath>
</defs>
</svg>
