<svg width="1355" height="422" viewBox="0 0 1355 422" fill="none" xmlns="http://www.w3.org/2000/svg">
<path d="M1309.07 54.2726C1308.07 51.8726 1306.77 49.7726 1305.97 47.2726C1305.27 45.1726 1305.27 43.0727 1304.67 40.9727C1304.37 39.8727 1303.87 39.2727 1303.37 38.3727C1302.37 36.7727 1301.87 35.7727 1302.07 34.0727C1302.17 33.4727 1302.17 32.8727 1302.17 32.3727C1301.87 30.3727 1300.27 29.0727 1299.57 27.1727C1298.97 25.2727 1298.77 23.0727 1298.47 21.0727C1297.67 16.0727 1296.77 10.9727 1296.17 5.97266C1296.07 5.27266 1295.07 4.97266 1294.67 5.47266C1291.37 9.57266 1288.67 14.1727 1286.97 19.1727C1285.57 23.3727 1285.47 30.2727 1281.87 33.3727C1281.27 30.9727 1279.87 28.6727 1279.37 26.0727C1278.97 24.1727 1279.17 22.3727 1278.17 20.6727C1276.97 18.6727 1276.57 17.0727 1275.97 14.8727C1275.17 11.5727 1271.37 9.57269 1268.87 7.57269C1265.77 5.07269 1264.77 4.27268 1262.27 6.37268C1261.67 6.87268 1260.97 7.27267 1260.27 7.67267C1259.07 7.57267 1257.77 7.47268 1256.57 7.37268C1257.57 6.27268 1258.47 5.07268 1259.07 3.87268C1259.47 3.17268 1258.47 2.17268 1257.87 2.87268C1256.47 4.47268 1254.97 5.97267 1253.27 7.17267C1254.47 5.27267 1255.47 3.37266 1256.17 1.47266C1256.37 0.772657 1255.47 0.372657 1255.07 0.972657C1253.67 3.37266 1251.97 5.57269 1250.07 7.57269L1248.37 7.77264C1249.77 6.17264 1250.87 4.37266 1251.37 2.47266C1251.47 1.97266 1250.97 1.67266 1250.57 1.97266C1248.77 3.47266 1247.37 5.37268 1245.57 6.87268C1244.77 7.47268 1243.97 8.07269 1243.17 8.57269C1241.57 8.87269 1240.07 9.27267 1238.47 9.67267C1241.97 6.87267 1245.37 4.07268 1248.47 0.872681C1248.87 0.472681 1248.37 -0.227307 1247.87 0.0726935C1242.27 3.27269 1237.07 7.37269 1231.87 11.0727L1231.47 11.3727C1231.57 11.2727 1231.67 11.0727 1231.87 10.9727C1234.07 8.27266 1236.67 5.97268 1238.87 3.37268C1239.17 2.97268 1238.87 2.27269 1238.27 2.57269C1234.37 4.57269 1231.07 7.97268 1228.17 11.3727C1229.87 8.97268 1231.67 6.77268 1233.47 4.37268C1233.97 3.77268 1233.07 3.17269 1232.47 3.57269C1228.57 6.37269 1224.77 10.5726 1221.77 15.2726C1221.27 15.4726 1220.77 15.6727 1220.27 15.9727C1221.97 13.0727 1223.37 10.0727 1224.47 6.97266C1224.67 6.37266 1223.77 5.87266 1223.47 6.47266C1220.97 10.1727 1218.47 13.7726 1215.67 17.2726C1214.67 18.4726 1213.47 19.6727 1212.27 20.9727C1211.97 21.2727 1211.57 21.5727 1211.27 21.8727C1211.37 21.4727 1211.47 21.1726 1211.57 20.7726C1212.87 17.0726 1215.27 14.0727 1216.87 10.5727C1217.07 10.1727 1216.57 9.77266 1216.17 9.97266C1212.67 11.8727 1210.07 16.0727 1208.47 19.6727C1207.87 20.9727 1207.27 22.4727 1206.77 23.9727C1206.57 22.5727 1206.47 21.0727 1206.27 19.6727C1206.17 18.9727 1205.27 19.1726 1205.17 19.7726C1204.57 22.5726 1204.67 25.1727 1204.97 28.0727C1205.07 28.5727 1205.07 28.9727 1205.17 29.4727C1204.57 30.7727 1204.17 32.1727 1203.87 33.6727C1202.47 37.4727 1201.47 41.4727 1200.27 45.4727C1198.87 50.4727 1197.07 55.2727 1194.97 60.0727C1193.17 64.1727 1191.67 68.1727 1188.67 71.3727C1182.37 74.9727 1175.57 77.2727 1169.17 80.9727C1168.87 81.1727 1168.97 81.6727 1169.37 81.6727C1170.97 81.4727 1172.57 81.0727 1174.27 80.6727C1172.77 81.8727 1171.17 83.1726 1169.57 84.2726C1169.17 84.5726 1169.47 85.2727 1169.97 85.1727C1170.07 85.1727 1170.27 85.0727 1170.37 85.0727C1170.47 85.1727 1170.67 85.2727 1170.87 85.1727C1177.57 83.7727 1183.77 82.9727 1190.57 83.4727C1196.77 83.9727 1202.87 85.0727 1208.97 86.0727C1215.67 87.1727 1223.27 88.4727 1230.57 88.0727C1231.67 88.9727 1232.87 89.8727 1233.87 90.8727C1234.77 91.7727 1235.47 93.1727 1236.57 93.8727C1238.67 95.2727 1242.77 94.4727 1245.27 94.5727C1249.77 94.7727 1254.37 95.2727 1258.77 96.1727C1260.27 96.4727 1261.07 94.4727 1259.57 93.9727C1254.17 92.0727 1248.67 90.2727 1243.87 87.0727C1243.27 86.6727 1242.57 86.1726 1241.97 85.7726C1242.77 85.4726 1243.47 85.0727 1244.17 84.6727C1244.57 84.4727 1244.77 84.1727 1244.87 83.8727C1247.07 83.4727 1249.17 82.9727 1251.07 82.5727C1254.17 82.0727 1257.27 81.3726 1260.27 80.2726C1262.07 80.9726 1263.97 81.5727 1265.87 81.9727C1269.67 82.7727 1273.77 82.4727 1277.67 82.1727C1283.67 81.7727 1292.47 80.5727 1295.77 74.6727C1296.17 73.8727 1296.37 73.2727 1296.47 72.3727C1296.57 71.0727 1296.57 70.3727 1297.27 69.0727C1297.47 68.7727 1297.77 68.4727 1297.87 68.1727C1298.17 67.4727 1298.37 66.7727 1298.07 65.9727C1297.47 64.2727 1296.27 64.3727 1296.57 62.1727C1297.07 59.0727 1296.37 59.0727 1293.87 56.9727C1291.07 54.5727 1289.07 51.6726 1288.17 48.2726C1289.97 49.1726 1291.87 49.9726 1293.67 50.7726C1297.87 52.6726 1302.77 55.2727 1307.37 55.6727C1307.47 55.6727 1307.57 55.6727 1307.67 55.5727C1308.87 55.2727 1309.27 54.7726 1309.07 54.2726Z" fill="#0E4F82"/>
<path d="M1337.58 258.497C1336.9 258.987 1336.22 259.476 1335.55 259.966C1338.26 260.749 1340.87 261.826 1343.39 263.099C1343.68 263.294 1343.97 263.392 1344.26 263.588C1347.84 262.217 1351.42 260.749 1355 259.182V422H0V337.997C14.0329 340.346 28.1626 341.913 42.3891 342.696C78.2941 344.654 114.586 341.717 149.717 333.885C152.233 333.297 154.749 332.71 157.266 332.122C157.943 330.556 158.814 328.989 159.491 327.814C161.04 325.269 162.879 323.115 165.008 321.157C162.976 306.863 159.104 293.254 154.265 279.743C152.427 280.624 149.91 279.938 149.233 277.491C146.136 267.211 140.426 260.847 131.522 255.07C123.393 249.783 115.167 244.986 108.392 237.839C95.811 224.524 89.5204 206.998 83.6169 189.963C83.133 188.494 85.4557 187.515 86.1331 188.886C94.3593 206.117 103.166 225.307 118.651 237.056C118.844 237.154 118.941 237.251 119.135 237.447L119.038 237.251C117.006 233.237 115.167 229.027 113.522 224.817C109.941 215.81 107.134 205.824 106.844 196.033C106.844 194.564 108.779 194.564 109.166 195.739C112.36 204.747 114.78 213.852 118.554 222.663C120.296 226.873 122.328 230.985 124.554 235C126.2 237.937 128.135 240.776 129.296 243.909C134.619 247.042 139.942 250.175 144.588 254.287C145.846 255.462 147.201 256.637 148.362 258.007C146.813 252.916 145.555 247.825 144.588 242.636C142.555 232.062 142.749 221.684 142.362 211.013C142.168 204.257 140.523 198.187 136.071 192.998C132.393 188.788 127.942 185.361 123.683 181.837C123.103 181.347 122.425 180.76 121.748 180.27C119.909 181.151 117.973 179.193 117.78 177.333C117.78 177.235 117.78 177.137 117.78 177.039C110.037 170.675 102.005 164.214 95.5207 156.675C92.0366 152.759 89.5204 148.94 88.5526 143.653C87.488 137.779 87.6816 131.513 87.488 125.639C87.3913 122.701 87.1977 119.764 86.9074 116.827C86.617 115.946 86.3267 115.065 86.0364 114.184C84.1008 108.407 82.1652 102.631 80.52 96.7564C77.1327 85.0076 74.1326 72.7694 73.4551 60.5312C73.3583 59.2584 75.1003 59.2584 75.4875 60.2374C78.9715 69.5385 81.6813 79.2312 84.5847 88.7281C84.5847 87.3574 84.4879 85.9867 84.4879 84.6161C84.3911 71.3008 83.133 57.3002 85.8428 44.1808C86.2299 42.2227 89.1333 42.4185 89.6172 44.1808C91.3592 51.328 91.6495 58.7689 91.9399 66.1118C92.2302 73.8464 92.6173 81.6788 92.7141 89.4134C92.8109 96.2668 92.0366 102.924 91.5527 109.68C91.8431 110.561 92.1334 111.442 92.4238 112.323C94.1658 117.023 97.2627 122.31 96.2949 127.401C96.1013 128.674 94.2626 129.359 93.2948 128.576C92.4238 127.89 91.7463 127.205 91.0689 126.324C91.0689 129.555 91.0689 132.786 91.1656 136.017C91.1656 140.325 91.1656 144.632 93.3915 148.451C95.1336 151.388 97.6498 153.15 100.36 155.01C104.134 157.556 107.715 160.297 111.296 163.137C110.521 160.689 109.844 158.143 109.263 155.696C107.521 149.136 106.07 142.576 104.715 135.919C102.198 123.191 100.553 110.365 99.7789 97.4417C99.0047 84.2244 99.1015 71.0071 100.263 57.7898C100.844 50.9364 101.618 44.1808 101.908 37.3274C102.198 30.5719 101.618 23.9143 101.424 17.1588C101.424 16.0818 103.166 15.4944 103.65 16.5714C108.586 28.1243 106.941 41.929 106.36 54.1673C105.779 67.3846 105.779 80.6019 106.747 93.8192C107.715 107.232 109.36 120.743 111.876 133.961C113.134 140.618 114.683 147.178 116.328 153.738C117.489 158.339 118.941 162.941 119.812 167.542C120.49 165.584 121.264 163.724 121.651 161.864C122.909 156.479 123.393 150.996 123.587 145.514C123.974 134.254 123.683 122.897 123.877 111.638C124.264 88.7281 124.07 65.6223 126.683 42.8102C126.877 40.95 129.296 41.0479 129.49 42.8102C131.813 64.6432 131.619 86.8678 131.813 108.799C133.845 101.75 135.877 94.6024 137.329 87.3574C140.136 73.8464 142.265 60.0417 144.394 46.4327C144.684 44.8662 147.104 45.3557 147.104 46.8243C147.201 60.8249 145.749 74.3359 143.233 88.0428C140.716 101.75 137.813 116.338 132.393 129.261C132.297 129.555 132.103 129.751 132.006 129.947C132.006 137.387 131.91 144.828 131.329 152.073C130.845 157.164 130.071 162.353 128.619 167.249C127.942 169.598 127.361 172.046 126.296 174.298C132.006 178.704 137.619 183.305 142.168 188.69C145.362 192.508 147.201 196.62 148.168 201.026C149.33 196.914 150.781 192.998 152.427 188.984C157.846 175.669 163.169 162.549 166.943 148.647C170.911 134.156 173.428 119.373 175.073 104.393C175.847 97.2459 176.428 90.0009 176.621 82.7558C176.718 78.6438 176.428 73.8464 176.718 69.3427C176.525 69.7343 176.428 70.1259 176.234 70.5176C176.137 70.8113 175.654 70.6155 175.75 70.3217C176.137 69.2448 176.621 68.0699 177.008 66.895C177.202 65.4264 177.589 64.0558 177.976 62.6851C178.267 61.9018 179.331 61.6081 179.718 62.4893C182.622 68.1678 182.331 76.4898 182.428 82.8537C182.525 90.0987 182.428 97.3438 181.944 104.491C180.976 118.394 178.557 132.394 175.17 146.003C182.718 130.73 190.17 115.456 196.461 99.6935C196.945 98.4208 199.074 98.5187 198.977 100.085C198.493 109.876 194.719 118.981 190.945 127.793C186.686 137.485 182.041 146.884 177.492 156.479C172.75 166.465 168.105 176.452 163.266 186.438C160.943 191.236 158.717 196.523 156.104 201.614C155.33 204.355 154.653 207.096 154.265 209.936C153.201 217.377 153.588 224.817 151.846 232.16C151.652 233.139 151.072 233.825 150.394 234.216C151.168 240.287 152.427 246.161 154.072 252.035C158.814 269.365 166.169 285.813 172.363 302.653C174.395 296.191 177.589 289.925 180.009 284.834C183.977 276.708 188.138 268.679 191.912 260.553C191.719 259.966 191.816 259.378 192.106 258.791C191.332 258.007 191.138 256.833 191.816 255.658C195.687 249.294 196.558 243.028 196.558 235.685C196.558 228.048 196.461 220.51 196.558 212.873C196.751 197.502 195.687 181.249 198.493 166.074C198.784 164.703 201.01 164.703 201.3 166.074C204.397 182.816 203.042 200.732 203.235 217.67C203.235 221.195 203.332 224.719 203.332 228.342C205.752 219.433 207.494 210.425 208.752 201.32C210.784 186.536 210.978 171.654 211.946 156.773C212.042 155.304 214.268 154.815 214.655 156.381C219.301 179.683 216.107 205.04 209.72 228.244C211.849 223.838 213.881 219.335 215.72 214.733C218.817 207.096 221.527 199.264 223.849 191.334C226.075 183.795 227.333 175.669 230.14 168.326C230.527 167.249 232.076 167.444 232.076 168.619C232.463 176.648 230.237 184.872 228.301 192.606C226.172 200.928 223.656 209.054 220.559 216.985C214.849 231.769 207.591 245.867 198.88 258.987C195.493 266.623 191.816 273.966 187.848 281.407C184.17 288.163 180.492 295.016 177.879 302.359C176.815 305.394 176.137 308.527 175.654 311.66L175.75 311.856C176.041 312.639 176.331 313.52 176.525 314.303C184.267 312.247 192.783 313.618 199.268 318.122C199.848 317.632 200.429 317.143 201.01 316.751C209.333 310.093 218.527 303.436 228.108 298.932C237.882 294.331 251.528 294.331 261.496 300.009C261.303 299.226 261.206 298.541 261.109 297.855C261.012 296.093 261.206 294.233 261.69 292.568C262.754 289.142 265.174 286.204 268.174 284.246C269.529 283.365 270.981 282.778 272.336 282.386C271.271 274.26 271.755 266.134 274.852 258.007C275.529 256.147 277.174 255.658 278.917 256.343C288.594 260.553 292.562 270.833 295.756 280.33C298.369 288.358 300.595 297.855 306.692 303.827C304.176 288.848 301.176 273.575 300.401 258.497C300.014 251.252 300.982 243.811 303.789 237.251L303.692 237.154C296.143 228.734 286.756 222.174 279.884 213.167C276.497 208.663 273.981 203.67 272.626 198.285C271.658 194.564 268.755 188.886 269.626 185.165C270.787 179.879 278.239 185.361 279.788 187.221C283.465 191.725 284.626 197.795 287.723 202.691C293.627 212.285 303.305 218.747 311.047 226.775C312.402 225.503 313.95 224.426 315.596 223.447C317.047 222.566 319.37 223.349 319.66 225.209C320.628 230.594 321.402 236.077 321.886 241.461C326.048 248.608 329.145 256.343 331.467 264.176C331.951 265.84 332.435 267.602 332.919 269.365C334.177 268.092 335.629 267.211 337.274 266.623C336.887 264.959 336.403 263.196 335.919 261.532C332.338 248.902 326.919 236.958 323.435 224.328C320.531 213.754 321.499 202.691 318.015 192.117C314.725 182.228 308.918 174.298 301.756 166.857C299.53 164.507 302.337 161.276 305.047 162.647C315.692 168.13 322.467 179.193 327.887 189.571C333.113 199.558 338.726 209.25 341.919 220.02C342.016 212.481 342.307 204.845 342.5 197.306C342.694 192.313 342.694 187.319 342.307 182.326C341.92 177.137 340.274 172.536 339.113 167.542C338.532 165.193 341.145 163.137 343.178 164.409C352.372 170.186 354.598 183.305 355.178 193.39C355.662 201.026 355.759 208.663 355.856 216.3C356.533 212.481 357.791 208.859 360.598 206.215C365.05 201.907 371.534 203.376 374.728 208.369C379.179 215.32 377.244 224.034 376.566 231.671C376.179 235.489 376.47 241.168 378.502 245.084C379.083 243.909 379.663 242.734 380.244 241.559C385.664 230.692 390.115 218.943 392.535 207.096C393.696 201.222 394.664 195.152 394.761 189.18C394.858 183.012 393.89 176.941 393.89 170.773C393.89 168.228 397.18 167.542 398.438 169.5C405.019 180.27 405.987 195.641 405.019 207.978C404.052 221.489 400.955 234.314 395.535 246.748C393.987 250.371 392.244 253.895 390.309 257.42C394.47 252.525 398.825 247.727 403.277 243.028C411.116 234.804 419.343 227.167 427.762 219.53C428.537 218.845 429.311 218.062 430.182 217.377C435.021 209.838 439.86 202.299 445.086 195.054C449.925 188.396 459.215 194.075 455.925 201.516C453.989 205.922 451.086 210.034 447.796 213.852C442.182 222.174 436.279 230.3 430.279 238.23C429.214 239.601 428.246 240.972 427.182 242.44C428.73 242.049 430.375 241.755 432.021 241.461C432.408 241.461 432.795 241.461 433.182 241.461C435.698 239.895 438.118 238.23 440.537 236.566C449.15 230.496 456.409 222.663 464.441 215.81C469.28 211.698 475.668 218.062 471.41 222.859C460.183 235.489 447.021 246.553 433.085 255.951C431.73 258.595 430.085 261.043 428.343 263.588C426.02 266.819 423.601 270.05 422.052 273.672C421.375 275.337 420.504 277.687 420.794 279.547C421.568 284.344 425.827 283.365 428.633 280.722C433.859 275.631 436.956 268.777 445.376 269.756C450.409 270.344 455.151 273.672 457.667 278.078C460.474 272.889 464.829 269.169 471.893 269.56C476.442 269.756 480.7 272.302 482.442 276.708C483.507 279.449 483.41 282.386 483.313 285.225C483.313 285.715 483.217 286.302 483.217 286.89C485.442 285.323 488.249 284.54 490.959 285.225C495.411 286.4 497.733 290.316 498.121 294.526C502.476 293.156 507.024 293.058 510.992 295.995C512.541 297.17 513.799 298.736 514.573 300.401C517.96 298.443 521.831 297.561 525.799 298.149C527.735 298.443 529.38 299.03 531.122 299.813C534.122 300.988 536.348 300.694 539.252 299.618C542.929 298.247 546.316 297.17 550.284 297.464C564.027 298.345 576.415 311.66 574.092 325.856C573.802 327.521 572.543 328.304 571.092 328.304C572.737 329.87 573.995 331.731 574.673 333.787C574.866 333.787 575.156 333.787 575.447 333.885C580.866 335.941 582.608 329.381 581.544 325.465C580.383 321.255 577.576 317.632 575.253 314.01C570.898 307.156 566.737 300.009 564.124 292.177C559.285 278.078 560.446 261.434 571.479 250.567C573.802 248.217 577.479 249.49 578.447 252.427C585.221 272.595 589.673 293.352 591.802 314.499C594.222 305.296 594.706 295.016 605.351 291.491C607.384 290.806 609.61 292.275 610.19 294.233C611.932 300.107 612.997 306.177 613.481 312.247C614.642 310.681 615.804 309.212 617.158 307.744C621.03 303.534 627.804 296.191 634.191 297.757C639.805 299.128 640.676 305.786 639.901 310.681C638.934 316.849 636.998 322.919 635.159 328.989C635.546 329.381 635.837 329.968 635.643 330.752C634.095 335.941 642.708 332.808 644.257 332.122C646.095 331.241 647.837 330.36 649.773 330.066C652.676 329.577 655.386 330.066 658.096 331.143C665.451 334.178 670.58 341.423 678.71 342.5C683.355 343.088 687.904 342.402 692.549 343.382C694.194 343.675 695.743 344.165 697.291 344.85C692.646 332.514 685.484 320.765 683.162 307.45C682.387 303.24 681.42 297.953 683.452 293.939C685.484 290.023 689.936 289.142 693.517 291.393C698.162 294.331 701.162 300.89 703.872 305.492C704.743 306.96 705.614 308.429 706.388 309.996C703.292 294.624 695.84 278.666 708.227 265.644C709.679 264.176 712.098 264.665 713.163 266.329C717.905 274.162 721.68 282.386 724.583 290.904C726.518 286.988 729.712 284.148 734.938 284.638C739.487 285.03 741.906 287.967 743.358 291.589C745.874 288.456 749.165 286.204 753.423 285.617C755.746 285.323 758.165 285.617 760.294 286.498C757.488 269.169 754.778 238.622 770.166 242.93C778.585 245.28 779.069 257.518 779.747 264.469C780.618 272.595 781.005 280.82 781.102 288.946C783.231 280.624 787.199 272.791 792.135 265.938C793.296 264.273 795.715 264.078 796.78 265.938C800.167 271.91 802.296 278.47 803.07 285.127C804.425 282.484 805.877 279.938 807.619 277.687C809.942 274.651 813.619 272.987 817.007 275.533C821.265 278.764 822.717 286.204 823.394 291.198C823.588 292.275 823.588 293.254 823.684 294.331C827.168 288.065 830.846 281.897 835.201 276.512C839.363 271.421 848.266 267.504 853.008 274.26C855.428 277.687 854.654 281.994 853.686 285.813C852.234 291.589 850.299 297.366 848.266 302.946C847.589 304.904 846.815 306.96 846.04 309.016C848.557 307.45 851.363 306.569 854.267 306.667C861.428 306.863 861.912 312.052 860.364 317.926C862.202 316.751 864.138 316.164 866.267 316.555C869.17 317.143 871.106 319.101 872.461 321.646C876.138 314.108 880.59 306.96 886.107 300.597C889.204 297.072 892.881 293.352 897.914 293.743C901.785 294.037 905.075 296.974 906.721 300.499C911.076 309.8 904.398 322.625 900.624 331.143C899.462 333.689 898.301 336.332 897.043 338.976C903.721 338.193 910.398 337.997 917.269 338.29C932.077 338.78 946.69 341.032 961.497 341.717C969.046 342.011 976.692 342.011 984.24 341.13C991.983 340.151 999.338 337.899 1006.79 335.745C1013.85 333.689 1021.11 331.731 1028.57 331.731C1035.92 331.633 1042.11 333.885 1048.4 337.605C1051.99 339.759 1055.95 342.109 1060.21 341.325C1061.57 341.13 1063.31 340.542 1064.28 339.465C1065.82 337.605 1064.95 335.745 1063.89 333.787C1060.41 327.423 1054.99 322.821 1048.4 319.884C1046.47 319.003 1047.53 315.772 1049.47 315.87C1053.82 316.066 1058.18 316.262 1062.53 316.359C1060.79 311.954 1059.05 307.646 1057.41 303.142C1056.92 301.771 1056.34 300.401 1055.86 299.03C1053.15 295.505 1050.53 291.883 1048.02 287.967C1043.86 281.407 1038.92 278.078 1031.66 275.631C1026.24 273.868 1020.63 272.595 1015.5 270.05C1003.89 264.176 998.757 252.035 993.725 240.58C993.241 240.776 992.66 240.678 992.176 240.189C988.983 237.154 985.499 234.608 982.595 231.181C979.885 228.146 977.369 224.915 974.853 221.684C970.111 215.908 964.401 209.74 961.594 202.691C960.82 200.635 963.53 198.676 965.272 199.851C971.853 204.355 976.498 211.6 981.337 217.866C983.176 220.314 985.111 222.663 986.95 225.111C985.789 222.566 984.724 219.922 983.66 217.279C981.144 210.817 976.788 202.691 977.272 195.544C977.369 193.977 979.014 193.39 980.176 194.369C983.466 196.914 985.692 201.418 987.628 205.138C989.95 209.446 992.079 213.754 994.112 218.16C997.886 226.58 1001.85 235.097 1005.43 243.615C1007.85 249.49 1010.37 255.854 1014.92 260.455C1018.89 264.469 1024.5 266.427 1029.73 268.288C1029.24 267.406 1028.76 266.525 1028.27 265.644C1027.11 264.763 1025.86 263.882 1024.69 263.001C1021.4 260.455 1018.21 257.812 1016.18 254.091C1013.76 249.685 1013.18 244.496 1012.31 239.601C1011.14 233.237 1009.98 226.971 1008.82 220.705C1006.5 208.075 1003.89 195.543 1001.76 182.914C1001.56 181.739 1001.37 180.564 1001.18 179.389C1000.31 178.41 999.531 177.431 998.661 176.55C995.273 172.536 992.273 168.424 989.466 164.018C986.37 159.22 983.66 154.129 981.337 148.94C979.401 144.632 976.788 139.639 977.272 134.842C977.466 132.786 979.982 131.219 981.627 132.982C985.015 136.702 986.273 142.087 988.402 146.688C990.434 151.192 992.757 155.5 995.273 159.71C996.725 162.158 998.37 164.605 1000.02 166.955C1000.02 166.172 999.919 165.291 999.919 164.507C999.822 158.927 998.177 152.269 1000.02 146.982C1000.5 145.709 1001.95 145.611 1002.73 146.688C1006.02 151.192 1006.5 158.241 1008.14 163.528C1009.89 169.403 1010.95 175.277 1011.82 181.347C1013.56 193.487 1014.73 205.726 1016.27 217.866C1016.56 220.314 1016.95 222.761 1017.24 225.209C1016.76 220.02 1016.47 214.831 1016.37 209.936C1016.27 204.453 1016.37 198.872 1017.63 193.487C1018.69 188.886 1020.92 184.676 1023.15 180.564C1025.76 175.669 1027.79 170.773 1028.76 165.291C1029.53 160.102 1029.05 154.815 1029.63 149.528C1029.82 147.472 1032.73 146.199 1033.89 148.353C1038.44 156.577 1036.79 167.738 1033.5 176.158C1031.86 180.466 1029.44 184.48 1027.4 188.592C1024.79 193.977 1023.82 199.46 1023.63 205.334C1023.53 208.761 1023.53 212.09 1023.63 215.418C1023.73 215.223 1023.73 214.929 1023.82 214.733C1024.5 212.971 1025.37 211.208 1026.15 209.544C1028.18 205.236 1030.6 201.32 1033.21 197.404C1035.92 193.487 1038.82 189.767 1041.92 186.242C1044.63 183.207 1047.15 179.976 1051.21 178.802C1052.86 178.312 1054.5 179.976 1054.02 181.641C1052.95 185.459 1050.15 187.907 1047.63 190.844C1044.63 194.369 1041.73 197.991 1038.92 201.712C1036.31 205.236 1033.89 208.957 1031.37 212.579C1030.11 214.439 1029.05 216.397 1027.69 218.16C1026.73 219.433 1024.98 220.51 1024.21 221.782C1024.11 221.88 1024.02 221.978 1023.92 222.076C1024.4 227.755 1025.08 233.335 1026.15 238.916C1027.6 246.65 1029.73 253.993 1031.76 261.532C1034.66 264.078 1037.08 266.819 1037.37 270.539C1037.37 270.735 1037.37 270.931 1037.28 271.029C1040.86 272.498 1044.34 274.26 1047.44 276.805C1049.57 278.568 1051.31 280.624 1052.86 282.778C1053.73 281.799 1055.47 281.701 1056.53 282.582C1058.57 284.246 1060.41 286.107 1062.05 288.26C1061.28 284.638 1060.79 280.917 1060.6 277.197C1060.5 275.728 1060.6 274.26 1060.6 272.791C1056.73 268.777 1053.34 264.176 1050.53 259.378C1046.76 253.112 1041.82 244.888 1041.53 237.251C1041.44 235.097 1044.24 234.706 1045.21 236.272C1047.24 239.405 1048.31 243.126 1049.86 246.552C1051.41 249.979 1053.15 253.406 1055.18 256.637C1057.02 259.672 1059.05 262.609 1061.18 265.448C1062.53 252.916 1066.31 240.678 1068.44 228.342C1068.83 225.992 1069.21 223.643 1069.5 221.293C1066.31 209.544 1064.18 197.404 1061.95 185.557C1060.5 178.214 1059.24 170.871 1057.99 163.43C1056.73 156.185 1055.08 148.744 1055.66 141.402C1055.86 139.639 1058.37 138.562 1059.24 140.422C1062.34 147.08 1063.5 154.423 1064.86 161.57C1066.31 169.207 1067.66 176.941 1069.02 184.676C1069.89 190.159 1070.95 195.544 1071.83 201.124C1072.41 192.998 1072.7 184.774 1072.79 176.648C1072.89 163.039 1072.12 149.43 1070.95 135.919C1067.47 131.023 1064.66 125.541 1062.44 120.058C1059.63 113.205 1055.76 103.12 1058.76 95.8752C1059.63 93.9171 1062.24 94.5046 1063.21 95.8752C1065.34 98.9103 1065.53 102.533 1066.21 106.057C1066.99 109.778 1067.95 113.4 1068.92 117.023C1067.28 103.022 1065.15 89.1197 1064.08 75.1192C1063.89 72.0841 1068.44 71.6924 1069.12 74.4338C1073.76 92.4485 1076.28 111.442 1078.12 130.044C1079.86 146.884 1080.83 163.822 1080.54 180.76C1080.63 180.172 1080.73 179.585 1080.73 178.997C1081.79 170.186 1082.86 161.472 1083.92 152.661C1085.95 135.136 1085.66 117.121 1088.76 99.6935C1089.34 96.6585 1094.47 96.6585 1094.86 99.6935C1097.37 117.61 1094.57 136.702 1092.25 154.521C1092.15 155.5 1091.96 156.479 1091.86 157.36C1093.31 155.206 1094.57 152.856 1095.73 150.507C1097.57 146.786 1098.83 142.87 1099.89 138.856C1100.67 135.723 1100.96 132.296 1102.7 129.457C1103.76 127.793 1105.99 128.184 1106.57 129.947C1109.09 136.996 1104.05 147.276 1100.86 153.444C1098.05 158.731 1094.47 163.724 1090.12 167.836C1089.34 172.144 1088.47 176.452 1087.5 180.662C1085.57 189.18 1084.21 198.872 1080.15 206.509C1079.86 206.999 1079.47 207.292 1078.99 207.292C1078.31 214.341 1077.44 221.489 1076.18 228.538C1075.5 232.552 1074.63 236.664 1073.66 240.678C1076.86 237.447 1079.86 234.021 1082.47 230.398C1084.79 227.069 1086.83 223.643 1088.66 220.02C1090.41 216.789 1091.57 213.069 1093.99 210.229C1095.44 208.565 1097.86 210.034 1098.05 211.992C1098.44 219.726 1091.86 228.538 1087.41 234.216C1083.05 239.797 1077.83 244.399 1071.92 248.119C1069.89 256.735 1068.15 265.35 1067.86 274.064C1068.24 274.554 1068.63 274.945 1068.92 275.435C1070.08 276.805 1069.12 278.274 1067.86 278.47C1067.86 278.568 1067.86 278.666 1067.86 278.861C1068.34 291.002 1073.18 301.869 1078.02 312.737C1079.08 313.912 1080.15 315.185 1081.21 316.359C1085.37 316.457 1089.63 316.555 1093.79 316.653C1096.21 309.604 1099.21 302.751 1101.63 295.603C1104.44 287.281 1105.02 279.155 1106.18 270.539C1106.57 267.798 1109.86 267.309 1110.92 269.952C1116.25 283.365 1107.83 300.499 1102.99 312.835C1102.5 314.206 1101.92 315.478 1101.44 316.849C1107.05 316.947 1112.76 317.143 1118.38 317.339C1127.76 317.632 1137.54 317.143 1146.73 319.297C1147.6 319.492 1148.38 319.688 1149.15 319.982C1149.64 319.884 1150.22 319.688 1150.7 319.59C1162.41 316.457 1173.83 312.052 1184.67 306.667C1192.31 302.848 1199.48 297.366 1207.41 294.037C1202.09 292.568 1196.86 290.904 1191.93 289.142C1162.89 278.764 1136.76 259.574 1117.89 235C1113.34 229.027 1109.09 222.761 1105.41 216.104C1102.7 211.306 1099.12 204.257 1103.08 199.068C1107.83 192.9 1114.41 199.362 1118.38 202.788C1123.41 207.194 1128.44 211.698 1133.47 216.104C1132.6 212.285 1131.83 208.565 1130.96 204.747C1130.38 202.103 1133.38 199.166 1135.8 201.026C1144.41 207.194 1150.8 216.006 1153.7 226.188C1157.09 225.209 1161.15 226.482 1164.25 228.929C1169.86 233.335 1169.67 240.972 1173.15 246.455C1176.06 243.615 1180.9 242.832 1184.48 245.769C1187.38 248.217 1187.19 251.839 1187.09 255.364C1187.09 255.951 1186.6 258.203 1187.09 258.693C1188.25 259.868 1190.86 258.203 1192.12 257.812C1194.06 257.126 1195.9 256.931 1197.93 257.224C1200.44 257.616 1202.96 258.791 1205.28 260.161C1184.38 240.384 1165.02 218.649 1156.22 190.55C1154.86 186.34 1153.89 182.13 1153.12 177.822C1152.64 174.689 1151.86 171.263 1153.22 168.228C1156.7 160.395 1164.15 166.955 1167.73 170.675C1178.96 182.13 1189.02 194.76 1197.73 208.271C1197.93 207.684 1198.12 207.096 1198.32 206.509C1199.09 204.257 1201.9 203.376 1203.64 205.138C1212.35 213.852 1218.93 224.524 1222.8 236.174C1225.7 234.804 1229.38 235 1232.38 236.664C1234.32 237.741 1235.96 239.307 1237.51 241.07C1237.41 238.328 1237.61 235.293 1236.83 232.748C1235.67 229.027 1232.57 227.265 1229.77 225.013C1225.41 221.391 1221.64 217.083 1218.83 212.188C1216.32 207.88 1213.22 202.005 1214.86 196.914C1215.54 194.858 1216.9 193.292 1218.54 192.41C1213.03 183.403 1211.09 172.829 1213.22 162.158C1213.51 160.493 1215.35 159.71 1216.8 160.102C1217.09 160.199 1217.28 160.199 1217.57 160.297C1214.09 144.143 1214.09 127.401 1217.57 111.051C1218.06 108.701 1221.25 108.113 1222.8 109.68C1229.28 116.142 1234.32 123.876 1237.7 132.492C1239.35 136.898 1240.51 141.499 1241.19 146.199C1241.58 148.744 1241.58 151.388 1242.93 153.64C1243.99 155.304 1245.45 156.577 1246.51 158.241C1251.93 166.27 1253.48 176.843 1255.9 185.949C1258.22 194.76 1260.45 203.67 1262.77 212.481C1264.03 212.09 1265.48 212.09 1266.93 212.579C1270.32 213.852 1271.77 216.985 1272.45 220.51C1272.54 219.628 1272.64 218.747 1272.64 217.964C1272.93 212.971 1271.96 208.173 1271.67 203.278C1271.38 196.914 1273.32 190.55 1278.35 187.124C1276.71 180.172 1279.13 172.731 1284.64 168.13C1285.51 167.347 1286.58 167.053 1287.64 167.249C1287.74 160.395 1288.51 153.542 1290.35 146.982C1291.51 142.674 1296.35 135.429 1301.48 139.835C1303.61 141.695 1304.58 145.318 1305.64 147.961C1307 151.486 1308.16 155.01 1308.93 158.731C1310.58 165.878 1311.26 173.221 1311.16 180.466C1311.06 195.739 1308.06 210.915 1304.09 225.601C1301.77 234.021 1299.26 242.636 1296.35 251.154C1297.51 249.392 1298.67 247.532 1299.93 245.769C1302.93 241.168 1306.51 233.531 1312.32 231.769C1314.74 230.985 1317.26 231.475 1319.19 232.748C1322.68 228.44 1326.16 224.132 1329.64 219.922C1333.03 215.81 1336.22 210.523 1340.58 207.39C1342.23 206.215 1344.06 205.236 1346.19 205.138C1348.42 205.04 1350.55 206.803 1352.58 206.607C1353.16 206.509 1353.84 206.215 1354.52 205.628V244.79C1349.29 249.881 1343.48 254.287 1337.58 258.497Z" fill="#0E3C67"/>
<path d="M19.075 123.9C18.975 123.6 19.175 123.4 19.175 123.1C19.175 122.2 18.775 121.8 18.375 121.1C17.875 120.2 17.575 119.3 17.275 118.4C16.775 116.5 16.675 114.5 16.975 112.6C16.975 112.3 17.375 112.2 17.475 112.4C19.975 114.4 22.875 115.6 25.975 115.9C24.975 113.3 22.775 111.1 21.075 108.9C19.975 107.6 18.475 106.2 17.775 104.6C17.175 103.3 17.475 101.8 17.675 100.5C17.875 99 18.075 97.2 18.775 95.8C19.375 94.4 20.875 95 21.675 93.8C21.975 93.3 22.075 92.8 22.475 92.3C22.875 91.8 23.375 91.5 23.875 91.1C24.575 90.6 25.375 90.2 25.775 89.4C26.775 87.8 25.175 86.7 23.975 86C23.575 86.1 23.175 86.2 22.875 86.4C22.675 86.5 22.575 86.3 22.675 86.2C23.475 85.5 24.575 85.4 25.675 85.4C24.475 85 23.175 84.7 21.875 84.5C21.675 84.5 21.775 84.2 21.875 84.2C23.575 84.3 25.275 84.6 26.975 85.1C26.675 85 26.475 84.9 26.175 84.7C21.575 82.8 16.775 82.7 12.075 81.5C11.375 81.6 10.775 81.6 10.075 81.7C9.975 81.7 9.975 81.5 10.075 81.5C10.475 81.4 10.875 81.3 11.275 81.3C11.175 81.3 11.075 81.2 10.875 81.2C10.675 81.2 10.675 80.9 10.875 80.9C11.675 80.9 12.475 80.9 13.275 81C14.075 80.9 14.975 80.8 15.775 80.7C18.075 80.2 20.475 79.9 22.775 79.6C25.375 79.3 27.975 79 30.675 79C35.775 79 40.875 79.7 45.675 81.5C50.075 83.1 53.975 85.6 57.875 88.1C59.875 89.3 61.875 90.6 63.975 91.5C66.175 92.5 68.375 93 70.675 93.6C70.875 93.7 70.975 93.9 70.875 94C70.875 94 70.975 94 70.975 94.1C71.275 94.5 71.175 95.1 71.075 95.6C71.575 95.6 71.975 95.5 72.475 95.3C72.775 95.2 72.975 95.5 72.875 95.7C69.975 101.5 66.475 107.3 62.375 112.5C62.875 116.4 62.7751 120.5 61.875 124.2C61.375 126.3 60.575 128.3 59.475 130.2C59.075 130.8 58.675 131.7 57.975 132.1C57.275 132.5 57.0751 132.2 56.375 132.2C55.975 132.2 55.475 132.5 55.075 132.4C54.375 132.2 53.975 131.2 53.675 130.7C52.775 129.4 50.975 127.8 51.275 126.1C51.475 125.1 51.975 124.2 52.275 123.2C52.375 122.9 52.475 122.5 52.575 122.2C51.575 123 50.575 123.8 49.575 124.6C46.875 126.8 44.875 130.3 41.875 132.1C41.675 132.3 41.5751 132.5 41.375 132.7C39.175 135 35.875 135.5 33.475 137.4C33.375 137.5 33.275 137.4 33.275 137.2V137.1V137C33.975 132.9 33.275 128.8 31.075 125.2C30.375 124.1 29.475 123.3 28.675 122.3C28.175 123.6 27.675 124.8 27.275 126.1C26.675 127.6 26.575 129.1 26.275 130.6C26.275 130.7 26.175 130.7 26.175 130.7C26.175 130.9 25.975 131.1 25.775 131C24.275 130.7 23.175 129.6 22.275 128.4C21.675 127.6 21.075 126.7 20.575 125.8C19.875 125.4 19.175 124.7 19.075 123.9Z" fill="#0E4F82"/>
</svg>
