<svg width="1354" height="840" viewBox="0 0 1354 840" fill="none" xmlns="http://www.w3.org/2000/svg">
<path d="M88.9126 454.394C134.046 446.534 134.949 460.82 137.657 496.591C140.365 532.362 168.347 525.191 185.498 528.777C202.649 532.362 224.313 586.694 245.074 597.422C265.835 608.151 307.358 605.999 331.73 601.008C356.102 596.017 373.253 592.431 405.749 571.691C438.245 550.951 472.546 580.268 520.387 577.399C568.229 574.531 575.45 603.848 600.725 628.174C625.999 652.471 626.902 655.339 670.23 670.371C713.558 685.402 712.655 673.956 765.913 674.673C819.17 675.391 805.63 693.262 813.754 697.077C821.878 700.892 897.702 703.991 937.419 677.513C977.137 651.036 1010.54 665.351 1045.74 665.006C1080.94 664.662 1106.22 656.056 1135.1 641.771C1163.99 627.456 1200.1 627.456 1227.18 628.174C1254.26 628.891 1251.55 615.294 1284.95 594.582C1318.34 573.842 1354 601.725 1354 601.725V828H0V416.729V413.66V413C1.44421 413.344 5.37085 414.721 14.8939 418.651C35.6553 427.228 43.7793 462.283 88.9126 454.394Z" fill="#183F53"/>
<path d="M835.837 649.162C833.577 648.605 831.437 649.89 830.751 652.245C830.59 652.801 830.388 653.358 830.186 653.914C830.146 653.957 830.146 654.043 830.105 654.086C830.025 654.3 829.904 654.514 829.823 654.728C829.339 655.798 828.814 656.783 828.208 657.768C827.926 658.239 827.563 658.71 827.28 659.224C827.078 659.48 826.917 659.695 826.715 659.951C825.988 660.851 825.222 661.664 824.414 662.478C824.051 662.82 823.647 663.205 823.284 663.505C823.244 663.548 823.203 663.591 823.163 663.634C823.042 663.719 822.477 664.147 822.477 664.19C821.589 664.875 820.62 665.475 819.651 666.031C819.207 666.288 818.763 666.502 818.319 666.716C818.279 666.716 818.239 666.759 818.198 666.802C818.198 666.802 818.198 666.802 818.239 666.802C818.118 666.888 817.916 666.973 817.754 667.016C816.664 659.523 814.687 652.245 812.467 645.009C811.337 641.241 810.166 637.516 808.995 633.748C812.588 622.83 816.18 611.912 819.772 600.993C820.499 598.81 818.965 596.069 816.866 595.598C814.566 595.042 812.547 596.326 811.781 598.681C809.439 605.832 807.098 612.939 804.757 620.089C801.892 610.798 799.026 601.55 796.12 592.259C795.433 590.075 793.213 588.448 791.034 589.176C788.975 589.861 787.401 592.259 788.128 594.571C789.783 599.88 791.437 605.189 793.092 610.499C788.451 608.829 783.809 607.159 779.207 605.489C777.149 604.761 774.606 606.345 774.122 608.572C773.597 611.012 774.808 613.196 777.028 613.967C783.486 616.279 789.904 618.634 796.362 620.946C798.622 628.267 800.923 635.589 803.183 642.911C803.425 643.767 803.708 644.58 803.95 645.437C800.156 643.082 796.16 641.155 791.962 639.614C789.904 638.843 787.361 640.47 786.876 642.696C786.352 645.137 787.563 647.278 789.783 648.091C790.671 648.434 791.559 648.776 792.447 649.119C792.568 649.162 793.335 649.504 793.375 649.547C793.698 649.718 794.061 649.847 794.384 650.018C796.039 650.832 797.694 651.731 799.308 652.673C800.923 653.657 802.457 654.685 803.99 655.798C804.677 656.312 805.403 656.869 806.049 657.425C806.17 657.511 806.735 658.025 806.816 658.068C807.139 658.367 807.462 658.624 807.785 658.924C808.39 661.407 808.955 663.933 809.359 666.46C809.52 667.316 809.641 668.215 809.762 669.071C809.762 668.986 809.843 669.842 809.883 670.013C809.924 670.57 810.005 671.126 810.045 671.683C810.206 673.567 810.287 675.494 810.287 677.378C810.287 679.005 810.166 680.632 810.005 682.259C809.964 682.473 809.964 682.687 809.924 682.944C809.883 683.458 809.964 682.601 809.964 682.601C810.045 682.644 809.803 683.629 809.803 683.757C809.682 684.614 809.52 685.427 809.318 686.241C808.915 688.039 808.43 689.837 807.825 691.55C807.785 691.721 807.704 691.85 807.663 692.021C807.663 692.021 807.623 692.149 807.583 692.278C807.542 692.406 807.462 692.62 807.421 692.663C807.341 692.877 807.26 693.048 807.179 693.263C806.816 694.119 806.412 694.975 805.968 695.789C805.565 696.559 805.121 697.33 804.636 698.058C804.394 698.443 804.152 698.786 803.91 699.128C803.869 699.214 803.829 699.257 803.829 699.3C803.748 699.385 803.668 699.471 803.627 699.557C802.497 701.012 801.246 702.34 799.873 703.538C798.178 704.994 798.34 708.248 799.873 709.747C801.649 711.502 803.95 711.331 805.726 709.747C815.05 701.569 818.723 688.467 818.562 675.922C828.128 672.839 835.877 664.576 838.905 654.514C839.389 652.373 837.976 649.676 835.837 649.162Z" fill="#1775AF"/>
<path d="M279.114 588.162C281.34 587.605 283.446 588.89 284.122 591.245C284.281 591.801 284.479 592.358 284.678 592.914C284.718 592.957 284.718 593.043 284.758 593.086C284.837 593.3 284.956 593.514 285.036 593.728C285.513 594.798 286.029 595.783 286.626 596.768C286.904 597.239 287.261 597.71 287.54 598.224C287.738 598.48 287.897 598.695 288.096 598.951C288.811 599.851 289.567 600.664 290.361 601.478C290.719 601.82 291.116 602.205 291.474 602.505C291.514 602.548 291.554 602.591 291.593 602.634C291.713 602.719 292.269 603.147 292.269 603.19C293.143 603.875 294.097 604.475 295.051 605.031C295.488 605.288 295.925 605.502 296.362 605.716C296.402 605.716 296.442 605.759 296.482 605.802C296.482 605.802 296.482 605.802 296.442 605.802C296.561 605.888 296.76 605.973 296.919 606.016C297.992 598.523 299.939 591.245 302.125 584.009C303.238 580.241 304.39 576.516 305.543 572.748C302.006 561.83 298.469 550.912 294.932 539.993C294.216 537.81 295.727 535.069 297.793 534.598C300.058 534.042 302.046 535.326 302.801 537.681C305.106 544.832 307.411 551.939 309.716 559.089C312.538 549.798 315.359 540.55 318.221 531.259C318.896 529.075 321.082 527.448 323.228 528.176C325.255 528.861 326.805 531.259 326.09 533.571C324.46 538.88 322.831 544.189 321.201 549.499C325.772 547.829 330.342 546.159 334.873 544.489C336.9 543.761 339.403 545.345 339.88 547.572C340.397 550.012 339.205 552.196 337.019 552.967C330.66 555.279 324.341 557.634 317.982 559.946C315.757 567.267 313.491 574.589 311.266 581.911C311.027 582.767 310.749 583.58 310.511 584.437C314.246 582.082 318.181 580.155 322.314 578.614C324.341 577.843 326.845 579.47 327.322 581.696C327.838 584.137 326.646 586.278 324.46 587.091C323.586 587.434 322.712 587.776 321.837 588.119C321.718 588.162 320.963 588.504 320.923 588.547C320.605 588.718 320.248 588.847 319.93 589.018C318.3 589.832 316.671 590.731 315.081 591.673C313.491 592.657 311.981 593.685 310.471 594.798C309.795 595.312 309.08 595.869 308.444 596.425C308.325 596.511 307.768 597.025 307.689 597.068C307.371 597.367 307.053 597.624 306.735 597.924C306.139 600.407 305.583 602.933 305.185 605.46C305.026 606.316 304.907 607.215 304.788 608.071C304.788 607.986 304.708 608.842 304.669 609.013C304.629 609.57 304.549 610.126 304.51 610.683C304.351 612.567 304.271 614.494 304.271 616.378C304.271 618.005 304.39 619.632 304.549 621.259C304.589 621.473 304.589 621.687 304.629 621.944C304.669 622.458 304.589 621.601 304.589 621.601C304.51 621.644 304.748 622.629 304.748 622.757C304.867 623.614 305.026 624.427 305.225 625.241C305.622 627.039 306.099 628.837 306.695 630.55C306.735 630.721 306.815 630.85 306.854 631.021C306.854 631.021 306.894 631.149 306.934 631.278C306.974 631.406 307.053 631.62 307.093 631.663C307.172 631.877 307.252 632.048 307.331 632.263C307.689 633.119 308.086 633.975 308.524 634.789C308.921 635.559 309.358 636.33 309.835 637.058C310.074 637.443 310.312 637.786 310.55 638.128C310.59 638.214 310.63 638.257 310.63 638.3C310.709 638.385 310.789 638.471 310.829 638.557C311.941 640.012 313.173 641.34 314.525 642.538C316.194 643.994 316.035 647.248 314.525 648.747C312.776 650.502 310.511 650.331 308.762 648.747C299.582 640.569 295.965 627.467 296.124 614.922C286.705 611.839 279.075 603.576 276.094 593.514C275.617 591.373 277.008 588.676 279.114 588.162Z" fill="#1775AF"/>
<path d="M112.371 614.645C112.371 614.845 112.271 615.144 112.271 615.344C112.271 615.644 112.271 615.945 112.171 616.245C112.271 615.645 112.271 615.145 112.371 614.645Z" fill="#136289"/>
<path d="M114.871 726.245C114.971 726.545 115.071 726.745 115.171 727.045C115.271 727.245 115.371 727.445 115.471 727.645C115.271 727.245 115.071 726.745 114.871 726.245Z" fill="#136289"/>
<path d="M99.1711 658.544C99.2711 658.344 99.4711 658.244 99.5711 658.044C99.7711 657.844 99.9711 657.544 100.071 657.344C99.7711 657.644 99.4711 658.044 99.1711 658.544Z" fill="#136289"/>
<path d="M110.271 718.844C110.471 719.044 110.571 719.244 110.671 719.444C110.871 719.644 110.971 719.844 111.171 720.044C110.871 719.644 110.571 719.244 110.271 718.844Z" fill="#136289"/>
<path d="M104.171 713.044C104.371 713.244 104.571 713.444 104.771 713.544C104.971 713.644 105.171 713.844 105.371 713.944C104.971 713.644 104.571 713.344 104.171 713.044Z" fill="#136289"/>
<path d="M103.171 634.645C102.971 634.845 102.771 635.144 102.671 635.344C102.571 635.544 102.371 635.744 102.271 635.844C102.471 635.544 102.771 635.145 103.171 634.645Z" fill="#136289"/>
<path d="M110.371 622.344C110.271 622.644 110.171 622.844 109.971 623.144C109.871 623.344 109.771 623.544 109.671 623.844C109.971 623.344 110.171 622.844 110.371 622.344Z" fill="#136289"/>
<path d="M96.4712 694.744C96.2712 694.544 96.0712 694.444 95.8712 694.244C95.6712 694.144 95.4712 693.944 95.2712 693.844C95.6712 694.044 96.0712 694.444 96.4712 694.744Z" fill="#136289"/>
<path d="M93.5711 692.144C93.3711 691.944 93.2711 691.744 93.1711 691.544C92.9711 691.344 92.8711 691.144 92.6711 690.944C92.9711 691.344 93.2711 691.744 93.5711 692.144Z" fill="#136289"/>
<path d="M91.8711 670.544C91.9711 670.244 92.1711 669.944 92.2711 669.644C92.3711 669.444 92.3711 669.244 92.4711 669.044C92.2711 669.544 92.0711 670.044 91.8711 670.544Z" fill="#136289"/>
<path d="M90.0713 678.244C90.0713 677.944 90.1713 677.744 90.1713 677.444C90.1713 677.144 90.1713 676.844 90.2713 676.544C90.1713 677.144 90.0713 677.744 90.0713 678.244Z" fill="#136289"/>
<path d="M91.5712 689.045C91.4712 688.845 91.3712 688.644 91.3712 688.444C91.2712 688.144 91.0712 687.945 90.9712 687.645C91.1712 688.145 91.3712 688.645 91.5712 689.045Z" fill="#136289"/>
<path d="M90.1711 684.544C90.1711 684.344 90.1711 684.144 90.0711 683.944C89.9711 683.644 89.9711 683.344 89.8711 682.944C90.0711 683.544 90.0711 684.044 90.1711 684.544Z" fill="#136289"/>
<path d="M115.571 706.944C112.671 704.244 109.471 701.945 105.971 700.045C102.571 698.145 99.0712 696.545 95.8712 694.245C96.0712 694.445 96.2712 694.545 96.4712 694.745C96.0712 694.445 95.6712 694.144 95.2712 693.844C95.4712 694.044 95.6712 694.145 95.8712 694.245C94.8712 693.445 93.9712 692.545 93.1712 691.545C93.2712 691.745 93.4712 691.945 93.5712 692.145C93.2712 691.745 92.9712 691.344 92.6712 690.944C92.8712 691.144 92.9712 691.345 93.1712 691.545C92.4712 690.545 91.8712 689.544 91.3712 688.444C91.4712 688.644 91.4712 688.845 91.5712 689.045C91.3712 688.545 91.1712 688.045 90.9712 687.645C91.0712 687.945 91.1712 688.144 91.3712 688.444C90.7712 686.944 90.3712 685.444 90.1712 683.944C90.1712 684.144 90.1712 684.345 90.2712 684.545C90.1712 684.045 90.1712 683.444 90.0712 682.944C90.0712 683.244 90.1712 683.544 90.2712 683.944C90.0712 681.844 90.0712 679.645 90.2712 677.545C90.2712 677.845 90.1712 678.044 90.1712 678.344C90.2712 677.844 90.2712 677.245 90.3712 676.745C90.3712 677.045 90.2712 677.345 90.2712 677.645C90.6712 674.945 91.4712 672.344 92.3712 669.844C92.2712 670.144 92.0712 670.445 91.9712 670.745C92.1712 670.245 92.3712 669.744 92.5712 669.344C92.4712 669.544 92.4712 669.744 92.3712 669.944C94.2712 665.744 96.7712 661.945 99.5712 658.245C99.4712 658.445 99.2712 658.545 99.1712 658.745C99.4712 658.345 99.7712 657.945 100.071 657.545C99.8712 657.745 99.6712 658.045 99.5712 658.245C108.471 646.845 119.371 636.445 123.271 622.045C124.371 617.945 124.871 613.445 124.371 609.245C124.171 607.545 123.871 606.244 122.571 604.944C121.571 603.944 119.771 603.145 118.271 603.145C116.671 603.245 115.071 603.744 113.971 604.944C112.971 606.044 111.971 607.645 112.171 609.245C112.471 611.345 112.471 613.445 112.171 615.545C112.171 615.345 112.271 615.044 112.271 614.844C112.171 615.344 112.171 615.944 112.071 616.444C112.071 616.144 112.171 615.845 112.171 615.545C111.771 618.245 110.971 620.844 109.971 623.344C110.071 623.044 110.171 622.845 110.371 622.545C110.171 623.045 109.971 623.544 109.771 623.944C109.871 623.744 109.971 623.545 110.071 623.245C108.071 627.645 105.571 631.644 102.671 635.444C102.871 635.244 103.071 634.945 103.171 634.745C102.871 635.145 102.571 635.544 102.271 635.944C102.371 635.744 102.571 635.544 102.671 635.444C94.5712 645.744 84.7712 655.144 80.2712 667.844C76.0712 679.544 77.2712 694.544 87.4712 702.844C90.4712 705.344 93.7712 707.245 97.1712 709.045C99.8712 710.445 102.471 711.845 104.971 713.645C104.771 713.445 104.571 713.245 104.371 713.145C104.771 713.445 105.171 713.745 105.571 714.045C105.371 713.945 105.171 713.745 104.971 713.645C107.171 715.445 109.171 717.445 110.871 719.545C110.671 719.345 110.571 719.144 110.471 718.944C110.771 719.344 111.071 719.745 111.371 720.145C111.171 719.945 111.071 719.745 110.871 719.545C112.571 721.945 114.071 724.445 115.271 727.145C115.171 726.845 115.071 726.644 114.971 726.344C115.171 726.844 115.371 727.345 115.571 727.745C115.471 727.545 115.371 727.345 115.271 727.145C116.271 729.645 117.071 732.345 117.471 735.045C117.471 734.745 117.471 734.445 117.371 734.245C117.471 734.745 117.471 735.344 117.571 735.844C117.571 735.544 117.471 735.345 117.471 735.045C117.671 737.245 117.671 739.545 117.471 741.745C117.471 741.445 117.571 741.244 117.571 740.944C117.471 741.444 117.471 742.045 117.371 742.545C117.371 742.245 117.371 742.045 117.471 741.745C117.171 743.645 116.671 745.445 115.971 747.245C116.071 747.045 116.171 746.845 116.271 746.545C116.071 747.045 115.871 747.544 115.671 747.944C115.771 747.644 115.871 747.445 115.971 747.145C115.071 749.145 113.871 751.044 112.571 752.844C112.671 752.644 112.871 752.544 112.971 752.344C112.671 752.744 112.371 753.145 112.071 753.545C112.271 753.245 112.471 753.045 112.671 752.745C107.371 759.245 100.471 764.245 95.1712 770.745C91.9712 774.645 89.2712 778.944 87.8712 783.844C86.6712 788.044 86.6712 792.545 87.6712 796.745C88.9712 801.845 92.0712 806.245 96.4712 809.045C99.1712 810.745 103.271 809.744 104.771 806.844C106.371 803.844 105.471 800.345 102.571 798.545C102.471 798.445 102.271 798.345 102.171 798.245C102.371 798.445 102.571 798.545 102.671 798.745C102.271 798.445 101.871 798.144 101.471 797.844C101.671 798.044 101.871 798.144 102.171 798.344C101.771 797.944 101.371 797.545 100.971 797.145C101.071 797.345 101.171 797.545 101.371 797.745C101.071 797.345 100.771 796.945 100.471 796.545C100.671 796.745 100.871 796.945 101.071 797.145C100.671 796.545 100.271 795.845 99.9712 795.145C100.071 795.445 100.171 795.745 100.271 796.045C100.071 795.545 99.8712 795.045 99.6712 794.645C99.7712 794.845 99.8712 795.045 99.9712 795.245C99.6712 794.345 99.4712 793.445 99.2712 792.545C99.2712 792.745 99.2712 792.945 99.3712 793.245C99.2712 792.745 99.2712 792.145 99.1712 791.645C99.1712 791.945 99.2712 792.245 99.3712 792.545C99.2712 791.345 99.2712 790.144 99.3712 788.944C99.3712 789.244 99.2712 789.445 99.2712 789.745C99.3712 789.245 99.3712 788.645 99.4712 788.145C99.4712 788.445 99.3712 788.744 99.3712 788.944C99.5712 787.644 99.9712 786.345 100.471 785.145C100.371 785.345 100.271 785.545 100.171 785.745C100.371 785.245 100.571 784.744 100.771 784.344C100.671 784.644 100.571 784.945 100.471 785.245C101.371 783.245 102.571 781.345 103.871 779.645C103.671 779.845 103.571 780.045 103.371 780.245C103.671 779.845 103.971 779.445 104.271 779.045C104.071 779.245 103.971 779.445 103.771 779.645C108.271 774.045 113.971 769.544 118.871 764.344C123.971 758.844 128.171 752.344 129.371 744.844C130.471 737.944 129.871 730.944 127.271 724.444C124.471 717.744 120.671 711.744 115.571 706.944Z" fill="#136289"/>
<path d="M102.971 780.144C103.171 779.944 103.271 779.744 103.471 779.544C103.671 779.344 103.771 779.144 103.971 778.944C103.571 779.344 103.271 779.744 102.971 780.144Z" fill="#136289"/>
<path d="M116.171 746.444C116.071 746.644 115.971 746.844 115.871 747.144C115.771 747.444 115.671 747.644 115.571 747.944C115.771 747.444 115.971 746.944 116.171 746.444Z" fill="#136289"/>
<path d="M117.471 740.844C117.471 741.144 117.371 741.344 117.371 741.644C117.371 741.944 117.371 742.144 117.271 742.444C117.371 741.944 117.371 741.344 117.471 740.844Z" fill="#136289"/>
<path d="M117.271 734.145C117.271 734.445 117.371 734.744 117.371 734.944C117.371 735.244 117.471 735.445 117.471 735.745C117.371 735.145 117.271 734.645 117.271 734.145Z" fill="#136289"/>
<path d="M112.871 752.344C112.771 752.544 112.571 752.644 112.471 752.844C112.271 753.144 112.071 753.344 111.871 753.644C112.171 753.144 112.571 752.744 112.871 752.344Z" fill="#136289"/>
<path d="M137.471 600.944C137.671 602.044 137.371 599.844 137.471 600.944V600.944Z" fill="#136289"/>
<path d="M133.371 670.145C133.671 669.245 133.571 669.245 133.471 669.545C133.471 669.745 133.471 669.845 133.371 670.045C133.371 670.145 133.371 670.145 133.371 670.145Z" fill="#136289"/>
<path d="M146.471 694.644C144.171 692.444 141.871 690.244 139.771 687.944C139.271 687.344 138.771 686.744 138.271 686.244L138.171 686.144C138.271 686.244 138.271 686.344 138.371 686.444C138.771 687.044 137.471 685.344 137.871 685.844C137.971 685.944 138.071 686.044 138.071 686.144C137.871 685.844 137.671 685.644 137.471 685.344C136.571 684.144 135.771 682.845 135.171 681.545C134.971 681.244 134.771 680.845 134.671 680.545C134.671 680.445 134.571 680.344 134.571 680.244C134.671 680.444 134.671 680.544 134.771 680.744C134.671 680.544 134.671 680.344 134.571 680.244C134.371 679.844 134.171 679.344 134.571 680.244C134.371 679.644 134.171 679.145 133.971 678.545C133.771 677.845 133.571 677.144 133.471 676.444C133.371 676.144 133.371 675.544 133.271 675.244C133.271 675.344 133.271 675.444 133.271 675.444C133.271 675.644 133.271 675.845 133.371 676.045C133.371 675.744 133.271 675.444 133.271 675.144V675.244C133.271 675.044 133.271 674.744 133.171 674.545C133.071 673.545 133.071 672.444 133.171 671.444C133.171 671.044 133.271 670.644 133.271 670.244V670.344C133.271 670.244 133.271 670.244 133.271 670.144V670.045C133.271 669.945 133.271 669.844 133.371 669.744C133.371 669.644 133.371 669.545 133.371 669.545C133.771 667.445 134.371 665.344 135.071 663.244C135.371 662.244 135.771 661.344 136.171 660.444C136.271 660.244 136.271 660.144 136.371 659.944C136.371 660.044 136.271 660.044 136.271 660.144C136.371 660.044 136.871 658.844 136.471 659.744C136.471 659.844 136.371 659.844 136.371 659.944C136.571 659.444 136.871 658.944 137.071 658.344C137.971 656.344 138.871 654.344 139.871 652.444C141.971 648.044 143.971 643.645 145.571 639.045C151.571 621.645 151.671 602.044 145.971 584.544C145.271 582.444 144.571 580.444 143.671 578.444C143.071 576.944 142.371 575.744 140.871 574.844C139.571 574.044 137.671 573.744 136.171 574.244C134.671 574.744 133.271 575.644 132.571 577.044C131.871 578.344 131.371 580.244 131.971 581.744C133.671 585.844 135.071 590.145 136.071 594.545C136.571 596.745 136.971 598.944 137.271 601.144V601.244C137.171 600.144 137.471 602.444 137.271 601.244C137.271 601.344 137.271 601.344 137.271 601.444C137.371 602.044 137.371 602.544 137.471 603.144C137.571 604.244 137.671 605.444 137.771 606.544C138.071 611.044 137.971 615.544 137.471 619.944C137.471 620.344 137.371 620.644 137.371 621.044C137.371 621.044 137.371 621.044 137.371 620.944C137.371 621.044 137.371 621.044 137.371 621.144C137.371 621.244 137.371 621.344 137.371 621.444C137.371 621.544 137.371 621.544 137.371 621.644V621.744C137.171 622.844 136.971 624.044 136.771 625.144C136.371 627.344 135.871 629.544 135.171 631.644C134.571 633.844 133.871 635.945 133.071 638.045C132.871 638.545 132.671 639.044 132.471 639.444C132.471 639.544 132.371 639.644 132.371 639.844C132.371 639.944 132.271 640.044 132.271 640.144C131.871 641.044 132.271 640.044 132.371 639.844C132.071 640.244 131.871 640.944 131.671 641.344C131.471 641.844 131.171 642.344 130.971 642.944C128.871 647.344 126.771 651.744 124.871 656.244C121.371 664.544 119.571 673.844 122.571 682.644C127.071 695.844 139.171 703.444 148.071 713.444C148.571 714.044 149.071 714.644 149.571 715.244C149.671 715.344 149.671 715.444 149.771 715.544C149.671 715.344 149.671 715.444 149.871 715.644C150.071 715.844 150.271 716.044 150.371 716.244C150.371 716.244 150.071 715.844 149.871 715.644C149.871 715.644 149.871 715.645 149.771 715.544C149.771 715.544 149.771 715.644 149.871 715.644C149.971 715.844 150.171 716.044 150.271 716.144C151.171 717.444 151.971 718.744 152.771 720.044C153.071 720.645 153.371 721.244 153.671 721.844C153.571 721.644 153.571 721.544 153.471 721.344C153.171 720.644 154.171 722.844 153.671 721.944C153.671 721.944 153.671 721.844 153.571 721.844C153.771 722.244 153.871 722.644 153.971 723.144C154.271 723.944 154.471 724.844 154.671 725.744C154.771 726.144 154.771 726.544 154.871 726.944V726.844C154.771 725.744 154.871 727.144 154.971 727.244C154.971 727.144 154.971 727.044 154.871 726.844C154.871 727.244 154.971 727.544 154.971 727.944C155.071 728.944 155.071 730.044 154.971 731.044C154.971 731.544 154.871 732.044 154.871 732.644C154.871 732.844 154.671 734.044 154.871 733.044C154.971 732.645 154.971 732.244 154.871 733.044C154.871 733.145 154.871 733.344 154.771 733.344C154.371 735.644 153.771 737.844 153.071 740.044C152.671 741.145 152.371 742.144 151.971 743.244C151.871 743.444 151.771 743.744 151.671 744.144C151.771 744.144 151.671 744.444 151.371 744.744C151.471 744.644 151.571 744.344 151.671 744.144C151.671 744.144 151.571 744.244 151.471 744.444C151.271 744.844 151.171 745.145 150.971 745.544C150.071 747.645 149.071 749.644 147.971 751.744C143.771 760.344 139.371 769.044 138.571 778.644C137.871 786.944 140.271 795.744 146.071 801.844C147.471 803.344 149.271 804.644 151.071 805.744C153.771 807.344 157.771 806.444 159.371 803.544C160.871 800.645 160.071 797.044 157.171 795.244C156.871 795.044 156.471 794.844 156.171 794.644L156.071 794.544C156.071 794.544 156.071 794.544 156.171 794.544C156.371 794.744 156.971 795.145 156.171 794.544C155.471 793.944 155.871 794.344 156.171 794.544C155.471 793.944 154.871 793.344 154.371 792.744C154.371 792.644 154.271 792.645 154.271 792.544C154.371 792.645 154.371 792.744 154.471 792.744C154.871 793.344 153.571 791.644 154.071 792.244C154.171 792.344 154.271 792.444 154.271 792.544C154.071 792.244 153.871 791.944 153.671 791.644C153.171 790.844 152.771 790.144 152.371 789.244C152.371 789.244 152.371 789.244 152.371 789.144V789.244C152.671 790.144 152.171 788.644 152.071 788.644C152.171 788.744 152.271 788.944 152.271 789.144C152.171 788.844 151.971 788.444 151.871 788.144C151.571 787.244 151.371 786.344 151.171 785.444C151.171 785.244 151.071 784.944 151.071 784.744C151.071 784.744 150.971 784.544 150.971 784.244C150.971 784.144 150.971 784.145 150.971 784.044C150.971 783.844 150.971 783.744 150.871 783.544C150.871 783.645 150.871 783.744 150.971 783.844C150.871 783.044 150.871 782.244 150.771 781.444C150.771 780.544 150.771 779.644 150.871 778.844C150.871 778.444 150.971 778.144 150.971 777.744C150.971 777.844 150.971 777.944 150.871 778.144C150.871 777.944 150.971 777.744 150.971 777.644C150.971 777.544 150.971 777.544 150.971 777.444C150.971 777.244 151.071 776.944 151.071 777.044C151.471 774.944 151.971 772.944 152.671 770.944C152.971 769.944 153.371 769.044 153.771 768.044C153.871 767.844 154.071 767.544 154.171 767.244C154.071 767.344 153.971 767.444 154.171 767.044C154.271 766.944 154.271 766.844 154.371 766.744C154.471 766.544 154.571 766.244 154.671 766.044C155.571 764.044 156.571 762.044 157.571 760.044C161.971 751.145 166.371 742.145 167.271 732.044C167.871 724.044 165.371 716.044 160.571 709.644C156.371 703.844 151.471 699.244 146.471 694.644Z" fill="#136289"/>
<path d="M136.271 659.945C136.271 659.845 136.371 659.845 136.371 659.745C136.371 659.645 136.471 659.645 136.471 659.545C136.871 658.645 136.371 659.845 136.271 659.945Z" fill="#136289"/>
<path d="M138.471 686.245C138.371 686.145 138.371 686.045 138.271 685.945C138.171 685.845 138.071 685.745 138.071 685.645C137.571 685.145 138.871 686.845 138.471 686.245Z" fill="#136289"/>
<path d="M134.871 680.645C134.771 680.445 134.771 680.345 134.671 680.145C134.671 680.245 134.771 680.445 134.871 680.645Z" fill="#136289"/>
<path d="M133.371 675.944C133.371 675.744 133.371 675.544 133.271 675.344C133.271 675.244 133.271 675.144 133.271 675.144V675.044C133.271 675.344 133.371 675.644 133.371 675.944Z" fill="#136289"/>
<path d="M153.571 721.044C153.671 721.244 153.671 721.344 153.771 721.544C153.771 721.544 153.771 721.644 153.871 721.644C154.271 722.544 153.271 720.344 153.571 721.044Z" fill="#136289"/>
<path d="M150.971 777.544C150.971 777.644 150.971 777.644 150.971 777.744C151.071 777.244 151.071 777.044 151.071 776.944C151.071 777.044 150.971 777.244 150.971 777.344C151.071 777.344 151.071 777.444 150.971 777.544Z" fill="#136289"/>
<path d="M155.071 726.444C155.071 726.444 155.071 726.544 155.071 726.444C155.071 726.644 155.071 726.744 155.171 726.844C155.171 726.744 154.971 725.444 155.071 726.444Z" fill="#136289"/>
<path d="M155.071 732.644C155.171 731.844 155.071 732.344 155.071 732.644V732.644Z" fill="#136289"/>
<path d="M151.871 743.745C151.771 744.045 151.671 744.245 151.571 744.345C151.871 744.145 151.971 743.745 151.871 743.745Z" fill="#136289"/>
<path d="M137.471 620.745C137.171 621.845 137.271 621.645 137.371 621.345C137.371 621.145 137.371 621.045 137.471 620.845C137.471 620.845 137.471 620.845 137.471 620.745Z" fill="#136289"/>
<path d="M154.171 767.044C154.271 766.944 154.371 766.644 154.371 766.444C154.371 766.544 154.271 766.744 154.171 767.044Z" fill="#136289"/>
<path d="M149.871 715.144C149.971 715.144 149.971 715.244 149.871 715.144C149.871 715.044 149.771 715.044 149.871 715.144Z" fill="#136289"/>
<path d="M168.671 612.145C168.671 612.445 168.771 612.745 168.771 613.045C168.771 613.245 168.871 613.445 168.871 613.745C168.871 613.245 168.771 612.645 168.671 612.145Z" fill="#136289"/>
<path d="M168.871 618.145C168.871 618.445 168.771 618.745 168.771 619.045C168.771 619.245 168.771 619.545 168.671 619.745C168.771 619.245 168.871 618.645 168.871 618.145Z" fill="#136289"/>
<path d="M194.671 722.444C194.771 722.644 194.771 722.744 194.871 722.944C194.971 723.244 195.171 723.544 195.271 723.844C195.071 723.344 194.871 722.844 194.671 722.444Z" fill="#136289"/>
<path d="M164.871 631.745C164.771 631.945 164.671 632.245 164.571 632.445C164.471 632.645 164.371 632.945 164.271 633.145C164.471 632.745 164.671 632.245 164.871 631.745Z" fill="#136289"/>
<path d="M170.971 647.944C171.071 647.744 171.171 647.444 171.271 647.244C171.371 647.044 171.471 646.744 171.571 646.544C171.371 646.944 171.171 647.444 170.971 647.944Z" fill="#136289"/>
<path d="M188.271 712.044C188.471 712.344 188.671 712.544 188.871 712.844C188.971 712.944 189.071 713.144 189.171 713.244C188.971 712.844 188.571 712.444 188.271 712.044Z" fill="#136289"/>
<path d="M172.971 679.744C172.771 679.544 172.671 679.344 172.471 679.044C172.271 678.844 172.171 678.644 171.971 678.444C172.371 678.944 172.671 679.344 172.971 679.744Z" fill="#136289"/>
<path d="M168.771 673.145C168.671 672.845 168.571 672.644 168.471 672.344C168.371 672.144 168.271 671.945 168.171 671.645C168.371 672.145 168.571 672.645 168.771 673.145Z" fill="#136289"/>
<path d="M166.871 661.644C166.871 661.344 166.971 661.144 166.971 660.844C166.971 660.544 166.971 660.344 167.071 660.044C167.071 660.544 166.971 661.144 166.871 661.644Z" fill="#136289"/>
<path d="M167.071 667.745C167.071 667.545 167.071 667.245 166.971 667.045C166.871 666.745 166.871 666.445 166.771 666.145C166.971 666.645 166.971 667.245 167.071 667.745Z" fill="#136289"/>
<path d="M194.971 773.844C195.071 773.644 195.171 773.444 195.271 773.244C195.371 772.944 195.471 772.644 195.571 772.344C195.371 772.844 195.171 773.344 194.971 773.844Z" fill="#136289"/>
<path d="M200.971 709.045C196.971 703.145 192.071 698.144 186.871 693.344C181.871 688.844 176.671 684.345 172.471 679.045C172.671 679.245 172.771 679.444 172.971 679.744C172.671 679.344 172.371 678.945 172.071 678.545C172.271 678.745 172.371 678.945 172.571 679.145C170.971 677.045 169.571 674.744 168.471 672.344C168.571 672.644 168.671 672.845 168.771 673.145C168.571 672.645 168.371 672.144 168.171 671.744C168.271 671.944 168.371 672.244 168.471 672.444C167.771 670.744 167.271 668.945 166.971 667.145C166.971 667.345 166.971 667.644 167.071 667.844C166.971 667.344 166.971 666.744 166.871 666.244C166.871 666.544 166.971 666.845 167.071 667.145C166.871 665.045 166.871 663.044 167.071 660.944C167.071 661.244 166.971 661.444 166.971 661.744C167.071 661.244 167.071 660.645 167.171 660.145C167.171 660.445 167.071 660.644 167.071 660.944C167.871 656.244 169.471 651.744 171.271 647.344C171.171 647.544 171.071 647.845 170.971 648.045C171.171 647.545 171.371 647.045 171.571 646.645C171.471 646.845 171.371 647.144 171.271 647.344C175.371 637.744 180.371 628.245 180.971 617.645C181.171 614.545 180.871 611.344 180.071 608.244C179.371 605.144 175.671 603.045 172.671 604.045C169.471 605.045 167.671 608.144 168.471 611.444C168.571 612.044 168.671 612.545 168.771 613.145C168.771 612.845 168.771 612.544 168.671 612.244C168.771 612.744 168.771 613.344 168.871 613.844C168.871 613.644 168.771 613.445 168.771 613.145C168.971 615.145 168.971 617.145 168.771 619.145C168.771 618.845 168.871 618.544 168.871 618.244C168.771 618.744 168.771 619.344 168.671 619.844C168.671 619.644 168.671 619.345 168.771 619.145C168.071 623.745 166.471 628.245 164.671 632.545C164.771 632.345 164.871 632.044 164.971 631.844C164.771 632.344 164.571 632.844 164.371 633.244C164.471 633.044 164.571 632.745 164.671 632.545C162.371 638.045 159.771 643.344 157.771 648.944C155.771 654.444 154.471 660.444 154.871 666.344C155.371 672.944 157.671 679.245 161.571 684.645C165.271 689.845 169.771 694.244 174.471 698.444C179.571 703.044 184.671 707.544 188.971 712.944C188.771 712.644 188.571 712.445 188.371 712.145C188.671 712.545 188.971 712.944 189.271 713.344C189.171 713.244 189.071 713.044 188.971 712.944C191.271 716.044 193.371 719.445 194.971 723.045C194.871 722.845 194.871 722.745 194.771 722.545C194.971 723.045 195.171 723.544 195.371 723.944C195.271 723.644 195.071 723.345 194.971 723.045C195.971 725.645 196.771 728.345 197.271 731.145C197.271 730.845 197.271 730.544 197.171 730.244C197.271 730.744 197.271 731.344 197.371 731.844C197.371 731.644 197.271 731.345 197.271 731.145C197.471 733.545 197.471 735.844 197.271 738.244C197.271 737.944 197.371 737.644 197.371 737.444C197.271 737.944 197.271 738.545 197.171 739.045C197.171 738.745 197.171 738.544 197.271 738.244C196.671 741.544 195.671 744.744 194.471 747.844C194.571 747.644 194.671 747.544 194.671 747.344C194.471 747.844 194.271 748.344 194.071 748.744C194.171 748.444 194.371 748.144 194.471 747.844C190.671 756.544 185.471 764.544 182.471 773.645C179.571 782.445 179.471 791.844 183.571 800.244C185.671 804.544 189.171 808.244 193.471 810.444C196.271 811.844 200.171 811.244 201.771 808.244C203.271 805.444 202.571 801.544 199.571 799.944C198.971 799.644 198.371 799.244 197.771 798.844C197.971 798.944 198.071 799.144 198.271 799.344C197.871 799.044 197.471 798.744 197.071 798.444C197.271 798.644 197.571 798.744 197.771 798.944C196.971 798.244 196.271 797.544 195.571 796.744C195.771 796.944 195.871 797.244 196.071 797.444C195.771 797.044 195.471 796.644 195.171 796.244C195.271 796.444 195.471 796.544 195.571 796.744C194.971 795.844 194.371 794.844 193.871 793.744C193.971 793.944 194.071 794.244 194.171 794.444C193.971 793.944 193.771 793.445 193.571 793.045C193.671 793.245 193.771 793.544 193.871 793.744C193.271 792.144 192.871 790.544 192.571 788.944C192.571 789.244 192.571 789.444 192.671 789.744C192.571 789.244 192.571 788.645 192.471 788.145C192.471 788.445 192.571 788.644 192.571 788.944C192.371 786.944 192.371 785.045 192.571 783.045C192.571 783.345 192.471 783.644 192.471 783.944C192.571 783.444 192.571 782.844 192.671 782.344C192.671 782.544 192.671 782.845 192.571 783.045C193.171 779.745 194.171 776.544 195.371 773.444C195.271 773.644 195.171 773.845 195.071 774.045C195.271 773.545 195.471 773.044 195.671 772.645C195.571 772.945 195.471 773.245 195.371 773.545C198.271 766.845 202.171 760.544 205.071 753.844C208.271 746.444 210.471 738.544 209.371 730.444C208.171 722.544 205.271 715.445 200.971 709.045Z" fill="#136289"/>
<path d="M194.571 747.145C194.471 747.345 194.371 747.445 194.371 747.645C194.271 747.945 194.071 748.245 193.971 748.545C194.171 748.145 194.371 747.645 194.571 747.145Z" fill="#136289"/>
<path d="M197.071 730.145C197.071 730.445 197.171 730.745 197.171 731.045C197.171 731.245 197.271 731.545 197.271 731.745C197.271 731.245 197.171 730.645 197.071 730.145Z" fill="#136289"/>
<path d="M197.271 737.245C197.271 737.545 197.171 737.845 197.171 738.045C197.171 738.345 197.171 738.545 197.071 738.845C197.171 738.345 197.271 737.745 197.271 737.245Z" fill="#136289"/>
<path d="M1329.13 566.561C1318.3 572.747 1299.34 551.049 1286.71 531.367C1278.85 519.173 1267.21 524.911 1259.49 531.008C1244.55 516.259 1228.66 501.733 1211.78 489.987C1205.33 485.504 1198.7 482.634 1191.97 481.065C1186.19 454.3 1167.42 450.041 1149.5 456.9C1130.54 464.163 1135.96 465.194 1116.1 465.194C1103.51 465.194 1092.05 491.735 1085.32 511.192C1072.95 515.855 1060.86 519.128 1049.3 518.993C986.389 518.276 946.401 657.615 906.684 657.615C899.011 657.615 891.203 659.857 883.169 663.668C866.966 653.625 849.229 648.918 840.789 652.325C828.152 657.391 828.152 685.546 795.656 697.965C777.016 705.093 768.169 728.002 764.017 746.204C707.916 770.728 622.434 754.947 585.334 756.964C581.724 732.127 559.157 707.29 545.617 713.521C532.077 719.753 523.953 702.134 512.218 682.273C500.484 662.412 491.457 688.684 458.961 682.273C426.465 675.862 439.102 666.941 418.341 660.216C409.043 657.212 399.385 661.336 391.532 666.761C348.474 645.6 294.405 627.891 274.817 626.591C214.158 622.467 208.967 658.153 194.48 687.384C192.945 686.353 191.456 685.412 190.102 684.515C172.184 673.127 171.01 708.321 152.957 704.151C142.486 701.775 139.056 710.473 138.018 718.229C125.155 714.642 115.948 707.245 115.948 707.245C115.948 707.245 117.166 687.967 106.831 677.521C109.042 673.307 110.983 669.048 111.976 664.833C115.451 650.263 115.045 621.391 100.828 622.422C86.6109 623.453 83.4515 603.816 70.9496 597.092C62.8707 592.743 54.6113 606.327 49.2405 617.042C26.7189 612.2 0 614.173 0 614.173V833H1354V609.331C1353.91 609.286 1353.82 609.241 1353.73 609.196L1354 609.017C1353.95 609.017 1339.96 560.374 1329.13 566.561Z" fill="#06314C"/>
<path d="M1125.8 320.692C1125.8 320.848 1125.72 321.082 1125.72 321.238C1125.72 321.472 1125.72 321.706 1125.64 321.939C1125.72 321.472 1125.72 321.082 1125.8 320.692Z" fill="#136289"/>
<path d="M1127.75 407.71C1127.83 407.944 1127.91 408.1 1127.98 408.334C1128.06 408.49 1128.14 408.646 1128.22 408.802C1128.06 408.49 1127.91 408.1 1127.75 407.71Z" fill="#136289"/>
<path d="M1115.51 354.922C1115.59 354.766 1115.74 354.688 1115.82 354.532C1115.98 354.376 1116.13 354.142 1116.21 353.986C1115.98 354.22 1115.74 354.532 1115.51 354.922Z" fill="#136289"/>
<path d="M1124.16 401.94C1124.32 402.096 1124.4 402.252 1124.47 402.408C1124.63 402.564 1124.71 402.72 1124.86 402.876C1124.63 402.564 1124.4 402.252 1124.16 401.94Z" fill="#136289"/>
<path d="M1119.41 397.417C1119.56 397.573 1119.72 397.729 1119.87 397.807C1120.03 397.885 1120.19 398.041 1120.34 398.119C1120.03 397.885 1119.72 397.651 1119.41 397.417Z" fill="#136289"/>
<path d="M1118.63 336.287C1118.47 336.443 1118.31 336.676 1118.24 336.832C1118.16 336.988 1118 337.144 1117.92 337.222C1118.08 336.988 1118.31 336.676 1118.63 336.287Z" fill="#136289"/>
<path d="M1124.24 326.695C1124.16 326.929 1124.09 327.085 1123.93 327.319C1123.85 327.475 1123.77 327.631 1123.7 327.865C1123.93 327.475 1124.09 327.085 1124.24 326.695Z" fill="#136289"/>
<path d="M1113.4 383.148C1113.25 382.992 1113.09 382.914 1112.93 382.758C1112.78 382.68 1112.62 382.524 1112.47 382.446C1112.78 382.602 1113.09 382.914 1113.4 383.148Z" fill="#136289"/>
<path d="M1111.14 381.121C1110.99 380.965 1110.91 380.809 1110.83 380.653C1110.67 380.497 1110.6 380.341 1110.44 380.185C1110.67 380.497 1110.91 380.809 1111.14 381.121Z" fill="#136289"/>
<path d="M1109.82 364.279C1109.89 364.045 1110.05 363.811 1110.13 363.577C1110.21 363.421 1110.21 363.265 1110.28 363.109C1110.13 363.499 1109.97 363.889 1109.82 364.279Z" fill="#136289"/>
<path d="M1108.41 370.283C1108.41 370.049 1108.49 369.893 1108.49 369.659C1108.49 369.425 1108.49 369.191 1108.57 368.957C1108.49 369.425 1108.41 369.893 1108.41 370.283Z" fill="#136289"/>
<path d="M1109.58 378.704C1109.5 378.548 1109.43 378.392 1109.43 378.236C1109.35 378.002 1109.19 377.846 1109.11 377.612C1109.27 378.002 1109.43 378.392 1109.58 378.704Z" fill="#136289"/>
<path d="M1108.49 375.195C1108.49 375.039 1108.49 374.883 1108.41 374.727C1108.33 374.493 1108.33 374.259 1108.26 373.947C1108.41 374.415 1108.41 374.805 1108.49 375.195Z" fill="#136289"/>
<path d="M1116.21 462.213C1116.13 461.979 1116.05 461.745 1115.98 461.511C1115.9 461.355 1115.82 461.199 1115.74 461.043C1115.9 461.433 1116.05 461.823 1116.21 462.213Z" fill="#136289"/>
<path d="M1115.43 459.874C1115.43 459.718 1115.43 459.562 1115.35 459.328C1115.27 459.094 1115.27 458.86 1115.2 458.626C1115.27 459.094 1115.35 459.484 1115.43 459.874Z" fill="#136289"/>
<path d="M1115.98 454.104C1116.05 453.948 1116.13 453.792 1116.21 453.636C1116.29 453.402 1116.37 453.168 1116.44 452.935C1116.29 453.324 1116.13 453.714 1115.98 454.104Z" fill="#136289"/>
<path d="M1115.27 457.223C1115.27 456.989 1115.35 456.833 1115.35 456.599C1115.35 456.365 1115.35 456.132 1115.43 455.976C1115.35 456.365 1115.35 456.833 1115.27 457.223Z" fill="#136289"/>
<path d="M1128.3 392.661C1126.03 390.556 1123.54 388.763 1120.81 387.281C1118.16 385.8 1115.43 384.552 1112.93 382.759C1113.09 382.915 1113.25 382.993 1113.4 383.149C1113.09 382.915 1112.78 382.681 1112.47 382.447C1112.62 382.603 1112.78 382.681 1112.93 382.759C1112.16 382.135 1111.45 381.433 1110.83 380.653C1110.91 380.809 1111.06 380.965 1111.14 381.121C1110.91 380.809 1110.67 380.497 1110.44 380.186C1110.6 380.341 1110.67 380.497 1110.83 380.653C1110.28 379.874 1109.82 379.094 1109.43 378.236C1109.5 378.392 1109.5 378.548 1109.58 378.704C1109.43 378.314 1109.27 377.924 1109.11 377.612C1109.19 377.846 1109.27 378.002 1109.43 378.236C1108.96 377.067 1108.65 375.897 1108.49 374.727C1108.49 374.883 1108.49 375.039 1108.57 375.195C1108.49 374.805 1108.49 374.338 1108.41 373.948C1108.41 374.182 1108.49 374.416 1108.57 374.727C1108.41 373.09 1108.41 371.375 1108.57 369.737C1108.57 369.971 1108.49 370.127 1108.49 370.361C1108.57 369.971 1108.57 369.503 1108.65 369.113C1108.65 369.347 1108.57 369.581 1108.57 369.815C1108.88 367.71 1109.5 365.683 1110.21 363.733C1110.13 363.967 1109.97 364.201 1109.89 364.435C1110.05 364.045 1110.21 363.655 1110.36 363.343C1110.28 363.499 1110.28 363.655 1110.21 363.811C1111.69 360.536 1113.64 357.573 1115.82 354.688C1115.74 354.844 1115.59 354.922 1115.51 355.078C1115.74 354.766 1115.98 354.454 1116.21 354.143C1116.05 354.298 1115.9 354.532 1115.82 354.688C1122.76 345.799 1131.26 337.69 1134.3 326.462C1135.16 323.265 1135.55 319.756 1135.16 316.481C1135 315.156 1134.77 314.142 1133.75 313.129C1132.97 312.349 1131.57 311.725 1130.4 311.725C1129.15 311.803 1127.91 312.193 1127.05 313.129C1126.27 313.986 1125.49 315.234 1125.64 316.481C1125.88 318.119 1125.88 319.756 1125.64 321.394C1125.64 321.238 1125.72 321.004 1125.72 320.848C1125.64 321.238 1125.64 321.706 1125.57 322.095C1125.57 321.862 1125.64 321.628 1125.64 321.394C1125.33 323.499 1124.71 325.526 1123.93 327.476C1124.01 327.242 1124.08 327.086 1124.24 326.852C1124.08 327.242 1123.93 327.632 1123.77 327.943C1123.85 327.788 1123.93 327.632 1124.01 327.398C1122.45 330.829 1120.5 333.947 1118.24 336.91C1118.39 336.754 1118.55 336.521 1118.63 336.365C1118.39 336.677 1118.16 336.988 1117.93 337.3C1118 337.144 1118.16 336.988 1118.24 336.91C1111.92 344.942 1104.28 352.271 1100.77 362.174C1097.5 371.297 1098.43 382.993 1106.38 389.464C1108.72 391.414 1111.3 392.895 1113.95 394.299C1116.05 395.39 1118.08 396.482 1120.03 397.885C1119.87 397.73 1119.72 397.574 1119.56 397.496C1119.87 397.73 1120.19 397.963 1120.5 398.197C1120.34 398.119 1120.19 397.963 1120.03 397.885C1121.75 399.289 1123.31 400.848 1124.63 402.486C1124.47 402.33 1124.4 402.174 1124.32 402.018C1124.55 402.33 1124.79 402.642 1125.02 402.954C1124.86 402.798 1124.79 402.642 1124.63 402.486C1125.96 404.357 1127.13 406.307 1128.06 408.412C1127.98 408.178 1127.91 408.022 1127.83 407.788C1127.98 408.178 1128.14 408.568 1128.3 408.88C1128.22 408.724 1128.14 408.568 1128.06 408.412C1128.84 410.361 1129.47 412.467 1129.78 414.572C1129.78 414.338 1129.78 414.104 1129.7 413.948C1129.78 414.338 1129.78 414.806 1129.85 415.196C1129.85 414.962 1129.78 414.806 1129.78 414.572C1129.93 416.287 1129.93 418.081 1129.78 419.796C1129.78 419.562 1129.85 419.406 1129.85 419.172C1129.78 419.562 1129.78 420.03 1129.7 420.42C1129.7 420.186 1129.7 420.03 1129.78 419.796C1129.54 421.277 1129.15 422.681 1128.61 424.084C1128.69 423.929 1128.76 423.773 1128.84 423.539C1128.69 423.929 1128.53 424.318 1128.37 424.63C1128.45 424.396 1128.53 424.24 1128.61 424.007C1127.91 425.566 1126.97 427.047 1125.96 428.451C1126.03 428.295 1126.19 428.217 1126.27 428.061C1126.03 428.373 1125.8 428.685 1125.57 428.997C1125.72 428.763 1125.88 428.607 1126.03 428.373C1121.9 433.441 1116.52 437.34 1112.39 442.408C1109.89 445.449 1107.79 448.802 1106.7 452.623C1105.76 455.898 1105.76 459.406 1106.54 462.681C1107.55 466.658 1109.97 470.089 1113.4 472.272C1115.51 473.598 1118.7 472.818 1119.87 470.556C1121.12 468.217 1120.42 465.488 1118.16 464.085C1118.08 464.007 1117.93 463.929 1117.85 463.851C1118 464.007 1118.16 464.085 1118.24 464.241C1117.93 464.007 1117.61 463.773 1117.3 463.539C1117.46 463.695 1117.61 463.773 1117.85 463.929C1117.54 463.617 1117.22 463.305 1116.91 462.993C1116.99 463.149 1117.07 463.305 1117.22 463.461C1116.99 463.149 1116.76 462.837 1116.52 462.525C1116.68 462.681 1116.83 462.837 1116.99 462.993C1116.68 462.525 1116.37 461.979 1116.13 461.434C1116.21 461.668 1116.29 461.902 1116.37 462.135C1116.21 461.746 1116.05 461.356 1115.9 461.044C1115.98 461.2 1116.05 461.356 1116.13 461.512C1115.9 460.81 1115.74 460.108 1115.59 459.406C1115.59 459.562 1115.59 459.718 1115.66 459.952C1115.59 459.562 1115.59 459.094 1115.51 458.705C1115.51 458.939 1115.59 459.172 1115.66 459.406C1115.59 458.471 1115.59 457.535 1115.66 456.599C1115.66 456.833 1115.59 456.989 1115.59 457.223C1115.66 456.833 1115.66 456.365 1115.74 455.976C1115.74 456.209 1115.66 456.443 1115.66 456.599C1115.82 455.586 1116.13 454.572 1116.52 453.636C1116.44 453.792 1116.37 453.948 1116.29 454.104C1116.44 453.714 1116.6 453.324 1116.76 453.013C1116.68 453.246 1116.6 453.48 1116.52 453.714C1117.22 452.155 1118.16 450.673 1119.17 449.348C1119.02 449.504 1118.94 449.66 1118.78 449.816C1119.02 449.504 1119.25 449.192 1119.48 448.88C1119.33 449.036 1119.25 449.192 1119.09 449.348C1122.6 444.981 1127.05 441.472 1130.87 437.418C1134.85 433.129 1138.12 428.061 1139.06 422.213C1139.91 416.833 1139.45 411.375 1137.42 406.307C1135.24 401.082 1132.27 396.404 1128.3 392.661Z" fill="#136289"/>
<path d="M1118.47 449.737C1118.63 449.582 1118.7 449.426 1118.86 449.27C1119.02 449.114 1119.09 448.958 1119.25 448.802C1118.94 449.114 1118.7 449.426 1118.47 449.737Z" fill="#136289"/>
<path d="M1128.76 423.46C1128.69 423.616 1128.61 423.772 1128.53 424.006C1128.45 424.24 1128.37 424.396 1128.3 424.63C1128.45 424.24 1128.61 423.85 1128.76 423.46Z" fill="#136289"/>
<path d="M1129.78 419.094C1129.78 419.328 1129.7 419.484 1129.7 419.718C1129.7 419.951 1129.7 420.107 1129.62 420.341C1129.7 419.951 1129.7 419.484 1129.78 419.094Z" fill="#136289"/>
<path d="M1129.62 413.87C1129.62 414.104 1129.7 414.337 1129.7 414.493C1129.7 414.727 1129.78 414.883 1129.78 415.117C1129.7 414.649 1129.62 414.259 1129.62 413.87Z" fill="#136289"/>
<path d="M1118.16 464.396C1118 464.24 1117.85 464.163 1117.77 464.007C1117.61 463.851 1117.38 463.773 1117.22 463.617C1117.54 463.851 1117.85 464.163 1118.16 464.396Z" fill="#136289"/>
<path d="M1117.14 463.539C1117.07 463.383 1116.91 463.227 1116.83 463.071C1116.68 462.915 1116.52 462.759 1116.37 462.603C1116.6 462.837 1116.83 463.149 1117.14 463.539Z" fill="#136289"/>
<path d="M1126.19 428.061C1126.11 428.216 1125.96 428.294 1125.88 428.45C1125.72 428.684 1125.57 428.84 1125.41 429.074C1125.64 428.684 1125.96 428.372 1126.19 428.061Z" fill="#136289"/>
<path d="M1145.37 310.009C1145.53 310.867 1145.29 309.152 1145.37 310.009V310.009Z" fill="#136289"/>
<path d="M1142.17 363.967C1142.41 363.265 1142.33 363.265 1142.25 363.499C1142.25 363.655 1142.25 363.733 1142.17 363.889C1142.17 363.967 1142.17 363.967 1142.17 363.967Z" fill="#136289"/>
<path d="M1152.39 383.07C1150.6 381.355 1148.8 379.64 1147.17 377.846C1146.78 377.378 1146.39 376.91 1146 376.521L1145.92 376.443C1146 376.521 1146 376.599 1146.07 376.677C1146.39 377.144 1145.37 375.819 1145.68 376.209C1145.76 376.287 1145.84 376.365 1145.84 376.443C1145.68 376.209 1145.53 376.053 1145.37 375.819C1144.67 374.883 1144.05 373.87 1143.58 372.856C1143.42 372.622 1143.27 372.31 1143.19 372.076C1143.19 371.998 1143.11 371.92 1143.11 371.842C1143.19 371.998 1143.19 372.076 1143.27 372.232C1143.19 372.076 1143.19 371.92 1143.11 371.842C1142.95 371.53 1142.8 371.14 1143.11 371.842C1142.95 371.374 1142.8 370.985 1142.64 370.517C1142.49 369.971 1142.33 369.425 1142.25 368.879C1142.17 368.645 1142.17 368.177 1142.1 367.944C1142.1 368.022 1142.1 368.099 1142.1 368.099C1142.1 368.255 1142.1 368.411 1142.17 368.567C1142.17 368.333 1142.1 368.1 1142.1 367.866V367.944C1142.1 367.788 1142.1 367.554 1142.02 367.398C1141.94 366.618 1141.94 365.76 1142.02 364.981C1142.02 364.669 1142.1 364.357 1142.1 364.045V364.123C1142.1 364.045 1142.1 364.045 1142.1 363.967V363.889C1142.1 363.811 1142.1 363.733 1142.17 363.655C1142.17 363.577 1142.17 363.499 1142.17 363.499C1142.49 361.862 1142.95 360.224 1143.5 358.587C1143.73 357.807 1144.05 357.105 1144.36 356.403C1144.44 356.248 1144.44 356.17 1144.51 356.014C1144.51 356.092 1144.44 356.092 1144.44 356.17C1144.51 356.092 1144.9 355.156 1144.59 355.858C1144.59 355.936 1144.51 355.936 1144.51 356.014C1144.67 355.624 1144.9 355.234 1145.06 354.766C1145.76 353.207 1146.46 351.647 1147.24 350.166C1148.88 346.735 1150.44 343.304 1151.69 339.717C1156.37 326.15 1156.44 310.867 1152 297.222C1151.45 295.584 1150.91 294.025 1150.21 292.465C1149.74 291.296 1149.19 290.36 1148.02 289.658C1147.01 289.035 1145.53 288.801 1144.36 289.191C1143.19 289.58 1142.1 290.282 1141.55 291.374C1141.01 292.387 1140.62 293.869 1141.08 295.039C1142.41 298.235 1143.5 301.588 1144.28 305.019C1144.67 306.735 1144.98 308.45 1145.22 310.165V310.243C1145.14 309.386 1145.37 311.179 1145.22 310.243C1145.22 310.321 1145.22 310.321 1145.22 310.399C1145.29 310.867 1145.29 311.257 1145.37 311.725C1145.45 312.583 1145.53 313.518 1145.61 314.376C1145.84 317.885 1145.76 321.394 1145.37 324.824C1145.37 325.136 1145.29 325.37 1145.29 325.682C1145.29 325.682 1145.29 325.682 1145.29 325.604C1145.29 325.682 1145.29 325.682 1145.29 325.76C1145.29 325.838 1145.29 325.916 1145.29 325.994C1145.29 326.072 1145.29 326.072 1145.29 326.15V326.228C1145.14 327.086 1144.98 328.021 1144.83 328.879C1144.51 330.594 1144.12 332.31 1143.58 333.947C1143.11 335.663 1142.56 337.3 1141.94 338.938C1141.78 339.327 1141.63 339.717 1141.47 340.029C1141.47 340.107 1141.4 340.185 1141.4 340.341C1141.4 340.419 1141.32 340.497 1141.32 340.575C1141.01 341.277 1141.32 340.497 1141.4 340.341C1141.16 340.653 1141.01 341.199 1140.85 341.511C1140.69 341.9 1140.46 342.29 1140.3 342.758C1138.67 346.189 1137.03 349.62 1135.55 353.129C1132.82 359.6 1131.41 366.852 1133.75 373.714C1137.26 384.006 1146.7 389.932 1153.64 397.729C1154.03 398.197 1154.42 398.665 1154.81 399.133C1154.88 399.211 1154.88 399.289 1154.96 399.367C1154.88 399.211 1154.88 399.289 1155.04 399.445C1155.2 399.601 1155.35 399.757 1155.43 399.913C1155.43 399.913 1155.2 399.601 1155.04 399.445C1155.04 399.445 1155.04 399.445 1154.96 399.367C1154.96 399.367 1154.96 399.445 1155.04 399.445C1155.12 399.601 1155.27 399.757 1155.35 399.835C1156.05 400.848 1156.68 401.862 1157.3 402.876C1157.54 403.343 1157.77 403.811 1158 404.279C1157.93 404.123 1157.93 404.045 1157.85 403.889C1157.61 403.343 1158.39 405.059 1158 404.357C1158 404.357 1158 404.279 1157.93 404.279C1158.08 404.591 1158.16 404.903 1158.24 405.293C1158.47 405.917 1158.63 406.618 1158.78 407.32C1158.86 407.632 1158.86 407.944 1158.94 408.256V408.178C1158.86 407.32 1158.94 408.412 1159.02 408.49C1159.02 408.412 1159.02 408.334 1158.94 408.178C1158.94 408.49 1159.02 408.724 1159.02 409.035C1159.1 409.815 1159.1 410.673 1159.02 411.453C1159.02 411.843 1158.94 412.232 1158.94 412.7C1158.94 412.856 1158.78 413.792 1158.94 413.012C1159.02 412.7 1159.02 412.388 1158.94 413.012C1158.94 413.09 1158.94 413.246 1158.86 413.246C1158.55 415.039 1158.08 416.755 1157.54 418.47C1157.22 419.328 1156.99 420.108 1156.68 420.965C1156.6 421.121 1156.52 421.355 1156.44 421.667C1156.52 421.667 1156.44 421.901 1156.21 422.135C1156.29 422.057 1156.37 421.823 1156.44 421.667C1156.44 421.667 1156.37 421.745 1156.29 421.901C1156.13 422.213 1156.05 422.447 1155.9 422.759C1155.2 424.396 1154.42 425.956 1153.56 427.593C1150.28 434.299 1146.85 441.082 1146.23 448.568C1145.68 455.04 1147.55 461.901 1152.08 466.658C1153.17 467.827 1154.57 468.841 1155.98 469.699C1158.08 470.946 1161.2 470.244 1162.45 467.983C1163.62 465.722 1162.99 462.915 1160.73 461.511C1160.5 461.355 1160.19 461.2 1159.95 461.044L1159.87 460.966C1159.87 460.966 1159.87 460.966 1159.95 460.966C1160.11 461.122 1160.58 461.433 1159.95 460.966C1159.41 460.498 1159.72 460.81 1159.95 460.966C1159.41 460.498 1158.94 460.03 1158.55 459.562C1158.55 459.484 1158.47 459.484 1158.47 459.406C1158.55 459.484 1158.55 459.562 1158.63 459.562C1158.94 460.03 1157.93 458.704 1158.32 459.172C1158.39 459.25 1158.47 459.328 1158.47 459.406C1158.32 459.172 1158.16 458.938 1158 458.704C1157.61 458.081 1157.3 457.535 1156.99 456.833C1156.99 456.833 1156.99 456.833 1156.99 456.755V456.833C1157.22 457.535 1156.83 456.365 1156.76 456.365C1156.83 456.443 1156.91 456.599 1156.91 456.755C1156.83 456.521 1156.68 456.209 1156.6 455.975C1156.37 455.274 1156.21 454.572 1156.05 453.87C1156.05 453.714 1155.98 453.48 1155.98 453.324C1155.98 453.324 1155.9 453.168 1155.9 452.934C1155.9 452.856 1155.9 452.856 1155.9 452.778C1155.9 452.622 1155.9 452.545 1155.82 452.389C1155.82 452.467 1155.82 452.544 1155.9 452.622C1155.82 451.999 1155.82 451.375 1155.74 450.751C1155.74 450.049 1155.74 449.348 1155.82 448.724C1155.82 448.412 1155.9 448.178 1155.9 447.866C1155.9 447.944 1155.9 448.022 1155.82 448.178C1155.82 448.022 1155.9 447.866 1155.9 447.788C1155.9 447.71 1155.9 447.71 1155.9 447.632C1155.9 447.476 1155.98 447.242 1155.98 447.32C1156.29 445.683 1156.68 444.123 1157.22 442.564C1157.46 441.784 1157.77 441.082 1158.08 440.303C1158.16 440.147 1158.32 439.913 1158.39 439.679C1158.32 439.757 1158.24 439.835 1158.39 439.523C1158.47 439.445 1158.47 439.367 1158.55 439.289C1158.63 439.133 1158.71 438.899 1158.78 438.743C1159.48 437.184 1160.26 435.624 1161.04 434.065C1164.48 427.125 1167.91 420.108 1168.61 412.232C1169.08 405.995 1167.13 399.757 1163.38 394.766C1160.11 390.244 1156.29 386.657 1152.39 383.07Z" fill="#136289"/>
<path d="M1144.44 356.014C1144.44 355.936 1144.51 355.936 1144.51 355.858C1144.51 355.78 1144.59 355.78 1144.59 355.702C1144.9 355 1144.51 355.936 1144.44 356.014Z" fill="#136289"/>
<path d="M1146.15 376.521C1146.07 376.443 1146.07 376.365 1146 376.287C1145.92 376.209 1145.84 376.131 1145.84 376.053C1145.45 375.663 1146.46 376.988 1146.15 376.521Z" fill="#136289"/>
<path d="M1155.98 452.778C1155.98 452.934 1156.05 453.012 1156.05 453.168C1156.05 453.168 1156.05 453.012 1155.98 452.544C1155.98 452.622 1155.98 452.622 1155.98 452.7C1155.98 452.778 1155.98 452.778 1155.98 452.778Z" fill="#136289"/>
<path d="M1143.34 372.154C1143.27 371.998 1143.27 371.92 1143.19 371.764C1143.19 371.842 1143.27 371.998 1143.34 372.154Z" fill="#136289"/>
<path d="M1142.17 368.489C1142.17 368.333 1142.17 368.177 1142.1 368.021C1142.1 367.943 1142.1 367.866 1142.1 367.866V367.788C1142.1 368.022 1142.17 368.255 1142.17 368.489Z" fill="#136289"/>
<path d="M1160.03 460.731C1160.65 461.277 1160.19 460.887 1160.03 460.731C1159.8 460.575 1159.49 460.342 1160.03 460.731Z" fill="#136289"/>
<path d="M1156.99 456.677V456.599C1156.91 456.443 1156.91 456.287 1156.83 456.209C1156.83 456.287 1157.3 457.379 1156.99 456.677Z" fill="#136289"/>
<path d="M1157.93 403.655C1158 403.811 1158 403.889 1158.08 404.045C1158.08 404.045 1158.08 404.123 1158.16 404.123C1158.47 404.825 1157.69 403.109 1157.93 403.655Z" fill="#136289"/>
<path d="M1155.9 447.71C1155.9 447.788 1155.9 447.788 1155.9 447.866C1155.98 447.476 1155.98 447.32 1155.98 447.242C1155.98 447.32 1155.9 447.476 1155.9 447.554C1155.98 447.554 1155.98 447.632 1155.9 447.71Z" fill="#136289"/>
<path d="M1159.09 407.866C1159.09 407.866 1159.09 407.944 1159.09 407.866C1159.09 408.022 1159.09 408.1 1159.17 408.178C1159.17 408.1 1159.02 407.086 1159.09 407.866Z" fill="#136289"/>
<path d="M1159.09 412.7C1159.17 412.076 1159.09 412.466 1159.09 412.7V412.7Z" fill="#136289"/>
<path d="M1156.6 421.355C1156.52 421.589 1156.44 421.745 1156.37 421.823C1156.6 421.667 1156.68 421.355 1156.6 421.355Z" fill="#136289"/>
<path d="M1145.37 325.448C1145.14 326.306 1145.22 326.15 1145.29 325.916C1145.29 325.76 1145.29 325.682 1145.37 325.526C1145.37 325.526 1145.37 325.526 1145.37 325.448Z" fill="#136289"/>
<path d="M1158.39 439.523C1158.47 439.445 1158.55 439.211 1158.55 439.055C1158.55 439.133 1158.47 439.289 1158.39 439.523Z" fill="#136289"/>
<path d="M1158.63 459.406C1158.55 459.328 1158.55 459.25 1158.47 459.25C1158.39 459.172 1158.32 459.094 1158.32 459.016C1157.93 458.548 1158.94 459.796 1158.63 459.406Z" fill="#136289"/>
<path d="M1155.04 399.055C1155.12 399.055 1155.12 399.133 1155.04 399.055C1155.04 398.977 1154.96 398.977 1155.04 399.055Z" fill="#136289"/>
<path d="M1169.7 318.743C1169.7 318.977 1169.78 319.211 1169.78 319.444C1169.78 319.6 1169.86 319.756 1169.86 319.99C1169.86 319.6 1169.78 319.133 1169.7 318.743Z" fill="#136289"/>
<path d="M1169.86 323.421C1169.86 323.655 1169.78 323.889 1169.78 324.123C1169.78 324.279 1169.78 324.513 1169.7 324.668C1169.78 324.279 1169.86 323.811 1169.86 323.421Z" fill="#136289"/>
<path d="M1189.97 404.747C1190.05 404.903 1190.05 404.981 1190.13 405.136C1190.21 405.37 1190.36 405.604 1190.44 405.838C1190.28 405.448 1190.13 405.058 1189.97 404.747Z" fill="#136289"/>
<path d="M1166.74 334.025C1166.66 334.181 1166.58 334.415 1166.5 334.571C1166.42 334.727 1166.35 334.961 1166.27 335.117C1166.42 334.805 1166.58 334.415 1166.74 334.025Z" fill="#136289"/>
<path d="M1171.49 346.657C1171.57 346.501 1171.65 346.267 1171.73 346.111C1171.8 345.955 1171.88 345.721 1171.96 345.565C1171.8 345.877 1171.65 346.267 1171.49 346.657Z" fill="#136289"/>
<path d="M1184.98 396.638C1185.14 396.872 1185.29 397.028 1185.45 397.261C1185.53 397.339 1185.61 397.495 1185.68 397.573C1185.53 397.261 1185.22 396.95 1184.98 396.638Z" fill="#136289"/>
<path d="M1173.05 371.452C1172.9 371.296 1172.82 371.14 1172.66 370.906C1172.51 370.75 1172.43 370.594 1172.27 370.438C1172.58 370.828 1172.82 371.14 1173.05 371.452Z" fill="#136289"/>
<path d="M1169.78 366.306C1169.7 366.072 1169.62 365.916 1169.54 365.682C1169.47 365.527 1169.39 365.371 1169.31 365.137C1169.47 365.527 1169.62 365.916 1169.78 366.306Z" fill="#136289"/>
<path d="M1168.3 357.339C1168.3 357.105 1168.37 356.949 1168.37 356.716C1168.37 356.482 1168.37 356.326 1168.45 356.092C1168.45 356.482 1168.37 356.949 1168.3 357.339Z" fill="#136289"/>
<path d="M1168.45 362.096C1168.45 361.94 1168.45 361.706 1168.37 361.55C1168.3 361.316 1168.3 361.082 1168.22 360.848C1168.37 361.238 1168.37 361.706 1168.45 362.096Z" fill="#136289"/>
<path d="M1188.1 452.544C1188.1 452.311 1188.18 452.077 1188.18 451.843C1188.18 451.687 1188.18 451.453 1188.26 451.297C1188.18 451.687 1188.18 452.155 1188.1 452.544Z" fill="#136289"/>
<path d="M1188.26 457.067C1188.26 456.833 1188.18 456.677 1188.18 456.443C1188.18 456.209 1188.1 456.053 1188.1 455.819C1188.1 456.209 1188.18 456.677 1188.26 457.067Z" fill="#136289"/>
<path d="M1190.21 444.825C1190.28 444.669 1190.36 444.513 1190.44 444.357C1190.52 444.123 1190.6 443.889 1190.67 443.655C1190.52 444.045 1190.36 444.435 1190.21 444.825Z" fill="#136289"/>
<path d="M1194.88 394.298C1191.77 389.698 1187.94 385.799 1183.89 382.057C1179.99 378.548 1175.94 375.039 1172.66 370.907C1172.82 371.062 1172.9 371.218 1173.05 371.452C1172.82 371.14 1172.58 370.829 1172.35 370.517C1172.51 370.673 1172.58 370.829 1172.74 370.984C1171.49 369.347 1170.4 367.554 1169.54 365.682C1169.62 365.916 1169.7 366.072 1169.78 366.306C1169.62 365.916 1169.47 365.526 1169.31 365.214C1169.39 365.37 1169.47 365.604 1169.54 365.76C1169 364.435 1168.61 363.031 1168.37 361.628C1168.37 361.784 1168.37 362.018 1168.45 362.173C1168.37 361.784 1168.37 361.316 1168.3 360.926C1168.3 361.16 1168.37 361.394 1168.45 361.628C1168.3 359.99 1168.3 358.431 1168.45 356.793C1168.45 357.027 1168.37 357.183 1168.37 357.417C1168.45 357.027 1168.45 356.559 1168.53 356.17C1168.53 356.403 1168.45 356.559 1168.45 356.793C1169.08 353.129 1170.32 349.62 1171.73 346.189C1171.65 346.345 1171.57 346.579 1171.49 346.735C1171.65 346.345 1171.8 345.955 1171.96 345.643C1171.88 345.799 1171.8 346.033 1171.73 346.189C1174.92 338.704 1178.82 331.296 1179.29 323.031C1179.45 320.614 1179.21 318.119 1178.59 315.701C1178.04 313.284 1175.16 311.647 1172.82 312.427C1170.32 313.206 1168.92 315.623 1169.54 318.197C1169.62 318.664 1169.7 319.054 1169.78 319.522C1169.78 319.288 1169.78 319.054 1169.7 318.82C1169.78 319.21 1169.78 319.678 1169.85 320.068C1169.85 319.912 1169.78 319.756 1169.78 319.522C1169.93 321.082 1169.93 322.641 1169.78 324.201C1169.78 323.967 1169.85 323.733 1169.85 323.499C1169.78 323.889 1169.78 324.356 1169.7 324.746C1169.7 324.59 1169.7 324.357 1169.78 324.201C1169.23 327.787 1167.98 331.296 1166.58 334.649C1166.66 334.493 1166.74 334.259 1166.81 334.103C1166.66 334.493 1166.5 334.883 1166.35 335.195C1166.42 335.039 1166.5 334.805 1166.58 334.649C1164.79 338.938 1162.76 343.07 1161.2 347.437C1159.64 351.725 1158.63 356.403 1158.94 361.004C1159.33 366.15 1161.12 371.062 1164.16 375.273C1167.05 379.328 1170.56 382.758 1174.22 386.033C1178.2 389.62 1182.17 393.129 1185.53 397.339C1185.37 397.105 1185.22 396.95 1185.06 396.716C1185.29 397.028 1185.53 397.339 1185.76 397.651C1185.68 397.573 1185.61 397.417 1185.53 397.339C1187.32 399.757 1188.96 402.408 1190.21 405.215C1190.13 405.059 1190.13 404.981 1190.05 404.825C1190.21 405.215 1190.36 405.605 1190.52 405.916C1190.44 405.683 1190.28 405.449 1190.21 405.215C1190.99 407.242 1191.61 409.347 1192 411.531C1192 411.297 1192 411.063 1191.92 410.829C1192 411.219 1192 411.686 1192.08 412.076C1192.08 411.92 1192 411.687 1192 411.531C1192.16 413.402 1192.16 415.195 1192 417.067C1192 416.833 1192.08 416.599 1192.08 416.443C1192 416.833 1192 417.301 1191.92 417.69C1191.92 417.457 1191.92 417.301 1192 417.067C1191.53 419.64 1190.75 422.135 1189.82 424.552C1189.89 424.396 1189.97 424.318 1189.97 424.162C1189.82 424.552 1189.66 424.942 1189.5 425.254C1189.58 425.02 1189.74 424.786 1189.82 424.552C1186.85 431.336 1182.8 437.574 1180.46 444.669C1178.2 451.531 1178.12 458.86 1181.32 465.41C1182.95 468.763 1185.68 471.648 1189.04 473.363C1191.22 474.455 1194.26 473.987 1195.51 471.648C1196.68 469.465 1196.13 466.424 1193.79 465.176C1193.32 464.942 1192.86 464.63 1192.39 464.318C1192.55 464.396 1192.62 464.552 1192.78 464.708C1192.47 464.474 1192.16 464.24 1191.84 464.006C1192 464.162 1192.23 464.24 1192.39 464.396C1191.77 463.851 1191.22 463.305 1190.67 462.681C1190.83 462.837 1190.91 463.071 1191.06 463.227C1190.83 462.915 1190.6 462.603 1190.36 462.291C1190.44 462.447 1190.6 462.525 1190.67 462.681C1190.21 461.979 1189.74 461.199 1189.35 460.342C1189.43 460.498 1189.5 460.732 1189.58 460.888C1189.43 460.498 1189.27 460.108 1189.11 459.796C1189.19 459.952 1189.27 460.186 1189.35 460.342C1188.88 459.094 1188.57 457.847 1188.33 456.599C1188.33 456.833 1188.33 456.989 1188.41 457.223C1188.33 456.833 1188.33 456.365 1188.26 455.975C1188.26 456.209 1188.33 456.365 1188.33 456.599C1188.18 455.04 1188.18 453.558 1188.33 451.999C1188.33 452.233 1188.26 452.466 1188.26 452.7C1188.33 452.31 1188.33 451.843 1188.41 451.453C1188.41 451.609 1188.41 451.843 1188.33 451.999C1188.8 449.426 1189.58 446.93 1190.52 444.513C1190.44 444.669 1190.36 444.825 1190.28 444.981C1190.44 444.591 1190.6 444.201 1190.75 443.889C1190.67 444.123 1190.6 444.357 1190.52 444.591C1192.78 439.367 1195.82 434.455 1198.08 429.23C1200.58 423.46 1202.29 417.301 1201.43 410.985C1200.5 404.825 1198.24 399.289 1194.88 394.298Z" fill="#136289"/>
<path d="M1189.43 460.731C1189.35 460.575 1189.27 460.341 1189.19 460.186C1189.11 460.03 1189.04 459.796 1188.96 459.64C1189.11 460.03 1189.27 460.419 1189.43 460.731Z" fill="#136289"/>
<path d="M1189.89 424.006C1189.82 424.162 1189.74 424.24 1189.74 424.396C1189.66 424.63 1189.5 424.864 1189.43 425.098C1189.58 424.786 1189.74 424.396 1189.89 424.006Z" fill="#136289"/>
<path d="M1190.91 463.071C1190.75 462.915 1190.67 462.681 1190.52 462.525C1190.44 462.369 1190.28 462.291 1190.21 462.135C1190.44 462.447 1190.67 462.759 1190.91 463.071Z" fill="#136289"/>
<path d="M1191.84 410.751C1191.84 410.985 1191.92 411.219 1191.92 411.453C1191.92 411.609 1192 411.843 1192 411.999C1192 411.609 1191.92 411.141 1191.84 410.751Z" fill="#136289"/>
<path d="M1192 416.287C1192 416.521 1191.92 416.755 1191.92 416.911C1191.92 417.145 1191.92 417.301 1191.84 417.535C1191.92 417.145 1192 416.677 1192 416.287Z" fill="#136289"/>
<path d="M1192.62 464.63C1192.47 464.552 1192.39 464.396 1192.23 464.24C1192.08 464.085 1191.84 464.007 1191.69 463.851C1192 464.085 1192.31 464.396 1192.62 464.63Z" fill="#136289"/>
<path d="M1325.23 730.477C1318.17 742.88 1308.26 750.657 1303.11 747.78C1297.96 744.903 1299.53 732.524 1306.65 720.112C1307.26 719.075 1307.87 718.038 1308.49 717.068C1304.21 714.953 1299.95 713.037 1295.72 711.322C1295.28 716.003 1294.18 721.388 1292.41 726.934C1287.32 742.593 1278.65 753.796 1273.04 752.004C1267.42 750.211 1266.96 736.147 1272.05 720.488C1273.98 714.647 1276.34 709.425 1278.92 705.259C1275.4 704.191 1271.9 703.256 1268.47 702.378C1268.14 703.444 1267.88 704.5 1267.48 705.575C1262.39 721.234 1253.72 732.437 1248.1 730.644C1242.48 728.852 1242.02 714.788 1247.11 699.129C1247.15 698.919 1247.26 698.701 1247.3 698.491C1243.73 698.042 1240.19 697.792 1236.65 697.609C1236.12 699.721 1235.46 701.852 1234.74 704.059C1228.68 722.638 1219.24 736.191 1213.63 734.465C1208.03 732.739 1208.35 716.392 1214.29 697.965C1208.51 698.437 1202.84 699.232 1197.41 700.199C1199.36 712.628 1196.98 723.084 1191.63 724.174C1186.42 725.246 1180.17 717.021 1176.87 705.257C1173.57 706.264 1170.36 707.394 1167.3 708.572C1168.06 710.095 1168.83 711.684 1169.48 713.36C1169.9 714.387 1170.25 715.425 1170.6 716.462C1171.08 717.414 1171.5 718.442 1171.92 719.47C1177.13 732.595 1175.9 745.335 1169.24 747.9C1162.59 750.465 1153 741.961 1147.79 728.836C1147.37 727.808 1147.02 726.771 1146.67 725.733C1146.19 724.781 1145.77 723.754 1145.35 722.726C1144.84 721.507 1144.46 720.27 1144.09 719.099C1140 721.304 1136.24 723.462 1132.7 725.657C1134.12 726.952 1135.55 728.314 1136.93 729.818C1146.5 740.225 1151.18 751.456 1147.4 754.908C1143.62 758.359 1132.71 752.69 1123.13 742.217C1121.18 740.113 1119.43 737.914 1117.9 735.819C1108.76 742.741 1103.77 747.856 1103.77 747.856C1160.47 763.261 1169.86 835.032 1169.86 835.032L1274.22 839.736C1278.78 791.41 1334.42 731.767 1334.42 731.767C1331.91 730.081 1329.36 728.538 1326.88 727.052C1326.44 728.337 1325.84 729.44 1325.23 730.477ZM1246.9 745.145C1251.1 744.148 1255.03 745.702 1255.78 748.586C1256.46 751.479 1253.67 754.655 1249.49 755.718C1245.3 756.714 1241.37 755.161 1240.62 752.277C1239.93 749.317 1242.71 746.141 1246.9 745.145ZM1192.08 738.647C1195.35 736.965 1199.94 739.309 1202.3 743.868C1204.66 748.428 1203.93 753.49 1200.66 755.172C1197.39 756.854 1192.79 754.51 1190.43 749.95C1188.08 745.391 1188.81 740.329 1192.08 738.647ZM1168.84 789.596C1164.89 779.555 1165.78 769.783 1170.87 767.845C1175.96 765.841 1183.34 772.411 1187.3 782.453C1191.25 792.494 1190.36 802.266 1185.26 804.203C1180.11 806.217 1172.79 799.637 1168.84 789.596ZM1197.39 821.996C1196.14 824.821 1191.87 825.76 1187.85 824.083C1183.76 822.415 1181.53 818.721 1182.7 815.839C1183.96 813.014 1188.23 812.075 1192.24 813.752C1196.33 815.42 1198.63 819.104 1197.39 821.996ZM1197.45 780.347C1194.93 780.973 1192.12 778.583 1191.28 775.033C1190.43 771.484 1191.75 768.107 1194.27 767.48C1196.8 766.854 1199.61 769.244 1200.45 772.794C1201.36 776.334 1200.05 779.711 1197.45 780.347ZM1219.75 820.621C1215.19 822.417 1209.26 818.359 1206.59 811.602C1203.92 804.844 1205.49 797.899 1210.06 796.17C1214.62 794.375 1220.56 798.432 1223.22 805.19C1225.89 811.947 1224.39 818.883 1219.75 820.621ZM1231.44 772.11C1227.65 780.862 1221 786.414 1216.54 784.527C1212.08 782.64 1211.57 774.086 1215.29 765.344C1219.08 756.592 1225.73 751.04 1230.19 752.927C1234.65 754.814 1235.16 763.368 1231.44 772.11ZM1249 799.736C1242.13 796.829 1239.83 786.827 1243.93 777.352C1248.03 767.878 1256.91 762.555 1263.84 765.386C1270.72 768.292 1273.01 778.294 1268.91 787.769C1264.81 797.244 1255.94 802.633 1249 799.736ZM1276.37 807.1C1272.76 816.165 1268.34 822.899 1266.53 822.203C1264.71 821.508 1266.15 813.63 1269.76 804.564C1273.37 795.498 1277.79 788.765 1279.6 789.46C1281.36 790.232 1279.92 798.11 1276.37 807.1ZM1295.24 764.17C1293.21 768.869 1289.58 771.892 1287.24 770.863C1284.82 769.843 1284.52 765.2 1286.54 760.5C1288.56 755.801 1292.19 752.778 1294.54 753.807C1297.02 754.817 1297.26 759.47 1295.24 764.17Z" fill="#2A729F"/>
<path d="M722.709 701.004C718.072 708.202 711.653 712.766 708.383 711.16C705.113 709.554 706.23 702.422 710.91 695.219C711.311 694.617 711.712 694.015 712.118 693.452C709.394 692.276 706.685 691.215 703.993 690.268C703.666 692.963 702.911 696.07 701.728 699.275C698.322 708.326 692.664 714.848 689.085 713.87C685.506 712.892 685.342 704.81 688.748 695.76C690.038 692.383 691.599 689.359 693.289 686.939C691.045 686.358 688.813 685.854 686.628 685.381C686.406 685.997 686.227 686.606 685.961 687.228C682.555 696.279 676.896 702.801 673.317 701.823C669.738 700.845 669.574 692.764 672.98 683.713C673.007 683.592 673.078 683.466 673.105 683.345C670.823 683.12 668.557 683.009 666.297 682.937C665.939 684.156 665.494 685.388 665.011 686.664C660.96 697.402 654.786 705.283 651.212 704.343C647.639 703.403 647.995 694.002 651.971 683.352C648.266 683.677 644.631 684.187 641.142 684.794C642.276 691.922 640.652 697.955 637.217 698.632C633.869 699.298 629.948 694.627 627.944 687.895C625.823 688.504 623.756 689.184 621.782 689.89C622.257 690.759 622.737 691.665 623.136 692.622C623.395 693.209 623.611 693.802 623.826 694.396C624.123 694.938 624.382 695.525 624.641 696.113C627.856 703.61 626.945 710.946 622.66 712.483C618.375 714.02 612.318 709.221 609.103 701.724C608.844 701.136 608.629 700.543 608.413 699.95C608.116 699.407 607.857 698.82 607.598 698.233C607.28 697.538 607.048 696.83 606.822 696.16C604.181 697.466 601.757 698.742 599.468 700.037C600.365 700.769 601.267 701.538 602.137 702.39C608.171 708.284 611.058 714.697 608.606 716.717C606.154 718.737 599.224 715.58 593.184 709.648C591.958 708.456 590.856 707.208 589.895 706.019C583.98 710.083 580.737 713.071 580.737 713.071C616.896 721.397 622.238 762.573 622.238 762.573L689.019 764.3C692.391 736.473 728.582 701.66 728.582 701.66C726.993 700.714 725.371 699.851 723.798 699.02C723.506 699.762 723.11 700.402 722.709 701.004ZM672.416 710.171C675.11 709.559 677.613 710.416 678.065 712.067C678.474 713.724 676.661 715.576 673.972 716.226C671.278 716.838 668.776 715.982 668.323 714.331C667.908 712.636 669.722 710.783 672.416 710.171ZM637.371 706.949C639.481 705.952 642.4 707.256 643.868 709.855C645.336 712.455 644.819 715.372 642.709 716.37C640.599 717.367 637.68 716.063 636.211 713.463C634.743 710.864 635.26 707.947 637.371 706.949ZM622.012 736.46C619.574 730.723 620.24 725.097 623.518 723.935C626.792 722.735 631.46 726.444 633.898 732.18C636.336 737.916 635.67 743.542 632.392 744.704C629.075 745.91 624.45 742.196 622.012 736.46ZM639.99 754.82C639.161 756.456 636.418 757.036 633.861 756.109C631.261 755.189 629.863 753.086 630.643 751.418C631.472 749.782 634.215 749.202 636.772 750.128C639.372 751.049 640.814 753.146 639.99 754.82ZM640.422 730.874C638.799 731.258 637.021 729.91 636.515 727.877C636.009 725.844 636.882 723.89 638.504 723.506C640.127 723.122 641.905 724.47 642.411 726.503C642.96 728.53 642.088 730.484 640.422 730.874ZM654.322 753.82C651.384 754.895 647.623 752.618 645.978 748.758C644.332 744.897 645.402 740.89 648.345 739.853C651.283 738.778 655.044 741.055 656.69 744.915C658.335 748.776 657.308 752.777 654.322 753.82ZM662.259 725.82C659.75 730.887 655.441 734.142 652.603 733.099C649.765 732.055 649.516 727.142 651.983 722.081C654.492 717.014 658.8 713.759 661.638 714.802C664.476 715.845 664.725 720.759 662.259 725.82ZM673.247 741.538C668.874 739.931 667.496 734.202 670.211 728.717C672.926 723.231 678.662 720.087 683.073 721.65C687.447 723.257 688.825 728.986 686.109 734.472C683.394 739.957 677.664 743.139 673.247 741.538ZM690.705 745.516C688.309 750.762 685.417 754.675 684.26 754.292C683.103 753.909 684.098 749.366 686.494 744.12C688.89 738.874 691.782 734.961 692.939 735.344C694.058 735.771 693.063 740.314 690.705 745.516ZM703.187 720.657C701.848 723.377 699.494 725.15 698.002 724.58C696.466 724.016 696.312 721.349 697.651 718.629C698.99 715.908 701.344 714.136 702.836 714.705C704.415 715.263 704.525 717.936 703.187 720.657Z" fill="#21366C"/>
<path d="M456.952 675.182C454.935 678.313 452.142 680.299 450.72 679.6C449.297 678.902 449.783 675.799 451.819 672.666C451.993 672.404 452.168 672.142 452.345 671.897C451.159 671.385 449.981 670.924 448.81 670.512C448.668 671.684 448.339 673.036 447.825 674.43C446.343 678.367 443.882 681.205 442.325 680.779C440.768 680.354 440.696 676.838 442.178 672.901C442.739 671.432 443.418 670.116 444.154 669.064C443.178 668.811 442.206 668.592 441.256 668.386C441.159 668.654 441.081 668.919 440.966 669.19C439.484 673.127 437.022 675.964 435.465 675.539C433.908 675.113 433.837 671.598 435.319 667.66C435.331 667.608 435.361 667.553 435.373 667.5C434.38 667.402 433.395 667.354 432.411 667.323C432.255 667.853 432.062 668.389 431.852 668.944C430.089 673.616 427.404 677.044 425.849 676.635C424.295 676.226 424.45 672.136 426.179 667.503C424.567 667.645 422.986 667.867 421.468 668.131C421.962 671.231 421.255 673.856 419.761 674.151C418.304 674.44 416.599 672.408 415.727 669.48C414.804 669.745 413.905 670.04 413.046 670.348C413.253 670.725 413.462 671.12 413.635 671.536C413.748 671.791 413.842 672.05 413.936 672.308C414.065 672.544 414.177 672.799 414.29 673.054C415.689 676.316 415.292 679.507 413.428 680.176C411.564 680.845 408.929 678.757 407.531 675.495C407.418 675.24 407.324 674.982 407.23 674.724C407.101 674.488 406.989 674.232 406.876 673.977C406.738 673.674 406.637 673.366 406.538 673.075C405.39 673.643 404.335 674.198 403.339 674.762C403.729 675.08 404.122 675.415 404.5 675.785C407.125 678.349 408.381 681.139 407.314 682.018C406.248 682.896 403.233 681.523 400.606 678.943C400.072 678.424 399.593 677.881 399.175 677.364C396.601 679.132 395.191 680.432 395.191 680.432C410.921 684.054 413.245 701.966 413.245 701.966L442.296 702.717C443.763 690.612 459.507 675.468 459.507 675.468C458.815 675.056 458.11 674.681 457.426 674.319C457.298 674.642 457.126 674.921 456.952 675.182ZM435.073 679.17C436.245 678.904 437.334 679.277 437.531 679.995C437.709 680.716 436.92 681.521 435.75 681.804C434.578 682.071 433.49 681.698 433.293 680.98C433.112 680.242 433.901 679.437 435.073 679.17ZM419.828 677.769C420.746 677.335 422.015 677.902 422.654 679.033C423.293 680.164 423.068 681.433 422.15 681.867C421.232 682.301 419.962 681.733 419.323 680.602C418.685 679.472 418.91 678.203 419.828 677.769ZM413.146 690.606C412.086 688.111 412.375 685.663 413.802 685.158C415.225 684.636 417.256 686.249 418.317 688.745C419.378 691.24 419.088 693.688 417.662 694.193C416.219 694.718 414.207 693.102 413.146 690.606ZM420.967 698.594C420.606 699.305 419.413 699.558 418.301 699.154C417.17 698.754 416.561 697.839 416.901 697.114C417.262 696.402 418.455 696.15 419.567 696.553C420.698 696.953 421.325 697.865 420.967 698.594ZM421.155 688.176C420.449 688.343 419.676 687.757 419.455 686.873C419.235 685.988 419.615 685.138 420.321 684.971C421.027 684.804 421.8 685.391 422.02 686.275C422.259 687.157 421.88 688.007 421.155 688.176ZM427.202 698.159C425.924 698.626 424.288 697.636 423.572 695.956C422.856 694.277 423.322 692.534 424.602 692.083C425.88 691.615 427.516 692.606 428.232 694.285C428.948 695.964 428.501 697.705 427.202 698.159ZM430.655 685.978C429.563 688.182 427.689 689.598 426.454 689.144C425.22 688.69 425.111 686.553 426.184 684.351C427.276 682.147 429.15 680.731 430.385 681.185C431.619 681.639 431.728 683.776 430.655 685.978ZM435.435 692.816C433.532 692.117 432.933 689.624 434.114 687.238C435.295 684.852 437.79 683.484 439.709 684.164C441.612 684.863 442.212 687.355 441.03 689.742C439.849 692.128 437.356 693.512 435.435 692.816ZM443.029 694.546C441.987 696.828 440.729 698.53 440.226 698.364C439.722 698.197 440.155 696.221 441.197 693.939C442.24 691.657 443.498 689.954 444.001 690.121C444.488 690.307 444.055 692.283 443.029 694.546ZM448.459 683.732C447.877 684.915 446.853 685.686 446.204 685.438C445.536 685.193 445.469 684.033 446.051 682.849C446.634 681.666 447.658 680.895 448.307 681.143C448.993 681.385 449.042 682.548 448.459 683.732Z" fill="#2A385C"/>
<path d="M98.3 441.717C80.2001 448.317 66 460.917 57.2 476.217L25 476.317L52.5 486.017C52.5 486.117 52.4 486.217 52.4 486.317L52.7 486.417L37.9 511.517L62.6 490.917C71 494.017 79.9 495.617 89.1 495.617C98.1 495.617 107.2 494.017 116.2 490.817C138.2 482.817 154.4 466.117 162 446.317C151 440.317 138.4 437.017 125.3 437.017C116.5 436.817 107.3 438.417 98.3 441.717Z" fill="#115679"/>
<path d="M965.445 65.5692C982.62 59.3692 996.095 47.533 1004.45 33.1603L1035 33.0664L1008.91 23.9544C1008.91 23.8604 1009 23.7664 1009 23.6725L1008.72 23.5786L1022.76 0L999.321 19.3513C991.35 16.4393 982.905 14.9362 974.175 14.9362C965.635 14.9362 957 16.4392 948.46 19.4453C927.584 26.9604 912.212 42.6481 905 61.248C915.438 66.8843 927.394 69.9843 939.825 69.9843C948.175 70.1722 956.905 68.6692 965.445 65.5692Z" fill="#115679"/>
<path d="M472.53 549C472.53 549 481.244 571.893 463.816 591.823C446.388 611.753 470.97 646.851 474.731 662.407C478.721 678.985 472.025 695 472.025 695H466.613C466.613 695 470.787 671.472 453.038 647.239C435.289 623.005 436.023 592.14 453.038 576.549C470.053 560.958 472.163 561.946 472.53 549Z" fill="#06314C"/>
<path d="M235 548.75C235 561.86 223.797 572.5 210.002 572.5C196.203 572.5 185 561.86 185 548.75C185 535.64 196.203 525 210.002 525C223.797 525 235 535.64 235 548.75Z" fill="#9BD8F6"/>
<path d="M232.294 548.75C232.294 560.402 222.306 569.863 210.002 569.863C197.695 569.863 187.707 560.402 187.707 548.75C187.707 537.099 197.695 527.638 210.002 527.638C222.306 527.638 232.294 537.099 232.294 548.75Z" fill="white"/>
<path d="M1293.58 127.5C1293.58 151.511 1273.06 171 1247.79 171C1222.52 171 1202 151.511 1202 127.5C1202 103.489 1222.52 84 1247.79 84C1273.06 84 1293.58 103.489 1293.58 127.5Z" fill="#9BD8F6"/>
<path d="M1288.62 127.501C1288.62 148.842 1270.33 166.171 1247.79 166.171C1225.25 166.171 1206.96 148.842 1206.96 127.501C1206.96 106.16 1225.25 88.8311 1247.79 88.8311C1270.33 88.8311 1288.62 106.16 1288.62 127.501Z" fill="white"/>
<path d="M1218.41 121.552C1219.3 110.927 1225.16 104.132 1235.96 101.175" stroke="#9CD3EF" stroke-width="6" stroke-linecap="round"/>
</svg>
