<svg width="1366" height="283" viewBox="0 0 1366 283" fill="none" xmlns="http://www.w3.org/2000/svg">
<path d="M556.026 283C556.026 283 574.008 268.694 547.035 238.567C520.062 208.44 562.659 200.425 556.667 182L580 182C580 182 567.909 195.707 556.221 217.328C545.551 237.065 581.069 250.492 556.026 283Z" fill="#A2A7D1"/>
<path d="M664.975 283C664.975 283 646.992 268.694 673.967 238.567C700.941 208.44 658.342 200.425 664.334 182L641 182C641 182 653.091 195.707 664.78 217.328C675.451 237.065 639.931 250.492 664.975 283Z" fill="#A2A7D1"/>
<path d="M752.257 181.999C752.257 181.999 616.749 72.5078 294.073 181.999H752.257Z" fill="#E6EAF5"/>
<path d="M0 181.999C0 181.999 129.953 58.2506 439.402 181.999H0Z" fill="#232C5A"/>
<path d="M1075.06 181.999C1075.06 181.999 939.553 72.5078 616.877 181.999H1075.06Z" fill="#A2A7D1"/>
<path d="M961.534 182.002C961.534 182.002 1080.57 99.9441 1364 182.002H961.534Z" fill="#242C5B"/>
<path d="M0 182C0 182 133.312 58.1271 450.757 182H0Z" fill="#394FD4"/>
<path d="M306.799 83C306.799 83 295.383 91.9692 312.508 110.858C329.633 129.747 302.588 134.773 306.393 146.325H291.578C297.359 139.48 302.418 132.057 306.675 124.174C313.447 111.8 290.9 103.381 306.799 83Z" fill="#394FD4"/>
<path d="M315.494 83C315.494 83 304.078 91.9692 321.203 110.858C338.328 129.747 311.28 134.773 315.087 146.327H300.273C306.054 139.482 311.113 132.059 315.37 124.176C322.145 111.8 299.595 103.381 315.494 83Z" fill="#394FD4"/>
<path d="M295.53 83C295.53 83 306.947 91.9692 289.822 110.858C272.696 129.747 299.742 134.773 295.937 146.325H310.751C304.969 139.48 299.909 132.058 295.651 124.175C288.879 111.8 311.43 103.381 295.53 83Z" fill="#394FD4"/>
<path d="M314.041 146.581H297.326C297.326 146.581 298.412 123.002 308.196 108.464C317.98 93.9254 305.681 84.4079 305.681 84.4079C305.681 84.4079 317.777 90.9302 316.962 107.644C316.147 124.357 297.462 123.82 314.041 146.581Z" fill="#394FD4"/>
<path d="M561.595 84C561.595 84 579.15 97.8808 552.817 127.113C526.485 156.345 568.071 164.122 562.221 182H584.999C584.999 182 573.196 168.7 561.785 147.721C551.369 128.571 586.043 115.542 561.595 84Z" fill="#A2A7D1"/>
<path d="M602.595 84C602.595 84 620.15 97.8808 593.817 127.113C567.485 156.345 609.071 164.122 603.221 182H625.999C625.999 182 614.196 168.7 602.785 147.721C592.369 128.571 627.043 115.542 602.595 84Z" fill="#242C5B"/>
<path d="M649.404 84C649.404 84 631.85 97.8808 658.182 127.113C684.514 156.345 642.929 164.122 648.778 182H626C626 182 637.803 168.7 649.214 147.721C659.631 128.571 624.956 115.542 649.404 84Z" fill="#A2A7D1"/>
<path d="M671.817 182.001H699.004C699.004 182.001 697.238 145.591 681.325 123.143C665.413 100.695 685.415 86.002 685.415 86.002C685.415 86.002 665.743 96.0736 667.067 121.881C668.392 147.688 698.78 146.855 671.817 182.001Z" fill="#242C5B"/>
<path d="M743.282 50.434C744.986 38.8024 721.911 36.1915 722.039 22.0725C722.166 7.95346 716.006 0.244385 716.006 0.244385C730.692 4.68971 734.237 23.5077 734.237 23.5077C748.006 34.3563 744.862 44.4145 744.6 45.0748L743.282 50.434Z" fill="#242C5B"/>
<path d="M741.163 65.9357C743.575 54.4268 766.151 59.8858 770.906 46.5876C775.66 33.2893 784.105 28.1607 784.105 28.1607C768.779 27.3008 758.955 43.7541 758.955 43.7541C742.281 49.2206 741.764 59.7468 741.78 60.453L741.163 65.9357Z" fill="#242C5B"/>
<path d="M739.607 100.086C740.825 88.393 763.848 91.5252 767.208 77.8128C770.567 64.1005 778.45 58.1445 778.45 58.1445C763.116 58.8507 755.033 76.2179 755.033 76.2179C739.005 83.3503 739.569 93.8765 739.662 94.5752L739.607 100.086Z" fill="#242C5B"/>
<path d="M743.213 131.972C744.431 120.279 767.454 123.411 770.813 109.698C774.172 95.986 782.055 90.0301 782.055 90.0301C766.721 90.7362 758.639 108.103 758.639 108.103C742.61 115.236 743.174 125.762 743.267 126.461L743.213 131.972Z" fill="#242C5B"/>
<path d="M755.473 161.977C754.086 150.307 777.233 148.31 777.48 134.199C777.727 120.087 784.099 112.547 784.099 112.547C769.297 116.593 765.244 135.312 765.244 135.312C751.182 145.785 754.056 155.927 754.302 156.587L755.473 161.977Z" fill="#242C5B"/>
<path d="M757.823 178.967C761.267 167.728 783.258 175.189 789.191 162.368C795.125 149.547 804.001 145.2 804.001 145.2C788.814 142.966 777.549 158.475 777.549 158.475C760.451 162.421 758.979 172.863 758.94 173.559L757.823 178.967Z" fill="#242C5B"/>
<path d="M751.789 153.093C748.344 141.854 726.354 149.315 720.421 136.494C714.487 123.673 705.611 119.326 705.611 119.326C720.798 117.092 732.071 132.601 732.071 132.601C749.169 136.547 750.641 146.982 750.687 147.685L751.789 153.093Z" fill="#242C5B"/>
<path d="M740.37 120.792C738.99 109.122 716.021 112.554 712.477 98.8874C708.932 85.2209 700.975 79.3626 700.975 79.3626C716.316 79.8617 724.63 97.121 724.63 97.121C740.75 104.039 740.326 114.571 740.249 115.271L740.37 120.792Z" fill="#242C5B"/>
<path d="M738.398 80.4156C737.018 68.7455 714.049 72.1771 710.504 58.5106C706.96 44.8441 699.002 38.9858 699.002 38.9858C714.344 39.4849 722.658 56.7442 722.658 56.7442C738.778 63.6621 738.353 74.1942 738.277 74.8944L738.398 80.4156Z" fill="#242C5B"/>
<path d="M758.623 181.999H756.266C756.859 181.999 760.396 169.454 749.184 151.027C737.972 132.6 733.057 89.9118 742.596 48.7282L748.082 31.4534L752.135 26.5548C752.135 26.5548 746.626 35.7679 747.019 44.3901C747.019 44.3901 740.923 50.2713 740.724 97.5129C740.524 144.755 759.802 150.045 758.623 181.999Z" fill="#242C5B"/>
<path d="M846.791 88.2166C845.591 79.9249 861.855 78.0643 861.763 68C861.671 57.9357 866.017 52.4404 866.017 52.4404C855.667 55.6094 853.169 69.0231 853.169 69.0231C843.465 76.7559 845.68 83.9255 845.865 84.3986L846.791 88.2166Z" fill="#242C5B"/>
<path d="M843.506 77.3917C844.153 69.0386 827.796 68.2794 827.223 58.2366C826.651 48.1937 821.942 43 821.942 43C832.483 45.4571 835.866 58.6712 835.866 58.6712C846.061 65.7255 844.332 73.0377 844.175 73.5138L843.506 77.3917Z" fill="#242C5B"/>
<path d="M848.285 99.2663C846.585 91.0611 830.674 94.9538 827.324 85.4749C823.973 75.996 818.021 72.3406 818.021 72.3406C828.822 71.7278 835.746 83.4561 835.746 83.4561C847.498 87.3525 847.862 94.8562 847.848 95.3574L848.285 99.2663Z" fill="#242C5B"/>
<path d="M849.382 123.61C848.524 115.275 832.298 117.508 829.93 107.733C827.563 97.9587 822.009 93.7119 822.009 93.7119C832.815 94.2153 838.512 106.595 838.512 106.595C849.807 111.679 849.411 119.183 849.345 119.679L849.382 123.61Z" fill="#242C5B"/>
<path d="M846.84 146.338C845.982 138.003 829.756 140.236 827.389 130.462C825.021 120.687 819.467 116.44 819.467 116.44C830.274 116.944 835.97 129.323 835.97 129.323C847.266 134.408 846.869 141.911 846.804 142.407L846.84 146.338Z" fill="#242C5B"/>
<path d="M838.201 167.727C839.178 159.408 822.865 157.985 822.691 147.926C822.517 137.867 818.026 132.493 818.026 132.493C828.458 135.376 831.315 148.72 831.315 148.72C841.225 156.186 839.2 163.415 839.026 163.886L838.201 167.727Z" fill="#242C5B"/>
<path d="M840.796 161.395C843.223 153.382 858.722 158.702 862.903 149.562C867.084 140.422 873.34 137.324 873.34 137.324C862.636 135.732 854.692 146.786 854.692 146.786C842.642 149.6 841.605 157.037 841.573 157.54L840.796 161.395Z" fill="#242C5B"/>
<path d="M848.844 138.37C849.816 130.051 866.007 132.498 868.501 122.756C870.995 113.014 876.61 108.839 876.61 108.839C865.798 109.195 859.939 121.498 859.939 121.498C848.578 126.429 848.877 133.938 848.932 134.434L848.844 138.37Z" fill="#242C5B"/>
<path d="M850.234 109.589C851.206 101.27 867.398 103.716 869.891 93.9743C872.385 84.2323 877.999 80.0565 877.999 80.0565C867.187 80.4121 861.328 92.7155 861.328 92.7155C849.967 97.6467 850.267 105.156 850.321 105.652L850.234 109.589Z" fill="#242C5B"/>
<path d="M835.979 182H837.641C837.223 182 834.731 173.056 842.629 159.922C850.527 146.789 853.998 116.358 847.272 87.0014L843.406 74.6876L840.55 71.1956C840.55 71.1956 844.433 77.7627 844.155 83.91C844.155 83.91 848.451 88.102 848.592 121.777C848.734 155.451 835.149 159.221 835.979 182Z" fill="#242C5B"/>
<path d="M914.466 180.519C914.466 180.519 1048.01 56.1812 1366 180.519H914.466Z" fill="#394FD4"/>
<path d="M1059.91 73C1059.91 73 1048.47 82.0029 1065.63 100.963C1082.78 119.922 1055.69 124.967 1059.5 136.562H1044.66C1050.45 129.692 1055.52 122.241 1059.78 114.329C1066.57 101.908 1043.98 93.4573 1059.91 73Z" fill="#394FD4"/>
<path d="M1068.62 73C1068.62 73 1057.18 82.0029 1074.34 100.963C1091.49 119.922 1064.4 124.967 1068.21 136.564H1053.37C1059.16 129.694 1064.23 122.243 1068.49 114.331C1075.28 101.908 1052.69 93.4573 1068.62 73Z" fill="#394FD4"/>
<path d="M1048.62 73C1048.62 73 1060.05 82.0029 1042.9 100.963C1025.75 119.922 1052.84 124.967 1049.03 136.562H1063.87C1058.07 129.692 1053 122.242 1048.74 114.329C1041.96 101.908 1064.55 93.4573 1048.62 73Z" fill="#394FD4"/>
<path d="M1067.16 136.819H1050.42C1050.42 136.819 1051.51 113.152 1061.31 98.5591C1071.11 83.9664 1058.79 74.4132 1058.79 74.4132C1058.79 74.4132 1070.9 80.96 1070.09 97.7362C1069.27 114.512 1050.55 113.973 1067.16 136.819Z" fill="#394FD4"/>
</svg>
