<?xml version="1.0" encoding="utf-8"?>
<svg id="master-artboard" viewBox="0 0 900.374755859375 188.244140625" version="1.1" xmlns="http://www.w3.org/2000/svg" x="0px" y="0px" width="900.374755859375px" height="188.244140625px" enable-background="new 0 0 1400 980"><rect id="ee-background" x="0" y="0" width="900.374755859375" height="188.244140625" style="fill: white; fill-opacity: 0; pointer-events: none;"/><defs><clipPath id="_clipPath_xx5SPD6SonfdHse0Fu3Hnp5ZAYi4npQF">
   <path d="M 0 0 H 1920 V 1080 H 0 V 0 Z" id="svg_1"/>
  </clipPath></defs>









<g transform="matrix(0.729166805744171, 0, 0, 0.729166805744171, -242.98715288211474, -186.32496643066406)"><g>
  <title>Layer 1</title>
  <path stroke="null" id="svg_21" d="m1326.89999,500.8c207.82742,-445.18003 182.87428,-10.80933 196.10002,-0.8" opacity="NaN" fill="#645A73"/>
  <path stroke="null" id="svg_19" d="m336.89999,507.79995c0,-284.52532 160.12197,-357.95121 202.00002,-52.77486" opacity="NaN" fill="#805064"/>
  <path d="M 693.900024 430.799988 A 24 22 0 0 1 669.900024 452.799988 A 24 22 0 0 1 645.900024 430.799988 A 24 22 0 0 1 669.900024 408.799988 A 24 22 0 0 1 693.900024 430.799988 Z" stroke="null" id="svg_16" fill="#462735"/>
  <path transform="rotate(-89.0404 1271.65 415.314)" stroke="null" id="svg_14" d="m1189.99128,336.68538c372.1887,0 -9.69456,153.42261 1.21182,157.25817" opacity="NaN" fill="#805064"/>
  <path stroke="null" id="svg_13" d="m896.9,465.79997c0,-66.46975 57.93105,-43.12733 54.00353,-10.78183" opacity="NaN" fill="#C97A86"/>
  <path stroke="null" id="svg_12" d="m648.9,496.59167c38,-103.79043 132,-200.36098 132,2.20831" opacity="NaN" fill="#AF84A3"/>
  <path transform="rotate(4.10525 836.9 457.639)" fill="#645A73" opacity="NaN" d="m714.9,503.79997c0,-132.9426 243.99999,-108.37639 243.99999,-14.27429" id="svg_3" stroke="#74556D"/>
  <path stroke="#9A8AAB" fill="#9A8AAB" opacity="NaN" d="m911.90647,496.61485c-5.37721,-129.20892 225.84265,-101.95391 227.99353,-1.00944" id="svg_6"/>
  <path fill="#74556D" opacity="NaN" d="m843.9,498.8c-1,-100.05809 185,-59.42514 185,-2.74132" id="svg_7" stroke="#74556D"/>
  <path transform="rotate(0.883142 1176.38 436.648)" stroke="null" id="svg_8" d="m1115.79653,475.37845c-3.75695,-122.83512 120.56381,-78.36033 121.24689,-12.00113" opacity="NaN" fill="#8391AE"/>
  <path id="svg_9" d="m1092.9,500.79998c-2,-105.84347 202,-35.91973 196,-4.31037" opacity="NaN" fill="#645A73"/>
  <path stroke="null" id="svg_11" d="m476.9,500.79997c0,-158.18574 286,-86.34138 286,-3.269" opacity="NaN" fill="#9A8AAB"/>
  <path transform="rotate(-5.66974 431.498 459.745)" stroke="null" id="svg_17" d="m333.1249,498.16175c0,-120.25855 208.15003,-118.8269 196.25574,11.4532" opacity="NaN" fill="#645A73"/>
  <path transform="rotate(6.43767 724.789 475.918)" stroke="null" id="svg_10" d="m640.9,511.79998c-9,-93.38716 173,-89.41323 168,-23.84353" opacity="NaN" fill="#8B4D4B"/>
  <path stroke="null" id="svg_22" d="m1442.9,504.06154c63,-122.71438 114.62984,0 114.1,0.93846" opacity="NaN" fill="#D3BEE7"/>
  <path stroke="null" id="svg_15" d="m1252.9,499.31934c0,-96.51477 210,-88.26487 210,3.48066" opacity="NaN" fill="#AF84A3"/>
 </g></g></svg>