<svg width="1366" height="195" viewBox="0 0 1366 195" fill="none" xmlns="http://www.w3.org/2000/svg">
<path d="M753.36 194.999C753.36 194.999 617.653 39.7202 294.504 194.999H753.36Z" fill="#E6EAF5"/>
<path d="M0 194.999C0 194.999 130.144 19.501 440.047 194.999H0Z" fill="#4857A5"/>
<path d="M1076.64 194.999C1076.64 194.999 940.931 39.7202 617.782 194.999H1076.64Z" fill="#A2A7D1"/>
<path d="M962.944 195.003C962.944 195.003 1082.16 78.6299 1366 195.003H962.944Z" fill="#242C5B"/>
<path d="M293.27 28C289.746 29.9149 283.857 31.1229 283.827 32.1125C283.798 33.3976 274.251 36.906 271.693 38.0112C269.135 39.1165 255.692 41.147 251.632 41.6996C247.572 42.2522 242.025 45.9406 237.341 46.1205C235.333 46.1976 231.868 44.9639 228.552 43.5245L212.804 48.4337L210.38 48.2538L209.964 52.4305L216.403 52.906L215.763 59.3446L214.053 59.2161L213.845 61.3108L218.841 61.6835L218.678 63.29L222.024 63.5341L220.566 78.3518L218.856 78.2233L218.737 79.4699L220.448 79.5984L215.674 128.074L210.395 127.688L209.8 133.651L205.116 133.304L204.521 139.267L200.595 138.985L200 144.948L350.256 156L350.851 150.037L346.925 149.754L347.52 143.791L342.835 143.444L343.43 137.481L338.151 137.096L342.925 88.6201L344.635 88.7486L344.754 87.502L343.043 87.3735L344.501 72.5558L347.847 72.8L348.01 71.1936L353.007 71.5663L353.215 69.4715L351.505 69.343L352.145 62.9044L358.584 63.3799L359 59.2032L356.576 59.0233L293.27 28ZM241.609 80.3052L239.899 80.1767L239.78 81.4233L241.49 81.5518L236.761 129.59L226.396 128.832L231.169 80.3566L232.88 80.4851L232.999 79.2386L231.288 79.11L232.746 64.2924L236.092 64.5365L236.255 62.9301L239.928 63.2L239.735 65.2305L243.081 65.4747L241.609 80.3052ZM262.607 81.8474L260.896 81.7189L260.778 82.9655L262.488 83.094L257.759 131.133L247.468 130.374L252.197 82.3357L253.907 82.4643L254.026 81.2177L252.316 81.0892L253.773 66.2715L257.119 66.5157L257.313 64.4851L260.926 64.755L260.733 66.7855L264.079 67.0297L262.607 81.8474ZM290.267 83.8908L288.556 83.7622L288.437 85.0088L290.148 85.1374L285.419 133.176L268.466 131.929L273.195 83.8908L274.905 84.0193L275.024 82.7727L273.314 82.6442L274.771 67.8265L278.117 68.0707L278.31 66.0402L288.586 66.7984L288.393 68.8289L291.739 69.0731L290.267 83.8908ZM311.264 85.4329L309.554 85.3044L309.435 86.551L311.145 86.6795L306.416 134.718L296.126 133.96L300.855 85.9213L302.565 86.0498L302.684 84.8032L300.974 84.6747L302.431 69.857L305.777 70.1012L305.97 68.0707L309.584 68.3406L309.391 70.3711L312.737 70.6153L311.264 85.4329ZM332.366 86.551L330.656 86.4225L330.537 87.6691L332.247 87.7976L327.474 136.273L317.109 135.515L321.838 87.4763L323.548 87.6048L323.667 86.3582L321.957 86.2297L323.414 71.4121L326.76 71.6562L326.953 69.6257L330.626 69.8956L330.463 71.502L333.809 71.7462L332.366 86.551Z" fill="#2D87B4"/>
<path d="M107.273 30.7679C103.657 30.0363 100.831 31.7246 99.5158 34.5384C99.4501 34.7635 99.3186 34.9323 99.2529 35.1574C99.0557 35.5514 98.8585 35.9453 98.6612 36.3392C98.2668 37.1271 97.8067 37.8586 97.4123 38.6465C96.4262 40.2785 95.4402 41.9105 94.3227 43.4862C93.2052 45.062 92.0219 46.5814 90.773 48.1008C90.3786 48.551 89.9841 49.0012 89.5897 49.4514C89.524 49.5077 89.524 49.564 89.4583 49.564C89.3925 49.6202 89.3925 49.6203 89.3268 49.6765C88.6694 50.4081 88.0121 51.0834 87.289 51.815C84.5281 54.6287 81.4385 57.2174 78.2175 59.581C77.4286 60.2001 76.574 60.7628 75.7195 61.3255C75.6537 61.3818 75.6538 61.3818 75.588 61.3818C75.5223 61.4381 75.4565 61.4381 75.3908 61.4944C75.0621 61.7195 74.7335 61.8883 74.4705 62.1134C72.6299 51.196 68.9487 40.6724 63.3612 30.6554C61.915 28.123 57.445 27.2226 54.7498 28.742C51.6602 30.4303 51.0029 33.3566 52.5148 36.1141C53.1064 37.1833 53.698 38.3089 54.2897 39.4344C54.3554 39.4906 54.4869 39.8283 54.5526 39.9971C54.6184 40.1097 54.6183 40.166 54.6183 40.166C54.947 40.8413 55.2757 41.5166 55.5387 42.1919C56.5904 44.5554 57.5107 46.919 58.3653 49.2826C60.0744 54.066 61.2576 58.962 62.1779 63.9142C62.1779 64.0268 62.2437 64.1956 62.2437 64.3644C62.2437 64.477 62.2437 64.5895 62.3094 64.6458C62.3752 65.2648 62.5066 65.9402 62.5723 66.5592C62.7038 67.8535 62.8353 69.1478 62.9668 70.4422C63.164 72.9183 63.2297 75.4507 63.2297 77.9268C63.2297 80.1216 63.0982 82.3163 62.901 84.511C62.1122 83.8357 61.3234 83.1604 60.5345 82.4289C59.7457 81.6973 59.0226 80.9657 58.2338 80.2341C57.9051 79.8965 57.5764 79.6151 57.3135 79.2774C57.1163 79.1086 56.9191 78.8835 56.7876 78.6584C55.4729 77.139 54.2239 75.6195 53.0407 73.9875C51.8574 72.4118 50.8056 70.7235 49.7539 69.0353C49.228 68.1349 48.7021 67.2908 48.242 66.3903C48.1762 66.3341 47.979 65.9401 47.8476 65.6587C47.7818 65.4899 47.3874 64.7021 47.3217 64.5896C45.6126 60.9316 44.3636 57.1611 43.509 53.2781C42.9174 50.5206 38.8418 48.6636 35.7522 49.5077C32.3339 50.4644 30.6905 53.1656 31.3479 56.1482C35.0291 72.3556 45.744 86.8746 60.7317 97.1168C59.1541 104.095 57.0505 111.017 55.0127 117.939C54.5526 117.207 54.0924 116.476 53.6323 115.744C53.0407 114.787 52.5148 113.831 52.0546 112.874C51.9889 112.705 51.9232 112.593 51.8574 112.536C51.7917 112.367 51.726 112.199 51.6602 112.03C51.3973 111.467 51.1344 110.904 50.9372 110.342C50.0169 108.203 49.2937 106.008 48.7021 103.814C47.979 101.056 44.1006 99.199 40.9453 100.043C37.5928 100.944 35.7522 103.701 36.541 106.684C39.1047 116.082 44.2978 124.748 51.3973 132.233C50.9371 134.259 50.5427 136.341 50.214 138.367C49.7539 138.198 49.2938 137.973 48.8336 137.804C47.9133 137.41 46.993 136.96 46.0727 136.453C45.1524 136.003 44.2978 135.497 43.4433 134.99C42.9831 134.709 42.3915 134.427 41.9971 134.09C43.2461 135.103 41.7999 133.921 41.5369 133.752C39.8935 132.57 38.2502 131.276 36.804 129.925C36.0152 129.194 35.292 128.462 34.5689 127.731C34.5032 127.674 34.5032 127.674 34.5032 127.618C34.4375 127.562 34.3717 127.506 34.306 127.393C33.9773 127.055 33.7144 126.661 33.3857 126.268C32.1367 124.692 30.9535 123.003 29.9675 121.315C29.7045 120.865 29.4416 120.415 29.1786 119.908C29.1129 119.852 29.0472 119.683 28.9157 119.514C28.4555 118.727 28.1926 117.77 27.8639 116.926C27.1408 115.069 26.6807 113.212 26.2863 111.298C25.7604 108.541 21.5533 106.684 18.5294 107.528C15.0454 108.484 13.5335 111.186 14.1252 114.168C17.2147 130.151 31.4136 144.051 49.0965 149.566C49.0965 150.41 49.0965 151.198 49.0965 152.042C49.228 162.959 51.9232 173.989 58.7597 183.331C60.5345 185.694 64.413 186.876 67.3711 185.244C70.132 183.725 71.5124 180.405 69.6061 177.872C68.2256 175.959 67.0424 173.989 65.9249 171.963C65.8591 171.738 65.7277 171.569 65.6619 171.344C65.399 170.781 65.2018 170.275 64.9388 169.712C64.4787 168.587 64.0843 167.517 63.7556 166.392C63.0983 164.253 62.5724 162.059 62.1779 159.864C62.1779 159.864 62.1779 159.864 62.1779 159.808C62.1779 159.639 62.1122 159.526 62.1122 159.357C72.6299 157.613 82.2931 153.505 90.2471 147.146C92.6793 145.232 92.6793 141.462 90.2471 139.549C87.6834 137.523 83.9365 137.466 81.3728 139.549C80.5182 140.224 79.5979 140.899 78.6776 141.574C78.8091 141.518 77.8888 142.081 77.6915 142.193C77.2314 142.475 76.7055 142.813 76.2454 143.094C74.1419 144.332 71.9068 145.401 69.5403 146.302C69.2774 146.414 68.9487 146.527 68.6858 146.639C68.2256 146.808 67.7655 146.977 67.3053 147.089C66.0563 147.483 64.7416 147.877 63.4269 148.159C62.8353 148.271 62.3094 148.44 61.7178 148.553C61.7178 148.102 61.7835 147.596 61.7835 147.146C61.9807 146.527 61.9807 145.851 61.915 145.232C62.0465 143.488 62.2437 141.743 62.5066 139.999V139.942C62.5066 139.774 62.5723 139.549 62.5723 139.436C62.6381 138.93 62.7696 138.423 62.8353 137.917C63.0325 136.678 63.2954 135.44 63.5584 134.202V134.146C63.9528 133.921 64.3472 133.64 64.6759 133.302C78.086 120.359 89.1953 105.727 97.2808 89.8572C98.5955 87.2685 98.2668 83.9483 95.0458 82.4851C92.3506 81.2471 87.8806 81.641 86.4344 84.3985C82.556 92.052 77.9545 99.424 72.7614 106.458C71.9725 107.528 71.118 108.653 70.2634 109.722C71.5781 105.052 72.8271 100.381 73.7474 95.6536C75.1279 88.5629 75.851 81.3596 75.6538 74.2127C92.0219 65.5462 104.512 52.5465 111.677 37.2396C112.926 34.7635 110.362 31.3869 107.273 30.7679Z" fill="#2684BF"/>
<path d="M153.327 92.5877C149.795 91.0007 145.534 91.943 143.516 95.0177C142.843 96.0591 142.114 97.051 141.385 98.0428C141.049 98.4891 140.713 98.9851 140.32 99.4314C140.264 99.5306 139.816 100.026 139.591 100.324C139.311 100.622 138.919 101.068 138.863 101.167C138.414 101.663 137.966 102.159 137.517 102.655C136.732 103.498 135.891 104.341 134.994 105.135C133.256 106.771 131.462 108.308 129.556 109.747C129.164 110.044 128.715 110.342 128.323 110.689C128.267 110.738 128.155 110.788 128.098 110.838C127.93 110.937 127.818 111.036 127.65 111.135C126.641 111.829 125.632 112.474 124.566 113.069C122.492 114.309 120.362 115.499 118.119 116.541C116.998 117.086 115.877 117.582 114.755 118.028C114.419 118.177 114.083 118.276 113.802 118.425C113.074 118.723 113.13 118.673 114.027 118.326C113.802 118.524 112.793 118.772 112.513 118.872C111.223 119.318 109.878 119.764 108.588 120.161C109.598 118.177 110.719 116.243 111.84 114.309C113.242 111.929 114.699 109.598 116.213 107.267C116.325 107.118 116.437 106.92 116.549 106.721C120.081 101.365 123.95 96.1583 128.042 91.0999C128.435 90.604 128.827 90.1576 129.22 89.6617C129.332 89.5129 130.173 88.4715 130.341 88.3228C131.182 87.3309 132.023 86.3391 132.864 85.3968C134.602 83.4131 136.396 81.4294 138.19 79.4457C141.946 75.3792 145.758 71.4118 149.683 67.4445C152.15 64.9153 152.542 60.7991 149.515 58.4186C146.711 56.187 141.946 55.8895 139.311 58.5674C131.967 65.9567 124.791 73.5443 118.175 81.4294C118.231 80.9335 118.343 80.4376 118.4 79.9417C119.857 71.7094 122.268 63.6754 125.632 55.8895C126.977 52.7651 123.838 48.7978 120.362 48.1531C116.157 47.4092 113.074 49.4425 111.616 52.8148C104.888 68.4859 101.917 85.4464 102.702 102.209C101.917 103.399 101.188 104.639 100.459 105.829C94.4606 115.747 89.6952 126.211 86.6118 137.072C86.5557 137.022 86.5557 137.022 86.4997 136.973C86.1633 136.626 85.8269 136.278 85.4905 135.931C84.3132 134.493 83.192 133.055 82.1828 131.518C81.7343 130.823 81.3418 130.179 80.9493 129.484C80.7811 129.187 80.613 128.889 80.4448 128.592C80.3327 128.393 80.2767 128.145 80.2206 128.046C79.4918 126.459 78.9311 124.872 78.4265 123.186C78.2022 122.343 77.9781 121.549 77.8099 120.706C77.8099 120.607 77.7538 120.558 77.7538 120.458C77.6977 120.111 77.6416 119.715 77.5855 119.367C77.3613 117.681 77.3053 115.995 77.3613 114.309C77.3613 113.863 77.4175 113.367 77.4175 112.92C77.4175 112.772 77.4175 112.573 77.4175 112.375C77.4735 111.631 77.7538 110.788 77.922 110.044C78.6508 106.771 76.5765 103.002 72.6521 102.308C68.9519 101.663 64.6911 103.448 63.9062 106.969C60.206 123.98 68.0548 141.337 83.4722 151.702C83.0797 154.379 82.7995 157.107 82.6873 159.785C82.1267 170.051 83.4162 180.515 86.6679 190.383C87.7331 193.607 91.9378 195.839 95.638 194.698C99.3381 193.557 101.637 190.185 100.515 186.763C99.8427 184.68 99.226 182.548 98.7214 180.415C98.4972 179.374 98.2728 178.333 98.0486 177.241C97.9365 176.547 97.8244 175.803 97.7123 175.109C97.2077 171.34 96.9274 167.571 96.9834 163.752C105.337 163.852 113.522 162.066 120.866 158.198C124.118 156.462 125.463 152.297 123.333 149.42C121.147 146.544 116.886 145.453 113.41 147.238C112.569 147.685 111.728 148.131 110.831 148.478C110.719 148.528 110.326 148.676 110.046 148.825C109.766 148.924 109.373 149.073 109.317 149.073C107.467 149.718 105.617 150.214 103.655 150.561C103.262 150.611 102.87 150.71 102.478 150.759C104.103 150.462 102.253 150.759 101.973 150.809C101.076 150.908 100.235 150.958 99.3381 151.007C98.8895 151.007 98.4971 151.057 98.0486 151.057C98.1046 150.759 98.1608 150.511 98.1608 150.214C98.8896 146.048 99.8987 141.981 101.188 137.915C101.525 136.774 101.917 135.634 102.309 134.493C124.623 131.071 144.749 118.276 156.13 100.969C157.98 98.39 156.803 94.0754 153.327 92.5877ZM98.0486 177.539C98.0486 177.837 98.2168 178.63 98.0486 177.539V177.539Z" fill="#2A6386"/>
<path d="M561.595 97C561.595 97 579.15 110.881 552.817 140.113C526.485 169.345 568.071 177.122 562.221 195H584.999C584.999 195 573.196 181.7 561.785 160.721C551.369 141.571 586.043 128.542 561.595 97Z" fill="#A2A7D1"/>
<path d="M602.595 97C602.595 97 620.15 110.881 593.817 140.113C567.485 169.345 609.071 177.122 603.221 195H625.999C625.999 195 614.196 181.7 602.785 160.721C592.369 141.571 627.043 128.542 602.595 97Z" fill="#3A489A"/>
<path d="M649.404 97C649.404 97 631.85 110.881 658.182 140.113C684.514 169.345 642.929 177.122 648.778 195H626C626 195 637.803 181.7 649.214 160.721C659.631 141.571 624.956 128.542 649.404 97Z" fill="#A2A7D1"/>
<path d="M671.817 195.001H699.004C699.004 195.001 697.238 158.591 681.325 136.143C665.413 113.695 685.415 99.002 685.415 99.002C685.415 99.002 665.743 109.074 667.067 134.881C668.392 160.688 698.78 159.855 671.817 195.001Z" fill="#3A489A"/>
<path d="M743.282 63.434C744.986 51.8024 721.911 49.1915 722.039 35.0725C722.166 20.9535 716.006 13.2444 716.006 13.2444C730.692 17.6897 734.237 36.5077 734.237 36.5077C748.006 47.3563 744.862 57.4145 744.6 58.0748L743.282 63.434Z" fill="#3A489A"/>
<path d="M747.944 48.2472C747.027 36.5313 770.236 35.4636 771.053 21.3749C771.87 7.28614 778.542 0 778.542 0C763.585 3.44713 758.785 21.9893 758.785 21.9893C744.315 31.8863 746.772 42.1434 746.996 42.8111L747.944 48.2472Z" fill="#3A489A"/>
<path d="M741.163 78.9357C743.575 67.4268 766.151 72.8858 770.906 59.5876C775.66 46.2893 784.105 41.1607 784.105 41.1607C768.779 40.3008 758.955 56.7541 758.955 56.7541C742.281 62.2206 741.764 72.7468 741.78 73.453L741.163 78.9357Z" fill="#3A489A"/>
<path d="M739.607 113.086C740.825 101.393 763.848 104.525 767.208 90.8128C770.567 77.1005 778.45 71.1445 778.45 71.1445C763.116 71.8507 755.033 89.2179 755.033 89.2179C739.005 96.3503 739.569 106.877 739.662 107.575L739.607 113.086Z" fill="#3A489A"/>
<path d="M743.213 144.972C744.431 133.279 767.454 136.411 770.813 122.698C774.172 108.986 782.055 103.03 782.055 103.03C766.721 103.736 758.639 121.103 758.639 121.103C742.61 128.236 743.174 138.762 743.267 139.461L743.213 144.972Z" fill="#3A489A"/>
<path d="M755.473 174.977C754.086 163.307 777.233 161.31 777.48 147.199C777.727 133.087 784.099 125.547 784.099 125.547C769.297 129.593 765.244 148.312 765.244 148.312C751.182 158.785 754.056 168.927 754.302 169.587L755.473 174.977Z" fill="#3A489A"/>
<path d="M757.823 191.967C761.267 180.728 783.258 188.189 789.191 175.368C795.125 162.547 804.001 158.2 804.001 158.2C788.814 155.966 777.549 171.475 777.549 171.475C760.451 175.421 758.979 185.863 758.94 186.559L757.823 191.967Z" fill="#3A489A"/>
<path d="M758.062 190.924C752.236 180.697 732.411 192.759 723.819 181.541C715.228 170.324 705.611 168.006 705.611 168.006C719.943 162.524 734.336 175.215 734.336 175.215C751.889 175.353 755.603 185.219 755.804 185.895L758.062 190.924Z" fill="#3A489A"/>
<path d="M751.789 166.093C748.344 154.854 726.354 162.315 720.421 149.494C714.487 136.673 705.611 132.326 705.611 132.326C720.798 130.092 732.071 145.601 732.071 145.601C749.169 149.547 750.641 159.982 750.687 160.685L751.789 166.093Z" fill="#3A489A"/>
<path d="M740.37 133.792C738.99 122.122 716.021 125.554 712.477 111.887C708.932 98.2209 700.975 92.3626 700.975 92.3626C716.316 92.8617 724.63 110.121 724.63 110.121C740.75 117.039 740.326 127.571 740.249 128.271L740.37 133.792Z" fill="#3A489A"/>
<path d="M738.398 93.4156C737.018 81.7455 714.049 85.1771 710.504 71.5106C706.96 57.8441 699.002 51.9858 699.002 51.9858C714.344 52.4849 722.658 69.7442 722.658 69.7442C738.778 76.6621 738.353 87.1942 738.277 87.8944L738.398 93.4156Z" fill="#3A489A"/>
<path d="M758.623 194.999H756.266C756.859 194.999 760.396 182.454 749.184 164.027C737.972 145.6 733.057 102.912 742.596 61.7282L748.082 44.4534L752.135 39.5548C752.135 39.5548 746.626 48.7679 747.019 57.3901C747.019 57.3901 740.923 63.2713 740.724 110.513C740.524 157.755 759.802 163.045 758.623 194.999Z" fill="#3A489A"/>
<path d="M846.791 101.217C845.591 92.9249 861.855 91.0643 861.763 81C861.671 70.9357 866.017 65.4404 866.017 65.4404C855.667 68.6094 853.169 82.0231 853.169 82.0231C843.465 89.7559 845.68 96.9255 845.865 97.3986L846.791 101.217Z" fill="#3A489A"/>
<path d="M843.506 90.3917C844.153 82.0386 827.796 81.2794 827.223 71.2366C826.651 61.1937 821.942 56 821.942 56C832.483 58.4571 835.866 71.6712 835.866 71.6712C846.061 78.7255 844.332 86.0377 844.175 86.5138L843.506 90.3917Z" fill="#3A489A"/>
<path d="M848.285 112.266C846.585 104.061 830.674 107.954 827.324 98.4749C823.973 88.996 818.021 85.3406 818.021 85.3406C828.822 84.7278 835.746 96.4561 835.746 96.4561C847.498 100.352 847.862 107.856 847.848 108.357L848.285 112.266Z" fill="#3A489A"/>
<path d="M849.382 136.61C848.524 128.275 832.298 130.508 829.93 120.733C827.563 110.959 822.009 106.712 822.009 106.712C832.815 107.215 838.512 119.595 838.512 119.595C849.807 124.679 849.411 132.183 849.345 132.679L849.382 136.61Z" fill="#3A489A"/>
<path d="M846.84 159.338C845.982 151.003 829.756 153.236 827.389 143.462C825.021 133.687 819.467 129.44 819.467 129.44C830.274 129.944 835.97 142.323 835.97 142.323C847.266 147.408 846.869 154.911 846.804 155.407L846.84 159.338Z" fill="#3A489A"/>
<path d="M838.201 180.727C839.178 172.408 822.865 170.985 822.691 160.926C822.517 150.867 818.026 145.493 818.026 145.493C828.458 148.376 831.315 161.72 831.315 161.72C841.225 169.186 839.2 176.415 839.026 176.886L838.201 180.727Z" fill="#3A489A"/>
<path d="M836.544 192.839C834.117 184.826 818.618 190.146 814.437 181.006C810.257 171.866 804 168.768 804 168.768C814.704 167.176 822.643 178.23 822.643 178.23C834.693 181.044 835.73 188.487 835.757 188.984L836.544 192.839Z" fill="#3A489A"/>
<path d="M836.376 192.094C840.483 184.804 854.454 193.403 860.507 185.407C866.561 177.411 873.339 175.758 873.339 175.758C863.239 171.85 853.095 180.897 853.095 180.897C840.725 180.995 838.108 188.028 837.966 188.51L836.376 192.094Z" fill="#3A489A"/>
<path d="M840.796 174.395C843.223 166.382 858.722 171.702 862.903 162.562C867.084 153.422 873.34 150.324 873.34 150.324C862.636 148.732 854.692 159.786 854.692 159.786C842.642 162.6 841.605 170.037 841.573 170.54L840.796 174.395Z" fill="#3A489A"/>
<path d="M848.844 151.37C849.816 143.051 866.007 145.498 868.501 135.756C870.995 126.014 876.61 121.839 876.61 121.839C865.798 122.195 859.939 134.498 859.939 134.498C848.578 139.429 848.877 146.938 848.932 147.434L848.844 151.37Z" fill="#3A489A"/>
<path d="M850.234 122.589C851.206 114.27 867.398 116.716 869.891 106.974C872.385 97.2323 877.999 93.0565 877.999 93.0565C867.187 93.4121 861.328 105.715 861.328 105.715C849.967 110.647 850.267 118.156 850.321 118.652L850.234 122.589Z" fill="#3A489A"/>
<path d="M835.979 195H837.641C837.223 195 834.731 186.056 842.629 172.922C850.527 159.789 853.998 129.358 847.272 100.001L843.406 87.6876L840.55 84.1956C840.55 84.1956 844.433 90.7627 844.155 96.91C844.155 96.91 848.451 101.102 848.592 134.777C848.734 168.451 835.149 172.221 835.979 195Z" fill="#3A489A"/>
<path d="M935 194.519C935 194.519 1068.54 70.1812 1386.53 194.519H935Z" fill="#394FD4"/>
<path d="M1080.44 87C1080.44 87 1069 96.0029 1086.16 114.963C1103.31 133.922 1076.22 138.967 1080.03 150.562H1065.19C1070.98 143.692 1076.05 136.241 1080.32 128.329C1087.1 115.908 1064.51 107.457 1080.44 87Z" fill="#394FD4"/>
<path d="M1089.15 87C1089.15 87 1077.71 96.0029 1094.87 114.963C1112.02 133.922 1084.93 138.967 1088.74 150.564H1073.9C1079.69 143.694 1084.76 136.243 1089.03 128.331C1095.81 115.908 1073.22 107.457 1089.15 87Z" fill="#394FD4"/>
<path d="M1069.15 87C1069.15 87 1080.59 96.0029 1063.43 114.963C1046.28 133.922 1073.37 138.967 1069.56 150.562H1084.4C1078.61 143.692 1073.54 136.242 1069.27 128.329C1062.49 115.908 1085.08 107.457 1069.15 87Z" fill="#394FD4"/>
<path d="M1087.7 150.819H1070.95C1070.95 150.819 1072.04 127.152 1081.84 112.559C1091.64 97.9664 1079.32 88.4132 1079.32 88.4132C1079.32 88.4132 1091.44 94.96 1090.62 111.736C1089.81 128.512 1071.09 127.973 1087.7 150.819Z" fill="#394FD4"/>
</svg>
