<svg width="154" height="28" viewBox="0 0 154 28" fill="none" xmlns="http://www.w3.org/2000/svg">
                        <path d="M50.1916 8.00836L50.1891 8.01056C49.7685 8.36664 49.2586 8.51384 48.5661 8.65963C48.0112 8.77647 47.2049 8.9146 46.018 9.11793C45.6888 9.17433 45.3303 9.23575 44.9397 9.30312C44.9361 9.30439 44.9318 9.30587 44.9271 9.30761C44.8623 9.33103 44.7147 9.39019 44.442 9.52326L44.2317 9.62585L43.9978 9.62454C43.7616 9.62322 43.3421 9.7243 42.8504 9.90549C42.5966 9.99899 42.3606 10.0997 42.1729 10.1862C42.805 10.1223 43.5173 9.97433 44.183 9.81507C44.4516 9.75083 44.6767 9.69393 44.8869 9.64078C45.0382 9.60255 45.1818 9.56625 45.3283 9.53057C45.4843 9.49258 45.6372 9.45714 45.7675 9.43294C45.8324 9.42089 45.9071 9.40869 45.9828 9.4013C46.039 9.3958 46.1775 9.38354 46.335 9.41113L46.3564 9.41487L46.3775 9.41953C47.4042 9.64563 48.011 10.4953 48.3343 11.1769C48.6714 11.8877 48.8398 12.6971 48.8398 13.3022C48.8398 13.4183 48.8185 13.5499 48.8103 13.6012L48.8093 13.6068C48.7963 13.6878 48.7796 13.7796 48.763 13.8656C48.7463 13.952 48.7283 14.0392 48.7122 14.112C48.7118 14.114 48.7113 14.1165 48.7106 14.1193C48.7017 14.1601 48.6756 14.2797 48.6407 14.3728C48.6404 14.3737 48.64 14.3746 48.6397 14.3754L47.7044 14.0215C47.5618 14.4015 46.8714 14.7193 46.0384 14.7943L50.1916 8.00836ZM50.1916 8.00836C50.4045 7.82685 50.5072 7.59373 50.5382 7.52314L50.5392 7.52089C50.5892 7.40749 50.6279 7.29049 50.6565 7.1918C50.7037 7.02881 50.7664 6.76655 50.7676 6.55311H50.7676V6.54721C50.7676 6.21048 50.6533 5.85518 50.5628 5.60805C50.4594 5.32566 50.3248 5.02462 50.191 4.748C49.9268 4.20187 49.6263 3.67064 49.4851 3.4545L49.4846 3.45374C49.2531 3.0999 48.9516 2.76964 48.4812 2.5685C48.0573 2.38726 47.5943 2.35614 47.1469 2.35614C46.7677 2.35614 46.1392 2.46414 45.5133 2.58696C44.8475 2.71762 44.0622 2.89115 43.3044 3.06439C42.7359 3.19435 42.1766 3.32562 41.6906 3.43968C41.5284 3.47774 41.3744 3.51388 41.231 3.54743C40.9425 3.61487 40.6985 3.67137 40.5131 3.71263C40.4202 3.7333 40.346 3.74929 40.2903 3.7606C40.2646 3.76581 40.2468 3.76921 40.2355 3.77131L39.4921 3.82097L39.0199 3.85252L38.8135 4.14162C38.8053 4.14686 38.796 4.15271 38.7855 4.15916C38.6965 4.21384 38.5751 4.28018 38.4421 4.34862C38.3319 4.40536 38.2232 4.45863 38.134 4.50142M50.1916 8.00836L38.134 4.50142M38.134 4.50142L37.8652 4.49671L37.8564 4.49656H37.8477C37.7134 4.49656 37.5987 4.52593 37.5833 4.52986C37.5826 4.53004 37.5821 4.53016 37.5818 4.53023C37.5363 4.54136 37.4904 4.55495 37.4457 4.56986C37.3554 4.60002 37.2502 4.64233 37.1357 4.69938C36.9064 4.81367 36.6259 4.9944 36.3533 5.2708C35.7868 5.84524 35.3355 6.75015 35.3355 8.08406C35.3355 8.49884 35.3799 8.84463 35.4933 9.14887C35.5997 9.43408 35.7535 9.63137 35.8184 9.71465C35.8252 9.7233 35.8309 9.73072 35.8356 9.73689L38.134 4.50142ZM41.7411 16.2879C42.7239 16.132 44.1519 15.9685 46.1281 15.7903L35.8358 9.73713C35.9578 9.89827 36.1823 10.2062 36.382 10.4822C36.4094 10.52 36.4361 10.5569 36.4618 10.5926C36.4225 10.6974 36.3723 10.8216 36.3092 10.9699C36.2679 11.067 36.2212 11.1742 36.171 11.2894C36.0462 11.5759 35.9001 11.9114 35.7626 12.2615C35.3653 13.2738 34.9722 14.5673 34.9722 16.1364C34.9722 16.8807 35.1182 17.6964 35.2897 18.3673C35.455 19.0138 35.6771 19.6556 35.8889 20.0149L35.9983 20.2005L36.1744 20.3245C36.3296 20.4339 36.4228 20.5202 36.4765 20.5779L36.4234 20.9356L36.9324 21.2899C38.0246 22.05 39.2974 22.5432 40.3538 22.8466C41.3924 23.145 42.3279 23.2894 42.7797 23.2894C44.2329 23.2894 45.2849 22.8179 45.9591 22.0508C46.6078 21.3128 46.7959 20.4265 46.7959 19.7769C46.7959 18.8065 46.4322 17.9277 46.0024 17.2967C45.7857 16.9786 45.5321 16.6934 45.2614 16.4764C45.0284 16.2896 44.6334 16.0321 44.1516 16.0321C43.8205 16.0321 43.5369 16.1475 43.3783 16.2163C43.2909 16.2543 43.202 16.2968 43.127 16.3326L43.1217 16.3351C43.0405 16.3739 42.9671 16.4089 42.8899 16.4434C42.5984 16.5733 42.2809 16.6812 41.8564 16.6812C41.857 16.6812 41.8567 16.6812 41.8554 16.6812C41.8489 16.6809 41.8165 16.6796 41.7558 16.6738C41.6898 16.6674 41.6046 16.657 41.5073 16.6417C41.3095 16.6105 41.0839 16.5622 40.8786 16.4953C40.8489 16.4856 40.8207 16.4759 40.7942 16.4663C41.0334 16.4104 41.345 16.3507 41.7411 16.2879ZM38.861 4.10957C38.8602 4.11015 38.8593 4.11085 38.8581 4.11168C38.8675 4.10385 38.8696 4.10307 38.861 4.10957Z" fill="#66CC00" stroke="#F5FFE0" stroke-width="2"/>
                        <path d="M50.541 20.9298C50.0817 21.818 50.0819 21.8181 50.0821 21.8183L50.0826 21.8185L50.0837 21.8191L50.0865 21.8205L50.0947 21.8247L50.1206 21.8377C50.1422 21.8485 50.1722 21.8632 50.2102 21.8814C50.2862 21.9178 50.3942 21.968 50.5303 22.0273C50.8022 22.1458 51.1887 22.302 51.6582 22.4577C52.5891 22.7665 53.886 23.0874 55.2813 23.0874C56.2728 23.0874 57.4362 22.9316 58.3885 22.4062C59.4069 21.8444 60.1612 20.8606 60.1612 19.4033C60.1612 18.7865 59.9845 18.04 59.7364 17.4163C59.6094 17.0971 59.4498 16.7743 59.2575 16.4932C59.0777 16.2304 58.8075 15.9121 58.4266 15.7246L58.4265 15.7245C58.3774 15.7004 58.3259 15.677 58.272 15.6554C59.3929 15.4243 60.5659 15.1083 61.3874 14.58L61.3876 14.5799C61.6385 14.4185 61.7974 14.1952 61.8949 14.0177C61.9987 13.8287 62.0719 13.6212 62.1202 13.4129C62.2171 12.9954 62.2316 12.5029 62.132 11.9888L62.1319 11.9882C61.9778 11.1944 61.6395 10.4186 61.1729 9.81922C60.8677 9.42706 60.4427 9.03319 59.9158 8.82416C60.8486 8.72645 61.4965 8.65712 61.9517 8.60582C62.6873 8.52291 63.0065 8.48025 63.2294 8.41208C63.2296 8.41199 63.2299 8.4119 63.2302 8.41182L62.9371 7.45574L50.541 20.9298ZM50.541 20.9298L49.7638 21.559L49.8957 21.7218L50.0817 21.818L50.541 20.9298ZM50.541 20.9298C49.7638 21.559 49.7637 21.5589 49.7636 21.5587L49.7633 21.5584L49.7626 21.5575L49.7607 21.5551L49.7548 21.5478L49.735 21.5229C49.7184 21.5019 49.6951 21.4722 49.6661 21.4345C49.608 21.3591 49.5268 21.2515 49.43 21.1177C49.2373 20.8511 48.9794 20.4754 48.7199 20.0398C48.233 19.2221 47.6172 17.9947 47.6172 16.8445C47.6172 14.726 48.1808 12.5474 48.7342 10.9088C49.1975 9.53696 49.6717 8.49215 49.8589 8.09985M50.541 20.9298L49.8589 8.09985M49.8589 8.09985L49.8644 8.06345C49.8821 7.94674 49.9068 7.78352 49.9346 7.59759C49.9904 7.22503 50.0584 6.76448 50.1089 6.40419L49.8589 8.09985ZM51.7646 4.07505L52.1461 4.03687C52.3325 4.01822 52.5849 3.96389 53.0156 3.85832C53.1013 3.83731 53.1927 3.81466 53.2898 3.79057C53.6589 3.69904 54.1118 3.58671 54.6582 3.46473C56.0488 3.1543 58.051 2.77938 61.0684 2.45526L61.0687 2.45523C61.9353 2.36236 62.6528 2.90514 63.1156 3.42982C63.6168 3.99803 64.0371 4.7772 64.3222 5.66119L51.7646 4.07505ZM51.7646 4.07505L51.5064 4.35852M51.7646 4.07505L51.5064 4.35852M51.5064 4.35852C51.4355 4.43638 51.3543 4.50884 51.2408 4.60431M51.5064 4.35852L51.2408 4.60431M51.2408 4.60431C51.2257 4.61695 51.2093 4.63067 51.1917 4.64534M51.2408 4.60431L51.1917 4.64534M51.1917 4.64534C51.0932 4.72748 50.9591 4.83929 50.8381 4.95833M51.1917 4.64534L50.8381 4.95833M50.8381 4.95833C50.5013 5.28958 50.203 5.73054 50.109 6.4037L50.8381 4.95833ZM58.1387 9.00915C57.9381 9.10254 57.6953 9.21216 57.4099 9.32649C56.8816 9.53807 56.2115 9.76372 55.4309 9.91598C55.5248 9.77143 55.6185 9.63881 55.7024 9.53226C55.776 9.43883 55.8208 9.39294 55.8359 9.37734C55.8505 9.37063 55.8794 9.35812 55.9272 9.34178C56.0183 9.31063 56.1419 9.27754 56.2985 9.24475C56.6122 9.17908 56.9965 9.1272 57.397 9.08598L57.3975 9.08592C57.6565 9.05911 57.9034 9.03355 58.1387 9.00915ZM54.9976 10.7043C54.9974 10.7055 54.9972 10.7061 54.9972 10.7061L54.9976 10.7043ZM56.6401 15.8368C56.6735 15.8381 56.7084 15.8391 56.7448 15.8398C56.69 15.8782 56.6445 15.9135 56.6106 15.9397C56.5864 15.9585 56.5648 15.9754 56.545 15.9909C56.4836 16.0389 56.4384 16.0744 56.3799 16.115C56.1742 16.258 55.6932 16.5543 54.2348 16.4805C53.9974 16.4684 53.7478 16.4276 53.5135 16.3697C53.5593 16.362 53.6068 16.3543 53.656 16.3464C54.0673 16.281 54.5356 16.22 55.0551 16.1524C55.3873 16.1092 55.7404 16.0632 56.113 16.0116L56.1145 16.0114C56.2064 15.9985 56.2846 15.977 56.341 15.9591C56.399 15.9407 56.4507 15.9205 56.4919 15.9034C56.5452 15.8812 56.5989 15.8563 56.6401 15.8368ZM52.7352 16.5484C52.7311 16.5506 52.7288 16.5516 52.7287 16.5516C52.7286 16.5516 52.7307 16.5505 52.7352 16.5484ZM52.6671 16.037C52.6672 16.037 52.6684 16.0379 52.6704 16.0397C52.6681 16.0379 52.6671 16.037 52.6671 16.037ZM56.4149 15.8224L56.4168 15.8226L56.4149 15.8224Z" fill="#66CC00" stroke="#F5FFE0" stroke-width="2"/>
                        <path d="M106.683 8.18349L106.682 8.18395C105.848 8.50061 104.171 8.83294 102.511 9.16188C102.428 9.17829 102.345 9.1947 102.262 9.2111L102.281 9.2123L102.281 9.21234C102.403 9.22031 102.633 9.2354 102.873 9.29627C103.112 9.35691 103.454 9.48473 103.736 9.78406L106.683 8.18349ZM106.683 8.18349C107.253 7.96632 107.557 7.44831 107.711 7.04708C107.882 6.6043 107.965 6.07059 107.965 5.49181C107.965 4.65396 107.695 3.86381 107.352 3.23386C107.014 2.61343 106.554 2.05532 106.072 1.71792L106.072 1.71787M106.683 8.18349L106.072 1.71787M93.4376 5.94053C93.5135 5.60252 93.6557 5.21429 93.8347 4.87668C93.9538 4.65197 94.1146 4.40083 94.3243 4.18713C94.5253 3.98238 94.8581 3.72485 95.319 3.67589L95.3195 3.67583C96.5858 3.54202 100.707 2.65945 104.371 1.48509L93.4376 5.94053ZM93.4376 5.94053C93.4099 5.97629 93.3835 6.0083 93.3601 6.0355C93.3344 6.06548 93.3138 6.08793 93.3013 6.10127L93.2894 6.11375L93.2893 6.11384L93.1029 6.29856L93.0321 6.55577C92.8679 7.1524 92.5811 7.78727 92.2099 8.50681C92.043 8.83027 91.865 9.15972 91.6776 9.50643C91.6578 9.54322 91.6378 9.5802 91.6177 9.6174C91.4102 10.0016 91.1936 10.4046 90.982 10.8214C90.1363 12.4874 89.3282 14.4525 89.3282 16.8023C89.3282 19.4817 90.5203 21.2477 92.1253 22.3C93.6723 23.3142 95.5345 23.6271 96.9295 23.6271C97.2521 23.6271 97.8313 23.5822 98.5665 23.387M93.4376 5.94053L100.088 22.827C100.087 22.8272 100.087 22.8274 100.086 22.8276C99.9627 22.8903 99.8281 22.9266 99.7832 22.9387L99.7787 22.9399C99.7066 22.9594 99.6294 22.9776 99.5634 22.9923C99.5074 23.0048 99.4525 23.0164 99.4055 23.0261C99.3965 23.0306 99.3867 23.0355 99.3763 23.0408C99.33 23.0641 99.2709 23.0939 99.2169 23.1205C99.131 23.1628 99.0287 23.212 98.9265 23.2566C98.8338 23.297 98.7017 23.3512 98.5665 23.387M98.5665 23.387C98.5664 23.387 98.5662 23.3871 98.566 23.3871L98.3105 22.4208L98.567 23.3869C98.5669 23.3869 98.5667 23.3869 98.5665 23.387ZM106.072 1.71787C105.546 1.3498 104.938 1.30307 104.371 1.48499L106.072 1.71787ZM94.8737 16.893C94.958 16.9249 95.0896 16.9597 95.2875 16.9789C95.6844 17.0175 96.284 16.9863 97.1498 16.7983L94.8737 16.893ZM94.8737 16.893C94.9437 16.8797 95.0236 16.8671 95.1135 16.8564L94.8737 16.893ZM101.789 9.30525C101.765 9.31583 101.742 9.3263 101.718 9.33663C101.038 9.63933 100.599 9.83416 99.9445 10.0148C99.3677 10.1738 98.6088 10.3248 97.3879 10.4999C97.4361 10.4341 97.4821 10.377 97.5236 10.3309C97.5404 10.3122 97.5546 10.2973 97.5662 10.2858C98.6033 9.95508 100.176 9.62705 101.789 9.30525ZM97.5997 10.2549C97.6039 10.2516 97.6036 10.2522 97.5988 10.2556C97.5992 10.2553 97.5995 10.2551 97.5997 10.2549ZM96.4127 10.6216C96.4128 10.6216 96.4136 10.6217 96.4152 10.6219L96.4127 10.6216ZM96.9322 11.3679C96.932 11.3693 96.9319 11.37 96.9318 11.37L96.9322 11.3679ZM102.294 15.832C103.161 15.7022 103.845 15.3511 104.295 14.7769C104.734 14.2171 104.85 13.5738 104.85 13.0491C104.85 11.5654 104.352 10.438 103.736 9.7842L102.294 15.832Z" fill="#66CC00" stroke="#F5FFE0" stroke-width="2"/>
                        <path d="M28.526 10.0478C28.6568 9.90646 28.7604 9.76812 28.8427 9.63564C29.0929 9.23249 29.1792 8.82902 29.1796 8.45136L28.526 10.0478ZM28.526 10.0478C28.5391 9.96813 28.5522 9.88747 28.5654 9.80621C28.6651 9.19181 28.7721 8.51449 28.851 7.96007C28.8773 7.97164 28.9026 7.98443 28.9266 7.99844C29.0843 8.09019 29.1795 8.21873 29.1796 8.45119L28.526 10.0478ZM36.1808 17.0241L36.1806 17.0239C35.9194 16.7327 35.5552 16.4416 35.199 16.1791C34.8312 15.9082 34.4121 15.6251 34.0102 15.3549C33.5398 15.0387 33.1149 14.753 32.7729 14.5045C33.0238 14.1305 33.3105 13.666 33.5831 13.1541C34.1361 12.1155 34.7235 10.7134 34.7235 9.38066C34.7235 7.63561 34.0931 5.75836 33.0446 4.30397C31.9998 2.85476 30.4252 1.68237 28.4926 1.68237H28.4839L28.4752 1.68252L28.4926 2.68237L28.4752 1.68252L28.4751 1.68253L28.4748 1.68253L28.474 1.68255L28.4715 1.68259L28.4628 1.68276L28.4308 1.68343C28.4032 1.68404 28.3631 1.685 28.312 1.68641C28.2098 1.68921 28.0631 1.69382 27.8829 1.70104C27.523 1.71546 27.0263 1.74044 26.4802 1.78276L25.9881 1.82091L25.8622 2.01461C25.86 2.01457 25.8579 2.01452 25.8558 2.01446C25.8407 2.01405 25.8297 2.01336 25.8244 2.01299C25.8242 2.01297 25.8239 2.01295 25.8237 2.01293L25.5637 1.98535L25.3183 2.09465C24.7042 2.36824 24.0033 2.78242 23.4799 3.57614C22.9621 4.36119 22.6943 5.40012 22.6943 6.78358C22.6943 7.43784 23.1238 7.92318 23.3377 8.14723C23.4339 8.24806 23.5493 8.35621 23.6603 8.45631C23.5617 9.10841 23.3736 9.94605 23.1454 10.5987C23.1313 10.6032 23.1161 10.608 23.0997 10.6128C23.0097 10.6393 22.9169 10.6599 22.8436 10.674C22.808 10.6809 22.7793 10.6858 22.7609 10.6888L22.7418 10.6918L22.741 10.6919L22.7405 10.692L22.7397 10.6921L22.7396 10.6921L22.7392 10.6922L22.3402 10.7475L22.0908 11.0669L21.5784 11.7232L21.4231 11.9221L21.3808 12.1709C21.2097 13.1771 21.173 13.923 21.3754 14.5736C21.5293 15.068 21.8191 15.4581 22.0681 15.7722C22.0654 16.1441 22.0124 16.6332 21.939 17.2049C21.9278 17.2923 21.916 17.382 21.9041 17.4734C21.8258 18.0697 21.7388 18.7329 21.7388 19.2453C21.7388 19.4967 21.7635 19.703 21.8049 19.8875C21.8357 20.0244 21.8813 20.1618 21.8999 20.2181C21.9032 20.228 21.9057 20.2354 21.907 20.2398C21.9124 20.257 21.9147 20.2654 21.9155 20.2689C21.9159 20.2774 21.9168 20.3297 21.8914 20.459L21.7928 20.96L22.1086 21.299C22.3194 21.9041 22.7464 22.4167 23.2328 22.7763C23.7282 23.1426 24.3689 23.4116 25.055 23.4116C25.7652 23.4116 26.3304 23.138 26.7165 22.7519C27.0635 22.405 27.3053 21.9214 27.3053 21.4456C27.3053 20.9696 27.2456 20.0474 27.1929 19.2618C27.1868 19.1705 27.1807 19.0805 27.1748 18.9926C27.1545 18.6916 27.1359 18.4147 27.122 18.1882C27.1146 18.069 27.1089 17.9677 27.105 17.8866C27.348 18.0766 27.6258 18.3066 27.9308 18.5702C28.8926 19.4016 30.0618 20.5123 31.1445 21.6061C31.4098 21.8741 31.7631 22.1075 32.1305 22.2755C32.4978 22.4433 32.9517 22.5789 33.4262 22.5789C34.5183 22.5789 35.2418 21.9519 35.6774 21.4367C35.8882 21.1874 36.0596 20.9311 36.181 20.7497L36.192 20.7332C36.277 20.6062 36.3241 20.5399 36.3464 20.5085C36.3657 20.4812 36.3664 20.4803 36.357 20.4888L36.4219 20.4302L36.4758 20.3613C36.6973 20.0776 36.7658 19.7263 36.7943 19.5366C36.8307 19.2942 36.8396 19.0238 36.8213 18.7545C36.788 18.2647 36.648 17.5452 36.1808 17.0241ZM26.3144 17.3499C26.3142 17.3496 26.3191 17.3512 26.3295 17.3559C26.3197 17.3526 26.3146 17.3503 26.3144 17.3499Z" fill="#66CC00" stroke="#F5FFE0" stroke-width="2"/>
                        <path d="M90.7807 2.82983L90.9014 2.90616C91.5704 3.32927 92.1962 4.18224 92.6416 5.06991C93.1021 5.98764 93.4642 7.12839 93.4647 8.25447V8.25491C93.4647 9.23301 93.0612 10.1352 92.5834 10.8452C92.1009 11.5623 91.4845 12.1709 90.9196 12.578L90.7807 2.82983ZM90.7807 2.82983L90.6435 2.79033M90.7807 2.82983L90.6435 2.79033M90.6435 2.79033L89.7758 2.54064L89.3652 2.33416L89.242 2.27225M90.6435 2.79033L89.242 2.27225M89.242 2.27225L89.1067 2.24596M89.242 2.27225L89.1067 2.24596M89.1067 2.24596C88.3785 2.10444 87.2131 2.0287 86.1476 1.99818C85.1182 1.96869 84.074 1.97863 83.4752 2.03298C83.4675 2.03194 83.4582 2.03062 83.4472 2.02895C83.3805 2.01881 83.2903 2.00183 83.1833 1.97958C83.0353 1.94881 82.8911 1.91577 82.7613 1.88603C82.6972 1.87134 82.6367 1.85747 82.5809 1.84507L82.2021 1.76084M89.1067 2.24596L82.2021 1.76084M82.2021 1.76084L81.8657 1.95415M82.2021 1.76084L81.8657 1.95415M81.8657 1.95415C81.53 2.14702 81.2112 2.28939 80.9764 2.3832C80.9324 2.4008 80.8916 2.41657 80.8545 2.43054C80.8484 2.42847 80.8421 2.42635 80.8358 2.42419C80.7771 2.40405 80.7212 2.38334 80.6794 2.36739C80.6587 2.35952 80.6423 2.35309 80.6314 2.34882L80.6197 2.34419L80.6179 2.34347L80.6178 2.34343M81.8657 1.95415L80.6178 2.34343M76.1067 3.49316C76.1392 3.47181 76.1724 3.45109 76.2063 3.43108L76.1067 3.49316ZM76.1067 3.49316C75.8857 3.21264 75.6267 2.97955 75.3735 2.79762C74.8776 2.4411 74.2263 2.15335 73.6059 2.15335C73.2002 2.15335 72.7971 2.33596 72.5346 2.50195C72.3841 2.59715 72.2187 2.72459 72.0747 2.88788C71.9367 3.04425 71.7657 3.29359 71.7122 3.62848M76.1067 3.49316L71.7122 3.62848M71.7122 3.62848C71.6768 3.84918 71.6494 4.32315 71.6183 4.85974C71.6112 4.98262 71.6039 5.10879 71.5963 5.23595C71.5522 5.97031 71.4926 6.86051 71.3964 7.73201L71.7122 3.62848ZM71.2939 10.4577C71.037 10.1431 70.7779 9.82485 70.5286 9.50168C70.1936 9.06743 69.8996 8.65388 69.6817 8.27663C69.456 7.88573 69.3561 7.60783 69.3337 7.43489L69.3337 7.43482C69.2963 7.14711 69.2785 6.8017 69.2638 6.40291C69.2609 6.32473 69.2581 6.24421 69.2553 6.1621C69.2443 5.84288 69.2325 5.49952 69.2098 5.17578C69.1815 4.77094 69.1327 4.3338 69.0263 3.94073C68.926 3.57047 68.7336 3.07975 68.3024 2.74258L71.2939 10.4577ZM71.2939 10.4577C71.3081 10.2354 71.3201 10.0095 71.3301 9.7872C71.3525 9.29362 71.365 8.82721 71.3733 8.47015C71.3753 8.38113 71.3773 8.29291 71.379 8.21378C71.3805 8.14171 71.3819 8.07718 71.3831 8.02645C71.3833 8.02069 71.3834 8.01465 71.3836 8.00837C71.3854 7.92712 71.3882 7.80591 71.3963 7.73263L71.2939 10.4577ZM63.5014 3.56291L63.2405 3.95371L63.1602 4.07402L63.1173 4.21216C62.9517 4.74486 62.8858 5.53656 62.8486 6.91219L62.8456 7.02307L62.867 7.13192L63.1572 8.60943C63.1482 8.62956 63.1368 8.64816 63.1232 8.66377L62.8517 8.97469L62.8785 9.38661L62.96 10.6348C62.9554 10.9011 62.8898 11.3878 62.7677 12.0639C62.6471 12.7316 62.4861 13.5085 62.321 14.3054L62.3139 14.3396C62.1479 15.1413 61.9781 15.9618 61.8502 16.6766C61.7263 17.3688 61.6261 18.0422 61.6261 18.5171C61.6261 19.5068 61.8454 20.3149 62.2465 20.9507C62.6493 21.5892 63.1933 21.9871 63.73 22.2218C64.257 22.4523 64.7783 22.5273 65.1795 22.536C65.3814 22.5404 65.5687 22.5285 65.7285 22.5044C65.8071 22.4926 65.8937 22.4757 65.9795 22.4508L65.9837 22.4496C66.0313 22.4359 66.2257 22.3799 66.4039 22.2315L66.4042 22.2313C66.5555 22.1052 66.6807 21.9446 66.7603 21.8359C66.8527 21.7097 66.9439 21.5691 67.0245 21.4331C67.1049 21.2977 67.1835 21.1523 67.247 21.0149C67.2906 20.9207 67.3916 20.6991 67.4155 20.4609C67.454 20.0801 67.4912 19.6655 67.53 19.2331C67.597 18.4872 67.6687 17.6884 67.7596 16.918C67.8168 16.4336 67.8794 15.9819 67.9492 15.5885C67.9597 15.6064 67.9698 15.6237 67.9795 15.6404C67.9921 15.6621 68.0055 15.6853 68.0184 15.7076C68.0351 15.7365 68.0509 15.7638 68.063 15.7845C68.0639 15.7859 68.0648 15.7876 68.066 15.7896C68.0807 15.8149 68.119 15.8808 68.1569 15.9341C68.1572 15.9346 68.1575 15.935 68.1579 15.9355L68.972 15.3548M63.5014 3.56291L90.9192 12.5783L90.3347 11.7669C88.5035 13.0874 86.711 13.7724 84.8605 14.3137C84.4746 14.4263 84.1282 17.6445 84.0581 20.6958C84.0428 21.3553 83.8841 21.709 83.8212 21.8367M63.5014 3.56291L63.526 3.38211L63.5596 3.13455L63.7057 2.93188C64.1583 2.30385 64.9274 1.94976 65.7374 1.94976C66.1192 1.94976 66.6692 2.08721 67.0649 2.20558C67.2856 2.27162 67.5089 2.34714 67.7032 2.42446C67.861 2.48725 68.1114 2.5933 68.3018 2.74214L63.5014 3.56291ZM68.972 15.3548C69.0473 15.4607 69.1431 15.5891 69.2529 15.7363C69.9131 16.621 71.0789 18.1834 71.3268 19.6085M68.972 15.3548C68.9592 15.3369 68.9293 15.2851 68.8859 15.2101C68.7046 14.8966 68.2882 14.1768 67.9053 13.8187L68.972 15.3548ZM71.3268 19.6085L70.3416 19.7799M71.3268 19.6085L70.3416 19.7799C70.3416 19.7799 70.3416 19.7799 70.3416 19.7799M71.3268 19.6085C71.337 19.6669 71.3382 19.7601 71.3396 19.8679C71.3414 20.0165 71.3437 20.1929 71.3703 20.3438L70.3853 20.5162C70.5171 21.2692 70.8573 22.158 71.8485 22.9766L71.8491 22.9771C72.071 23.16 72.3339 23.2437 72.4793 23.2842C72.6593 23.3344 72.8553 23.3689 73.046 23.3911C73.419 23.4344 73.8696 23.4414 74.2697 23.3735C74.2848 23.3709 74.3019 23.3681 74.3206 23.3651C74.6088 23.319 75.3021 23.2079 75.8558 22.5856C76.4243 21.9468 76.6925 20.9631 76.6925 19.5566C76.6925 18.6452 76.6167 17.9954 76.5417 17.5256C76.5188 17.3815 76.4919 17.2328 76.4719 17.1218C76.4626 17.0704 76.4548 17.0271 76.4495 16.996C76.4384 16.931 76.434 16.8961 76.4322 16.8819L76.4359 16.842C76.4396 16.8028 76.4446 16.7527 76.4508 16.6898L76.4547 16.6514C76.4666 16.5316 76.482 16.3771 76.4996 16.192C76.5388 15.7803 76.589 15.2169 76.6385 14.5268C76.7341 13.1926 76.8272 11.3849 76.8332 9.28288C76.9778 9.30646 77.1258 9.31878 77.2755 9.31878C77.6898 9.31878 78.0765 9.20166 78.3806 9.08614C78.6411 8.98719 78.9082 8.86178 79.1328 8.75636C79.1713 8.73827 79.2086 8.72077 79.2443 8.7041C79.5129 8.57889 79.7158 8.4906 79.8874 8.43946C80.0227 8.39912 80.0793 8.40084 80.0849 8.40071C80.1273 8.41017 80.1686 8.41675 80.2086 8.42095C80.1976 8.69867 80.1796 9.01352 80.1513 9.36162C80.0511 9.36742 79.9248 9.37058 79.7649 9.37058C78.791 9.37058 78.2871 10.1264 78.1155 10.5008L78.115 10.5018C78.0342 10.6786 77.9721 10.9186 77.9295 11.0958C77.8795 11.3038 77.8292 11.546 77.7846 11.7858C77.7021 12.2282 77.6153 12.7856 77.6153 13.0946C77.6153 13.8502 78.0175 14.5514 78.4833 15.0577C78.7998 15.4017 79.1973 15.7142 79.65 15.9463C79.6305 16.2136 79.6027 16.5368 79.572 16.8932L79.5642 16.9828C79.4904 17.8404 79.4014 18.8867 79.4014 19.6069C79.4014 20.3546 79.4913 20.9278 79.6038 21.345C79.6598 21.5527 79.7226 21.7257 79.785 21.8646C79.8159 21.9334 79.8497 22.0003 79.8864 22.0625L79.8875 22.0645C79.9082 22.0996 79.9798 22.2212 80.0975 22.3313L80.0997 22.3333C80.2264 22.4513 80.5663 22.6899 80.9434 22.8929C81.3113 23.0909 81.9166 23.3684 82.5427 23.3684C82.9896 23.3684 83.4218 23.2461 83.754 23.0984C83.924 23.0228 84.0939 22.9292 84.2449 22.8185C84.3705 22.7264 84.5849 22.5498 84.7185 22.2781C84.7188 22.2776 84.719 22.2771 84.7193 22.2766L83.8212 21.8367M70.3416 19.7799C70.3376 19.7567 70.3364 19.7415 70.3364 19.7415C70.3363 19.7415 70.3366 19.7455 70.337 19.7543C70.3386 19.7629 70.3401 19.7714 70.3416 19.7799ZM83.8212 21.8367C83.7141 22.0555 83.0921 22.3684 82.5427 22.3684C81.812 22.3684 80.8597 21.6746 80.7808 21.6012L83.8212 21.8367ZM80.6178 2.34343L80.6177 2.34339M80.6178 2.34343L80.6177 2.34339M80.6177 2.34339L80.6176 2.34332M80.6177 2.34339L80.6176 2.34332M80.6176 2.34332L80.6175 2.3433M80.6176 2.34332L80.6175 2.3433M80.6175 2.3433L80.6174 2.34325M80.6175 2.3433L80.6174 2.34325M80.6174 2.34325L80.4008 2.25579M80.6174 2.34325L80.4008 2.25579M80.4008 2.25579L80.1674 2.27361M80.4008 2.25579L80.1674 2.27361M80.1674 2.27361C79.7112 2.30842 78.9783 2.45316 78.2704 2.64444M80.1674 2.27361L78.2704 2.64444M78.2704 2.64444C77.5724 2.83305 76.7643 3.10228 76.2065 3.431L78.2704 2.64444ZM84.9293 8.85868C84.9293 8.85872 84.9308 8.85882 84.9339 8.85883L84.9293 8.85868ZM84.9293 8.85868C84.9294 8.85863 84.931 8.85863 84.934 8.85883M84.9293 8.85868L84.934 8.85883M84.934 8.85883C84.934 8.85883 84.934 8.85883 84.934 8.85883H84.934ZM81.0172 2.47844C81.0173 2.47854 81.0146 2.47808 81.0089 2.47679C81.0142 2.4777 81.0171 2.47834 81.0172 2.47844ZM83.5025 2.03623C83.5084 2.03654 83.5093 2.0368 83.5041 2.03637L83.5025 2.03623ZM85.3337 8.79549C85.3006 8.59386 85.2704 8.35583 85.2452 8.0947C85.2316 7.95382 85.22 7.81234 85.2104 7.67402C85.6098 7.68561 86.0696 7.72209 86.5024 7.78635C86.737 7.82118 86.9485 7.86201 87.13 7.90649C86.9976 8.00703 86.8418 8.11202 86.6673 8.21583C86.345 8.40762 85.9922 8.57551 85.6645 8.69273C85.5423 8.73644 85.4316 8.77019 85.3337 8.79549ZM87.555 7.49506C87.555 7.49504 87.5545 7.49624 87.5531 7.49869C87.5542 7.49629 87.5549 7.49507 87.555 7.49506Z" fill="#66CC00" stroke="#F5FFE0" stroke-width="2"/>
                        <path d="M21.6549 11.1656L21.6553 11.1661C21.8686 11.4032 22.0278 11.7281 22.1371 11.9786C22.26 12.2601 22.3752 12.5804 22.4737 12.8925C22.5725 13.2057 22.6594 13.5264 22.7227 13.8125C22.7809 14.0759 22.8358 14.3819 22.8358 14.6339C22.8358 15.1026 22.6347 15.5548 22.4964 15.8657L22.495 15.8689C22.4586 15.9506 22.4212 16.0332 22.3827 16.1181C22.2453 16.4213 22.0947 16.7535 21.9346 17.1764C21.5349 18.2316 21.0831 19.8436 20.9428 22.4298L20.9427 22.431C20.9428 22.429 20.9428 22.4305 20.9429 22.4364C20.9432 22.4521 20.9438 22.4986 20.9479 22.5915C20.9517 22.6802 20.9572 22.7848 20.9634 22.905C20.9651 22.9359 20.9667 22.968 20.9685 23.001C20.9846 23.3126 21.0038 23.7044 21.0038 24.0474C21.0038 24.9483 20.556 25.6008 20.0853 26.0001C19.8533 26.1971 19.6058 26.3427 19.3772 26.4418C19.1718 26.5309 18.9001 26.6178 18.6238 26.6178C18.188 26.6178 17.6853 26.5388 17.2866 26.4481C17.0826 26.4018 16.8825 26.3471 16.7108 26.2878C16.6257 26.2584 16.5336 26.223 16.4454 26.1811C16.3787 26.1494 16.2276 26.0749 16.0896 25.9438L16.0883 25.9426C15.4983 25.3805 15.1135 24.4637 15.1135 23.0766C15.1135 22.7338 15.1364 22.3086 15.1615 21.9397C14.1768 22.283 12.8352 22.6156 11.4199 22.6156C8.26239 22.6156 5.33264 21.6413 3.66132 20.0945L21.6549 11.1656ZM21.6549 11.1656C20.8923 10.3188 19.9766 10.1546 19.1217 10.1546C18.9818 10.1546 18.7278 10.1859 18.4955 10.216C18.2239 10.2513 17.8658 10.3019 17.4506 10.3638C16.6196 10.4877 15.5476 10.6591 14.4589 10.8496C13.3723 11.0398 12.2587 11.2509 11.3486 11.4546C10.8945 11.5562 10.4792 11.6586 10.1381 11.7584C9.832 11.8479 9.47944 11.9641 9.2278 12.1185L9.22738 12.1188C8.72795 12.4255 8.44696 12.898 8.29421 13.3744C8.14533 13.8388 8.09813 14.3641 8.09813 14.8958C8.09813 15.7933 8.39585 16.4938 8.78169 16.9847M21.6549 11.1656L8.78169 16.9847M8.78169 16.9847C8.5185 16.9346 8.2773 16.8856 8.04776 16.8264C7.56859 16.703 7.19856 16.5489 6.90274 16.3154C6.86428 16.2751 6.84829 16.2428 6.83661 16.2083C6.81854 16.1548 6.80072 16.0616 6.80072 15.8873C6.80072 15.7861 6.85136 15.5089 7.05739 15.0329C7.25245 14.5822 7.55264 14.0303 7.9588 13.4092C8.77035 12.168 9.96944 10.7041 11.4903 9.28667L11.4904 9.28653C11.759 9.03611 12.4559 8.49421 13.2181 8.01413C13.595 7.77674 13.9636 7.57002 14.2827 7.42611C14.4167 7.36569 14.5328 7.32052 14.6301 7.28916C14.6606 7.3446 14.6965 7.41498 14.7385 7.50363C14.7641 7.55753 14.803 7.64338 14.847 7.74032C14.919 7.89921 15.0045 8.08791 15.0669 8.21461C15.1862 8.45689 15.3583 8.77507 15.6045 9.03472M8.78169 16.9847L17.7185 9.30185M15.6045 9.03472C15.6044 9.03466 15.6043 9.03459 15.6043 9.03453L16.3302 8.34676L15.6045 9.03472ZM15.6045 9.03472C15.8387 9.2818 16.1297 9.36713 16.2559 9.39929C16.4211 9.44143 16.5894 9.45933 16.7384 9.46427C17.0104 9.47329 17.389 9.44394 17.7185 9.30185M17.7185 9.30185L17.3227 8.38349L17.7193 9.3015M17.7185 9.30185L17.7193 9.3015M17.7193 9.3015C18.0524 9.15791 18.4736 8.9482 18.8104 8.59896C19.1839 8.21152 19.4039 7.70572 19.4039 7.09333C19.4039 5.26754 18.6893 3.76335 18.0311 2.96184L18.0307 2.96141M17.7193 9.3015L18.0307 2.96141M18.0307 2.96141C17.8292 2.71634 17.5387 2.52644 17.3223 2.39939C17.0759 2.25473 16.7918 2.11595 16.5085 1.99562C16.2245 1.87503 15.9233 1.76538 15.6396 1.68417C15.3749 1.6084 15.0544 1.53625 14.7576 1.53625C13.8799 1.53625 13.2319 1.80034 12.7677 2.04003C12.6563 2.09758 12.5545 2.15424 12.4713 2.20065L12.4695 2.2017C12.3818 2.2506 12.3211 2.28446 12.2665 2.31247C12.2444 2.32381 12.2271 2.33211 12.2141 2.33805M18.0307 2.96141L12.2141 2.33805M12.2141 2.33805L12.0261 2.34515L11.8038 2.48048C10.0855 3.52662 9.06386 4.54464 8.58664 5.02015C8.50329 5.1032 8.43655 5.1697 8.38561 5.21691L7.86852 5.35187L7.71469 5.90171C7.71475 5.90152 7.7147 5.90168 7.71455 5.90221L12.2141 2.33805ZM7.61228 6.17524C7.54355 6.21989 7.46893 6.26858 7.40128 6.31273L7.15535 6.47349L7.07595 6.52547L7.05382 6.53996L7.04799 6.54378L7.04648 6.54477L7.0461 6.54502L7.046 6.54508L7.04597 6.5451L7.59404 7.38154L7.04596 6.54511L6.96819 6.59607L6.90114 6.6605C6.38226 7.15913 5.13662 8.646 4.03156 10.2124C3.47363 11.0032 2.93001 11.8443 2.5215 12.6194C2.1396 13.3439 1.78125 14.18 1.78125 14.9021C1.78125 15.9362 2.11788 17.0907 2.47324 17.9902C2.65543 18.4514 2.85434 18.8751 3.04198 19.2184C3.20737 19.5211 3.42363 19.8746 3.66081 20.0941L7.61228 6.17524ZM7.61228 6.17524C7.58491 6.23503 7.56017 6.27969 7.5427 6.30412L8.35616 6.88575L7.83814 6.03038C7.80502 6.05044 7.71528 6.10832 7.61228 6.17524Z" fill="#66CC00" stroke="#F5FFE0" stroke-width="2"/>
                        <path d="M132.265 7.70005C132.522 6.18763 133.445 5.22645 134.119 4.73779L134.12 4.7373C134.502 4.4609 134.991 4.33919 135.263 4.28239C135.409 4.25207 135.54 4.23134 135.639 4.21771L135.956 4.05774L136.151 3.95955L136.368 3.95121L136.368 3.9512L136.368 3.9512L136.368 3.9512L136.369 3.95117L136.374 3.95097L136.395 3.95009L136.477 3.94627C136.548 3.94277 136.65 3.93734 136.768 3.92969C137.008 3.91417 137.304 3.89046 137.56 3.85735C141.691 3.32169 147.996 2.12397 148.738 1.95791L148.956 1.90913L149.174 1.95782C149.911 2.12225 150.556 2.65753 151.021 3.22574C151.506 3.81767 151.908 4.57965 152.093 5.39653C152.144 5.62271 152.209 6.04049 152.217 6.48749C152.225 6.88537 152.197 7.53113 151.887 8.04992C151.577 8.57123 151.034 8.68874 150.773 8.72481C150.474 8.76627 150.143 8.75213 149.867 8.73377C149.702 8.72287 149.542 8.70974 149.384 8.69682C148.943 8.6606 148.522 8.62612 148.09 8.6477L148.09 8.64771C145.995 8.75192 140.277 9.3194 138.392 9.67634C138.392 9.67635 138.378 9.67928 138.35 9.69223C138.321 9.70576 138.282 9.72756 138.235 9.76064C138.14 9.82813 138.034 9.92651 137.931 10.0482C137.921 10.0599 137.912 10.0716 137.902 10.0833C139.466 10.0734 140.692 9.7922 141.546 9.59639C141.712 9.55821 141.865 9.52327 142.003 9.49423L142.003 9.4942C142.271 9.43784 142.536 9.4821 142.729 9.53685C142.954 9.60038 143.196 9.71004 143.441 9.87543C143.934 10.2091 144.431 10.762 144.851 11.6192L144.851 11.6201C145.155 12.2415 145.26 13.0583 145.089 14.1738C145.044 14.4666 144.91 14.7083 144.794 14.8749C144.668 15.0546 144.514 15.2193 144.348 15.3619C144.062 15.6067 143.682 15.8387 143.245 15.9604C143.286 15.9932 143.326 16.0287 143.365 16.0674M132.265 7.70005L142.661 16.7783M132.265 7.70005C132.103 6.98874 131.812 6.25189 131.411 5.6095C130.781 4.59973 129.721 3.5896 128.236 3.5896C125.507 3.5896 121.593 4.98299 118.976 6.792L118.741 6.95474L118.63 7.20999L118.625 7.22014C118.619 7.23384 118.607 7.25587 118.592 7.28152C118.556 7.34255 118.525 7.37922 118.514 7.38933C118.462 7.43791 118.312 7.55191 118.127 7.68341C118.044 7.74212 117.967 7.79529 117.911 7.83387L117.845 7.87892L117.827 7.89067L117.823 7.89345L117.822 7.89402L117.822 7.89405L117.822 7.89407L117.822 7.89409L117.69 7.98249L117.592 8.10763C117.497 8.2282 117.406 8.35354 117.318 8.48097C117.302 8.39916 117.285 8.31643 117.268 8.23219L117.252 8.15653L117.225 8.08425L117.225 8.08423L117.225 8.0842L117.225 8.08415L117.225 8.08408L117.225 8.08296L117.223 8.07767L117.215 8.05564L117.184 7.9718C117.158 7.90027 117.123 7.80187 117.086 7.694C117.012 7.47858 116.949 7.27884 116.923 7.16826C116.922 7.16337 116.922 7.15745 116.921 7.1504C116.918 7.11205 116.915 7.06252 116.913 7.00959C116.91 6.95777 116.908 6.90796 116.907 6.87076L116.905 6.827L116.905 6.81547L116.905 6.81277L116.905 6.8123L116.905 6.81226L116.905 6.81225V6.81224L116.905 6.8122L116.901 6.69786L116.872 6.58714C116.548 5.35474 116.007 4.34096 115.521 3.6236C115.277 3.26429 115.042 2.97071 114.844 2.75378C114.746 2.64622 114.65 2.54948 114.561 2.46997C114.517 2.4307 114.465 2.38756 114.409 2.347C114.371 2.31939 114.262 2.24138 114.114 2.18771L114.114 2.18741C114.084 2.17688 114.055 2.16631 114.026 2.15574C113.656 2.02154 113.286 1.88706 112.964 1.84161C112.756 1.8123 112.533 1.8117 112.296 1.86889C112.067 1.92452 111.877 2.02224 111.722 2.11995L111.722 2.12026C110.757 2.72966 109.822 3.87475 108.825 5.38151C107.824 6.89444 106.68 8.90023 105.319 11.3886C105.28 11.4274 105.227 11.4789 105.161 11.5377C105.003 11.6808 104.789 11.8527 104.551 11.9929L104.003 12.316L104.063 12.949C104.132 13.6742 104.07 13.9288 104.058 13.9651L104.058 13.9663C103.817 14.7276 103.333 15.6251 102.864 16.4639C102.834 16.5181 102.803 16.5724 102.773 16.6265C102.581 16.9691 102.393 17.3045 102.254 17.583C102.173 17.7444 102.093 17.9163 102.035 18.08C101.994 18.1948 101.891 18.4913 101.944 18.8203L101.945 18.8241L102.011 19.2285L101.963 19.7308L101.958 19.7789V19.8272C101.958 20.0975 102.051 20.3242 102.107 20.4456C102.175 20.5915 102.261 20.7329 102.351 20.8619C102.531 21.1214 102.771 21.3964 103.042 21.6486C103.533 22.1051 104.356 22.701 105.282 22.701C105.406 22.701 105.604 22.6909 105.786 22.6422L106.012 22.5817L106.187 22.4273C106.906 21.7953 107.322 20.9111 107.648 20.1531C107.719 19.9871 107.787 19.8249 107.854 19.6661C108.101 19.0774 108.328 18.5359 108.634 18.0225C109.146 17.8451 110.228 17.6583 110.746 17.5963C110.918 17.5758 111.091 17.5831 111.227 17.5982C111.293 17.6055 111.345 17.6141 111.378 17.6201C111.394 17.6231 111.405 17.6254 111.41 17.6265C111.41 17.6266 111.411 17.6267 111.411 17.6268L111.682 17.6925L111.798 17.6548C111.801 18.2512 111.811 18.8001 111.829 19.2722C111.852 19.8927 111.891 20.4651 111.974 20.8313C112.127 21.5156 112.534 22.0833 113.155 22.4777C113.749 22.8554 114.504 23.0532 115.366 23.1188L115.404 23.1217H115.442C115.62 23.1217 115.767 23.078 115.843 23.0525C115.935 23.0218 116.02 22.9836 116.095 22.9451C116.247 22.8678 116.404 22.7653 116.554 22.6443C116.841 22.4128 117.195 22.0373 117.374 21.5224C117.585 20.9134 117.611 20.2731 117.601 19.7339C117.597 19.4851 117.584 19.2354 117.572 19.0077C117.571 18.9846 117.57 18.9616 117.569 18.939C117.557 18.6991 117.547 18.4849 117.546 18.2847M132.265 7.70005L127.178 23.0088M143.365 16.0674L142.661 16.7783M143.365 16.0674C143.365 16.0673 143.365 16.0673 143.365 16.0673L142.661 16.7783M143.365 16.0674C144.129 16.8236 144.024 17.8513 143.98 18.2871C143.977 18.3161 143.974 18.3426 143.972 18.3661L143.972 18.3668C143.908 19.0599 143.73 20.148 143.111 20.9442L143.11 20.9447C143.001 21.0853 142.851 21.2508 142.615 21.4101C142.394 21.5592 142.132 21.6791 141.817 21.7862C141.202 21.9955 140.247 22.2002 138.691 22.4329M142.661 16.7783C143.076 17.1884 143.024 17.758 142.979 18.2459L142.976 18.2752C142.915 18.941 142.752 19.7761 142.321 20.3302C142.06 20.6663 141.639 20.9809 138.543 21.4439M138.691 22.4329C138.691 22.4329 138.691 22.4329 138.691 22.4329L138.543 21.4439M138.691 22.4329L138.543 21.4439M138.691 22.4329C135.921 22.8476 133.495 22.3378 131.693 20.4755M138.543 21.4439C135.835 21.8494 133.672 21.2868 132.127 19.4657C132.085 19.5809 132.039 19.7039 131.989 19.8318L131.988 19.8325C131.9 20.0557 131.801 20.2704 131.693 20.4755M131.371 18.5602C131.405 18.5117 131.467 18.5246 131.517 18.6032L131.371 18.5602ZM131.371 18.5602C131.357 18.6099 131.339 18.6698 131.317 18.738C131.317 18.7386 131.317 18.7392 131.316 18.7398L131.49 18.6431L131.489 18.6424L131.371 18.5602ZM131.693 20.4755C131.302 21.211 130.781 21.8235 130.121 22.2663C129.273 22.8361 128.267 23.0765 127.178 23.0088M131.693 20.4755C131.533 20.3103 131.378 20.1344 131.228 19.9476L131.227 19.9464C131.138 19.8358 131.059 19.7308 130.989 19.6322C130.278 21.2735 128.981 22.1189 127.24 22.0107M127.178 23.0088C127.178 23.0088 127.178 23.0088 127.178 23.0088L127.24 22.0107M127.178 23.0088L127.24 22.0107M127.178 23.0088C122.834 22.7391 119.616 20.4536 117.546 18.2847M127.178 23.0088L117.546 18.2847M127.24 22.0107C122.726 21.7305 119.493 19.0895 117.582 16.8302C117.576 16.8229 117.57 16.8156 117.564 16.8083C117.564 16.8209 117.563 16.8337 117.563 16.8465C117.563 16.8465 117.563 16.8465 117.563 16.8465C117.552 17.2313 117.546 17.6953 117.546 18.2504C117.546 18.2618 117.546 18.2732 117.546 18.2847M130.646 12.8077C130.47 13.443 130.338 14.0976 130.259 14.7894C130.165 14.7733 130.071 14.7667 129.979 14.7667C129.496 14.7667 129.124 14.9936 128.916 15.1311C128.824 15.1922 128.726 15.2622 128.643 15.322C128.627 15.3338 128.611 15.3453 128.596 15.3562C128.495 15.4279 128.401 15.494 128.3 15.5579C127.934 15.7897 127.414 16.0385 126.48 16.0385C125.698 16.0385 124.388 15.5974 123.209 14.9479C122.638 14.6329 122.158 14.302 121.837 14.0111C121.675 13.8649 121.579 13.7514 121.53 13.6776C121.53 13.6768 121.529 13.676 121.529 13.6752C121.571 12.8497 122.168 11.7548 123.18 10.7944C123.994 10.0225 124.907 9.49859 125.682 9.30402C125.603 9.57222 125.482 9.99113 125.482 10.3682C125.482 11.4816 126.302 12.2494 126.957 12.6657C127.643 13.1011 128.508 13.392 129.21 13.392C129.398 13.392 129.575 13.344 129.681 13.3106C129.814 13.2689 129.961 13.21 130.115 13.1334C130.28 13.0506 130.461 12.9435 130.646 12.8077ZM121.504 13.6322C121.504 13.6322 121.505 13.634 121.506 13.6375C121.504 13.6339 121.504 13.6321 121.504 13.6322ZM140.148 15.3476L140.183 15.822C140.183 15.822 140.183 15.822 140.183 15.822L140.148 15.3476ZM131.27 18.8832L131.5 18.6502L131.528 18.6694C131.527 19.1886 131.509 19.424 131.483 19.5298C131.345 19.5388 131.218 19.5165 131.111 19.4788C131.093 19.4727 131.077 19.4662 131.061 19.4595C131.145 19.247 131.215 19.0491 131.27 18.8832ZM131.528 19.5258V18.6694L131.575 18.7023C131.668 18.8597 131.808 19.0713 132.008 19.3218C132.009 19.323 132.01 19.3241 132.011 19.3253C131.988 19.3436 131.963 19.3614 131.938 19.3783C131.937 19.3785 131.937 19.3788 131.936 19.3791C131.874 19.42 131.802 19.4558 131.721 19.4828C131.656 19.5048 131.591 19.5187 131.528 19.5258ZM112.068 10.9428C112.036 10.9512 112 10.9599 111.96 10.9686C111.881 10.9859 111.793 11.0022 111.696 11.0173C111.827 10.7263 111.963 10.4299 112.097 10.1434C112.097 10.3905 112.09 10.623 112.077 10.8188C112.074 10.8633 112.071 10.9046 112.068 10.9428ZM112.289 10.8659C112.289 10.866 112.285 10.8685 112.276 10.8731C112.284 10.8681 112.288 10.8658 112.289 10.8659ZM111.952 8.34958C111.952 8.34933 111.954 8.35325 111.957 8.36208C111.954 8.35425 111.952 8.34982 111.952 8.34958ZM112.032 11.2232C112.032 11.2231 112.033 11.221 112.034 11.2171C112.033 11.2213 112.032 11.2233 112.032 11.2232Z" fill="#66CC00" stroke="#F5FFE0" stroke-width="2"/>
                        <path d="M49.5429 7.24738C49.1223 7.60345 48.4134 7.68887 44.7309 8.32437C44.7309 8.32437 44.5891 8.33874 44.0034 8.62456C43.1478 8.61977 41.7509 9.25606 41.3376 9.4852C41.1652 9.581 40.9541 10.0608 40.8865 10.9478C41.1314 11.24 41.2603 11.2192 41.5753 11.2192C43.3388 11.2192 45.8571 10.3426 46.1625 10.3961C47.3081 10.6484 47.8398 12.4 47.8398 13.3022C47.8398 13.4028 47.7286 13.9576 47.7044 14.0215C47.5618 14.4015 46.8714 14.7193 46.0384 14.7943C42.0731 15.152 40.2194 15.4578 39.7602 15.7779C39.67 15.841 39.5338 16.2761 39.5338 16.5164C39.5338 17.4425 41.5197 17.6812 41.8564 17.6812C43.0866 17.6812 43.7029 17.0321 44.1516 17.0321C44.6906 17.0321 45.7959 18.3239 45.7959 19.7769C45.7959 20.7302 45.2336 22.2894 42.7797 22.2894C42.1416 22.2894 39.4436 21.8192 37.5037 20.4691C37.5037 20.4691 37.5617 20.0787 36.7504 19.5071C36.4765 19.0424 35.9722 17.3954 35.9722 16.1364C35.9722 13.3413 37.3675 11.4843 37.5568 10.4017C37.5568 10.4017 36.8922 9.47562 36.6328 9.13312C36.4894 8.9439 36.3355 8.78263 36.3355 8.08406C36.3355 5.90452 37.7776 5.49656 37.8477 5.49656L38.3487 5.50534C38.3487 5.50534 39.4146 5.02073 39.5588 4.81875L40.3475 4.76605C40.814 4.70777 46.094 3.35614 47.1469 3.35614C47.988 3.35614 48.3151 3.49266 48.6478 4.00122C48.8694 4.34053 49.7676 5.966 49.7676 6.54721C49.7668 6.68373 49.6524 7.15397 49.5429 7.24738Z" fill="#66CC00"/>
                        <path d="M52.1579 15.7404C52.0387 15.8553 51.9065 16.2952 51.8759 16.5579C51.8373 16.8908 53.0683 17.4225 54.184 17.4792C57.4492 17.6445 57.0295 16.1515 57.985 16.6218C58.6093 16.9291 59.1612 18.4915 59.1612 19.4033C59.1612 21.4974 57.106 22.0874 55.2813 22.0874C52.7798 22.0874 50.541 20.9298 50.541 20.9298C50.541 20.9298 48.6172 18.5538 48.6172 16.8445C48.6172 12.9229 50.7199 8.60538 50.8246 8.401C50.8246 8.401 50.997 7.27291 51.0993 6.5424C51.2145 5.71689 51.7752 5.54844 52.2457 5.0319C53.3148 4.92492 55.2144 4.08983 61.1752 3.44954C61.9277 3.3689 62.8654 4.40199 63.3705 5.96838C63.46 6.24541 63.3133 7.34077 62.9371 7.45574C62.7132 7.52439 62.1154 7.59226 57.2945 8.09123C56.4648 8.17666 55.6011 8.31558 55.2563 8.55988C54.8712 8.83212 54.1341 10.0472 54.0294 10.4544C53.9214 10.8727 54.1365 11.0963 54.6771 11.0396C57.218 10.7713 58.9316 9.6712 59.1273 9.6712C60.0353 9.6712 60.8957 10.868 61.1503 12.1789C61.2985 12.9445 61.0922 13.5808 60.8465 13.7389C60.1054 14.2155 58.9187 14.5157 57.6595 14.7576C57.1125 14.8622 56.725 14.8454 56.5026 14.8262C56.3939 14.8167 56.1296 14.9995 55.9757 15.021C54.1373 15.2757 52.4818 15.4274 52.1579 15.7404Z" fill="#66CC00"/>
                        <path d="M106.965 5.49181C106.965 6.47221 106.679 7.11489 106.327 7.24901C104.775 7.83821 99.5615 8.5735 97.1551 9.36788C96.7176 9.51238 95.9354 10.8113 95.9354 11.3167C95.9354 11.577 96.2367 11.664 96.687 11.6049C100.162 11.1506 100.765 10.8544 102.215 10.2102C102.459 10.2261 102.807 10.2557 103.008 10.4696C103.424 10.9119 103.85 11.7821 103.85 13.0491C103.85 13.8228 103.507 14.6395 102.146 14.8431C100.346 15.1129 96.2085 15.7189 94.9952 15.8634C94.3862 15.936 94.0341 16.0917 93.9793 16.17C93.4339 16.9484 93.6498 18.5818 97.3621 17.7755C98.9202 17.437 99.2296 16.8701 100.112 16.8701C100.17 16.8701 100.278 16.8813 100.341 16.8997C101.099 17.5352 101.265 18.2928 101.265 19.3267C101.265 20.5578 100.733 21.3785 99.634 21.9358C99.5446 21.9813 99.1337 22.0611 99.0942 22.0683C99.0483 22.0763 98.5488 22.3573 98.3104 22.4204C97.661 22.5928 97.168 22.6271 96.9295 22.6271C94.3821 22.6271 90.3282 21.4663 90.3282 16.8023C90.3282 12.5725 93.2269 9.61697 93.9962 6.82109C93.9962 6.82109 94.1944 6.62469 94.3821 6.33728C94.4369 5.85587 94.876 4.72857 95.4246 4.67029C96.7845 4.52659 100.978 3.62284 104.676 2.43726C104.987 2.33747 105.262 2.3718 105.498 2.53706C106.143 2.98893 106.965 4.23439 106.965 5.49181Z" fill="#66CC00"/>
                        <path d="M35.4363 17.6917C34.6814 16.8502 32.2436 15.5209 31.4073 14.6738C31.7674 14.2683 33.7235 11.5378 33.7235 9.38066C33.7235 6.3333 31.4935 2.68237 28.4926 2.68237C28.4926 2.68237 27.6185 2.69754 26.5575 2.77977C26.3649 3.07597 25.7253 3.00811 25.7253 3.00811C24.6715 3.47755 23.6943 4.26314 23.6943 6.78358C23.6943 7.23545 24.3316 7.7033 24.7166 8.05458C24.6457 8.86492 24.3614 10.2589 23.9868 11.2049C23.8514 11.5474 22.879 11.6824 22.879 11.6824L22.3666 12.3386C22.0339 14.2946 22.3731 14.5277 23.0546 15.4067C23.1457 16.4398 22.7388 18.229 22.7388 19.2453C22.7388 19.9782 23.0208 19.8983 22.8726 20.652C22.8726 20.652 22.9886 20.7765 23.0466 20.9514C23.306 21.7266 24.1994 22.4116 25.055 22.4116C25.9331 22.4116 26.3053 21.7553 26.3053 21.4456C26.3053 20.5777 26.0798 17.9232 26.1007 17.6813C26.174 16.8438 26.5245 16.3839 26.5245 16.3839C27.1005 16.3839 29.6656 18.6904 31.8553 20.9027C32.1856 21.2364 32.8438 21.5789 33.4262 21.5789C34.7587 21.5789 35.3065 20.0891 35.6876 19.7458C35.8971 19.4776 35.9245 18.2361 35.4363 17.6917ZM27.7893 11.8197C27.662 11.8875 27.2809 11.7574 27.2334 11.7111C27.2334 11.7111 27.9085 7.79191 27.9673 6.94804C28.9172 6.68618 30.1796 7.20512 30.1796 8.45136C30.1788 9.52756 29.6777 10.8169 27.7893 11.8197Z" fill="#66CC00"/>
                        <path d="M90.3669 3.75132L89.4098 3.47589L88.916 3.2276C87.6342 2.97851 84.5414 2.92821 83.5086 3.03439C83.3338 3.05196 82.6547 2.8859 82.3638 2.82123C81.5913 3.26512 80.9105 3.4695 80.9105 3.4695C80.7357 3.4695 80.2434 3.27071 80.2434 3.27071C79.5111 3.32659 77.5865 3.77847 76.714 4.29262C76.3088 4.53133 76.0405 4.97442 75.914 5.22351C75.9084 5.23389 75.9036 5.24507 75.8987 5.25704C75.8681 5.3281 75.7505 5.44705 75.732 5.25545C75.7118 5.07182 75.6836 4.87462 75.6458 4.73411C75.4041 3.84314 74.2851 3.15335 73.6059 3.15335C73.3304 3.15335 72.752 3.45912 72.6996 3.78645C72.6335 4.19841 72.5884 6.04742 72.3902 7.84295C72.3701 8.02338 72.3685 11.4053 72.0269 12.5302C71.9488 12.5469 71.7063 12.6339 71.6313 12.5214C70.775 11.2424 68.5321 9.02932 68.342 7.56352C68.1664 6.21029 68.3903 4.08025 67.6862 3.53018C67.426 3.32659 66.1749 2.94976 65.7374 2.94976C65.2073 2.94976 64.7586 3.18129 64.5169 3.5166L64.4613 3.92617L64.0722 4.50897C63.9546 4.8874 63.8861 5.53807 63.8482 6.9392L64.1753 8.60459C64.1753 8.60459 64.1664 8.9894 63.8764 9.32152L63.9602 10.6061C63.9602 12.0519 62.6261 17.0202 62.6261 18.5171C62.6261 21.8822 65.5924 21.606 65.764 21.4631C65.9767 21.2858 66.4004 20.5673 66.4206 20.3605C66.6212 18.3726 66.8266 14.9811 67.368 13.9848C67.4784 13.782 67.7603 13.683 67.9053 13.8187C68.3799 14.2626 68.9059 15.2622 68.972 15.3548C69.4997 16.0973 71.0376 17.9463 71.3268 19.6085C71.351 19.7474 71.3244 20.0835 71.3703 20.3438C71.4694 20.9098 71.7119 21.5669 72.4853 22.2055C72.6964 22.3796 73.5383 22.4834 74.1022 22.3876C74.6661 22.2918 75.6925 22.1824 75.6925 19.5566C75.6925 17.8529 75.4105 17.1695 75.4323 16.8413C75.454 16.5132 75.8335 13.398 75.8335 9.06764C75.8335 9.06764 75.6321 8.67724 75.5547 8.44092C75.6595 8.06809 75.7118 7.77429 75.7384 7.5755C75.7537 7.46851 75.8101 7.38948 75.8528 7.4781C75.8842 7.54037 75.9221 7.60983 75.964 7.67609C76.1831 8.02098 76.6826 8.31877 77.2755 8.31877C78.2165 8.31877 79.4491 7.22741 80.3023 7.4246C80.4191 7.45175 80.5456 7.24577 81.215 7.18909C81.2303 7.59226 81.2376 8.46807 81.1272 9.68478C81.0765 10.2468 80.8179 10.3706 79.7649 10.3706C79.3806 10.3706 79.1365 10.6732 79.0245 10.9175C78.8852 11.2224 78.6153 12.6906 78.6153 13.0946C78.6153 13.9169 79.5418 14.9755 80.6672 15.2733C80.7373 15.6174 80.4014 18.272 80.4014 19.6069C80.4014 20.9425 80.7228 21.5469 80.7808 21.6012C80.8597 21.6746 81.812 22.3684 82.5427 22.3684C83.0921 22.3684 83.7141 22.0555 83.8212 21.8367C83.8841 21.709 84.0428 21.3553 84.0581 20.6958C84.1282 17.6445 84.4746 14.4263 84.8605 14.3137C86.711 13.7724 88.5035 13.0874 90.3347 11.7669C91.2789 11.0867 92.4647 9.67121 92.4647 8.25491C92.4639 6.4019 91.2531 4.31178 90.3669 3.75132ZM84.9306 9.85882C84.6985 9.85802 84.5519 9.78537 84.4907 9.59616C84.2716 8.91835 84.1733 7.48448 84.1733 6.72125C84.9797 6.55518 88.5204 6.77154 88.5204 7.67609C88.5204 8.49282 86.139 9.86281 84.9306 9.85882Z" fill="#66CC00"/>
                        <path d="M21.8358 14.6339C21.8358 14.091 21.3017 12.2683 20.9118 11.8348C20.4171 11.2855 19.8363 11.1546 19.1217 11.1546C18.6504 11.1546 10.7424 12.3625 9.75069 12.9709C9.27618 13.2623 9.09813 13.9281 9.09813 14.8958C9.09813 16.2514 10.0004 16.8549 10.2574 16.8549C10.8351 16.8549 14.8503 16.0829 16.2931 15.8163C16.5896 15.762 16.7048 15.8841 16.7016 16.0023C16.7016 16.3504 16.6017 16.7583 16.4454 16.9308C15.8855 17.5503 15.042 17.9303 14.3137 18.1659C13.1754 17.9487 12.2159 18.9083 11.0727 18.3495C10.5797 18.3431 9.86911 18.6968 9.52995 18.1507C8.38274 17.896 7.15658 17.8186 6.23817 17.0641C5.89095 16.7384 5.80072 16.3536 5.80072 15.8873C5.80072 14.6562 7.65446 11.4947 10.8085 8.55513C11.4626 7.94518 13.8126 6.23828 14.8471 6.23828C15.5391 6.23828 15.7808 7.76715 16.3302 8.34676C16.4664 8.49047 17.04 8.50564 17.3227 8.38349C17.9286 8.12242 18.4039 7.79828 18.4039 7.09333C18.4039 5.51416 17.7795 4.23119 17.2583 3.59648C16.9288 3.1957 15.3796 2.53625 14.7576 2.53625C13.4332 2.53625 12.8104 3.31626 12.3238 3.33462C10.3622 4.52898 9.42844 5.62673 9.02885 5.9836C8.87256 6.12331 8.67679 6.17441 8.67679 6.17441C8.67679 6.17441 8.55595 6.60632 8.35616 6.88575C8.28365 6.92966 7.59404 7.38154 7.59404 7.38154C6.69013 8.25016 2.78125 13.0922 2.78125 14.9021C2.78125 16.6011 3.9204 18.9722 4.34013 19.3602C5.77091 20.6847 8.42624 21.6156 11.4199 21.6156C13.5178 21.6156 15.4698 20.7957 16.0555 20.4763C16.1981 20.3949 16.2956 20.4061 16.2794 20.5602C16.2601 20.735 16.2351 20.9761 16.2239 21.1685C16.211 21.3713 16.1135 22.3884 16.1135 23.0766C16.1135 24.2813 16.4438 24.9001 16.7781 25.2186C16.932 25.3647 17.956 25.6178 18.6238 25.6178C18.9557 25.6178 20.0038 25.1276 20.0038 24.0474C20.0038 23.4207 19.9329 22.5792 19.9442 22.3756C20.2359 17.0002 21.8358 15.5225 21.8358 14.6339Z" fill="#66CC00"/>
                        <path d="M151.117 5.6171C150.824 4.31656 149.811 3.1246 148.957 2.93379C148.186 3.10624 141.851 4.30938 137.688 4.84907C137.115 4.92332 136.407 4.95047 136.407 4.95047L135.932 5.18998C135.932 5.18998 135.102 5.26103 134.706 5.54764C134.167 5.93805 133.444 6.69809 133.248 7.88446L133.329 8.96385C132.043 11.4963 131.176 13.5313 131.176 16.2905C131.176 16.3447 131.178 16.4054 131.182 16.4669C131.185 16.6705 131.161 16.7711 131.105 16.72C131.04 16.621 130.958 16.5036 130.87 16.4038C130.373 15.8418 130.208 15.7667 129.979 15.7667C129.295 15.7667 128.78 17.0385 126.48 17.0385C124.41 17.0385 120.526 14.8893 120.526 13.7684C120.526 11.3015 123.84 8.21977 126.307 8.21977C126.739 8.21977 126.851 8.34192 126.851 8.63413C126.851 9.12113 126.482 9.88437 126.482 10.3682C126.482 11.5458 128.271 12.392 129.21 12.392C129.481 12.392 131.41 11.6887 131.41 8.91196C131.41 7.2801 130.209 4.5896 128.236 4.5896C125.754 4.5896 122.035 5.89334 119.545 7.61461C119.545 7.61461 119.414 7.91799 119.196 8.12078C118.979 8.32356 118.378 8.72514 118.378 8.72514C117.785 9.48039 117.312 10.4839 117.15 10.8472C117.102 10.9542 117.047 11.0931 116.993 11.2368C116.993 11.2376 116.993 11.2376 116.993 11.2384C116.886 11.521 116.711 11.616 116.671 11.4508C116.657 11.3087 116.64 11.1274 116.621 10.8951C116.538 9.84605 116.448 9.20895 116.289 8.43374C116.289 8.43374 116.011 7.68886 115.938 7.34876C115.917 7.25136 115.905 6.84179 115.905 6.84179C115.325 4.6391 113.963 3.19646 113.773 3.1278C112.873 2.80206 112.648 2.71824 112.256 2.96573C110.716 3.93814 108.911 6.90087 106.133 11.9841C106.133 11.9841 105.686 12.4846 105.059 12.8543C105.133 13.6335 105.082 14.0439 105.011 14.2674C104.459 16.0174 102.859 18.2105 102.931 18.6616L103.019 19.1949L102.958 19.8272C102.958 20.2336 104.224 21.701 105.282 21.701C105.369 21.701 105.467 21.6922 105.527 21.6762C106.59 20.7413 106.897 18.9227 107.845 17.3954C107.95 17.2261 107.984 17.1966 108.24 17.1016C108.85 16.8749 110.087 16.6681 110.627 16.6034C111.168 16.5387 111.642 16.6537 111.642 16.6537L112.114 16.4996C112.557 16.4749 112.795 16.6066 112.795 16.9595C112.795 18.6816 112.831 20.0875 112.949 20.612C113.135 21.4399 113.91 22.0052 115.442 22.1217C115.61 22.1217 116.237 21.7481 116.429 21.1948C116.733 20.3166 116.546 19.2053 116.546 18.2504C116.546 16.8222 116.591 15.9719 116.629 15.5073C116.664 15.3508 116.778 15.3037 116.827 15.4498C116.827 15.4506 116.828 15.4514 116.828 15.4522C116.976 15.841 117.234 16.4182 117.582 16.8302C119.493 19.0895 122.726 21.7305 127.24 22.0107C129.039 22.1225 130.364 21.2156 131.059 19.464C131.209 19.0831 131.316 18.7486 131.371 18.5602C131.408 18.5083 131.475 18.5267 131.528 18.6209C131.528 18.6209 131.528 18.6209 131.529 18.6217C131.619 18.7838 131.771 19.0257 132.008 19.3218C133.56 21.2571 135.764 21.8599 138.543 21.4439C141.639 20.9809 142.06 20.6663 142.321 20.3302C142.752 19.7761 142.915 18.941 142.976 18.2752C143.022 17.781 143.084 17.1966 142.661 16.7783C142.181 16.3032 140.696 16.7846 138.738 17.1144C136.143 17.5511 135.051 16.4653 135.082 16.1324C135.101 15.932 135.201 15.5256 135.466 15.4594C135.724 15.3947 136.258 15.4993 136.497 15.5584C136.595 15.5528 138.04 15.2829 139.123 15.2829C139.521 15.2829 139.99 15.3412 140.148 15.3476C140.148 15.3476 141.853 15.223 142.865 15.0234C143.486 14.9013 144.05 14.3584 144.1 14.0223C144.252 13.0339 144.139 12.4399 143.953 12.0591C143.237 10.5989 142.391 10.4344 142.209 10.4728C141.306 10.6628 139.499 11.1897 137.072 11.0644C136.777 11.0492 136.593 10.7059 136.621 10.4768C136.697 9.85483 137.471 8.83372 138.205 8.694C140.152 8.32516 145.922 7.75433 148.041 7.64894C149.367 7.58268 150.764 7.98426 151.028 7.53797C151.34 7.01823 151.192 5.94842 151.117 5.6171ZM112.969 11.5625C112.812 11.8667 111.887 12.095 110.329 12.1158C110.259 12.1166 110.183 11.9793 110.22 11.8923C110.863 10.3714 112.111 7.69525 112.279 7.67529C112.451 7.65373 112.716 7.74235 112.828 7.88366C113.148 8.29243 113.167 11.1769 112.969 11.5625Z" fill="#66CC00"/>
</svg>