<svg width="845" height="607" viewBox="0 0 845 607" fill="none" xmlns="http://www.w3.org/2000/svg">
<path d="M0.16272 606.554C0.16272 606.554 107.673 348.755 530.698 311.861C953.723 274.966 826.002 137.409 826.002 137.409C826.002 137.409 741.809 97.8171 549.822 99.4658C357.836 101.115 219.579 35.3268 219.579 35.3268C219.579 35.3268 101.979 -20.6097 0.160836 8.2906C-0.202501 69.1549 0.16272 606.554 0.16272 606.554Z" fill="#F5D26A"/>
<path d="M539.442 181.435C528.362 181.435 519.38 184.094 519.38 187.374C519.38 190.654 528.362 193.313 539.442 193.313C550.521 193.313 559.503 190.654 559.503 187.374C559.503 184.094 550.521 181.435 539.442 181.435Z" fill="#EA913F"/>
<path d="M667.615 193.313C654.688 193.313 644.209 198.464 644.209 204.819C644.209 211.174 654.688 216.326 667.615 216.326C680.541 216.326 691.021 211.174 691.021 204.819C691.021 198.464 680.541 193.313 667.615 193.313Z" fill="#EA913F"/>
<path d="M105.511 119.079C99.3552 119.079 94.3652 122.236 94.3652 126.131C94.3652 130.026 99.3552 133.183 105.511 133.183C111.666 133.183 116.656 130.026 116.656 126.131C116.656 122.236 111.666 119.079 105.511 119.079Z" fill="#EA913F"/>
<path d="M640.865 170.3C638.608 170.3 636.779 171.796 636.779 173.641C636.779 175.486 638.608 176.981 640.865 176.981C643.122 176.981 644.952 175.486 644.952 173.641C644.952 171.796 643.122 170.3 640.865 170.3Z" fill="#EA913F"/>
<path d="M114.799 106.459C110.9 106.459 107.74 108.453 107.74 110.913C107.74 113.373 110.9 115.367 114.799 115.367C118.697 115.367 121.857 113.373 121.857 110.913C121.857 108.453 118.697 106.459 114.799 106.459Z" fill="#EA913F"/>
<path d="M155.665 330.647C151.767 330.647 148.607 332.642 148.607 335.102C148.607 337.561 151.767 339.556 155.665 339.556C159.564 339.556 162.724 337.561 162.724 335.102C162.724 332.642 159.564 330.647 155.665 330.647Z" fill="#EA913F"/>
<path d="M74.6746 372.219C70.7762 372.219 67.6158 374.213 67.6158 376.673C67.6158 379.133 70.7762 381.127 74.6746 381.127C78.5731 381.127 81.7334 379.133 81.7334 376.673C81.7334 374.213 78.5731 372.219 74.6746 372.219Z" fill="#EA913F"/>
<path d="M485.2 201.479C476.582 201.479 469.596 202.642 469.596 204.077C469.596 205.512 476.582 206.675 485.2 206.675C493.818 206.675 500.804 205.512 500.804 204.077C500.804 202.642 493.818 201.479 485.2 201.479Z" fill="#EA913F"/>
</svg>
