<svg width="67" height="54" viewBox="0 0 67 54" fill="none" xmlns="http://www.w3.org/2000/svg">
<path d="M16.6586 28C20.1253 28.4 22.7253 29.8667 24.4586 32.4C26.1919 34.9333 27.0586 37.7333 27.0586 40.8C27.0586 44 25.9919 46.8667 23.8586 49.4C21.8586 51.9333 18.8586 53.2 14.8586 53.2C13.2586 53.2 11.5919 52.9333 9.85859 52.4C8.12526 51.7333 6.52526 50.6667 5.05859 49.2C3.59193 47.7333 2.39193 45.7333 1.45859 43.2C0.525261 40.6667 0.058594 37.4667 0.058594 33.6C0.058594 26.4 2.12526 19.9333 6.25859 14.2C10.3919 8.33333 15.6586 3.66666 22.0586 0.199997L27.8586 8.19999C24.3919 10.0667 21.2586 12.6 18.4586 15.8C15.7919 18.8667 13.9919 22.7333 13.0586 27.4L16.6586 28ZM55.6586 28C59.1253 28.4 61.7253 29.8667 63.4586 32.4C65.1919 34.9333 66.0586 37.7333 66.0586 40.8C66.0586 44 64.9919 46.8667 62.8586 49.4C60.8586 51.9333 57.8586 53.2 53.8586 53.2C52.2586 53.2 50.5919 52.9333 48.8586 52.4C47.1253 51.7333 45.5253 50.6667 44.0586 49.2C42.5919 47.7333 41.3919 45.7333 40.4586 43.2C39.5253 40.6667 39.0586 37.4667 39.0586 33.6C39.0586 26.4 41.1253 19.9333 45.2586 14.2C49.3919 8.33333 54.6586 3.66666 61.0586 0.199997L66.8586 8.19999C63.3919 10.0667 60.2586 12.6 57.4586 15.8C54.7919 18.8667 52.9919 22.7333 52.0586 27.4L55.6586 28Z" fill="#5A5C95"/>
<path d="M16.6586 28C20.1253 28.4 22.7253 29.8667 24.4586 32.4C26.1919 34.9333 27.0586 37.7333 27.0586 40.8C27.0586 44 25.9919 46.8667 23.8586 49.4C21.8586 51.9333 18.8586 53.2 14.8586 53.2C13.2586 53.2 11.5919 52.9333 9.85859 52.4C8.12526 51.7333 6.52526 50.6667 5.05859 49.2C3.59193 47.7333 2.39193 45.7333 1.45859 43.2C0.525261 40.6667 0.058594 37.4667 0.058594 33.6C0.058594 26.4 2.12526 19.9333 6.25859 14.2C10.3919 8.33333 15.6586 3.66666 22.0586 0.199997L27.8586 8.19999C24.3919 10.0667 21.2586 12.6 18.4586 15.8C15.7919 18.8667 13.9919 22.7333 13.0586 27.4L16.6586 28ZM55.6586 28C59.1253 28.4 61.7253 29.8667 63.4586 32.4C65.1919 34.9333 66.0586 37.7333 66.0586 40.8C66.0586 44 64.9919 46.8667 62.8586 49.4C60.8586 51.9333 57.8586 53.2 53.8586 53.2C52.2586 53.2 50.5919 52.9333 48.8586 52.4C47.1253 51.7333 45.5253 50.6667 44.0586 49.2C42.5919 47.7333 41.3919 45.7333 40.4586 43.2C39.5253 40.6667 39.0586 37.4667 39.0586 33.6C39.0586 26.4 41.1253 19.9333 45.2586 14.2C49.3919 8.33333 54.6586 3.66666 61.0586 0.199997L66.8586 8.19999C63.3919 10.0667 60.2586 12.6 57.4586 15.8C54.7919 18.8667 52.9919 22.7333 52.0586 27.4L55.6586 28Z" fill="#5A5C95"/>
<path d="M16.6586 28C20.1253 28.4 22.7253 29.8667 24.4586 32.4C26.1919 34.9333 27.0586 37.7333 27.0586 40.8C27.0586 44 25.9919 46.8667 23.8586 49.4C21.8586 51.9333 18.8586 53.2 14.8586 53.2C13.2586 53.2 11.5919 52.9333 9.85859 52.4C8.12526 51.7333 6.52526 50.6667 5.05859 49.2C3.59193 47.7333 2.39193 45.7333 1.45859 43.2C0.525261 40.6667 0.058594 37.4667 0.058594 33.6C0.058594 26.4 2.12526 19.9333 6.25859 14.2C10.3919 8.33333 15.6586 3.66666 22.0586 0.199997L27.8586 8.19999C24.3919 10.0667 21.2586 12.6 18.4586 15.8C15.7919 18.8667 13.9919 22.7333 13.0586 27.4L16.6586 28ZM55.6586 28C59.1253 28.4 61.7253 29.8667 63.4586 32.4C65.1919 34.9333 66.0586 37.7333 66.0586 40.8C66.0586 44 64.9919 46.8667 62.8586 49.4C60.8586 51.9333 57.8586 53.2 53.8586 53.2C52.2586 53.2 50.5919 52.9333 48.8586 52.4C47.1253 51.7333 45.5253 50.6667 44.0586 49.2C42.5919 47.7333 41.3919 45.7333 40.4586 43.2C39.5253 40.6667 39.0586 37.4667 39.0586 33.6C39.0586 26.4 41.1253 19.9333 45.2586 14.2C49.3919 8.33333 54.6586 3.66666 61.0586 0.199997L66.8586 8.19999C63.3919 10.0667 60.2586 12.6 57.4586 15.8C54.7919 18.8667 52.9919 22.7333 52.0586 27.4L55.6586 28Z" fill="#5A5C95"/>
</svg>
