<svg width="89" height="71" viewBox="0 0 89 71" fill="none" xmlns="http://www.w3.org/2000/svg">
<path d="M22.2828 37.18C26.8241 37.704 30.2301 39.6253 32.5008 42.944C34.7714 46.2627 35.9068 49.9307 35.9068 53.948C35.9068 58.14 34.5094 61.8953 31.7148 65.214C29.0948 68.5327 25.1648 70.192 19.9248 70.192C17.8288 70.192 15.6454 69.8427 13.3748 69.144C11.1041 68.2707 9.00809 66.8733 7.08676 64.952C5.16543 63.0307 3.59343 60.4107 2.37076 57.092C1.14809 53.7733 0.536758 49.5813 0.536758 44.516C0.536758 35.084 3.24409 26.6127 8.65876 19.102C14.0734 11.4167 20.9728 5.30332 29.3568 0.761997L36.9548 11.242C32.4134 13.6873 28.3088 17.006 24.6408 21.198C21.1474 25.2153 18.7894 30.2807 17.5668 36.394L22.2828 37.18ZM73.3728 37.18C77.9141 37.704 81.3201 39.6253 83.5908 42.944C85.8614 46.2627 86.9968 49.9307 86.9968 53.948C86.9968 58.14 85.5994 61.8953 82.8048 65.214C80.1848 68.5327 76.2548 70.192 71.0148 70.192C68.9188 70.192 66.7354 69.8427 64.4648 69.144C62.1941 68.2707 60.0981 66.8733 58.1768 64.952C56.2554 63.0307 54.6834 60.4107 53.4608 57.092C52.2381 53.7733 51.6268 49.5813 51.6268 44.516C51.6268 35.084 54.3341 26.6127 59.7488 19.102C65.1634 11.4167 72.0628 5.30332 80.4468 0.761997L88.0448 11.242C83.5034 13.6873 79.3988 17.006 75.7308 21.198C72.2374 25.2153 69.8794 30.2807 68.6568 36.394L73.3728 37.18Z" fill="#945A95"/>
</svg>
