<svg width="89" height="71" viewBox="0 0 89 71" fill="none" xmlns="http://www.w3.org/2000/svg">
<path d="M66.7172 33.8201C62.1759 33.2961 58.7699 31.3747 56.4992 28.0561C54.2286 24.7374 53.0932 21.0694 53.0932 17.0521C53.0932 12.8601 54.4906 9.10474 57.2852 5.78607C59.9052 2.46741 63.8352 0.808075 69.0752 0.808074C71.1712 0.808074 73.3546 1.15741 75.6252 1.85608C77.8959 2.72941 79.9919 4.12674 81.9132 6.04807C83.8346 7.96941 85.4066 10.5894 86.6292 13.9081C87.8519 17.2267 88.4632 21.4187 88.4632 26.4841C88.4632 35.9161 85.7559 44.3874 80.3412 51.8981C74.9266 59.5834 68.0272 65.6967 59.6432 70.2381L52.0452 59.7581C56.5866 57.3127 60.6912 53.9941 64.3592 49.8021C67.8526 45.7847 70.2106 40.7194 71.4332 34.6061L66.7172 33.8201ZM15.6272 33.8201C11.0859 33.2961 7.67989 31.3747 5.40923 28.0561C3.13856 24.7374 2.00323 21.0694 2.00323 17.0521C2.00322 12.8601 3.40056 9.10474 6.19522 5.78608C8.81522 2.46741 12.7452 0.808079 17.9852 0.808079C20.0812 0.808079 22.2646 1.15741 24.5352 1.85608C26.8059 2.72941 28.9019 4.12674 30.8232 6.04807C32.7446 7.96941 34.3166 10.5894 35.5392 13.9081C36.7619 17.2267 37.3732 21.4187 37.3732 26.4841C37.3732 35.9161 34.6659 44.3874 29.2512 51.8981C23.8366 59.5834 16.9372 65.6967 8.55323 70.2381L0.955227 59.7581C5.49656 57.3128 9.60123 53.9941 13.2692 49.8021C16.7626 45.7847 19.1206 40.7194 20.3432 34.6061L15.6272 33.8201Z" fill="#945A95"/>
</svg>
