<svg width="162" height="123" viewBox="0 0 162 123" fill="none" xmlns="http://www.w3.org/2000/svg">
<path d="M2.80964 42.0553C5.00964 35.5553 8.60964 28.1553 15.2096 25.1553C18.3096 23.7553 20.6096 23.6553 23.1096 26.0553C26.2096 29.2553 29.0096 32.6553 31.8096 35.9552C36.8096 41.8553 42.0096 47.6552 48.2096 52.2552C49.8096 52.3552 51.4096 52.5553 53.1096 52.5553C50.6096 50.7553 48.4096 48.6553 46.5096 46.3553C45.2096 44.7553 43.9096 43.0552 43.5096 40.9552C43.1096 39.0552 45.2096 35.6553 43.9096 34.0553C43.4096 33.4553 44.0096 32.6553 44.6096 32.5553C48.2096 32.2553 47.3096 26.4552 48.8096 24.2552C49.7096 22.8552 51.2096 22.0553 52.7096 21.6553C56.7096 20.7553 60.9096 22.5553 63.8096 25.1553C67.9096 28.8553 71.1096 33.5552 74.6096 37.7552C76.9096 40.5552 79.2096 43.2553 81.5096 46.0553C81.8096 46.0553 82.1096 46.0552 82.4096 45.9552C83.5096 45.8553 84.7096 45.7553 85.8096 45.6553C82.3096 40.9553 78.6096 36.3553 74.6096 32.0553C69.8096 26.9553 61.0096 22.0553 62.0096 13.9553C62.1096 13.1553 63.3096 12.7553 63.8096 13.3553C69.6096 19.4553 75.0096 25.9553 80.1096 32.6553C83.2096 36.7553 86.5096 41.0552 89.3096 45.4552C90.8096 45.3553 92.3096 45.3552 93.8096 45.2552C91.6096 40.5552 89.3096 35.8553 86.6096 31.3553C83.9096 26.9553 80.8096 23.0553 76.1096 20.6553C72.0096 18.5553 72.0096 14.9552 71.1096 10.7552C70.9096 9.85524 71.9096 9.05524 72.7096 9.75524C83.3096 19.6552 91.5096 31.7552 96.6096 45.2552C97.0096 45.2552 97.4096 45.2552 97.8096 45.2552C98.2096 45.2552 98.5096 45.2552 98.9096 45.2552C97.9096 42.5552 96.9096 39.9553 95.7096 37.3553C91.7096 28.4553 86.5096 20.6553 80.3096 13.1553C80.0096 13.3553 79.5096 13.2553 79.4096 12.9553C78.9096 11.2553 78.7096 9.45526 78.4096 7.65526C78.2096 6.55526 78.0096 5.45528 77.7096 4.35528C77.6096 3.95528 77.5096 3.25529 77.3096 2.55529C77.1096 2.35529 77.0096 2.15525 76.8096 1.95525C76.7096 1.85525 76.7096 1.65529 76.8096 1.55529L76.7096 1.45525C76.5096 1.25525 76.7096 0.855251 77.0096 0.955251C77.9096 1.15525 78.4096 1.85526 78.7096 2.65526C85.5096 10.5553 91.0096 19.4553 95.4096 28.8553C97.8096 34.0553 100.11 39.7553 101.91 45.5553C103.51 45.6553 105.11 45.7553 106.71 45.8553C106.51 44.7553 106.31 43.6553 106.11 42.5553C105.61 40.4553 104.91 38.3552 104.11 36.2552C103.61 34.9552 103.11 33.5553 102.41 32.3553C101.81 31.4553 100.91 30.9553 100.11 30.1553C99.0096 29.0553 98.5096 27.5553 97.8096 26.1553C96.9096 24.1553 95.2096 21.7553 95.0096 19.5553C94.8096 18.1553 95.4096 16.6553 95.8096 15.3553C96.4096 13.2553 96.9096 11.0553 97.7096 9.15526C97.7096 9.05526 97.6096 8.85524 97.6096 8.75524C97.3096 7.95524 98.5096 7.55527 98.8096 8.35528V8.45525C99.0096 8.55525 99.1096 8.65525 99.0096 8.95525C99.0096 9.05525 99.0096 9.05526 99.0096 9.15526C101.81 16.3553 104.21 23.7552 106.11 31.2552C107.01 34.8552 107.81 38.4553 108.51 42.1553C108.71 43.4553 109.01 44.8552 109.31 46.2552C111.01 46.4552 112.81 46.7553 114.51 47.0553C114.71 45.1553 114.81 43.2553 114.81 41.3553C114.91 37.2553 115.71 30.2552 111.51 27.9552C110.61 27.4552 110.01 27.2553 109.81 26.1553C109.71 25.3553 110.11 24.6553 110.31 23.8553C110.61 21.9553 110.11 21.0553 109.51 19.3553C109.11 18.2553 109.21 17.6553 109.81 16.6553C110.41 15.6553 111.31 14.8552 111.81 13.7552C112.51 12.3552 112.81 10.7553 113.01 9.15526C113.11 8.75526 113.41 8.65526 113.71 8.65526C113.91 8.55526 114.21 8.55527 114.31 8.85528C116.91 16.6553 117.81 25.2553 118.51 33.3553C118.81 37.4553 118.91 41.5552 118.91 45.7552C118.91 46.5552 118.91 47.2553 118.91 48.0553C119.71 48.2553 120.41 48.4553 121.11 48.6553C121.21 47.9553 121.21 47.2552 121.31 46.4552C121.41 44.6553 122.71 43.7553 123.11 42.1553C123.61 40.4553 122.01 38.1552 122.21 36.2552C122.51 33.7552 123.81 31.5553 123.41 28.9552C122.91 25.1553 120.41 21.4553 121.61 17.5553C121.91 16.6553 122.41 15.7553 123.01 14.9553C122.61 14.1553 122.21 13.4552 121.71 12.7552C121.51 12.4552 118.71 8.45527 118.21 10.8553C118.01 11.7553 116.71 11.8553 116.41 10.9553C115.21 7.45525 115.91 4.05526 116.71 0.655263C116.91 -0.0447372 117.81 -0.244725 118.21 0.355275C121.01 4.05527 123.21 8.25528 124.21 12.8553C124.31 13.0553 124.51 13.2553 124.61 13.5553C126.01 12.3553 127.61 11.3553 129.01 10.5553C129.11 10.4553 129.21 10.3553 129.31 10.3553C129.51 10.2553 129.71 10.3553 129.81 10.5553C129.81 10.6553 129.91 10.6552 129.91 10.7552C129.91 17.8552 129.71 24.9553 129.01 32.0553C128.71 35.5553 128.21 39.0553 127.71 42.5553C127.31 45.1553 127.01 47.9553 126.41 50.6553C127.61 51.1553 128.71 51.7552 129.71 52.4552C130.51 50.4552 131.21 48.5553 131.91 46.5553C132.91 43.6553 133.71 40.7552 134.41 37.7552C135.01 35.5552 136.71 34.0553 136.61 31.5553C136.61 29.3553 135.01 28.1552 134.61 26.2552C134.31 24.5552 135.61 23.3552 136.61 22.2552C139.41 19.0552 143.01 15.9553 147.01 14.4553C147.01 14.4553 147.01 14.3553 147.11 14.3553C147.31 14.0553 147.71 14.2553 147.71 14.5553C147.81 14.7553 147.81 15.0552 147.61 15.2552C147.11 19.1552 145.31 23.1552 144.01 26.7552C142.71 30.3552 141.41 33.8553 140.01 37.3553C137.71 42.9553 135.31 48.6553 132.51 53.9552C133.71 52.6553 134.91 51.2552 136.11 49.9552C137.51 48.3553 138.91 46.6553 140.21 44.9552C142.31 41.8553 147.11 34.6553 144.11 31.5553C143.81 31.2553 143.71 30.8553 143.91 30.5553C145.81 27.0553 148.41 23.9553 151.41 21.3553C153.81 19.2553 156.91 16.5553 160.11 16.1553C160.21 16.1553 160.31 16.1552 160.41 16.2552C160.71 15.9552 161.21 16.2553 161.01 16.6553C156.61 24.5553 151.81 32.2553 146.41 39.6553C144.21 42.6553 141.91 45.6553 139.61 48.5553C138.61 49.8553 137.61 51.1553 136.51 52.4552C135.61 53.5552 134.61 54.7553 133.61 55.8553C137.71 60.1553 140.81 65.6553 144.11 70.4553C145.71 72.8553 147.21 75.9553 149.41 77.8553C151.01 79.2553 153.11 80.0553 154.71 81.3553C157.41 83.6553 159.11 86.7553 159.41 90.1553C159.51 90.1553 159.51 90.2552 159.61 90.2552C161.51 92.0552 156.21 94.0553 155.21 94.4553C154.11 94.9553 152.81 95.4553 151.51 95.9553C153.91 96.0553 156.11 95.8553 158.51 95.6553C158.51 95.5553 158.51 95.4553 158.51 95.3553C158.51 94.7553 159.31 94.5553 159.51 95.1553C159.61 95.2553 159.61 95.4553 159.61 95.5553H159.71C160.21 95.5553 160.51 96.3553 160.01 96.5553C159.91 96.6553 159.81 96.6553 159.71 96.6553C159.51 99.3553 155.51 100.055 153.01 100.155C146.81 100.355 139.91 101.055 133.91 99.6553C128.91 98.4553 124.11 96.1553 119.41 94.1553C118.81 101.455 115.61 109.055 110.01 113.855C106.51 116.855 102.31 118.355 98.0096 119.655C94.0096 120.955 89.0096 123.155 84.8096 121.555C84.5096 121.655 84.1096 121.655 83.8096 121.655C83.0096 121.555 82.5096 120.855 81.8096 120.555C80.1096 119.755 78.5096 120.355 76.8096 120.555C75.7096 120.655 72.9096 121.255 72.2096 119.755C71.8096 118.955 72.3096 118.055 72.8096 117.155C72.7096 117.155 72.7096 117.055 72.6096 117.055C72.2096 116.755 72.1096 116.355 72.4096 115.955C73.8096 114.055 72.0096 113.455 71.9096 111.855C71.9096 111.355 72.0096 110.855 72.2096 110.455C71.7096 110.055 71.5096 109.455 71.6096 108.755C71.8096 107.755 72.9096 107.155 73.7096 106.655C74.6096 106.055 75.6096 105.455 76.5096 104.955C76.3096 104.855 76.1096 104.655 76.1096 104.455C75.9096 103.855 76.2096 103.155 76.5096 102.755C77.3096 101.755 79.5096 101.455 80.5096 100.855C81.7096 100.255 82.7096 99.4553 83.7096 98.5553C80.2096 98.6553 74.8096 98.2553 77.9096 94.8553C78.8096 93.8553 80.3096 93.1553 81.4096 92.3553C82.0096 91.9553 82.5096 91.5553 83.1096 91.0553C81.3096 91.0553 79.5096 90.9553 77.7096 90.6553C72.4096 92.3553 66.7096 93.1553 61.3096 93.6553C57.1096 94.0553 52.9096 94.1553 48.7096 93.8553C46.1096 93.6553 43.7096 92.9552 42.7096 90.2552C42.1096 88.5552 42.7096 88.0552 40.7096 86.7552C40.1096 86.3552 39.2096 86.1552 38.5096 85.7552C37.6096 85.2552 36.8096 84.6552 36.4096 83.7552C35.9096 82.6552 36.0096 81.4553 36.0096 80.3553C36.1096 78.5553 36.0096 76.3553 36.6096 74.6553C37.5096 71.6553 41.0096 71.8552 43.6096 71.7552C45.1096 71.6552 46.6096 71.5553 48.1096 71.4553C46.3096 70.8553 44.3096 70.5553 42.0096 70.6553C39.3096 70.7553 37.0096 69.8553 35.4096 68.1553C34.2096 68.3553 33.0096 68.3553 31.8096 68.4553C29.3096 68.7553 26.9096 69.1553 24.5096 69.6553C22.6096 70.0553 21.0096 70.4553 19.0096 70.3553C16.9096 70.1553 14.8096 69.4553 12.7096 69.8553C9.30964 70.3553 8.70964 73.5552 4.90964 72.2552C2.80964 71.4552 1.90964 70.2553 1.50964 68.5553C1.10964 68.5553 0.709637 68.2553 0.609637 67.8553C-0.690363 59.3553 0.109638 50.1553 2.80964 42.0553Z" fill="#0E4F82"/>
</svg>
