<svg width="293" height="301" viewBox="0 0 293 301" fill="none" xmlns="http://www.w3.org/2000/svg">
<path d="M114.77 149.6C114.77 232.22 128.25 299.2 144.88 299.2C161.51 299.2 174.99 232.22 174.99 149.6C174.99 66.98 144.88 0 144.88 0C144.88 0 114.77 66.98 114.77 149.6Z" fill="#1A5654"/>
<path d="M158.01 160.92C135.58 227.7 130.18 286.12 145.94 291.41C161.7 296.7 192.67 246.87 215.1 180.09C237.53 113.31 227.17 49.6001 227.17 49.6001C227.17 49.6001 180.44 94.1501 158.01 160.92Z" fill="#1A5654"/>
<path d="M193.77 178.09C152.61 235.25 130.18 289.47 143.68 299.19C157.18 308.91 201.48 270.44 242.64 213.28C283.8 156.12 292.73 92.1802 292.73 92.1802C292.73 92.1802 234.93 120.93 193.77 178.09Z" fill="#1A5654"/>
<path d="M134.71 160.92C157.14 227.7 162.54 286.12 146.78 291.41C131.02 296.7 100.05 246.87 77.62 180.09C55.19 113.31 65.56 49.6001 65.56 49.6001C65.56 49.6001 112.28 94.1501 134.71 160.92Z" fill="#1A5654"/>
<path d="M98.96 178.09C140.12 235.25 162.55 289.47 149.05 299.19C135.55 308.91 91.25 270.44 50.09 213.28C8.93 156.12 0 92.1802 0 92.1802C0 92.1802 57.8 120.93 98.96 178.09Z" fill="#1A5654"/>
</svg>
