<svg width="231" height="390" viewBox="0 0 231 390" fill="none" xmlns="http://www.w3.org/2000/svg">
<path d="M94.2706 258.495C95.6997 281.006 51.3192 282.416 49.3688 309.439C47.4183 336.462 34.4708 350.248 34.4708 350.248C63.1507 344.025 72.8373 308.587 72.8373 308.587C100.767 289.976 96.3432 270.252 95.9487 268.948L94.2706 258.495Z" fill="#242C5B"/>
<path d="M100.79 288.261C97.217 310.526 141.278 316.17 140.64 343.242C140.001 370.314 151.582 385.286 151.582 385.286C123.618 376.371 117.359 340.165 117.359 340.165C91.3243 318.991 97.607 299.755 98.1364 298.513L100.79 288.261Z" fill="#242C5B"/>
<path d="M92.6468 228.52C95.4503 250.905 139.323 243.97 146.312 270.14C153.301 296.31 168.594 307.43 168.594 307.43C139.255 306.695 123.096 273.703 123.096 273.703C92.1719 260.659 92.8286 240.445 92.9677 239.099L92.6468 228.52Z" fill="#242C5B"/>
<path d="M95.0031 162.965C95.5019 185.517 139.864 183.1 144.131 209.847C148.397 236.593 162.489 249.212 162.489 249.212C133.378 245.48 120.68 211.012 120.68 211.012C91.2499 194.882 93.9564 174.838 94.2465 173.516L95.0031 162.965Z" fill="#242C5B"/>
<path d="M106.84 102.543C107.338 125.096 151.702 122.679 155.968 149.425C160.234 176.171 174.326 188.79 174.326 188.79C145.215 185.059 132.518 150.589 132.518 150.589C103.087 134.459 105.794 114.415 106.084 113.094L106.84 102.543Z" fill="#242C5B"/>
<path d="M134.877 47.062C130.416 69.1658 174.215 76.5725 172.483 103.604C170.751 130.636 181.724 146.04 181.724 146.04C154.149 136.004 149.342 99.5789 149.342 99.5789C124.175 77.3669 131.233 58.4163 131.805 57.1914L134.877 47.062Z" fill="#242C5B"/>
<path d="M142.004 14.9322C146.817 36.9635 189.887 26.1046 199.195 51.5478C208.503 76.9909 224.743 86.6797 224.743 86.6797C195.453 88.5955 176.402 57.1852 176.402 57.1852C144.434 46.984 143.256 26.7853 143.291 25.4433L142.004 14.9322Z" fill="#242C5B"/>
<path d="M142.296 16.9638C129.601 35.6184 93.6995 9.47215 75.5795 29.5915C57.4595 49.7109 38.773 52.6526 38.773 52.6526C65.2306 65.3618 94.637 43.3233 94.637 43.3233C128.108 45.7837 136.722 27.492 137.21 26.2307L142.296 16.9638Z" fill="#242C5B"/>
<path d="M126.475 63.4796C118.16 84.4416 77.4156 66.7551 64.1111 90.3562C50.8066 113.957 33.2143 120.89 33.2143 120.89C61.8076 127.521 85.7063 99.6095 85.7063 99.6095C118.905 94.7117 123.335 74.9862 123.533 73.6462L126.475 63.4796Z" fill="#242C5B"/>
<path d="M99.6809 123.481C95.2344 145.586 51.9969 135.457 43.1138 161.043C34.2307 186.63 18.1489 196.599 18.1489 196.599C47.4618 198.026 65.9944 166.308 65.9944 166.308C97.7901 155.58 98.6239 135.368 98.5859 134.019L99.6809 123.481Z" fill="#242C5B"/>
<path d="M89.631 200.397C85.1845 222.502 41.947 212.373 33.0639 237.959C24.1808 263.546 8.09912 273.514 8.09912 273.514C37.412 274.941 55.9446 243.222 55.9446 243.222C87.7403 232.494 88.5741 212.283 88.5361 210.934L89.631 200.397Z" fill="#242C5B"/>
<path d="M144.003 9.25575L139.51 8.88973C140.64 8.98181 145.425 33.5242 121.19 67.0244C96.954 100.525 80.9351 181.404 92.6974 261.648L100.461 295.538L107.421 305.536C107.421 305.536 98.3584 287.056 100.45 270.631C100.45 270.631 89.7509 258.442 96.729 168.061C103.707 77.6797 141.271 70.5527 144.003 9.25575Z" fill="#242C5B"/>
</svg>
