<svg width="445" height="773" viewBox="0 0 445 773" fill="none" xmlns="http://www.w3.org/2000/svg">
<path d="M239.5 168C239.91 168.66 259.4 200.97 225.45 265.47C191.15 330.65 48.9102 310.28 48.9102 310.28C48.9102 310.28 43.1301 349.31 37.1201 390.54L37.05 391.01C31.18 432.27 25.7101 471.33 25.7101 471.33C25.7101 471.33 167.95 491.7 182.46 563.92C196.82 635.37 169.01 660.86 168.43 661.38C169.6 660.81 244.04 623.82 201.23 510.47C201.23 510.47 287.91 575.55 273.5 640.98C273.5 640.98 331.82 581.88 246.49 478.62C248.13 479.22 353.29 517.71 378.84 555.94C378.84 555.94 401.65 468.99 232.16 418.98C232.14 418.98 232.12 418.96 232.1 418.96C232.1 418.96 232.32 418.92 232.73 418.82C232.36 418.62 232.16 418.51 232.16 418.51L232.22 418.51C408.94 418.38 411.6 328.51 411.6 328.51C376.29 358 264.54 365.25 262.8 365.36C373.81 290.38 334.54 217.22 334.54 217.22C329.89 284.07 228.37 322.04 228.37 322.04C301.43 225.38 240.46 168.88 239.5 168Z" fill="url(#paint0_linear)"/>
<path d="M232.71 418.84C232.3 418.94 232.08 418.98 232.08 418.98C232.1 418.98 232.12 419 232.14 419L233.29 419.16C233.06 419.04 232.87 418.92 232.71 418.84Z" fill="url(#paint1_linear)"/>
<path d="M181.03 404.66C181.25 405.22 191.8 432.61 157.04 477.42C121.92 522.69 39.6201 495.57 39.6201 495.57C39.6201 495.57 29.9 524.68 19.7 555.45L19.58 555.8C9.49001 586.61 5.18064e-05 615.79 5.18064e-05 615.79C5.18064e-05 615.79 82.3 642.91 83.62 700.2C84.93 756.88 60.1601 772.64 59.6501 772.96C60.6201 772.68 122.67 754.45 105.25 661.81C105.25 661.81 162.82 723.42 142.9 771.59C142.9 771.59 195.59 734.23 144.23 643.55C145.4 644.23 220.74 687.98 235.12 720.74C235.12 720.74 264.39 657.23 141.34 595.92C141.33 595.92 141.31 595.9 141.29 595.9C141.29 595.9 141.46 595.9 141.79 595.88C141.53 595.68 141.4 595.56 141.4 595.56C141.4 595.56 141.44 595.56 141.45 595.57C276.84 619.44 291.06 550.97 291.06 550.97C260.02 568.75 173.44 559.15 172.09 559C267.3 516.63 247.14 455.25 247.14 455.25C234.51 505.83 151.59 521.14 151.59 521.14C220.69 457.01 181.65 405.46 181.03 404.66Z" fill="url(#paint2_linear)"/>
<path d="M98.0201 622.63C97.6901 622.6 97.5201 622.57 97.5201 622.57C97.5201 622.57 97.5501 622.59 97.5601 622.6L98.3601 623.02C98.2301 622.87 98.1101 622.73 98.0201 622.63Z" fill="url(#paint3_linear)"/>
<path d="M160.51 376.44C174.4 358.96 174.1 343.54 164.62 336.01C155.14 328.48 140.06 331.68 126.17 349.16C112.28 366.64 118.2 394.45 118.2 394.45C118.2 394.45 146.62 393.92 160.51 376.44Z" fill="#484D66"/>
<path d="M186.05 392.33C190.92 373.96 185.44 362.04 175.47 359.4C165.5 356.76 154.84 364.4 149.97 382.76C145.1 401.12 159.19 420.8 159.19 420.8C159.19 420.8 181.18 410.7 186.05 392.33Z" fill="#5C637F"/>
<path d="M203.72 358.5C183.11 364.78 169.38 359.06 165.98 347.87C162.58 336.68 170.79 324.28 191.4 318.01C212.01 311.74 234.88 326.89 234.88 326.89C234.88 326.89 224.33 352.22 203.72 358.5Z" fill="#484D66"/>
<path d="M218.04 389.15C199.52 391.11 188.8 384.01 187.74 373.97C186.68 363.93 195.67 354.74 214.19 352.77C232.71 350.8 249.65 367.4 249.65 367.4C249.65 367.4 236.56 387.18 218.04 389.15Z" fill="#5C637F"/>
<path d="M214.57 413.84C213.45 397.08 205.49 388.66 196.4 389.26C187.31 389.86 180.54 399.28 181.66 416.04C182.78 432.8 200.15 445.28 200.15 445.28C200.15 445.28 215.69 430.6 214.57 413.84Z" fill="#6E7499"/>
<path d="M236.43 387.66C221.37 385.68 212.48 391.24 211.4 399.41C210.32 407.58 217.47 415.26 232.53 417.24C247.59 419.22 261.75 406.04 261.75 406.04C261.75 406.04 251.49 389.65 236.43 387.66Z" fill="#6E7499"/>
<path d="M237.79 433.65C235.83 420.1 228.83 413.74 221.48 414.8C214.13 415.86 209.21 423.94 211.17 437.49C213.13 451.04 228.02 460.11 228.02 460.11C228.02 460.11 239.74 447.21 237.79 433.65Z" fill="#8A92B7"/>
<path d="M264.35 424.08C253.39 415.88 243.94 416.34 239.49 422.28C235.04 428.22 237.27 437.42 248.24 445.62C259.21 453.82 276.15 449.7 276.15 449.7C276.15 449.7 275.31 432.28 264.35 424.08Z" fill="#8A92B7"/>
<path d="M54.85 544.78C50.82 522.82 39.02 512.9 27.11 515.09C15.2 517.28 7.68994 530.74 11.7099 552.7C15.7299 574.66 40.5699 588.5 40.5699 588.5C40.5699 588.5 58.88 566.74 54.85 544.78Z" fill="#484D66"/>
<path d="M83.6301 535.99C73.0001 520.24 60.4201 516.53 51.8701 522.29C43.3201 528.05 42.0601 541.12 52.6801 556.87C63.3001 572.62 87.3902 574.95 87.3902 574.95C87.3902 574.95 94.2501 551.74 83.6301 535.99Z" fill="#5C637F"/>
<path d="M69.7702 500.43C60.9402 520.08 47.5901 526.66 36.9301 521.87C26.2701 517.08 22.3302 502.73 31.1602 483.08C39.9902 463.43 66.4501 456.18 66.4501 456.18C66.4501 456.18 78.6102 480.78 69.7702 500.43Z" fill="#484D66"/>
<path d="M102.27 509.81C91.57 525.05 79.17 528.45 70.9 522.64C62.63 516.83 61.6299 504.01 72.3399 488.78C83.0499 473.55 106.69 471.71 106.69 471.71C106.69 471.71 112.98 494.57 102.27 509.81Z" fill="#5C637F"/>
<path d="M118.59 528.67C105.24 518.49 93.6501 518.94 88.1201 526.19C82.5901 533.44 85.23 544.73 98.59 554.91C111.95 565.09 132.77 560.22 132.77 560.22C132.77 560.22 131.94 538.85 118.59 528.67Z" fill="#6E7499"/>
<path d="M113.25 494.99C101.85 505.03 100.19 515.39 105.64 521.57C111.09 527.75 121.57 527.43 132.97 517.39C144.37 507.35 143.76 488.01 143.76 488.01C143.76 488.01 124.66 484.95 113.25 494.99Z" fill="#6E7499"/>
<path d="M148.78 524.22C137.29 516.78 127.9 517.87 123.86 524.1C119.82 530.33 122.67 539.35 134.16 546.79C145.65 554.23 162.28 548.98 162.28 548.98C162.28 548.98 160.27 531.66 148.78 524.22Z" fill="#8A92B7"/>
<path d="M159.04 497.92C145.65 500.78 139.78 508.2 141.33 515.46C142.88 522.72 151.27 527.09 164.66 524.22C178.05 521.35 186.09 505.89 186.09 505.89C186.09 505.89 172.43 495.05 159.04 497.92Z" fill="#8A92B7"/>
<path d="M82.3839 607.268C95.8139 582.468 75.2729 545.623 55.6149 519.013C67.6629 527.823 95.6549 549.564 105.891 568.7C119.117 593.385 126.25 581.677 126.25 581.677C129.398 555.248 100.5 530.02 73.6409 512.604C90.0409 518.175 113.658 527.596 126.318 539.169C146.949 558.056 149.825 544.669 149.825 544.669C144.095 518.969 109.125 504.769 78.2379 497.156C90.5379 495.525 129.805 491.177 151.976 498.673C178.476 507.641 175.687 494.234 175.687 494.234C161.895 475.46 130.824 474.146 102.153 477.883C127.132 469.549 150.413 456.346 155.011 435.783C155.011 435.783 152.157 422.376 131.503 441.264C117.326 454.241 89.2889 464.564 73.1649 469.731C99.7519 452.316 127.925 427.381 124.8 401.27C124.8 401.27 117.666 389.584 104.463 414.247C94.6569 432.523 68.7039 453.2 55.8849 462.666C75.3849 436.124 95.4259 399.73 82.1099 375.136C82.1099 375.136 71.1719 366.915 67.9779 394.703C66.5289 407.503 59.5989 423.465 52.5329 436.962C58.0809 418.233 59.4859 399.3 49.4329 387.162C49.4329 387.162 39.0379 382.162 40.9629 405.662C42.8879 429.162 25.9249 469.254 25.9249 469.254L23.9999 481.982L23.9999 500.643L25.9249 513.371C25.9249 513.371 42.8879 553.456 40.9629 576.963C39.0379 600.493 49.4329 595.488 49.4329 595.488C59.7829 582.988 57.9939 563.288 52.0329 544.012C59.3479 557.804 66.7079 574.449 68.2479 587.698C71.4229 615.511 82.3839 607.268 82.3839 607.268ZM32.0629 491.588L32.1079 491.543L32.1989 491.679L32.0629 491.588ZM30.7039 489.097C30.7628 489.123 30.8232 489.146 30.8849 489.165L30.7459 489.165C30.6807 489.148 30.6133 489.14 30.5459 489.142L30.4549 488.983C30.4549 488.983 30.5229 489.006 30.6819 489.074C30.6819 489.077 30.6825 489.08 30.6836 489.082C30.6847 489.085 30.6863 489.088 30.6883 489.09C30.6904 489.092 30.6928 489.093 30.6955 489.094C30.6981 489.095 30.701 489.096 30.7039 489.096L30.7039 489.097ZM28.8039 488.984L28.7809 489.052L28.7129 488.984L28.7579 488.984C28.7809 488.939 28.8029 488.916 28.8259 488.871L28.8039 488.984ZM29.2799 494.578L29.2569 494.51L29.3019 494.555C29.2988 494.555 29.2955 494.555 29.2925 494.556C29.2895 494.557 29.2867 494.558 29.2843 494.56C29.282 494.562 29.2801 494.565 29.2788 494.568C29.2775 494.571 29.2769 494.574 29.2769 494.577L29.2799 494.578Z" fill="#6871C3"/>
<path d="M82.2053 151.891C85.8237 143.842 87.6931 134.141 83.4484 126.396C79.6097 119.384 71.8118 115.719 65.5435 110.765C60.5226 106.798 56.2265 101.65 54.3534 95.5313C53.2099 91.8281 53.1077 87.8815 54.0581 84.124C54.1567 83.7437 54.3874 83.4109 54.7089 83.185C55.0303 82.9591 55.4216 82.8548 55.8129 82.8909C56.2041 82.9269 56.5698 83.1009 56.8446 83.3817C57.1194 83.6625 57.2854 84.0318 57.3129 84.4238C57.4942 86.9965 57.954 89.5419 58.6843 92.0154C62.3299 88.5384 64.484 83.7824 64.6931 78.7489C64.8654 74.1625 63.3919 69.645 63.4196 65.0498C63.4386 61.6956 64.6455 58.018 67.043 55.883C67.354 55.6113 67.7277 55.4212 68.1304 55.3298C68.5332 55.2383 68.9523 55.2483 69.3502 55.3588C69.7481 55.4694 70.1123 55.6771 70.4101 55.9632C70.7079 56.2494 70.9299 56.605 71.0562 56.9982L72.1326 60.3561L77.4189 47.2816C78.5637 44.4507 81.0574 41.014 83.8426 42.2651C86.9414 43.6526 85.3383 48.3327 83.3111 51.0592L73.072 64.8589C71.0298 67.6079 70.0508 73.0924 73.9871 72.7656L76.8218 70.9298C78.4516 68.2435 81.3755 70.4939 80.1928 72.4314C79.3585 73.7453 78.1505 74.7798 76.7238 75.402C73.9043 76.5843 70.3729 77.2667 69.1216 80.0564C68.4243 81.6159 68.6795 83.4234 68.1937 85.0542C67.0946 88.753 62.3372 91.6949 63.7779 95.2759C64.709 97.5915 67.7248 98.2211 69.3747 100.093C71.6348 102.658 71.1681 107.319 74.2094 108.879C76.9994 110.312 80.427 107.45 80.8194 104.333C81.2118 101.216 79.6223 98.2449 78.1307 95.4871C76.958 93.3202 75.7933 90.726 76.8214 88.4883C77.8496 86.2506 82.1546 86.2945 82.1127 88.7592C84.6907 88.3891 84.4025 84.6211 83.7467 82.1056C83.0909 79.5902 84.4603 75.6139 86.8162 76.7314C87.0124 77.9457 87.0253 79.1825 86.8545 80.4005C86.4749 82.8773 86.5415 85.4021 87.0511 87.8555C87.3453 89.518 87.075 91.2312 86.2832 92.7224C84.8952 95.2555 83.5051 99.0945 86.068 100.43C86.8581 99.6689 87.8326 99.126 88.896 98.8551C89.9593 98.5841 91.0748 98.5944 92.133 98.8849C92.5623 98.9954 92.9514 99.2256 93.2549 99.5487C93.5583 99.8719 93.7637 100.275 93.8469 100.71C93.9302 101.145 93.888 101.596 93.7252 102.008C93.5624 102.42 93.2857 102.778 92.9274 103.039C90.115 105.08 86.9332 106.713 84.8512 109.467C82.1087 113.077 83.3227 120.041 87.8511 119.941C88.8423 119.893 89.7854 119.5 90.518 118.83C91.2505 118.161 91.7267 117.257 91.8643 116.274C91.9912 115.195 91.6799 114.103 91.7986 113.026C92.321 108.307 99.8023 107.407 101.134 102.848C102.363 98.6301 97.6854 93.8533 97.149 90.0483C97.0949 89.6307 97.1545 89.2062 97.3217 88.8198C97.4888 88.4333 97.7573 88.0991 98.0986 87.8526C98.4399 87.606 98.8415 87.4562 99.261 87.419C99.6804 87.3818 100.102 87.4586 100.482 87.6412C101.995 88.3749 103.421 89.2762 104.732 90.3283C108.214 88.5166 106.3 83.3499 104.832 79.7119C102.599 74.0279 102.673 67.6966 105.039 62.0668C105.206 61.6669 105.486 61.3245 105.845 61.0815C106.203 60.8385 106.625 60.7055 107.058 60.6988C107.492 60.6921 107.917 60.812 108.283 61.0438C108.649 61.2756 108.94 61.6092 109.119 62.0037C109.649 63.1635 110.03 64.3855 110.254 65.6408C113.578 61.4353 112.322 55.4209 112.194 50.0591C111.969 40.9758 115.452 32.4073 119.815 24.3089C119.999 23.9714 120.296 23.7092 120.653 23.568C121.011 23.4269 121.406 23.4158 121.771 23.5367C122.136 23.6576 122.447 23.9027 122.649 24.2294C122.852 24.5561 122.933 24.9436 122.879 25.3241L122.317 29.0836C122.273 29.3825 122.327 29.6878 122.47 29.9537C122.613 30.2197 122.839 30.4322 123.113 30.5593C123.387 30.6865 123.695 30.7215 123.991 30.6592C124.287 30.5969 124.554 30.4406 124.754 30.2137C125.996 28.5541 127.141 26.8241 128.183 25.0323C130.025 22.3129 134.014 20.0859 136.388 22.3618C136.498 26.8819 131.073 29.0312 127.574 31.9007C121.54 36.8519 120.669 45.5762 119.971 53.3543C119.377 59.9969 118.091 67.4056 113.565 71.94C112.853 72.6681 112.382 73.5984 112.218 74.6039C112.053 75.6094 112.203 76.6411 112.647 77.5582L113.085 78.4787C113.285 78.8929 113.575 79.2574 113.933 79.5461C114.291 79.8348 114.709 80.0404 115.156 80.1481C115.603 80.2558 116.069 80.2629 116.519 80.1689C116.969 80.0749 117.393 79.8822 117.76 79.6046C118.598 78.9633 119.602 78.5751 120.653 78.486C121.315 78.4209 121.981 78.5662 122.556 78.9012C123.13 79.2361 123.585 79.7437 123.855 80.3518C124.883 82.8359 121.956 85.0876 119.379 85.7516C116.801 86.4156 113.704 86.8717 112.624 89.2803C111.658 91.435 112.872 94.2724 111.445 96.1543C110.646 97.2056 109.259 97.5982 108.187 98.3586C106.472 99.5823 105.646 101.653 104.9 103.621C101.414 112.839 97.9268 122.057 94.439 131.274C92.5616 136.232 91.4731 143.322 96.3169 145.504C102.215 137.619 105.538 128.108 105.834 118.265C105.837 118.085 105.889 117.909 105.985 117.756C106.081 117.603 106.216 117.479 106.378 117.398C106.539 117.316 106.719 117.281 106.899 117.294C107.079 117.308 107.252 117.371 107.399 117.476C108.08 117.975 108.694 118.561 109.224 119.219C111.337 117.919 111.403 114.834 110.629 112.475C109.855 110.117 108.493 107.851 108.606 105.373C108.719 102.895 111.402 100.379 113.536 101.642C114.199 102.036 114.654 102.709 115.308 103.129C117.099 104.279 119.63 102.942 120.545 101.017C121.46 99.0923 121.266 96.8542 121.169 94.7235C121.116 93.5928 121.168 92.3048 122.029 91.5633C122.631 91.17 123.299 90.8883 124.001 90.7318C128.447 89.1666 129.174 83.2875 129.131 78.5754C129.246 76.8558 128.964 75.1327 128.307 73.5397C127.366 71.6862 125.476 70.4914 124.36 68.7384C123.245 66.9854 123.481 63.9877 125.518 63.5746L129.607 65.756C130.097 66.0194 130.635 66.1805 131.189 66.2297C131.743 66.2789 132.302 66.2151 132.83 66.0422C133.359 65.8694 133.847 65.591 134.265 65.224C134.683 64.8569 135.022 64.4089 135.262 63.907C136.503 61.2736 138.097 58.8216 140 56.6186C140.318 56.2517 140.739 55.9897 141.208 55.8671C141.678 55.7444 142.174 55.767 142.63 55.9318C143.086 56.0965 143.482 56.3957 143.765 56.79C144.048 57.1842 144.205 57.6549 144.214 58.14C144.076 61.0135 143.086 63.7808 141.37 66.09C140.293 67.6285 139.064 69.1492 137.999 70.7286C137.58 71.359 137.343 72.0921 137.312 72.8481C137.282 73.6042 137.459 74.3541 137.825 75.0162C138.192 75.6783 138.733 76.2272 139.389 76.603C140.046 76.9789 140.793 77.1673 141.55 77.1478C142.542 77.1242 143.54 77.1331 144.545 77.1747C145.002 77.1939 145.442 77.354 145.805 77.633C146.168 77.9119 146.435 78.2962 146.572 78.7332C146.708 79.1701 146.705 79.6385 146.565 80.0742C146.425 80.5099 146.154 80.8916 145.788 81.1671C144.892 81.8233 143.889 82.3187 142.823 82.6311C140.319 83.374 137.484 83.6771 135.662 85.5451C134.573 86.8986 133.773 88.461 133.311 90.1359C131.258 95.6317 128.078 100.637 123.976 104.832C123.689 105.121 123.507 105.498 123.458 105.903C123.409 106.308 123.497 106.717 123.707 107.066C123.918 107.415 124.238 107.685 124.619 107.831C124.999 107.978 125.418 107.993 125.808 107.875L135.981 104.843C138.122 104.206 140.615 103.199 141.049 101.01C141.203 100.234 141.057 99.4267 141.18 98.6376C141.7 95.3958 146.986 94.9718 148.739 97.7477C150.493 100.524 149.015 104.439 146.355 106.359C143.695 108.278 140.247 108.678 136.964 108.753C133.68 108.829 130.311 108.691 127.214 109.749C120.282 112.141 116.779 119.673 114.02 126.465C110.899 134.147 106.336 141.945 103.217 149.625C114.106 148.686 124.998 138.851 125.622 127.94C125.705 126.461 125.581 123.632 125.598 120.812C125.602 120.213 125.793 119.63 126.145 119.146C126.498 118.661 126.993 118.299 127.561 118.111C128.13 117.922 128.743 117.917 129.315 118.095C129.887 118.273 130.388 118.626 130.749 119.104L133.3 122.501C134.464 121.528 135.685 120.625 136.956 119.795C137.662 119.285 138.494 118.977 139.362 118.904C140.231 118.83 141.102 118.995 141.884 119.38C143.794 120.29 145.598 119.734 147.523 117.46C150.497 110.539 151.903 107.525 151.925 102.04C151.952 96.0587 147.139 90.7082 147.471 85.3491C147.497 84.9949 147.612 84.653 147.806 84.3556C148 84.0581 148.267 83.8147 148.58 83.6482C148.894 83.4817 149.245 83.3974 149.6 83.4033C149.955 83.4093 150.303 83.5051 150.611 83.682L151.181 84.0078C151.497 84.1886 151.847 84.3012 152.208 84.3384C152.57 84.3756 152.935 84.3366 153.281 84.2238C153.626 84.111 153.944 83.927 154.214 83.6837C154.485 83.4404 154.701 83.1432 154.849 82.8112C158.428 74.6891 158.881 66.9888 157.506 57.8258C157.258 56.1741 156.838 54.3879 155.523 53.3588C153.939 52.1214 151.702 52.4379 149.696 52.326C147.689 52.214 145.277 51.0423 145.405 49.0356C145.572 46.4238 149.493 46.2309 151.777 47.5111C154.06 48.7913 156.55 50.7923 158.967 49.7867C162.672 48.249 162.562 40.9215 166.551 41.3251C170.068 41.685 169.216 46.967 168.081 50.3144C166.47 55.117 166.548 60.3255 168.302 65.0777C172.064 64.8578 173.392 58.9299 177.142 58.599C179.933 58.3504 181.932 61.8243 181.135 64.5214C180.339 67.2184 177.762 68.9847 175.155 70.0216C172.549 71.0584 169.734 71.5995 167.29 72.9768C161.438 76.2769 159.359 83.1311 156.39 89.3699C156.144 89.8852 156.071 90.4657 156.181 91.0258C156.29 91.5859 156.577 92.0959 156.999 92.4805C157.42 92.8651 157.955 93.104 158.522 93.1618C159.09 93.2196 159.661 93.0934 160.152 92.8017C160.803 92.4167 161.453 92.0397 162.115 91.7082C165.245 90.1355 170.009 90.0986 171.274 93.3693C172.435 96.3624 169.553 99.4278 166.614 100.72C163.675 102.013 160.22 102.621 158.136 105.066C154.37 109.478 157.216 117.299 153.064 121.359C148.78 125.544 139.59 122.998 137.297 128.531C139.612 130.708 143.215 130.374 146.387 130.541C149.558 130.708 153.408 132.329 153.447 135.507C149.551 138.867 143.425 135.747 138.438 137.035C130.729 139.04 125.352 150.949 117.462 152.123C125.456 152.8 136.646 150.03 142.889 144.986C144.143 143.975 145.498 142.805 147.113 142.879C148.728 142.953 150.004 145.3 148.664 146.212C152.036 149.045 156.921 144.44 157.625 140.093C158.219 136.417 157.762 132.244 159.417 129.091C159.523 128.884 159.685 128.711 159.883 128.592C160.082 128.472 160.311 128.41 160.543 128.414C160.775 128.417 161.001 128.485 161.197 128.61C161.392 128.735 161.549 128.912 161.649 129.122C162.237 130.363 164.308 133.362 164.12 134.723C169.39 135.851 172.671 127.764 170.341 122.906C169.459 121.069 167.824 119.638 167.145 117.716C167.024 117.363 166.956 116.995 166.943 116.622C166.938 116.135 167.085 115.658 167.365 115.259C167.645 114.86 168.043 114.559 168.503 114.399C168.963 114.238 169.462 114.226 169.929 114.364C170.396 114.502 170.809 114.783 171.108 115.168L174.178 119.088C176.09 117.343 178.437 116.223 179.269 113.772C176.46 111.367 174.637 105.911 176.205 102.563C176.795 101.37 177.647 100.326 178.698 99.5102C179.749 98.6943 180.972 98.1273 182.274 97.852C182.569 97.7929 182.874 97.8142 183.158 97.9137C183.442 98.0131 183.694 98.1871 183.888 98.4173C184.082 98.6476 184.21 98.9257 184.259 99.2225C184.309 99.5193 184.278 99.824 184.169 100.105C183.297 102.429 183.088 104.949 183.564 107.385C183.67 107.896 183.906 108.37 184.25 108.762C184.593 109.153 185.033 109.449 185.525 109.62C186.017 109.792 186.545 109.832 187.058 109.738C187.571 109.644 188.05 109.418 188.449 109.084C189.705 108.042 190.874 106.899 191.943 105.666C192.147 105.425 192.411 105.241 192.709 105.135C193.006 105.028 193.327 105.002 193.638 105.059C193.949 105.116 194.239 105.254 194.479 105.46C194.72 105.665 194.902 105.931 195.006 106.229C196.108 109.418 194.651 113.584 192.022 116.027C188.644 119.165 184.012 120.474 179.897 122.564C176.886 124.091 173.787 126.661 173.914 130.038C174.042 133.414 179.781 135.261 180.711 132.012C184.283 132.738 182.823 138.684 179.47 140.115C176.117 141.545 172.045 140.941 168.961 142.886C166.004 144.751 164.781 148.427 162.355 150.942C159.929 153.457 156.421 154.677 153.032 155.6C139.805 159.213 125.989 160.14 112.398 158.329C108.835 157.84 104.849 157.277 101.921 159.369C100.667 160.278 99.7028 161.62 98.279 162.241C96.8097 162.727 95.232 162.781 93.7327 162.398C89.9835 161.788 85.9543 160.848 83.5379 157.917C82.8388 157.1 82.3513 156.123 82.1185 155.073C81.8856 154.023 81.9146 152.931 82.2028 151.895L82.2053 151.891Z" fill="#242C5B"/>
<path d="M82.4829 152.048C84.9035 147.006 86.1723 141.488 86.1973 135.895C86.1822 133.05 85.5765 130.24 84.4186 127.642C83.2606 125.043 81.5756 122.714 79.4704 120.801C74.8537 116.355 69.0369 113.439 64.2125 109.25C59.4403 105.104 55.4048 99.6972 54.1397 93.3893C53.7818 91.5971 53.657 89.7662 53.7684 87.942C53.8266 86.9908 53.9538 86.045 54.149 85.1122C54.3025 84.3937 54.4127 83.5354 55.2029 83.2669C55.493 83.1699 55.8072 83.1719 56.096 83.2727C56.3849 83.3734 56.6321 83.5673 56.7989 83.8238C56.9699 84.2149 57.0509 84.6393 57.036 85.0659C57.0758 85.5366 57.1277 86.0062 57.1882 86.4749C57.4344 88.3791 57.8302 90.2609 58.3718 92.1029C58.3875 92.1559 58.4165 92.2041 58.4561 92.2427C58.4957 92.2813 58.5445 92.3091 58.598 92.3235C58.6514 92.3378 58.7076 92.3382 58.7612 92.3246C58.8148 92.3109 58.864 92.2838 58.9041 92.2457C61.371 89.876 63.1889 86.9132 64.1841 83.6404C65.0798 80.3203 65.238 76.8444 64.6478 73.4567C64.1748 70.0265 63.369 66.5075 63.8827 63.0513C64.1147 61.3772 64.6633 59.7626 65.4992 58.2936C66.2286 57.0508 67.4331 55.2847 69.0956 55.6262C70.3421 55.8774 70.6897 56.9282 71.0293 57.9789L71.822 60.4482C71.8425 60.5141 71.8837 60.5716 71.9395 60.6123C71.9952 60.6529 72.0626 60.6746 72.1316 60.6739C72.2007 60.6733 72.2676 60.6504 72.3226 60.6087C72.3776 60.567 72.4177 60.5086 72.4369 60.4423L76.4025 50.6361C77.3951 48.1823 78.2242 45.4302 80.1781 43.5336C80.518 43.1482 80.938 42.8418 81.4087 42.6358C81.8795 42.4298 82.3896 42.3293 82.9033 42.3411C83.4062 42.3908 83.8834 42.587 84.2758 42.9055C84.6681 43.224 84.9583 43.6507 85.1103 44.1326C85.7303 46.1704 84.555 48.6153 83.4657 50.2907C82.6025 51.6184 81.5882 52.862 80.6439 54.1342L77.4031 58.5019L74.2403 62.753C73.3637 63.8055 72.5914 64.9407 71.9346 66.1427C71.1709 67.738 70.5112 69.9454 71.2745 71.6596C71.4228 72.0041 71.6509 72.3083 71.94 72.5471C72.2292 72.786 72.571 72.9525 72.9372 73.0331C73.3327 73.1436 73.7498 73.1511 74.149 73.055C74.5031 72.8796 74.8358 72.6638 75.1404 72.412L76.3108 71.6491C76.5708 71.5116 76.8172 71.3501 77.047 71.1667C77.2422 70.9741 77.3542 70.7053 77.557 70.5136C77.7098 70.355 77.8939 70.2297 78.0976 70.1459C78.3013 70.062 78.5202 70.0213 78.7405 70.0264C79.1023 70.0538 79.4425 70.209 79.7003 70.4643C79.9582 70.7196 80.1167 71.0583 80.1477 71.4198C80.2224 72.652 78.6729 73.8768 77.7718 74.4827C76.5378 75.184 75.2286 75.744 73.8692 76.1519C71.5458 77.028 69.1792 78.2478 68.521 80.858C68.1734 82.2429 68.29 83.7042 67.8599 85.0742C67.4221 86.258 66.7965 87.3635 66.0071 88.3484C64.7743 90.0431 63.0072 91.9877 63.2126 94.2493C63.4541 96.9841 66.1738 97.9767 68.0982 99.3821C70.1924 100.913 70.6037 103.347 71.431 105.645C72.0867 107.459 73.2199 109.287 75.314 109.559C77.3517 109.822 79.2489 108.424 80.2816 106.767C80.8315 105.736 81.1461 104.596 81.2028 103.429C81.2596 102.262 81.0571 101.097 80.61 100.018C79.749 97.4627 78.1031 95.2754 77.2158 92.7418C76.6537 91.4467 76.6171 89.9837 77.1137 88.6621C77.3704 88.198 77.7513 87.8146 78.2139 87.5552C78.6764 87.2957 79.2021 87.1703 79.732 87.1933C80.7799 87.1872 81.7856 87.6464 81.8085 88.7777C81.8103 88.826 81.8228 88.8732 81.8451 88.916C81.8675 88.9588 81.899 88.9961 81.9376 89.0252C81.9761 89.0542 82.0206 89.0744 82.0679 89.0841C82.1152 89.0938 82.164 89.0928 82.2109 89.0813C84.9375 88.5921 84.679 85.0726 84.2942 83.0263C83.951 81.8046 83.8813 80.5223 84.09 79.2706C84.2974 78.3975 84.7678 77.1242 85.764 76.8962C85.9209 76.8615 86.3431 76.8159 86.4742 76.9391C86.701 77.147 86.6384 77.9381 86.6563 78.2051C86.6705 79.0969 86.6131 79.9884 86.4846 80.8709C86.2718 82.5393 86.2494 84.2264 86.4177 85.8998C86.5909 87.5039 87.0454 88.9704 86.7156 90.5923C86.2992 91.9401 85.758 93.246 85.0991 94.4932C84.2884 96.4993 83.6085 99.4379 85.9155 100.726C85.9766 100.759 86.0468 100.772 86.1157 100.762C86.1846 100.753 86.2486 100.721 86.2983 100.672C86.8547 100.129 87.514 99.7023 88.2375 99.4171C88.9611 99.1319 89.7343 98.994 90.5118 99.0115C91.2672 98.9644 92.0207 99.1288 92.6878 99.4862C93.0229 99.7165 93.2821 100.041 93.4323 100.419C93.5825 100.797 93.6171 101.211 93.5316 101.608C93.3987 101.99 93.1909 102.341 92.9205 102.641C92.6501 102.942 92.3224 103.185 91.9567 103.357C91.2396 103.851 90.5074 104.326 89.7855 104.81C88.4118 105.686 87.1194 106.685 85.9239 107.792C84.9255 108.695 84.1519 109.819 83.6647 111.074C83.1775 112.329 82.9902 113.68 83.1178 115.02C83.3295 117.135 84.371 119.464 86.5732 120.112C87.7386 120.405 88.9724 120.225 90.0054 119.611C91.0385 118.997 91.787 118 92.0876 116.837C92.4436 115.383 91.8406 113.888 92.2347 112.44C92.639 111.257 93.4046 110.231 94.4233 109.507C96.3698 107.946 98.8014 106.903 100.384 104.918C101.049 104.021 101.468 102.965 101.598 101.856C101.729 100.746 101.566 99.6223 101.127 98.5953C100.249 96.0533 98.6184 93.8391 97.7655 91.2917C97.3265 89.9734 97.2491 88.3043 98.8888 87.8289C99.3612 87.7689 99.8409 87.8057 100.299 87.9371C100.756 88.0684 101.183 88.2916 101.551 88.593C102.582 89.1784 103.566 89.8428 104.494 90.5802C104.545 90.6279 104.61 90.6584 104.679 90.6677C104.748 90.6769 104.819 90.6643 104.881 90.6316C109.319 88.1742 105.771 81.7462 104.658 78.3719C103.002 73.2839 103.151 67.7807 105.079 62.7896C105.161 62.4513 105.312 62.1339 105.525 61.8584C105.737 61.5828 106.006 61.3553 106.313 61.1908C106.588 61.0719 106.888 61.0185 107.188 61.0347C107.487 61.0509 107.779 61.1363 108.041 61.2842C108.676 61.7824 109.114 62.4897 109.278 63.2804C109.562 64.0808 109.781 64.9028 109.934 65.7385C109.949 65.7919 109.977 65.8405 110.017 65.8794C110.056 65.9184 110.105 65.9464 110.159 65.9607C110.212 65.975 110.269 65.9751 110.322 65.961C110.376 65.9469 110.425 65.9191 110.464 65.8803C112.793 62.8582 112.958 59.0244 112.787 55.3614C112.691 53.3486 112.496 51.3362 112.491 49.319C112.491 47.1835 112.681 45.0523 113.059 42.9505C113.861 38.7436 115.173 34.6504 116.967 30.7618C117.852 28.7831 118.822 26.8432 119.837 24.9295C120.21 24.2349 120.663 23.598 121.554 23.8202C121.87 23.8969 122.147 24.0874 122.332 24.3552C122.516 24.6231 122.595 24.9495 122.554 25.2721C122.482 26.1903 122.279 27.1165 122.141 28.0302C122.017 28.851 121.767 29.7397 122.378 30.4369C123.293 31.4751 124.544 30.998 125.28 30.0699C126.609 28.4033 127.452 26.4161 128.783 24.7447C129.805 23.4004 131.225 22.4131 132.841 21.9232C133.624 21.6851 134.464 21.7147 135.229 22.0074C135.569 22.1535 135.983 22.3403 136.046 22.7196C136.061 23.2158 135.967 23.7092 135.771 24.1654C135.127 26.0006 133.482 27.3151 131.964 28.4104C130.396 29.5437 128.72 30.5375 127.231 31.7818C120.525 37.3869 120.327 47.0268 119.468 55.0163C119.004 59.3429 118.225 63.8074 116.205 67.7101C115.704 68.6901 115.11 69.6199 114.432 70.4866C113.868 71.1953 113.16 71.7917 112.662 72.5493C112.224 73.2273 111.947 73.9964 111.851 74.7978C111.756 75.5993 111.845 76.4119 112.111 77.1738C112.414 78.3016 113.07 79.3026 113.984 80.0298C114.592 80.4053 115.299 80.5886 116.012 80.5556C116.726 80.5226 117.413 80.2749 117.983 79.8449C119.661 78.6908 122.537 78.1585 123.525 80.4894C124.289 82.2892 122.65 83.8655 121.215 84.6793C118.442 86.2556 113.959 85.7422 112.366 89.0576C111.661 90.5276 111.93 92.1818 111.847 93.7511C111.858 94.7172 111.494 95.6502 110.832 96.3537C110.068 96.9422 109.244 97.4484 108.373 97.8641C106.774 99.0016 105.588 100.627 104.992 102.497C104.116 104.667 103.325 106.878 102.495 109.067L97.3665 122.624L94.7796 129.468C94.1118 131.114 93.5504 132.801 93.099 134.519C92.4425 137.268 92.0683 140.51 93.3776 143.129C93.9705 144.308 94.9479 145.25 96.1484 145.799C96.2224 145.838 96.3086 145.848 96.3895 145.826C96.4704 145.804 96.5398 145.751 96.5836 145.68C101.717 138.81 104.931 130.699 105.896 122.177C106.033 120.959 106.064 119.74 106.165 118.523C106.195 118.17 106.229 117.824 106.604 117.673C107.034 117.5 107.381 117.84 107.691 118.097C108.175 118.506 108.621 118.958 109.021 119.449C109.071 119.499 109.136 119.531 109.206 119.54C109.276 119.55 109.347 119.536 109.408 119.501C111.276 118.275 111.637 115.952 111.313 113.881C110.933 111.447 109.494 109.331 109.058 106.91C108.695 104.877 109.475 102.402 111.665 101.741C113.002 101.337 113.771 102.253 114.703 103.052C115.047 103.36 115.453 103.591 115.893 103.729C116.334 103.866 116.799 103.908 117.257 103.85C118.276 103.659 119.213 103.162 119.942 102.425C120.672 101.689 121.159 100.747 121.34 99.7261C121.581 98.4884 121.654 97.2238 121.558 95.9665C121.502 94.5731 121.103 92.4441 122.551 91.607C123.115 91.3524 123.697 91.1417 124.293 90.9769C124.796 90.7854 125.271 90.5289 125.708 90.214C126.529 89.6032 127.209 88.8239 127.704 87.9282C128.762 85.8537 129.337 83.5669 129.386 81.2388C129.545 78.8823 129.719 76.1315 128.818 73.8896C128.314 72.7897 127.599 71.7993 126.714 70.9742C125.779 70.1643 124.992 69.1981 124.388 68.1187C124.14 67.5981 124.012 67.0281 124.014 66.4512C124.017 65.8743 124.149 65.3053 124.402 64.7867C124.531 64.5541 124.708 64.3513 124.92 64.1914C125.004 64.1311 125.527 63.8792 125.371 63.8733C125.514 63.9238 125.648 63.9954 125.769 64.0857C126.933 64.7064 128.092 65.3318 129.259 65.9464C129.955 66.3494 130.746 66.562 131.551 66.5628C132.355 66.5635 133.146 66.3524 133.843 65.9506C134.712 65.3774 135.388 64.5557 135.782 63.5927C136.465 62.2077 137.247 60.8734 138.121 59.6001C138.569 58.9501 139.041 58.3171 139.536 57.701C139.875 57.1927 140.301 56.7491 140.796 56.3912C141.212 56.1591 141.694 56.0736 142.164 56.1483C142.635 56.223 143.066 56.4536 143.39 56.8031C144.193 57.6944 143.92 59.1198 143.701 60.1844C143.416 61.4985 142.95 62.7666 142.315 63.952C141.658 65.1475 140.908 66.2893 140.071 67.3667C139.15 68.4901 138.303 69.6725 137.536 70.9063C137.221 71.4909 137.041 72.1384 137.009 72.8014C136.976 73.4644 137.092 74.1263 137.348 74.7389C137.604 75.3515 137.993 75.8994 138.487 76.3426C138.981 76.7858 139.568 77.1132 140.205 77.3008C141.371 77.5117 142.56 77.5715 143.742 77.4787C144.432 77.3934 145.129 77.5598 145.706 77.9475C145.949 78.1637 146.135 78.4366 146.248 78.7419C146.36 79.0472 146.396 79.3755 146.351 79.6978C146.162 81.0364 144.417 81.7473 143.304 82.1502C141.082 82.9544 138.624 83.1117 136.593 84.4093C134.173 85.9639 133.559 88.7951 132.538 91.2836C130.789 95.537 128.35 99.4727 125.32 102.932C124.875 103.441 124.415 103.933 123.949 104.423C123.594 104.746 123.332 105.16 123.192 105.62C123.111 105.986 123.127 106.368 123.237 106.727C123.347 107.086 123.548 107.41 123.821 107.669C124.093 107.927 124.428 108.111 124.792 108.202C125.156 108.293 125.538 108.289 125.9 108.189C126.627 108.004 127.345 107.759 128.064 107.545L135.784 105.256C137.443 104.897 138.99 104.14 140.292 103.05C140.68 102.661 140.984 102.197 141.187 101.687C141.39 101.176 141.487 100.629 141.472 100.08C141.49 98.8836 141.532 97.802 142.556 97.0283C143.415 96.4354 144.455 96.1653 145.494 96.2657C146.533 96.3661 147.502 96.8307 148.231 97.5771C149.698 99.2936 149.337 101.88 148.324 103.701C145.692 108.424 139.52 108.403 134.807 108.462C132.219 108.377 129.634 108.708 127.15 109.442C125.011 110.205 123.071 111.439 121.473 113.053C117.991 116.502 115.887 121.12 114.065 125.594C111.807 131.081 109.098 136.346 106.503 141.674C105.253 144.24 104.05 146.827 102.972 149.469C102.891 149.668 102.985 149.966 103.252 149.947C106.816 149.539 110.26 148.411 113.374 146.631C116.489 144.852 119.21 142.458 121.372 139.596C123.521 136.869 124.999 133.675 125.686 130.271C125.962 128.527 126.062 126.76 125.985 124.996C125.969 123.827 125.947 122.659 125.946 121.491C125.865 120.961 125.931 120.418 126.138 119.923C126.345 119.428 126.685 119 127.12 118.686C127.579 118.392 128.12 118.254 128.664 118.29C129.208 118.327 129.726 118.537 130.142 118.889C130.481 119.23 130.786 119.604 131.05 120.006L133.049 122.668C133.074 122.71 133.109 122.745 133.149 122.772C133.19 122.798 133.236 122.815 133.284 122.822C133.332 122.828 133.381 122.824 133.427 122.808C133.473 122.793 133.516 122.768 133.551 122.734C134.693 121.723 135.923 120.816 137.225 120.021C137.79 119.632 138.437 119.378 139.116 119.276C139.795 119.175 140.489 119.23 141.143 119.438C142.065 119.894 143.085 120.116 144.114 120.084C145.083 119.909 145.98 119.455 146.695 118.778C147.195 118.405 147.61 117.928 147.91 117.38C148.256 116.618 148.575 115.841 148.904 115.068C149.416 113.871 149.927 112.672 150.391 111.457C151.218 109.393 151.784 107.235 152.079 105.032C152.41 102.64 152.246 100.205 151.597 97.8789C150.885 95.4608 149.749 93.1996 148.87 90.8425C148.436 89.7387 148.113 88.5941 147.907 87.4259C147.721 86.26 147.49 84.591 148.739 83.9385C149.91 83.3279 150.681 84.3129 151.738 84.5837C152.244 84.7147 152.776 84.7084 153.279 84.5655C153.782 84.4225 154.237 84.1482 154.599 83.7706C155.003 83.2702 155.313 82.7007 155.513 82.0896C155.794 81.4082 156.052 80.7162 156.306 80.0284C156.792 78.6655 157.201 77.2762 157.531 75.8671C158.155 73.1432 158.494 70.3616 158.541 67.5675C158.581 64.5478 158.379 61.5297 157.938 58.5421C157.569 55.9131 156.935 53.0384 153.99 52.3047C151.517 51.6882 148.272 52.7609 146.329 50.6217C146.113 50.4068 145.949 50.1448 145.851 49.8562C145.753 49.5676 145.723 49.2603 145.764 48.9582C145.805 48.6562 145.915 48.3676 146.085 48.1152C146.256 47.8628 146.483 47.6534 146.748 47.5034C147.926 46.9644 149.267 46.8997 150.491 47.3226C152.913 48.0277 154.709 50.221 157.346 50.3786C159.545 50.512 160.984 48.8637 161.923 47.0792C162.431 46.1238 162.843 45.1209 163.343 44.1627C163.714 43.2649 164.332 42.4901 165.124 41.9278C165.571 41.6792 166.087 41.5809 166.594 41.6473C167.102 41.7137 167.575 41.9413 167.943 42.2965C168.568 43.1387 168.859 44.1819 168.761 45.2258C168.742 47.8293 167.656 50.1606 167.115 52.6581C166.535 55.3981 166.463 58.2215 166.903 60.9876C167.132 62.4165 167.5 63.8198 168.001 65.1775C168.021 65.2444 168.062 65.3032 168.117 65.3452C168.173 65.3872 168.241 65.4103 168.311 65.411C170.065 65.2707 171.318 64.072 172.405 62.7903C173.548 61.444 174.69 59.6458 176.457 59.0798C178.645 58.3866 180.443 60.2428 180.892 62.2563C181.511 65.0286 179.41 67.3569 177.197 68.6901C174.878 70.0863 172.199 70.6319 169.683 71.5644C167.312 72.4109 165.182 73.819 163.474 75.6684C161.801 77.6099 160.414 79.7808 159.356 82.1151C158.199 84.4966 157.063 86.9365 156.05 89.382C155.77 90.0598 155.748 90.8171 155.989 91.5099C156.23 92.2027 156.718 92.7827 157.359 93.1397C159.236 94.19 160.804 92.6779 162.465 91.9107C164.474 90.9653 167.197 90.5351 169.254 91.5949C171.437 92.7266 171.678 95.2899 170.443 97.2258C167.8 101.346 162.278 101.06 158.775 104.023C155.321 106.944 155.783 111.859 155.159 115.892C154.984 118.008 154.044 119.989 152.516 121.463C151.11 122.517 149.471 123.219 147.737 123.508C144.653 124.194 140.754 124.231 138.316 126.534C137.769 127.059 137.336 127.69 137.042 128.388C137.009 128.449 136.996 128.519 137.006 128.587C137.015 128.656 137.046 128.72 137.094 128.77C140.811 132.117 146.273 129.767 150.474 131.909C151.389 132.335 152.162 133.016 152.699 133.871C152.893 134.213 153.221 134.85 153.134 135.253C153.047 135.656 152.388 135.908 152.044 136.081C150.329 136.776 148.463 137.008 146.63 136.754C144.725 136.625 142.82 136.337 140.904 136.398C139.19 136.442 137.509 136.879 135.99 137.674C132.66 139.421 130.073 142.356 127.474 145.003C124.677 147.856 121.524 151.163 117.388 151.821C117.008 151.882 117.144 152.416 117.476 152.447C124.633 152.824 131.771 151.396 138.231 148.294C140.197 147.299 142.05 146.097 143.759 144.708C144.714 143.954 145.947 143.021 147.247 143.225C148.273 143.382 149.642 145.082 148.516 145.935C148.475 145.96 148.439 145.994 148.413 146.035C148.386 146.075 148.369 146.121 148.362 146.169C148.355 146.218 148.36 146.267 148.374 146.313C148.389 146.359 148.414 146.401 148.447 146.437C151.576 148.959 155.3 145.931 156.884 143.101C158.045 141.028 158.165 138.715 158.309 136.387C158.366 134.933 158.518 133.485 158.766 132.052C158.943 131.155 159.428 128.323 160.815 128.78C161.325 128.947 161.509 129.551 161.753 129.984C162.042 130.501 162.343 131.012 162.631 131.527C163.142 132.448 163.907 133.627 163.806 134.724C163.807 134.795 163.832 134.863 163.875 134.918C163.918 134.973 163.979 135.013 164.047 135.031C168.624 135.931 171.233 130.844 171.413 127.001C171.477 125.881 171.335 124.758 170.995 123.689C170.481 122.39 169.769 121.179 168.884 120.099C168.007 118.889 166.554 116.894 167.647 115.41C167.843 115.156 168.096 114.951 168.386 114.812C168.675 114.672 168.994 114.603 169.315 114.608C169.636 114.613 169.952 114.693 170.237 114.842C170.521 114.991 170.768 115.204 170.956 115.464C171.981 116.733 172.968 118.034 173.973 119.317C174.032 119.376 174.111 119.41 174.194 119.412C174.278 119.414 174.359 119.383 174.42 119.327C176.312 117.628 178.679 116.375 179.596 113.864C179.61 113.81 179.609 113.754 179.595 113.701C179.58 113.647 179.552 113.599 179.513 113.56C178.341 112.471 177.418 111.141 176.808 109.663C176.197 108.184 175.913 106.591 175.975 104.992C176.086 103.322 176.809 101.752 178.005 100.581C178.57 100.005 179.214 99.512 179.917 99.1154C180.736 98.5806 181.671 98.249 182.645 98.1479C182.991 98.1567 183.322 98.2959 183.57 98.5377C183.819 98.7796 183.967 99.1063 183.985 99.4525C183.961 99.812 183.872 100.164 183.722 100.492C183.557 100.982 183.422 101.481 183.316 101.987C182.984 103.558 182.927 105.175 183.15 106.765C183.181 107.373 183.366 107.963 183.687 108.48C184.008 108.997 184.455 109.424 184.986 109.722C185.48 109.97 186.027 110.093 186.58 110.082C187.133 110.07 187.674 109.924 188.158 109.656C189.737 108.755 190.89 107.139 192.158 105.879C192.38 105.624 192.681 105.451 193.013 105.385C193.345 105.32 193.689 105.367 193.991 105.519C194.743 105.916 194.911 106.958 194.995 107.732C195.098 109.273 194.845 110.817 194.256 112.245C193.666 113.673 192.757 114.946 191.597 115.966C188.945 118.355 185.541 119.647 182.319 121.068C179.344 122.382 176.029 123.94 174.369 126.911C173.988 127.526 173.74 128.213 173.639 128.929C173.539 129.645 173.589 130.374 173.786 131.069C174.204 132.107 174.994 132.953 176.001 133.441C177.774 134.356 180.314 134.302 181.007 132.091L180.627 132.327C183.854 133.061 182.197 137.506 180.578 139.012C179.29 140.208 177.354 140.501 175.682 140.763C173.864 140.941 172.07 141.311 170.33 141.867C166.257 143.427 164.995 147.688 162.209 150.641C159.129 153.891 154.407 154.982 150.214 156.005C141.645 158.092 132.841 159.064 124.023 158.895C119.675 158.769 115.336 158.416 111.025 157.836C107.455 157.393 103.734 157.276 100.887 159.821C100.131 160.616 99.2714 161.307 98.3321 161.874C97.3352 162.308 96.2359 162.45 95.1616 162.284C92.8755 162.076 90.6243 161.584 88.4602 160.818C85.0173 159.561 81.6734 156.607 82.3694 152.593C82.4005 152.387 82.448 152.183 82.5115 151.984C82.643 151.598 82.0265 151.44 81.894 151.827C81.5693 153.044 81.5774 154.327 81.9176 155.54C82.2578 156.753 82.9175 157.853 83.8279 158.724C85.5394 160.317 87.6397 161.432 89.9182 161.957C91.1454 162.276 92.3882 162.532 93.6418 162.723C94.6105 162.913 95.5978 162.994 96.5847 162.962C97.5692 162.909 98.5194 162.582 99.3275 162.017C100.212 161.393 100.925 160.575 101.763 159.895C103.466 158.663 105.547 158.066 107.644 158.208C109.724 158.308 111.796 158.52 113.852 158.844C116.167 159.119 118.49 159.314 120.821 159.431C130.1 159.886 139.398 159.085 148.463 157.051C152.769 156.085 157.583 155.12 161.17 152.398C162.834 150.996 164.241 149.315 165.327 147.429C166.583 145.508 167.939 143.595 170.101 142.632C171.985 141.954 173.95 141.524 175.945 141.352C177.709 141.224 179.405 140.623 180.855 139.611C182.619 138.112 184.152 134.546 182.316 132.541C181.905 132.111 181.371 131.819 180.788 131.702C180.706 131.684 180.619 131.697 180.547 131.74C180.475 131.783 180.422 131.852 180.399 131.933C179.654 134.313 176.429 133.351 175.15 132.026C172.631 129.417 175.6 125.773 177.826 124.173C183.214 120.31 191.233 119.67 194.51 113.204C195.168 111.929 195.562 110.534 195.67 109.103C195.747 107.923 195.693 106.18 194.776 105.296C194.401 104.943 193.911 104.737 193.397 104.717C192.882 104.696 192.378 104.862 191.976 105.184C191.299 105.733 190.765 106.497 190.141 107.11C189.465 107.867 188.695 108.536 187.852 109.102C187.243 109.441 186.527 109.535 185.851 109.365C185.175 109.195 184.589 108.774 184.213 108.187C183.837 107.417 183.651 106.568 183.669 105.712C183.604 104.746 183.644 103.776 183.789 102.819C183.921 101.995 184.126 101.184 184.402 100.396C184.524 100.121 184.589 99.8239 184.593 99.5228C184.596 99.2216 184.539 98.9228 184.424 98.6446C183.864 97.4509 182.662 97.3714 181.536 97.7023C178.285 98.6797 175.509 101.48 175.324 104.979C175.262 106.66 175.562 108.335 176.204 109.889C176.846 111.444 177.815 112.842 179.045 113.989L178.962 113.685C178.102 116.048 175.732 117.261 173.957 118.854L174.401 118.864L171.527 115.193C171.292 114.844 170.981 114.551 170.618 114.338C170.254 114.124 169.848 113.994 169.428 113.957C168.874 113.925 168.323 114.065 167.852 114.359C167.381 114.653 167.012 115.086 166.797 115.597C166.244 116.995 167.037 118.525 167.796 119.675C168.784 120.892 169.624 122.223 170.299 123.638C171.065 125.954 170.922 128.476 169.9 130.691C168.887 132.952 166.855 134.941 164.2 134.42L164.44 134.727C164.421 133.847 164.169 132.988 163.709 132.237C163.236 131.275 162.665 130.363 162.154 129.419C161.748 128.672 161.28 127.983 160.311 128.121C159.242 128.279 158.87 129.406 158.571 130.31C157.613 133.038 157.775 136.028 157.461 138.874C157.281 141.14 156.311 143.271 154.722 144.896C153.182 146.435 150.802 147.525 148.89 145.97L148.823 146.473C150.359 145.299 149.113 143.002 147.516 142.611C145.249 142.051 143.237 144.399 141.595 145.556C137.017 148.577 131.828 150.549 126.4 151.333C123.449 151.854 120.446 152.009 117.457 151.793L117.545 152.419C121.23 151.832 124.176 149.157 126.726 146.627C129.546 143.833 132.191 140.62 135.646 138.569C137.286 137.584 139.158 137.048 141.072 137.018C143.077 136.976 145.071 137.301 147.068 137.408C148.865 137.607 150.684 137.336 152.345 136.622C152.706 136.442 153.049 136.228 153.369 135.983C153.792 135.671 153.798 135.493 153.722 134.975C153.585 134.105 153.183 133.298 152.571 132.665C150.957 131.17 148.857 130.31 146.659 130.245C143.591 130.008 140.002 130.552 137.52 128.317L137.571 128.7C139.034 125.282 143.307 124.995 146.489 124.4C148.264 124.146 149.988 123.615 151.598 122.827C153.216 121.94 154.453 120.493 155.08 118.758C156.614 114.683 155.412 109.783 157.836 106.008C159.249 103.809 161.766 102.868 164.111 102.029C166.243 101.424 168.212 100.35 169.876 98.8853C171.226 97.5294 172.241 95.601 171.701 93.655C171.405 92.7556 170.844 91.9666 170.092 91.3909C169.34 90.8152 168.432 90.4796 167.487 90.428C165.248 90.2262 163.003 90.7445 161.079 91.9074C160.132 92.4341 159.247 93.1345 158.112 92.7752C157.701 92.6446 157.333 92.4071 157.046 92.087C156.758 91.767 156.56 91.376 156.474 90.9543C156.25 89.7585 157.149 88.5125 157.617 87.4707C158.184 86.204 158.737 84.9281 159.317 83.6689C160.379 81.1562 161.77 78.7955 163.454 76.6487C165.274 74.5036 167.645 72.8962 170.311 71.9997C172.81 71.1167 175.444 70.5262 177.714 69.1003C179.629 67.8908 181.447 65.9925 181.621 63.6229C181.69 62.6872 181.511 61.7499 181.102 60.9056C180.693 60.0613 180.068 59.3399 179.291 58.8143C175.557 56.5029 173.013 61.5233 170.792 63.5538C170.12 64.2258 169.241 64.651 168.297 64.7603L168.608 64.9948C167.567 62.1597 167.115 59.1417 167.281 56.1259C167.37 54.5568 167.629 53.002 168.055 51.4891C168.395 50.2762 168.83 49.1027 169.081 47.8624C169.451 46.0402 169.815 43.4876 168.477 41.9472C168.182 41.6406 167.827 41.3987 167.434 41.2369C167.041 41.0751 166.618 40.997 166.193 41.0075C165.768 41.018 165.35 41.1169 164.965 41.298C164.58 41.479 164.237 41.7382 163.958 42.059C162.511 43.6334 162.004 45.8623 160.86 47.6323C160.317 48.6068 159.415 49.3311 158.346 49.6511C156.957 49.8223 155.553 49.4765 154.403 48.6795C153.373 48.0082 152.299 47.4064 151.188 46.8779C150.059 46.4313 148.827 46.3056 147.631 46.5148C147.155 46.5749 146.699 46.7456 146.301 47.0132C145.903 47.2807 145.572 47.6378 145.337 48.0558C145.133 48.4993 145.056 48.99 145.112 49.4745C145.169 49.959 145.357 50.4187 145.657 50.8035C147.289 52.96 150.198 52.5405 152.545 52.713C153.36 52.6979 154.162 52.9153 154.858 53.3396C155.554 53.7639 156.114 54.3777 156.474 55.109C157.041 56.6129 157.376 58.1947 157.466 59.7997C158.328 65.7672 157.964 71.8478 156.396 77.6698C155.947 79.2121 155.405 80.7258 154.774 82.2028C154.568 82.8507 154.136 83.403 153.556 83.759C153.214 83.9351 152.834 84.024 152.449 84.0177C152.064 84.0114 151.686 83.9101 151.35 83.7229C150.991 83.4562 150.579 83.271 150.141 83.1801C149.703 83.0893 149.251 83.0951 148.816 83.197C148.357 83.3502 147.953 83.637 147.658 84.0207C147.362 84.4045 147.188 84.8676 147.157 85.351C146.957 87.7182 147.875 90.1151 148.752 92.2652C149.874 94.6371 150.754 97.116 151.379 99.6643C152.33 104.591 150.557 109.528 148.666 113.996C148.049 115.453 147.582 117.09 146.393 118.178C145.98 118.614 145.476 118.953 144.917 119.171C144.358 119.389 143.757 119.481 143.158 119.44C142.025 119.281 141.111 118.615 139.945 118.566C138.649 118.554 137.389 118.994 136.382 119.811C135.214 120.536 134.108 121.357 133.076 122.266L133.577 122.333L131.798 119.976C131.264 119.02 130.445 118.254 129.456 117.786C128.723 117.556 127.933 117.593 127.226 117.89C126.518 118.188 125.939 118.727 125.591 119.411C125.267 120.335 125.16 121.322 125.278 122.294C125.288 123.499 125.315 124.701 125.325 125.906C125.405 129.591 124.487 133.229 122.669 136.435C120.743 139.76 118.107 142.619 114.949 144.809C111.493 147.297 107.447 148.842 103.212 149.29L103.492 149.767C105.769 144.181 108.62 138.856 111.235 133.426C112.505 130.774 113.67 128.092 114.8 125.379C115.745 123.042 116.844 120.77 118.09 118.579C120.66 114.174 124.302 110.428 129.505 109.482C134.59 108.556 140.029 109.85 144.872 107.61C146.858 106.743 148.437 105.149 149.286 103.156C149.693 102.277 149.883 101.313 149.839 100.345C149.796 99.3771 149.52 98.434 149.036 97.5948C147.147 94.6515 141.229 94.908 140.852 98.8819C140.785 99.559 140.888 100.254 140.756 100.927C140.601 101.629 140.22 102.261 139.672 102.726C138.563 103.589 137.28 104.204 135.912 104.526C135.152 104.755 134.393 104.977 133.634 105.205C131.08 105.967 128.531 106.745 125.967 107.488C125.721 107.589 125.455 107.631 125.19 107.61C124.925 107.589 124.669 107.506 124.442 107.367C124.243 107.226 124.08 107.041 123.964 106.827C123.848 106.612 123.784 106.374 123.776 106.13C123.81 105.821 123.907 105.521 124.062 105.251C124.216 104.98 124.425 104.745 124.674 104.558C126.704 102.411 128.507 100.06 130.053 97.5421C131.61 94.9762 132.909 92.2622 133.93 89.44C134.356 87.9132 135.175 86.5245 136.304 85.4123C137.314 84.6349 138.479 84.0828 139.72 83.7931C140.937 83.452 142.179 83.2202 143.368 82.8055C144.539 82.4815 145.605 81.8555 146.458 80.99C146.725 80.6457 146.9 80.239 146.966 79.8082C147.033 79.3774 146.988 78.9369 146.836 78.5283C146.685 78.1197 146.431 77.7566 146.1 77.4732C145.769 77.1898 145.371 76.9955 144.944 76.9088C143.611 76.6715 142.228 76.9976 140.897 76.8003C140.37 76.72 139.866 76.5313 139.416 76.2461C138.966 75.961 138.58 75.5855 138.283 75.1435C137.989 74.7096 137.789 74.2198 137.694 73.7048C137.599 73.1897 137.611 72.6606 137.73 72.1506C138.201 70.9051 138.908 69.7622 139.812 68.7847C141.553 66.6941 142.944 64.3354 143.931 61.8002C144.494 60.1029 145.21 57.4431 143.581 56.1059C143.292 55.8701 142.958 55.6948 142.6 55.5904C142.242 55.4859 141.867 55.4545 141.496 55.4979C141.04 55.5897 140.608 55.7729 140.225 56.0362C139.842 56.2996 139.516 56.6378 139.268 57.0304C138.326 58.176 137.464 59.384 136.686 60.6463C136.307 61.2644 135.945 61.8975 135.606 62.5376C135.323 63.1788 134.993 63.7989 134.62 64.3928C134.032 65.1551 133.182 65.6728 132.235 65.8462C131.288 66.0196 130.31 65.8365 129.49 65.3321C128.302 64.697 127.114 64.0486 125.926 63.431C124.582 62.7327 123.553 64.8078 123.433 65.8528C123.164 68.2324 124.747 69.8393 126.277 71.4226C127.29 72.3509 128.048 73.5236 128.478 74.8284C128.778 76.1687 128.899 77.543 128.836 78.9152C128.933 81.4467 128.568 83.9748 127.757 86.3752C127.339 87.5345 126.645 88.5742 125.734 89.4043C124.754 90.0719 123.676 90.5829 122.539 90.9192C120.039 92.0318 121.034 95.5877 120.959 97.7169C120.878 100.14 119.712 103.286 116.78 103.247C115.322 103.23 114.703 101.843 113.509 101.263C113.161 101.102 112.784 101.013 112.401 101.002C112.018 100.991 111.637 101.059 111.281 101.2C110.473 101.544 109.773 102.099 109.254 102.807C108.735 103.515 108.416 104.349 108.33 105.222C108.125 107.589 109.348 109.795 110.133 111.947C110.94 114.163 111.401 117.439 109.096 118.941L109.481 118.992C108.907 118.137 108.116 117.452 107.189 117.007C106.877 116.928 106.548 116.965 106.262 117.111C105.975 117.256 105.752 117.501 105.633 117.799C105.518 118.239 105.475 118.694 105.504 119.148C105.475 119.736 105.436 120.325 105.386 120.914C105.274 122.187 105.111 123.454 104.898 124.718C103.635 132.206 100.595 139.282 96.0315 145.352L96.4667 145.233C93.4787 143.835 92.9495 140.481 93.2277 137.51C93.5911 133.672 95.2141 130.098 96.5607 126.533L101.737 112.846L104.327 106.004C105.136 103.862 105.791 101.396 107.298 99.6243C108.536 98.1678 110.656 97.8274 111.752 96.2609C112.697 94.9161 112.465 93.1749 112.499 91.6284C112.468 90.719 112.681 89.8179 113.116 89.0186C113.629 88.2631 114.354 87.6756 115.199 87.3293C116.876 86.5599 118.759 86.4263 120.458 85.7486C121.926 85.2335 123.169 84.2263 123.978 82.8982C124.312 82.2625 124.417 81.5317 124.276 80.8278C124.136 80.1239 123.758 79.4896 123.206 79.0308C122.53 78.5385 121.726 78.2538 120.891 78.2116C120.056 78.1693 119.227 78.3714 118.505 78.793C117.65 79.2183 117.004 79.8821 116.004 79.9446C115.582 79.9689 115.16 79.8968 114.77 79.7339C114.38 79.5711 114.033 79.3215 113.753 79.0043C112.836 77.8491 112.385 76.3918 112.491 74.9204C112.701 72.8377 114.48 71.609 115.594 69.9937C117.994 66.5143 119.082 62.2621 119.717 58.1367C120.386 53.7974 120.504 49.3885 121.298 45.0628C122.084 40.7899 123.493 36.4261 126.592 33.25C129.291 30.4867 133.28 29.1031 135.565 25.9178C136.043 25.2624 136.384 24.5178 136.57 23.7281C136.653 23.357 136.697 22.978 136.7 22.5976C136.702 22.2094 136.57 22.0973 136.266 21.8606C135.7 21.4688 135.047 21.2223 134.363 21.1429C133.679 21.0635 132.986 21.1536 132.346 21.4053C130.86 21.938 129.543 22.8584 128.533 24.0711C127.211 25.6194 126.382 27.5366 125.181 29.1816C124.697 29.845 124.011 30.826 123.09 30.2075C122.613 29.8891 122.593 29.385 122.669 28.8799L123.126 25.8174C123.259 24.9322 123.203 24.0798 122.4 23.5154C122.185 23.3624 121.942 23.254 121.685 23.1968C121.428 23.1396 121.162 23.1346 120.903 23.1823C120.644 23.2299 120.397 23.3291 120.177 23.474C119.957 23.6189 119.768 23.8066 119.622 24.0258C119.067 24.9487 118.566 25.9031 118.122 26.8842C117.647 27.8312 117.179 28.7929 116.731 29.7486C115.859 31.6491 115.058 33.5872 114.367 35.5627C112.944 39.5045 112.108 43.6341 111.885 47.8191C111.717 51.8449 112.525 55.8844 112.082 59.9012C111.916 61.8985 111.203 63.8115 110.02 65.4298L110.553 65.5726C110.185 63.5958 109.473 60.0834 106.767 60.4165C106.294 60.4831 105.847 60.6784 105.477 60.9811C105.106 61.2838 104.826 61.6824 104.666 62.1334C104.151 63.3794 103.747 64.6683 103.458 65.9852C102.852 68.7076 102.726 71.5147 103.083 74.2806C103.251 75.5785 103.528 76.8597 103.913 78.1104C104.323 79.4382 104.9 80.7055 105.355 82.0135C106.231 84.4711 107.464 88.4643 104.563 90.0681L104.947 90.1202C104.194 89.5173 103.406 88.961 102.585 88.4545C101.847 87.9423 101.047 87.5243 100.205 87.2102C99.7003 87.0624 99.1633 87.0663 98.6608 87.2214C98.1583 87.3765 97.7127 87.676 97.3792 88.0826C95.938 89.8518 97.5069 92.5248 98.3627 94.2101C99.4746 96.3987 100.96 98.7361 101.008 101.274C101.064 104.175 98.6441 105.862 96.4672 107.296C94.5621 108.552 92.2502 109.919 91.6091 112.275C91.1892 113.817 91.8827 115.425 91.3872 116.948C91.1408 117.667 90.694 118.301 90.0994 118.775C89.5047 119.249 88.7871 119.543 88.0309 119.623C85.039 119.857 83.715 116.668 83.7083 114.16C83.6886 112.73 84.0693 111.323 84.8074 110.098C85.8222 108.649 87.1005 107.404 88.5758 106.428C89.3799 105.842 90.2036 105.291 91.0338 104.745C91.8273 104.271 92.5874 103.743 93.3088 103.166C93.7873 102.735 94.0954 102.146 94.1774 101.507C94.2593 100.869 94.1096 100.222 93.7554 99.6837C92.9378 98.4578 91.2323 98.2944 89.8803 98.4033C88.3598 98.512 86.928 99.1598 85.8426 100.23L86.2261 100.18C83.8322 98.8425 85.3256 95.3285 86.2424 93.5097C86.9309 92.2987 87.3537 90.955 87.4826 89.5679C87.5802 87.9273 87.0249 86.3065 86.9552 84.6602C86.9621 82.9566 87.0656 81.2547 87.2651 79.5628C87.3206 78.7847 87.3024 78.0031 87.2107 77.2285C87.1338 76.5869 87.0234 76.3868 86.3699 76.2588C84.2976 75.8929 83.4348 78.6131 83.3041 80.1829C83.1853 81.6249 83.7154 82.9629 83.8425 84.3818C83.986 85.917 83.9121 88.117 82.0373 88.4639L82.4397 88.7674C82.399 86.7519 80.0915 86.2251 78.4847 86.7538C76.2649 87.4829 75.8299 89.8635 76.3009 91.9141C76.9364 94.6586 78.7627 96.9616 79.7616 99.5658C80.7118 102.038 81.0644 104.916 79.265 107.089C77.7365 108.93 75.0232 109.747 73.2668 107.735C71.758 106.01 71.599 103.443 70.6259 101.433C70.1056 100.361 69.3168 99.4423 68.3361 98.7659C67.0746 98.0633 65.8914 97.2285 64.8065 96.2756C62.762 94.0403 64.5228 91.4633 65.9754 89.4888C66.792 88.4679 67.5069 87.3697 68.1097 86.2096C68.6027 84.9646 68.8835 83.6457 68.9402 82.3078C68.9757 81.5578 69.1664 80.8233 69.5 80.1506C69.8336 79.478 70.303 78.8818 70.8786 78.3997C72.0722 77.5669 73.3892 76.9266 74.7814 76.5025C76.1088 76.1076 77.3691 75.5148 78.5197 74.744C79.5429 74.0765 80.3254 73.0987 80.7523 71.954C80.8148 71.6289 80.8013 71.2937 80.713 70.9747C80.6247 70.6556 80.4638 70.3613 80.243 70.1146C80.0223 69.8679 79.7475 69.6755 79.4402 69.5524C79.1328 69.4294 78.8012 69.3789 78.4712 69.4051C77.4918 69.5067 77.1273 70.2498 76.4522 70.8189C75.7985 71.3028 75.1155 71.7457 74.4071 72.1452C74.1542 72.3347 73.8513 72.4459 73.5358 72.4649C73.2204 72.4839 72.9063 72.4099 72.6324 72.2521C70.7386 71.2269 71.8325 67.9063 72.5091 66.4697C73.1926 65.228 73.9932 64.0544 74.9 62.9651L78.2275 58.4799L81.5551 53.9947C82.4698 52.7621 83.472 51.5599 84.2707 50.2483C85.2957 48.5524 86.2231 46.3459 85.8248 44.3253C85.7388 43.8949 85.5664 43.4864 85.3179 43.1245C85.0694 42.7627 84.75 42.4551 84.3791 42.2203C84.0082 41.9855 83.5935 41.8285 83.1602 41.7587C82.7268 41.6889 82.2838 41.7078 81.8579 41.8143C79.8521 42.3259 78.4779 44.3993 77.6135 46.1305C76.9314 47.496 76.4238 48.9554 75.8516 50.3686L73.84 55.3382L71.8302 60.3089L72.4468 60.304L71.7135 58.0231C71.563 57.1868 71.1963 56.4045 70.6499 55.7538C70.2365 55.3557 69.7123 55.0921 69.1462 54.9978C68.5801 54.9035 67.9986 54.9828 67.4785 55.2253C66.1455 56.0779 65.1129 57.3266 64.5259 58.7961C61.1527 65.7565 65.1732 73.1579 64.2459 80.3867C63.6733 84.7385 61.633 88.7647 58.4621 91.7997L58.9943 91.9425C58.4684 90.1553 58.0821 88.3298 57.8391 86.4827C57.6916 85.3436 57.9114 83.751 56.8701 82.9731C56.5119 82.709 56.0772 82.5692 55.6322 82.5749C55.1872 82.5806 54.7563 82.7315 54.4049 83.0047C53.4515 83.7787 53.3956 85.5099 53.2571 86.6273C52.449 93.1112 54.8123 99.3956 58.7587 104.471C60.8027 107.057 63.1658 109.374 65.7915 111.367C68.4097 113.386 71.2042 115.174 73.8887 117.095C76.7002 118.985 79.2279 121.265 81.3954 123.869C83.2818 126.277 84.5699 129.099 85.154 132.102C86.4653 138.724 84.6403 145.69 81.9328 151.741C81.7599 152.106 82.3156 152.423 82.4829 152.048Z" fill="#242C5B"/>
<path d="M272.5 2.99999C272.91 3.65999 292.4 35.97 258.45 100.47C224.15 165.65 81.9102 145.28 81.9102 145.28C81.9102 145.28 76.1301 184.31 70.1201 225.54L70.05 226.01C64.18 267.27 58.7101 306.33 58.7101 306.33C58.7101 306.33 200.95 326.7 215.46 398.92C229.82 470.37 202.01 495.86 201.43 496.38C202.6 495.81 277.04 458.82 234.23 345.47C234.23 345.47 320.91 410.55 306.5 475.98C306.5 475.98 364.82 416.88 279.49 313.62C281.13 314.22 386.29 352.71 411.84 390.94C411.84 390.94 434.65 303.99 265.16 253.98C265.14 253.98 265.12 253.96 265.1 253.96C265.1 253.96 265.32 253.92 265.73 253.82C265.36 253.62 265.16 253.51 265.16 253.51L265.22 253.51C441.94 253.38 444.6 163.51 444.6 163.51C409.29 193 297.54 200.25 295.8 200.36C406.81 125.38 367.54 52.22 367.54 52.22C362.89 119.07 261.37 157.04 261.37 157.04C334.43 60.38 273.46 3.87999 272.5 2.99999Z" fill="url(#paint4_linear)"/>
<path d="M265.71 253.84C265.3 253.94 265.08 253.98 265.08 253.98C265.1 253.98 265.12 254 265.14 254L266.29 254.16C266.06 254.04 265.87 253.92 265.71 253.84Z" fill="url(#paint5_linear)"/>
<path d="M214.03 239.66C214.25 240.22 224.8 267.61 190.04 312.42C154.92 357.69 72.6201 330.57 72.6201 330.57C72.6201 330.57 62.9 359.68 52.7 390.45L52.58 390.8C42.49 421.61 33.0001 450.79 33.0001 450.79C33.0001 450.79 115.3 477.91 116.62 535.2C117.93 591.88 93.1601 607.64 92.6501 607.96C93.6201 607.68 155.67 589.45 138.25 496.81C138.25 496.81 195.82 558.42 175.9 606.59C175.9 606.59 228.59 569.23 177.23 478.55C178.4 479.23 253.74 522.98 268.12 555.74C268.12 555.74 297.39 492.23 174.34 430.92C174.33 430.92 174.31 430.9 174.29 430.9C174.29 430.9 174.46 430.9 174.79 430.88C174.53 430.68 174.4 430.56 174.4 430.56C174.4 430.56 174.44 430.56 174.45 430.57C309.84 454.44 324.06 385.97 324.06 385.97C293.02 403.75 206.44 394.15 205.09 394C300.3 351.63 280.14 290.25 280.14 290.25C267.51 340.83 184.59 356.14 184.59 356.14C253.69 292.01 214.65 240.46 214.03 239.66Z" fill="url(#paint6_linear)"/>
<path d="M131.02 457.63C130.69 457.6 130.52 457.57 130.52 457.57C130.52 457.57 130.55 457.59 130.56 457.6L131.36 458.02C131.23 457.87 131.11 457.73 131.02 457.63Z" fill="url(#paint7_linear)"/>
<path d="M193.51 211.44C207.4 193.96 207.1 178.54 197.62 171.01C188.14 163.48 173.06 166.68 159.17 184.16C145.28 201.64 151.2 229.45 151.2 229.45C151.2 229.45 179.62 228.92 193.51 211.44Z" fill="#484D66"/>
<path d="M219.05 227.33C223.92 208.96 218.44 197.04 208.47 194.4C198.5 191.76 187.84 199.4 182.97 217.76C178.1 236.12 192.19 255.8 192.19 255.8C192.19 255.8 214.18 245.7 219.05 227.33Z" fill="#5C637F"/>
<path d="M236.72 193.5C216.11 199.78 202.38 194.06 198.98 182.87C195.58 171.68 203.79 159.28 224.4 153.01C245.01 146.74 267.88 161.89 267.88 161.89C267.88 161.89 257.33 187.22 236.72 193.5Z" fill="#484D66"/>
<path d="M251.04 224.15C232.52 226.11 221.8 219.01 220.74 208.97C219.68 198.93 228.67 189.74 247.19 187.77C265.71 185.8 282.65 202.4 282.65 202.4C282.65 202.4 269.56 222.18 251.04 224.15Z" fill="#5C637F"/>
<path d="M247.57 248.84C246.45 232.08 238.49 223.66 229.4 224.26C220.31 224.86 213.54 234.28 214.66 251.04C215.78 267.8 233.15 280.28 233.15 280.28C233.15 280.28 248.69 265.6 247.57 248.84Z" fill="#6E7499"/>
<path d="M269.43 222.66C254.37 220.68 245.48 226.24 244.4 234.41C243.32 242.58 250.47 250.26 265.53 252.24C280.59 254.22 294.75 241.04 294.75 241.04C294.75 241.04 284.49 224.65 269.43 222.66Z" fill="#6E7499"/>
<path d="M270.79 268.65C268.83 255.1 261.83 248.74 254.48 249.8C247.13 250.86 242.21 258.94 244.17 272.49C246.13 286.04 261.02 295.11 261.02 295.11C261.02 295.11 272.74 282.21 270.79 268.65Z" fill="#8A92B7"/>
<path d="M297.35 259.08C286.39 250.88 276.94 251.34 272.49 257.28C268.04 263.22 270.27 272.42 281.24 280.62C292.21 288.82 309.15 284.7 309.15 284.7C309.15 284.7 308.31 267.28 297.35 259.08Z" fill="#8A92B7"/>
<path d="M87.85 379.78C83.82 357.82 72.02 347.9 60.11 350.09C48.2 352.28 40.6899 365.74 44.7099 387.7C48.7299 409.66 73.5699 423.5 73.5699 423.5C73.5699 423.5 91.88 401.74 87.85 379.78Z" fill="#484D66"/>
<path d="M116.63 370.99C106 355.24 93.4201 351.53 84.8701 357.29C76.3201 363.05 75.0601 376.12 85.6801 391.87C96.3001 407.62 120.39 409.95 120.39 409.95C120.39 409.95 127.25 386.74 116.63 370.99Z" fill="#5C637F"/>
<path d="M102.77 335.43C93.9402 355.08 80.5901 361.66 69.9301 356.87C59.2701 352.08 55.3302 337.73 64.1602 318.08C72.9902 298.43 99.4501 291.18 99.4501 291.18C99.4501 291.18 111.61 315.78 102.77 335.43Z" fill="#484D66"/>
<path d="M135.27 344.81C124.57 360.05 112.17 363.45 103.9 357.64C95.63 351.83 94.6299 339.01 105.34 323.78C116.05 308.55 139.69 306.71 139.69 306.71C139.69 306.71 145.98 329.57 135.27 344.81Z" fill="#5C637F"/>
<path d="M151.59 363.67C138.24 353.49 126.65 353.94 121.12 361.19C115.59 368.44 118.23 379.73 131.59 389.91C144.95 400.09 165.77 395.22 165.77 395.22C165.77 395.22 164.94 373.85 151.59 363.67Z" fill="#6E7499"/>
<path d="M146.25 329.99C134.85 340.03 133.19 350.39 138.64 356.57C144.09 362.75 154.57 362.43 165.97 352.39C177.37 342.35 176.76 323.01 176.76 323.01C176.76 323.01 157.66 319.95 146.25 329.99Z" fill="#6E7499"/>
<path d="M181.78 359.22C170.29 351.78 160.9 352.87 156.86 359.1C152.82 365.33 155.67 374.35 167.16 381.79C178.65 389.23 195.28 383.98 195.28 383.98C195.28 383.98 193.27 366.66 181.78 359.22Z" fill="#8A92B7"/>
<path d="M192.04 332.92C178.65 335.78 172.78 343.2 174.33 350.46C175.88 357.72 184.27 362.09 197.66 359.22C211.05 356.35 219.09 340.89 219.09 340.89C219.09 340.89 205.43 330.05 192.04 332.92Z" fill="#8A92B7"/>
<path d="M110.384 372.268C123.814 347.468 103.273 310.623 83.6149 284.013C95.6629 292.823 123.655 314.564 133.891 333.7C147.117 358.385 154.25 346.677 154.25 346.677C157.398 320.248 128.5 295.02 101.641 277.604C118.041 283.175 141.658 292.596 154.318 304.169C174.949 323.056 177.825 309.669 177.825 309.669C172.095 283.969 137.125 269.769 106.238 262.156C118.538 260.525 157.805 256.177 179.976 263.673C206.476 272.641 203.687 259.234 203.687 259.234C189.895 240.46 158.824 239.146 130.153 242.883C155.132 234.549 178.413 221.346 183.011 200.783C183.011 200.783 180.157 187.376 159.503 206.264C145.326 219.241 117.289 229.564 101.165 234.731C127.752 217.316 155.925 192.381 152.8 166.27C152.8 166.27 145.666 154.584 132.463 179.247C122.657 197.523 96.7039 218.2 83.8849 227.666C103.385 201.124 123.426 164.73 110.11 140.136C110.11 140.136 99.1719 131.915 95.9779 159.703C94.5289 172.503 87.5989 188.465 80.5329 201.962C86.0809 183.233 87.4859 164.3 77.4329 152.162C77.4329 152.162 67.0379 147.162 68.9629 170.662C70.8879 194.162 53.9249 234.254 53.9249 234.254L51.9999 246.982L51.9999 265.643L53.9249 278.371C53.9249 278.371 70.8879 318.456 68.9629 341.963C67.0379 365.493 77.4329 360.488 77.4329 360.488C87.7829 347.988 85.9939 328.288 80.0329 309.012C87.3479 322.804 94.7079 339.449 96.2479 352.698C99.4229 380.511 110.384 372.268 110.384 372.268ZM60.0629 256.588L60.1079 256.543L60.1989 256.679L60.0629 256.588ZM58.7039 254.097C58.7628 254.123 58.8232 254.146 58.8849 254.165L58.7459 254.165C58.6807 254.148 58.6133 254.14 58.5459 254.142L58.4549 253.983C58.4549 253.983 58.5229 254.006 58.6819 254.074C58.6819 254.077 58.6825 254.08 58.6836 254.082C58.6847 254.085 58.6863 254.088 58.6883 254.09C58.6904 254.092 58.6928 254.093 58.6955 254.094C58.6981 254.095 58.701 254.096 58.7039 254.096L58.7039 254.097ZM56.8039 253.984L56.7809 254.052L56.7129 253.984L56.7579 253.984C56.7809 253.939 56.8029 253.916 56.8259 253.871L56.8039 253.984ZM57.2799 259.578L57.2569 259.51L57.3019 259.555C57.2988 259.555 57.2955 259.555 57.2925 259.556C57.2895 259.557 57.2867 259.558 57.2843 259.56C57.282 259.562 57.2801 259.565 57.2788 259.568C57.2775 259.571 57.2769 259.574 57.2769 259.577L57.2799 259.578Z" fill="#6871C3"/>
<defs>
<linearGradient id="paint0_linear" x1="23.0089" y1="379.66" x2="257.244" y2="379.66" gradientUnits="userSpaceOnUse">
<stop offset="0.045" stop-color="#171543"/>
<stop offset="1" stop-color="#232C5A"/>
</linearGradient>
<linearGradient id="paint1_linear" x1="235.542" y1="379.179" x2="235.542" y2="379.417" gradientUnits="userSpaceOnUse">
<stop stop-color="#171543"/>
<stop offset="0.527" stop-color="#232C5A"/>
</linearGradient>
<linearGradient id="paint2_linear" x1="44.8233" y1="505.574" x2="349.239" y2="695.614" gradientUnits="userSpaceOnUse">
<stop stop-color="#171543"/>
<stop offset="0.527" stop-color="#232C5A"/>
</linearGradient>
<linearGradient id="paint3_linear" x1="97.9401" y1="622.571" x2="97.9401" y2="623.017" gradientUnits="userSpaceOnUse">
<stop stop-color="#171543"/>
<stop offset="1" stop-color="#232C5A"/>
</linearGradient>
<linearGradient id="paint4_linear" x1="56.0089" y1="214.66" x2="290.244" y2="214.66" gradientUnits="userSpaceOnUse">
<stop offset="0.045" stop-color="#171543"/>
<stop offset="1" stop-color="#232C5A"/>
</linearGradient>
<linearGradient id="paint5_linear" x1="268.542" y1="214.179" x2="268.542" y2="214.417" gradientUnits="userSpaceOnUse">
<stop stop-color="#171543"/>
<stop offset="0.527" stop-color="#232C5A"/>
</linearGradient>
<linearGradient id="paint6_linear" x1="77.8233" y1="340.574" x2="382.239" y2="530.614" gradientUnits="userSpaceOnUse">
<stop stop-color="#171543"/>
<stop offset="0.527" stop-color="#232C5A"/>
</linearGradient>
<linearGradient id="paint7_linear" x1="130.94" y1="457.571" x2="130.94" y2="458.017" gradientUnits="userSpaceOnUse">
<stop stop-color="#171543"/>
<stop offset="1" stop-color="#232C5A"/>
</linearGradient>
</defs>
</svg>
