<svg width="41" height="51" viewBox="0 0 41 51" fill="none" xmlns="http://www.w3.org/2000/svg">
<path d="M6.67957 30.7134L7.05381 29.7003C7.56943 28.3045 8.12865 27.2062 8.73146 26.4055C9.39594 25.5764 10.2156 24.8813 11.1903 24.3203C12.2102 23.776 13.55 23.1964 15.2099 22.5815C17.2232 21.8412 18.7148 21.2665 19.6847 20.8572C20.6546 20.4479 21.3474 19.6805 21.7633 18.5548C22.6115 16.2585 21.0996 14.3951 17.2273 12.9647C15.2912 12.2495 13.3145 11.8519 11.2972 11.7719C9.34163 11.6635 7.67625 11.7391 6.3011 11.9987L10.4676 0.719673C12.7863 0.399288 15.3204 0.465492 18.0698 0.918282C20.8809 1.34268 23.6373 2.05386 26.3388 3.05184C32.0121 5.14758 35.9472 7.93166 38.1441 11.404C40.3576 14.8314 40.6992 18.6163 39.169 22.7587C38.2874 25.1451 37.1562 27.0299 35.7753 28.4131C34.4561 29.7679 32.4224 30.9099 29.6741 31.8392C28.5075 32.2269 27.3575 32.5697 26.2241 32.8674C25.1357 33.1817 24.1825 33.5459 23.3643 33.9601C22.5627 34.3292 22.0205 34.8965 21.7378 35.6619L21.5382 36.2022L6.67957 30.7134ZM0.701557 43.7794L4.8681 32.5004L21.7529 38.7377L17.5863 50.0167L0.701557 43.7794Z" fill="#F9EC79"/>
</svg>
