<svg width="568" height="263" viewBox="0 0 568 263" fill="none" xmlns="http://www.w3.org/2000/svg">
<path d="M567.992 163.541C567.992 210.958 445.994 263 295.5 263C145.005 263 23.0081 210.958 23.0081 163.541C23.0081 116.123 145.005 91.2798 295.5 91.2798C445.994 91.2798 567.992 116.123 567.992 163.541Z" fill="#EFD0A3"/>
<path d="M295.5 249.401C445.993 249.401 567.992 210.96 567.992 163.54C567.992 116.121 445.993 77.6803 295.5 77.6803C145.007 77.6803 23.0081 116.121 23.0081 163.54C23.0081 210.96 145.007 249.401 295.5 249.401Z" fill="#FFE9C7"/>
<path opacity="0.66" d="M37.5032 169.251C39.368 175.093 43.1103 180.165 47.2951 184.644C58.3386 196.456 72.9854 204.863 88.7637 208.451C91.8801 209.158 95.85 209.354 97.5378 206.644C98.7768 204.661 98.0499 201.926 96.4758 200.189C94.9018 198.452 92.683 197.479 90.5337 196.544C80.5837 192.23 70.5832 187.669 62.182 180.816C53.7809 173.963 47.0359 164.469 45.6641 153.725C44.9498 148.109 41.3403 148.337 38.4198 152.228C35.2274 156.479 36.0239 164.602 37.5032 169.251Z" fill="white"/>
<path opacity="0.66" d="M109.567 212.474C107.62 212.076 106.337 214.887 107.266 216.637C108.196 218.387 110.244 219.17 112.121 219.814C115.054 220.818 117.988 221.816 120.921 222.821C122.311 223.295 123.746 223.781 125.219 223.705C126.692 223.636 128.228 222.884 128.791 221.52C129.777 219.132 127.413 216.732 125.162 215.462C120.289 212.708 114.663 211.312 109.068 211.476L109.567 212.474Z" fill="white"/>
<path opacity="0.66" d="M545.253 160.104C543.755 161.993 543.376 164.501 543.009 166.882C541.897 174.026 540.171 181.523 535.12 186.697C531.574 190.329 526.485 192.723 524.443 197.372C523.969 198.445 523.862 200.006 524.924 200.498C525.347 200.694 525.84 200.65 526.302 200.574C531.1 199.81 535.177 196.696 538.711 193.367C545.456 187.006 551.069 179.452 555.21 171.158C556.366 168.84 557.435 166.326 557.157 163.755C556.594 158.595 548.585 155.904 545.253 160.104Z" fill="white"/>
<path d="M30.8718 117.79C30.3092 113.015 31.6241 107.279 36.0491 105.384C39.0644 104.09 42.8004 104.936 45.5502 103.148C49.6655 100.47 48.692 94.2864 47.2317 89.5995C52.3078 90.6733 57.8517 86.6118 58.3511 81.4512C58.6229 78.6214 57.5862 75.8485 57.0236 73.0629C55.5697 65.8495 57.4472 58.0297 62.0112 52.2564C66.5816 46.4831 73.7565 42.8574 81.1209 42.6048C82.7076 42.5479 84.3638 42.6616 85.7356 43.4575C87.1389 44.266 88.0619 45.6683 89.0291 46.9695C90.7485 49.2939 92.8156 51.4794 95.4706 52.629C98.1256 53.7787 101.47 53.6902 103.657 51.7953C106.887 48.9907 107.917 42.6111 112.166 43.0911C114.157 43.3185 115.693 45.2324 117.697 45.2893C119.916 45.3524 121.565 43.1354 123.74 42.6932C126.357 42.1626 128.873 44.3039 131.541 44.1018C136.547 43.7165 139.107 35.5745 143.988 36.7494C145.498 37.1094 146.643 38.3474 148.084 38.9222C152.174 40.5456 156.074 36.5093 160.088 34.7218C164.052 32.9532 168.951 33.4964 172.428 36.0925C175.905 38.6885 177.814 43.2301 177.245 47.5316C184.533 41.2846 196.007 40.5393 204.041 45.7946C208.409 48.6497 211.621 52.9259 214.604 57.2022C219.377 64.043 223.859 71.2817 225.951 79.3541C229.447 92.8462 225.755 107.564 218.018 119.154C210.281 130.751 198.826 139.475 186.493 145.987C177.302 150.844 167.377 154.622 157.022 155.537C143.861 156.706 130.788 153.226 117.634 151.975C98.2773 150.137 78.4533 153.188 59.3689 148.589C45.5881 145.267 32.6039 132.489 30.8718 117.79Z" fill="#CFF47D"/>
<path d="M74.2496 142.279C65.9685 140.384 59.5586 134.055 52.2257 129.766C37.3261 121.062 17.6222 121.315 2.95644 130.398C1.59101 131.244 0.143401 132.369 0.0106507 133.967C-0.229564 136.809 3.66444 138.243 4.53048 140.965C5.39019 143.656 3.04494 146.176 1.67951 148.646C-1.30421 154.034 0.781866 161.633 6.09819 164.747C6.95791 165.252 7.91877 165.675 8.50666 166.478C9.51809 167.848 9.1072 169.75 8.7848 171.417C6.97687 180.822 9.78991 191.099 16.459 197.978C23.1281 204.857 33.5648 207.99 42.8257 205.507C47.2634 204.32 51.3217 201.964 55.7784 200.827C61.6573 199.33 68.0862 200.107 73.4468 202.955C77.1701 204.939 80.3055 207.832 83.5674 210.51C89.5348 215.418 96.0333 219.681 102.911 223.206C109.997 226.838 118.607 229.662 125.712 226.074C129.587 224.116 132.925 220.313 137.262 220.54C139.569 220.661 141.642 221.949 143.899 222.435C150.676 223.882 156.89 217.97 163.799 217.458C169.217 217.06 174.76 220.023 179.938 218.387C186.815 216.214 188.876 207.56 189.078 200.353C189.369 190.019 187.827 178.864 180.791 171.284C176.543 166.711 170.734 163.938 164.937 161.633C149.121 155.342 133.203 154.123 116.843 150.516C110.895 149.208 105.952 145.854 100.25 143.985C91.7726 141.218 82.8278 144.244 74.2496 142.279Z" fill="#B5E07E"/>
<path d="M87.2022 149.278C84.661 150.251 82.164 152.171 81.81 154.868C81.4497 157.59 83.3714 160.073 85.3943 161.93C89.2188 165.442 93.8461 168.069 97.3418 171.904C101.735 176.723 104.049 183.103 108.17 188.162C115.484 197.132 127.375 200.757 138.614 203.524C149.336 206.164 160.145 208.451 171.024 210.377C174.35 210.965 177.744 211.527 181.095 211.066C181.632 210.99 182.188 210.883 182.612 210.554C183.117 210.163 183.37 209.525 183.471 208.893C183.914 206.126 181.929 203.593 179.919 201.642C167.213 189.293 149.323 184.271 133.589 176.11C124.499 171.398 116.009 165.543 108.373 158.734C105.617 156.277 103.903 152.727 101.198 150.453C97.6579 147.471 91.2416 147.73 87.2022 149.278Z" fill="#A1C470"/>
<path d="M14.1959 136.032C24.0131 136.986 32.8505 141.401 40.8218 146.998C48.5782 152.442 54.7037 159.713 62.0113 165.713C76.9615 177.993 95.1861 183.04 113.638 187.543C117.842 188.566 119.637 182.079 115.427 181.062C106.002 178.782 96.5453 176.477 87.474 172.996C78.3016 169.478 70.1975 164.374 62.1756 158.778C54.4951 153.421 46.4732 148.084 38.3248 143.473C30.8845 139.266 22.7994 136.228 14.2022 135.811C14.0505 135.805 14.0505 136.019 14.1959 136.032Z" fill="#A1C470"/>
<path d="M26.5291 186.57C32.0477 179.888 42.4528 177.171 50.6327 175.605C59.4575 173.918 68.8638 173.64 77.758 174.834C79.9832 175.131 80.0654 171.474 77.758 171.278C67.7575 170.451 58.2374 171.367 48.6289 174.209C40.8914 176.496 31.2955 179.654 26.3079 186.4C26.2194 186.526 26.428 186.69 26.5291 186.57Z" fill="#A1C470"/>
<path d="M69.2683 195.117C72.4227 193.512 75.1093 191.03 78.3143 189.419C81.6963 187.72 85.3501 186.602 89.0734 185.977C92.9295 185.332 96.8551 185.193 100.762 185.257C104.264 185.32 108.537 186.375 111.9 185.49C113.784 184.991 113.55 182.496 111.9 181.902C110.054 181.233 108.044 181.505 106.091 181.492C103.96 181.479 101.83 181.498 99.6997 181.599C95.5149 181.789 91.3112 182.244 87.2402 183.254C80.8618 184.846 72.0371 188.415 68.6299 194.466C68.3833 194.896 68.8574 195.325 69.2683 195.117Z" fill="#A1C470"/>
<path d="M103.929 215.443C106.628 210.245 109.953 205.539 114.871 202.197C117.159 200.637 119.644 199.557 122.324 198.875C124.91 198.212 128.089 198.685 130.416 197.454C131.964 196.633 131.313 194.662 129.979 194.106C127.388 193.026 123.481 194.731 121.041 195.755C118.158 196.955 115.408 198.61 112.943 200.517C108.253 204.137 104.34 209.253 103.278 215.171C103.202 215.544 103.726 215.835 103.929 215.443Z" fill="#A1C470"/>
<path d="M58.1303 140.568C58.1687 140.568 58.1687 140.51 58.1303 140.51C58.0918 140.504 58.0918 140.568 58.1303 140.568Z" fill="#A1C470"/>
<path d="M57.9655 140.428C56.4294 144.945 57.4472 150.124 59.0844 154.476C59.9125 156.681 60.9556 158.79 62.1061 160.843C63.2439 162.865 64.2553 165.157 66.2656 166.402C67.3402 167.065 68.7309 165.966 68.3896 164.772C67.8586 162.896 66.5058 161.696 65.3553 160.142C64.0215 158.342 62.8267 156.441 61.8153 154.438C59.5332 149.947 58.9201 145.475 58.623 140.511C58.5977 140.138 58.0856 140.068 57.9655 140.428Z" fill="#A1C470"/>
<path d="M74.5467 146.966C73.2508 152.657 73.7502 158.588 76.0006 163.995C77.8781 168.511 81.5066 175.093 86.412 176.837C87.632 177.272 88.8015 175.7 88.1061 174.632C86.8735 172.75 84.8506 171.373 83.3714 169.648C81.5824 167.551 80.0653 165.271 78.8642 162.789C76.4874 157.875 75.3305 152.518 75.3116 147.067C75.3116 146.644 74.6478 146.53 74.5467 146.966Z" fill="#A1C470"/>
<path d="M442.328 154.729C453.713 155.689 464.409 159.605 471.451 165.391C465.743 161.064 457.607 158.064 448.877 157.072C453.207 158.19 456.848 160.148 460.407 162.075C459.522 161.367 458.207 160.887 456.804 160.755C461.229 163.048 465.49 165.524 468.777 168.492C472.064 171.461 474.333 174.98 474.416 178.618C470.939 172.459 465.325 166.787 458.094 162.138C462.019 166.13 465.079 170.476 467.159 174.998C467.304 175.314 467.399 175.725 466.982 175.921C464.124 172.642 461.868 169.175 459.2 165.833C458.283 164.684 457.316 163.547 456.071 162.53C454.737 161.437 453.106 160.515 451.488 159.593C450.078 158.79 448.675 157.994 447.265 157.192C447.107 157.331 447.233 157.527 447.353 157.679C448.08 158.632 448.434 159.681 448.928 160.692C451.001 164.911 455.723 168.594 456.418 172.99C453.182 170.356 451.165 167.204 449.37 164.065C448.074 161.797 446.867 159.504 445.748 157.192C445.274 157.274 445.021 157.622 445.052 157.938C445.084 158.247 445.324 158.538 445.533 158.816C446.513 160.136 446.962 161.614 446.816 163.073C445.122 161.671 444.167 159.921 444.13 158.152C444.117 157.685 444.161 157.186 443.813 156.769C443.415 156.302 442.6 156.043 441.81 155.878C439.445 155.386 436.797 155.468 434.515 156.093C435.02 155.954 435.583 155.222 436.127 154.981C436.594 154.779 436.967 154.685 437.511 154.621C439.034 154.457 440.804 154.602 442.328 154.729Z" fill="#599A0C"/>
<path d="M521.023 121.611C527.737 121.706 534.381 122.452 540.987 123.203C533.331 123.443 525.619 121.39 518.135 122.439C522.395 122.59 526.631 123.071 530.721 123.866C525.107 124.208 519.462 123.626 513.893 123.052C518.722 124.53 523.868 125.578 529.147 126.153C523.799 126.57 518.476 125.528 513.242 124.707C508.058 123.892 503.172 123.544 497.95 124.372C505.473 122.723 513.008 121.498 521.023 121.611Z" fill="#599A0C"/>
<path d="M482.981 130.069C491.863 130.423 501.01 131.042 508.804 133.783C509.499 134.03 510.201 134.301 510.669 134.706C506.37 133.411 501.787 132.514 497.097 132.04C506.92 133.777 515.081 138.672 519.057 144.66C516.169 142.121 512.938 139.746 509.411 137.554C506.427 135.704 503.14 133.954 499.233 133.038C502.685 134.889 506.25 136.828 508.058 139.462C502.71 135.363 495.396 132.318 487.355 130.846C493.083 134.131 498.81 137.409 504.543 140.694C505.112 141.022 505.719 141.388 505.833 141.869C501.37 140.372 497.603 138.167 493.709 136.12C489.815 134.074 485.611 132.128 480.743 131.288C478.809 130.954 476.71 130.808 474.826 131.25C476.053 130.966 476.957 130.328 478.354 130.132C479.858 129.924 481.47 130.006 482.981 130.069Z" fill="#79B61B"/>
<path d="M499.55 115.706C500.251 114.821 501.022 113.886 502.369 113.394C500.928 115.39 499.48 117.386 498.039 119.382C502.066 115.8 506.332 112.086 512.483 110.078C509.36 112.351 506.238 114.625 503.115 116.899C502.698 117.203 502.255 117.55 502.287 117.954C505.764 115.687 509.329 113.375 513.76 111.928C515.581 111.334 517.755 110.892 519.639 111.398C518.198 112.238 516.377 112.743 514.633 113.299C508.931 115.118 503.772 117.638 499.518 120.67C501.345 119.23 503.981 118.219 506.832 117.872C503.399 120.5 497.609 121.321 493.538 123.544C491.983 124.391 490.813 125.496 489.284 126.342C488.816 125.881 493.886 122.287 494.619 121.536C496.452 119.66 497.995 117.676 499.55 115.706Z" fill="#79B61B"/>
<path d="M469.674 136.083C471.552 136.499 473.252 137.188 474.927 137.87C483.373 141.319 491.825 144.768 500.27 148.21C498.823 148.198 497.52 147.692 496.294 147.206C490.225 144.78 484.15 142.361 478.082 139.942C476.11 139.152 474.093 138.357 471.836 138.003C472.02 138.622 472.974 138.995 473.821 139.317C476.527 140.34 479.043 141.559 481.306 142.949C482.602 143.745 483.879 144.679 484.087 145.823C479.795 143.397 475.357 141.073 470.793 138.856C471.002 139.67 472.095 140.258 473.082 140.801C478.897 144.003 483.228 148.292 485.389 152.992C485.611 153.472 485.781 154.047 485.282 154.432C483.708 153.402 482.798 152.044 481.748 150.775C479.959 148.615 477.684 146.637 475.408 144.673C473.037 142.62 470.661 140.567 468.29 138.514C468.663 139.285 469.049 140.1 468.758 140.883C467.607 140.144 467.696 138.957 467.152 137.978C466.552 136.885 465.155 136.152 463.505 135.742C465.559 135.691 467.702 135.647 469.674 136.083Z" fill="#599A0C"/>
<path d="M469.744 133.272C475.256 127.985 477.039 121.51 478.695 115.244C478.929 119.54 477.633 123.866 474.934 127.802C478.366 124.883 480.168 121.315 481.35 117.746C482.532 114.177 483.152 110.532 484.542 106.995C485.238 105.22 486.199 103.395 488.247 102.106C482.349 108.46 485.092 116.861 479.883 123.456C481.919 121.182 484.416 119.085 487.305 117.221C488.127 116.691 489.094 116.148 490.257 116.135C489.726 117.127 488.089 117.657 486.881 118.365C485.067 119.432 484.176 120.973 482.817 122.287C480.528 124.504 476.919 126.077 474.75 128.345C473.208 129.962 472.481 131.85 470.92 133.461C470.711 132.994 470.781 132.476 471.116 132.034L469.744 133.272Z" fill="#599A0C"/>
<path d="M466.273 87.3824C471.457 89.8205 473.543 94.0589 475.319 98.0067C474.675 91.5891 471.312 85.399 470.142 79.013C469.921 77.7939 469.801 76.4927 470.724 75.4126C472.601 77.2254 473.221 79.4362 473.802 81.5712C475.092 86.3149 476.381 91.0712 476.976 95.8717C477.266 93.6231 477.918 91.387 478.904 89.2205C479.384 88.1719 479.997 87.0855 481.318 86.3907C479.782 93.402 478.682 100.439 477.279 107.463C475.813 104.159 475.743 100.679 474.03 97.3624C472.197 93.8189 469.586 90.4459 466.273 87.3824Z" fill="#599A0C"/>
<path d="M456.026 102.094C450.027 100.584 443.738 99.289 437.29 99.3901C435.551 99.4153 433.63 99.6048 432.504 100.451C436.051 100.293 439.622 100.129 443.143 100.432C447.695 100.824 452 101.967 456.153 103.224C460.274 104.469 464.308 105.833 468.239 107.305C454.377 103.174 437.694 103.963 423.787 108.031C422.074 108.53 420.279 109.149 419.457 110.235C422.302 109.616 425.134 108.979 428.029 108.454C440.849 106.13 454.667 106.105 467.506 108.378C460.559 108.303 453.504 108.239 446.791 109.389C443.263 109.995 439.698 111.019 437.618 112.939C444.224 112.111 450.558 110.532 457.164 109.718C463.777 108.903 471.008 108.934 476.78 111.139C476.862 108.574 471.362 106.957 468.239 105.789C464.352 104.317 460.218 103.142 456.026 102.094Z" fill="#599A0C"/>
<path d="M472.494 120.178C475.478 117.361 478.525 114.708 482.57 112.434C485.061 111.031 487.729 109.749 490.459 108.543C491.996 107.867 494.025 106.881 495.927 106.875C493.57 108.903 489.1 110.21 485.927 111.676C483.455 112.813 478.246 115.2 477.753 117.285C481.287 114.537 485.478 112.352 490.213 110.469C493.57 109.13 498.083 107.898 501.964 107.412C503.962 107.159 507.546 106.66 509.348 107.488C507.957 108.05 505.732 108.025 504.107 108.227C500.068 108.726 496.446 109.838 492.779 110.962C488.146 112.389 484.397 114.303 480.712 116.527C482.469 115.074 485.567 114.006 488.222 113.4C489.966 113.002 494.366 111.897 495.953 112.857C492.874 113.893 488.993 114.158 485.788 115.162C483.127 115.99 480.87 117.152 478.613 118.352C475.111 120.209 470.914 122.641 468.96 125.319C470.155 123.494 471.457 121.473 473.196 119.837C473.151 119.994 473.031 120.127 472.494 120.178Z" fill="#79B61B"/>
<path d="M450.476 103.812C447.752 102.536 444.654 101.392 441.278 101.342C447.562 103.951 453.997 106.641 458.378 110.526C459.149 111.208 459.87 111.96 460.034 112.8C454.863 109.888 449.225 107.273 442.979 105.403C436.733 103.534 429.849 102.435 422.953 102.611C435.52 104.854 447.853 108.031 458.239 113.065C459.168 113.514 460.173 114.259 459.579 114.897C458.359 114.569 457.297 114.038 456.216 113.545C449.869 110.665 442.334 108.852 434.578 108.359C433.832 108.309 432.751 108.505 432.928 108.966C432.985 109.111 433.168 109.218 433.345 109.313C435.381 110.368 438.175 110.52 440.747 110.842C446.98 111.631 452.632 113.691 457.954 115.901C460.869 117.108 463.757 118.396 466.014 120.083C468.265 121.769 469.845 123.923 469.7 126.14C469.801 124.53 470.787 123.57 470.085 121.94C469.333 120.203 468.341 118.504 467.152 116.874C464.775 113.602 461.583 110.57 457.727 107.936C455.527 106.42 453.093 105.037 450.476 103.812Z" fill="#79B61B"/>
<path d="M424.666 107.627C424.362 106.881 423.945 106.041 422.858 105.707C422.763 105.972 422.82 106.25 422.889 106.521C423.895 110.621 426.373 114.543 427.081 118.668C426.398 117.626 425.557 116.628 424.691 115.642C419.122 109.301 412.124 103.142 402.124 99.6553C401.131 99.3079 400.069 98.9858 398.938 98.9731C399.664 99.7438 400.853 100.287 401.972 100.837C408.262 103.932 413.199 107.993 418.054 112.004C420.683 114.171 423.332 116.369 425.115 118.864C422.396 116.634 419.387 114.543 416.125 112.629C413.546 111.113 410.746 109.68 407.471 108.865C406.757 108.688 405.878 108.555 405.272 108.852C406.289 109.743 407.788 110.343 409.216 110.962C419.286 115.333 427.302 121.611 431.967 128.793C431.373 127.884 431.208 126.456 430.899 125.471C430.444 124.037 429.988 122.603 429.527 121.176C428.585 118.289 427.612 115.402 426.556 112.528C425.949 110.886 425.323 109.256 424.666 107.627Z" fill="#599A0C"/>
<path d="M430.153 138.9C429.059 137.213 427.959 135.52 426.6 133.91C423.079 129.747 417.87 126.216 411.922 123.393C410.727 122.824 409.406 122.262 407.92 122.237C408.002 122.755 408.742 123.108 409.412 123.412C414.147 125.547 418.319 128.193 421.707 131.2C416.789 128.528 411.517 126.02 405.499 124.511C402.478 123.753 398.994 123.266 396.036 124.125C397.446 124.504 398.963 124.688 400.448 124.915C408.824 126.185 416.644 128.907 422.858 132.703C419.198 131.579 415.304 130.764 411.302 130.303C410.044 130.158 408.635 130.069 407.611 130.549C410.746 131.623 414.52 131.636 417.826 132.476C420.588 133.183 422.934 134.453 424.811 135.931C426.689 137.403 428.13 139.083 429.464 140.782C431.208 142.999 432.738 145.292 433.137 147.781C433.516 144.528 432.081 141.868 430.153 138.9Z" fill="#599A0C"/>
<path d="M438.396 146.511C440.994 145.26 443.87 144.104 447.101 143.852C443.289 145.109 439.692 146.631 436.398 148.387C439.161 146.915 442.593 146.056 446.039 145.387C454.87 143.669 464.598 143.069 473.214 145.178C462.771 144.224 451.842 144.73 442.17 147.421C440.887 147.781 439.603 148.185 438.592 148.804C443.655 147.155 449.541 146.543 455.167 147.086C456.096 147.174 457.095 147.32 457.721 147.774C456.621 147.901 455.489 147.825 454.37 147.774C445.217 147.357 435.608 148.861 428.686 152.695C430.235 151.842 431.164 150.535 432.669 149.619C434.477 148.513 436.392 147.471 438.396 146.511Z" fill="#599A0C"/>
<path d="M422.08 150.712C418.389 146.884 414.065 143.227 408.439 140.517C406.827 139.74 405.082 139.032 403.129 138.698C403.242 139.02 403.691 139.247 404.108 139.449C409.627 142.128 414.57 145.286 418.781 148.798C419.798 149.65 420.81 150.592 420.879 151.659C418.167 149.745 415.455 147.831 412.744 145.917C410.79 144.534 408.831 143.157 406.7 141.881C404.045 140.289 401.137 138.875 398.034 137.662C395.391 136.626 392.433 135.716 389.335 135.83C389.108 135.836 388.849 135.868 388.754 136C388.608 136.196 388.962 136.379 389.259 136.481C400.935 140.327 411.429 145.69 419.526 152.291C414.722 149.701 409.836 147.08 404.134 145.387C402.838 145.002 401.491 144.667 400.082 144.515C399.69 144.471 399.19 144.477 399.02 144.705C398.836 144.951 399.209 145.216 399.557 145.374C401.472 146.246 403.748 146.732 405.828 147.44C409.671 148.747 412.763 150.787 416.372 152.335C418.332 153.181 420.449 153.883 422.283 154.83C423.376 155.398 424.369 156.068 425.083 156.845C425.639 157.451 425.721 158.222 426.24 158.784C427.156 157.963 426.505 156.542 426.031 155.695C425.051 153.933 423.61 152.297 422.08 150.712Z" fill="#599A0C"/>
<path d="M442.334 135.647C445.552 134.068 449.104 132.798 452.518 131.408C453.757 130.903 455.04 130.341 455.691 129.494C455.426 129.33 454.983 129.412 454.642 129.507C451.405 130.385 448.314 131.484 445.438 132.779C443.655 133.581 441.936 134.472 439.932 135.021C440.577 133.941 441.961 133.12 443.295 132.337C447.67 129.772 451.993 127.164 456.077 124.403C457.392 123.519 458.694 122.603 459.649 121.542C460.041 121.106 460.211 120.386 459.453 120.241C459.2 120.19 458.928 120.241 458.681 120.298C457.594 120.538 456.621 120.948 455.672 121.371C449.136 124.283 443.384 127.903 438.725 132.027C439.882 129.798 440.627 127.322 442.435 125.275C444.243 123.228 444.926 121.359 446.721 119.123C446.962 118.82 446.456 118.39 445.937 118.321C445.539 118.264 445.078 118.396 444.856 118.617C441.987 121.454 441.019 123.538 440.021 126.159C439.015 128.781 437.612 130.954 436.866 133.606C436.512 134.863 436.063 136.108 435.621 137.352C435.21 138.502 434.521 139.74 434.388 140.915C435.577 140.877 436.86 139.032 437.606 138.476C439.003 137.415 440.621 136.487 442.334 135.647Z" fill="#599A0C"/>
<path d="M514.291 121.889C494.259 123.393 474.011 129.438 456.343 138.969C455.685 139.323 456.273 140.327 456.924 139.967C474.807 130.151 494.309 125.3 514.323 122.161C514.481 122.136 514.443 121.877 514.291 121.889Z" fill="#599A0C"/>
<path d="M420.317 114.013C427.485 120.847 433.851 129.722 433.118 140.138C432.795 144.73 431.076 149.132 428.661 153.017C427.327 155.165 425.747 157.161 423.983 158.974C422.181 160.824 419.956 162.239 418.243 164.147C417.946 164.475 418.231 165.151 418.717 164.962C423.319 163.187 427.283 158.253 429.919 154.236C432.605 150.137 434.426 145.399 434.831 140.504C435.735 129.64 429.173 119.761 420.43 113.867C420.342 113.811 420.247 113.937 420.317 114.013Z" fill="#599A0C"/>
<path d="M475.989 93.4904C481.729 112.724 466.185 130.29 452.638 141.906C437.909 154.539 420.462 163.787 402.338 170.533C401.441 170.867 401.833 172.314 402.737 171.973C417.858 166.326 432.41 158.999 445.432 149.423C457.227 140.75 469.453 129.753 475.3 116.021C478.354 108.852 479.112 100.754 476.078 93.4651C476.053 93.4146 475.971 93.4335 475.989 93.4904Z" fill="#599A0C"/>
<path d="M408.578 133.973C415.892 128.117 424.407 124.492 431.758 124.094C425.993 124.637 419.507 127.385 413.761 131.718C416.954 129.956 420.19 129.115 423.364 128.294C422.453 128.358 421.404 128.806 420.5 129.52C424.388 128.433 428.282 127.562 431.86 127.543C435.437 127.524 438.712 128.427 440.735 130.638C435.305 128.781 428.87 128.44 422.023 129.646C426.543 129.905 430.734 130.865 434.439 132.501C434.698 132.615 434.976 132.817 434.837 133.171C431.348 132.754 428.111 131.876 424.704 131.307C423.534 131.111 422.333 130.954 421.037 131.029C419.647 131.111 418.167 131.459 416.701 131.8C415.424 132.103 414.153 132.4 412.876 132.703C412.864 132.88 413.041 132.924 413.199 132.956C414.153 133.133 414.931 133.588 415.778 133.935C419.311 135.381 424.135 134.996 426.948 137.333C423.578 137.535 420.664 136.714 417.883 135.779C415.873 135.104 413.907 134.364 411.979 133.562C411.745 133.884 411.783 134.238 411.972 134.415C412.162 134.592 412.459 134.636 412.737 134.693C414.039 134.958 415.114 135.621 415.822 136.607C414.052 136.695 412.522 136.152 411.536 135.072C411.277 134.788 411.03 134.453 410.594 134.396C410.101 134.327 409.475 134.63 408.913 134.977C407.231 136.013 405.701 137.561 404.677 139.247C404.905 138.874 404.842 138.098 405.038 137.643C405.208 137.251 405.373 136.98 405.67 136.632C406.46 135.672 407.598 134.756 408.578 133.973Z" fill="#599A0C"/>
<path d="M437.473 68.7929C441.531 65.0473 445.9 61.75 450.249 58.4655C445.817 62.9502 440.096 66.0516 436.202 70.9405C438.826 68.6161 441.614 66.519 444.484 64.6935C441.317 68.0855 437.637 70.9279 434.003 73.7261C437.688 71.907 441.329 69.6393 444.793 67.0054C441.835 70.2963 438.086 72.6649 434.521 75.1221C430.987 77.5539 427.883 80.1121 425.216 83.5799C428.806 78.2993 432.631 73.265 437.473 68.7929Z" fill="#599A0C"/>
<path d="M419.394 95.6065C424.887 90.7933 430.677 85.9927 436.822 83.2766C437.372 83.0366 437.934 82.8029 438.44 82.7903C435.172 84.4199 431.948 86.4602 428.888 88.8225C435.697 84.3315 443.232 82.7524 448.864 84.2178C445.76 84.281 442.536 84.6284 439.243 85.2663C436.455 85.8096 433.541 86.5802 430.709 88.2288C433.775 87.4203 436.961 86.6054 439.471 87.2181C434.047 87.6982 428.022 89.9532 422.428 93.5978C427.63 92.3914 432.839 91.1849 438.042 89.9785C438.56 89.8584 439.123 89.7447 439.452 89.9785C435.975 91.5765 432.523 92.3408 429.091 93.282C425.658 94.2231 422.087 95.3854 418.724 97.6277C417.39 98.5184 416.056 99.6174 415.177 100.957C415.752 100.085 415.942 99.1753 416.675 98.2594C417.447 97.2866 418.452 96.4276 419.394 95.6065Z" fill="#79B61B"/>
<path d="M421.448 77.295C421.385 76.3475 421.341 75.3306 421.872 74.2631C422.099 76.3223 422.327 78.3814 422.548 80.4406C422.997 75.9306 423.515 71.2059 426.094 66.4685C425.469 69.652 424.843 72.8355 424.223 76.0127C424.141 76.4359 424.065 76.9034 424.299 77.1371C425.14 73.7514 426.006 70.3026 427.858 66.8917C428.623 65.4895 429.679 63.9861 431.076 63.2281C430.671 64.5672 429.862 65.9127 429.122 67.2454C426.714 71.6101 425.007 76.0949 424.122 80.3901C424.426 78.4635 425.45 76.3349 426.96 74.5094C426.341 78.0846 423.338 81.8808 422.118 85.5696C421.657 86.9782 421.556 88.3236 421.107 89.7195C420.576 89.7006 421.644 84.5905 421.669 83.7126C421.758 81.5081 421.594 79.3984 421.448 77.295Z" fill="#79B61B"/>
<path d="M414.728 106.888C416.075 106.079 417.466 105.549 418.837 105.024C425.753 102.378 432.669 99.7374 439.591 97.0908C438.725 97.9056 437.669 98.3288 436.67 98.7205C431.727 100.653 426.79 102.592 421.846 104.525C420.241 105.157 418.603 105.801 417.061 106.862C417.504 107.147 418.281 106.837 418.964 106.553C421.132 105.656 423.3 104.986 425.405 104.57C426.613 104.33 427.883 104.191 428.629 104.778C424.748 105.7 420.835 106.774 416.903 107.98C417.472 108.366 418.445 108.113 419.324 107.892C424.539 106.585 429.457 106.799 433.307 108.492C433.699 108.663 434.116 108.922 434.028 109.446C432.53 109.699 431.246 109.37 429.925 109.174C427.681 108.846 425.247 108.909 422.82 108.978C420.285 109.048 417.75 109.117 415.215 109.187C415.86 109.452 416.53 109.743 416.789 110.393C415.702 110.589 415.108 109.8 414.248 109.496C413.293 109.162 412.061 109.496 410.853 110.172C412.061 108.978 413.312 107.734 414.728 106.888Z" fill="#599A0C"/>
<path d="M413.236 105.1C413.641 98.689 411.182 93.6547 408.755 88.8289C411.233 91.3681 412.819 94.7917 413.35 98.7648C413.812 95.0064 412.939 91.7661 411.694 88.8794C410.455 85.9928 408.837 83.3778 407.737 80.3901C407.187 78.8931 406.763 77.2129 407.282 75.2548C407.225 82.544 413.439 86.2139 413.919 93.2631C413.894 90.6986 414.242 87.9762 414.95 85.1843C415.152 84.3884 415.43 83.5041 416.119 82.8346C416.347 83.7504 415.658 85.0074 415.323 86.1318C414.823 87.8246 415.127 89.29 415.038 90.8755C414.88 93.5473 413.584 96.5793 413.527 99.2132C413.489 101.089 414.084 102.681 414.033 104.563C413.654 104.393 413.414 104.026 413.376 103.565L413.236 105.1Z" fill="#599A0C"/>
<path d="M386.162 78.552C390.581 77.1308 394.133 78.5836 397.345 80.03C393.463 76.4044 388.084 74.4652 383.912 71.1617C383.115 70.53 382.337 69.7847 382.3 68.5972C384.405 68.6603 385.979 69.6836 387.496 70.6816C390.852 72.8987 394.209 75.1221 397.18 77.7687C396.125 76.2022 395.296 74.4526 394.709 72.5387C394.424 71.6165 394.196 70.5932 394.607 69.412C397.509 74.6421 400.689 79.6384 403.679 84.799C401.005 83.5799 399.064 81.4576 396.238 80.3648C393.21 79.1963 389.816 78.5772 386.162 78.552Z" fill="#599A0C"/>
<path d="M388.065 93.4967C383.665 95.9601 379.208 98.7204 375.415 102.435C374.391 103.439 373.348 104.639 373.14 105.808C375.169 103.698 377.211 101.575 379.474 99.769C382.401 97.4319 385.593 95.7012 388.754 94.1283C391.889 92.5682 395.037 91.128 398.185 89.8142C387.666 95.1011 378.146 105.05 372.065 115.459C371.313 116.741 370.58 118.144 370.681 119.281C372.04 117.285 373.386 115.282 374.821 113.318C381.2 104.607 389.43 96.7623 398.324 90.8943C394.139 94.7853 389.898 98.7457 386.522 103.262C384.746 105.637 383.178 108.296 382.982 110.665C386.472 106.408 389.392 101.841 392.888 97.5835C396.384 93.3325 400.714 89.252 405.366 87.3507C404.02 85.7084 399.854 87.8245 397.357 88.8604C394.247 90.1616 391.143 91.7786 388.065 93.4967Z" fill="#599A0C"/>
<path d="M407.75 95.4044C407.996 91.9619 408.369 88.5889 409.538 84.8811C410.259 82.5945 411.15 80.289 412.124 77.9961C412.668 76.7075 413.344 74.9389 414.476 73.8588C414.172 76.4549 412.219 79.7963 411.125 82.5061C410.272 84.6158 408.464 89.05 409.305 90.6228C409.918 86.915 411.226 83.1819 413.022 79.3289C414.299 76.5938 416.315 73.2714 418.37 70.77C419.425 69.4815 421.29 67.1444 422.814 66.639C422.289 67.776 420.949 69.0204 420.089 70.0689C417.952 72.6713 416.397 75.4063 414.823 78.1856C412.838 81.6976 411.644 85.0137 410.657 88.4815C410.91 86.5802 412.175 84.161 413.433 82.285C414.261 81.047 416.277 77.8698 417.75 77.5603C416.479 79.9479 414.311 82.3166 412.946 84.7484C411.808 86.7697 411.1 88.772 410.405 90.7933C409.33 93.9326 408.154 97.8236 408.445 100.597C408.16 98.79 407.838 96.794 407.983 94.7917C408.04 94.918 408.034 95.0696 407.75 95.4044Z" fill="#79B61B"/>
<path d="M385.694 97.7098C383.374 98.4615 380.902 99.5037 378.861 101.392C384.032 99.4532 389.335 97.4824 394.064 97.4066C394.898 97.394 395.739 97.4508 396.289 97.8804C391.617 98.9984 386.832 100.571 382.085 102.946C377.343 105.328 372.634 108.543 368.62 112.56C377.337 106.831 386.427 101.816 395.366 99.0552C396.162 98.8089 397.174 98.7015 397.167 99.4342C396.257 99.9206 395.341 100.192 394.424 100.502C389.07 102.308 383.589 105.454 378.69 109.541C378.216 109.932 377.678 110.665 378.039 110.854C378.153 110.911 378.317 110.88 378.481 110.835C380.27 110.343 382.015 108.846 383.728 107.595C387.875 104.551 392.369 102.63 396.75 100.982C399.146 100.085 401.573 99.2447 403.837 99.0173C406.1 98.7899 408.211 99.2321 409.336 100.691C408.521 99.63 408.584 98.4804 407.275 97.8614C405.878 97.2045 404.368 96.7181 402.768 96.3707C399.57 95.6822 396.011 95.6127 392.275 96.1559C390.132 96.4718 387.926 96.9897 385.694 97.7098Z" fill="#79B61B"/>
<path d="M372.381 114.714C371.793 114.423 371.092 114.139 370.257 114.55C370.346 114.771 370.529 114.91 370.719 115.042C373.551 117.019 377.167 118.055 379.834 120.216C378.861 119.95 377.811 119.811 376.762 119.685C369.985 118.902 362.457 119.034 354.593 122.54C353.815 122.887 353 123.285 352.323 123.923C353.177 123.993 354.182 123.652 355.149 123.361C360.592 121.719 365.744 121.447 370.826 121.188C373.576 121.049 376.351 120.91 378.778 121.447C375.94 121.599 373.007 122.009 370.017 122.666C367.653 123.184 365.2 123.885 362.804 125.231C362.28 125.528 361.685 125.938 361.483 126.469C362.577 126.444 363.797 125.97 364.985 125.547C373.374 122.553 381.573 121.915 388.267 123.734C387.414 123.506 386.541 122.711 385.821 122.275C384.771 121.643 383.716 121.011 382.66 120.38C380.523 119.116 378.368 117.878 376.174 116.691C374.916 116.009 373.658 115.352 372.381 114.714Z" fill="#599A0C"/>
<path d="M392.686 131.036C391.112 130.606 389.531 130.177 387.843 129.949C383.475 129.355 378.45 130.113 373.361 131.73C372.337 132.053 371.243 132.457 370.346 133.278C370.674 133.55 371.313 133.354 371.875 133.164C375.864 131.806 379.796 131.086 383.45 131.036C379.057 132.166 374.549 133.594 370.143 136.064C367.925 137.308 365.586 138.975 364.29 141.186C365.339 140.624 366.338 139.879 367.349 139.178C373.039 135.223 379.183 132.476 384.961 131.32C382.167 132.691 379.398 134.396 376.762 136.379C375.934 136.998 375.042 137.744 374.695 138.628C377.154 137.523 379.404 135.388 381.838 134.036C383.873 132.905 385.966 132.368 387.888 132.223C389.809 132.078 391.586 132.299 393.305 132.602C395.555 132.994 397.711 133.55 399.31 134.876C397.762 132.627 395.461 131.787 392.686 131.036Z" fill="#599A0C"/>
<path d="M401.751 131.093C402.617 128.844 403.704 126.494 405.493 124.504C403.906 127.448 402.591 130.429 401.58 133.385C402.427 130.903 404.007 128.427 405.695 126.058C410.025 119.988 415.506 114.101 421.789 110.526C415.045 115.851 408.793 122.363 404.494 129.513C403.925 130.461 403.375 131.44 403.116 132.4C405.24 128.503 408.413 124.789 412.067 121.94C412.674 121.466 413.344 120.992 413.964 120.923C413.376 121.624 412.661 122.218 411.966 122.818C406.283 127.745 401.365 134.124 399.323 140.435C399.785 139.026 399.627 137.687 400.025 136.266C400.505 134.56 401.08 132.83 401.751 131.093Z" fill="#599A0C"/>
<path d="M394.31 142.955C390.024 142.671 385.448 142.847 380.618 144.351C379.234 144.78 377.805 145.33 376.458 146.227C376.705 146.366 377.097 146.252 377.451 146.138C382.198 144.679 386.87 143.833 391.295 143.631C392.363 143.58 393.482 143.593 394.102 144.218C391.44 144.566 388.779 144.913 386.118 145.26C384.196 145.513 382.274 145.766 380.315 146.176C377.862 146.694 375.359 147.459 372.843 148.463C370.7 149.322 368.443 150.427 366.654 152.253C366.521 152.385 366.382 152.556 366.395 152.689C366.414 152.891 366.723 152.809 366.957 152.701C376.016 148.475 385.195 145.86 393.621 145.374C389.342 146.486 385.005 147.623 380.675 149.808C379.695 150.307 378.709 150.857 377.786 151.564C377.533 151.76 377.236 152.044 377.261 152.284C377.287 152.543 377.653 152.493 377.95 152.398C379.569 151.855 381.193 150.863 382.818 150.124C385.82 148.76 388.779 148.273 391.775 147.193C393.406 146.606 395.05 145.842 396.662 145.393C397.623 145.128 398.577 144.976 399.431 145.058C400.088 145.121 400.562 145.551 401.175 145.608C401.276 144.578 400.113 144.067 399.374 143.808C397.838 143.271 396.087 143.075 394.31 142.955Z" fill="#599A0C"/>
<path d="M398.179 122.11C399.241 119.306 400.663 116.508 401.94 113.703C402.402 112.686 402.863 111.612 402.794 110.716C402.547 110.766 402.326 111.063 402.174 111.316C400.72 113.697 399.475 116.129 398.47 118.567C397.844 120.077 397.3 121.605 396.409 123.083C396.207 122.047 396.586 120.752 396.953 119.514C398.166 115.44 399.323 111.366 400.259 107.342C400.562 106.048 400.84 104.74 400.828 103.54C400.821 103.047 400.531 102.498 400.006 102.839C399.829 102.953 399.696 103.136 399.576 103.306C399.058 104.077 398.704 104.879 398.369 105.681C396.055 111.196 394.595 116.704 394.064 121.908C393.539 119.868 392.635 117.91 392.597 115.611C392.559 113.312 391.952 111.77 391.801 109.357C391.782 109.035 391.244 109.048 390.897 109.301C390.631 109.496 390.423 109.838 390.41 110.096C390.246 113.482 390.802 115.327 391.63 117.525C392.458 119.723 392.806 121.87 393.805 123.942C394.279 124.921 394.69 125.951 395.1 126.974C395.48 127.922 395.745 129.084 396.302 129.886C396.991 129.191 396.75 127.315 396.889 126.545C397.161 125.098 397.616 123.601 398.179 122.11Z" fill="#599A0C"/>
<path d="M433.604 72.7849C422.377 85.1968 413.667 100.407 408.331 116.249C408.135 116.83 409.058 117.083 409.254 116.501C414.551 100.375 423.503 86.2896 433.781 72.9176C433.857 72.8228 433.693 72.6902 433.604 72.7849Z" fill="#599A0C"/>
<path d="M373.266 121.138C380.972 121.302 389.025 123.052 394.323 129.128C396.984 132.179 398.577 136.051 399.355 139.992C399.778 142.127 399.974 144.294 399.943 146.467C399.911 148.829 399.298 151.141 399.329 153.485C399.336 153.857 399.898 154.066 400.082 153.687C401.946 149.745 401.542 144.25 400.809 140.068C400.069 135.849 398.362 131.693 395.581 128.402C390.132 121.953 381.377 119.786 373.241 120.986C373.159 121.005 373.184 121.138 373.266 121.138Z" fill="#599A0C"/>
<path d="M395.29 76.8402C408.217 84.9126 409.21 102.416 408.129 116.104C406.738 133.676 401.068 150.737 393.311 166.484C392.964 167.191 394.026 167.817 394.38 167.109C402.484 150.604 408.325 132.684 409.418 114.24C410.202 101.07 408.837 83.403 395.328 76.7833C395.284 76.758 395.252 76.8149 395.29 76.8402Z" fill="#599A0C"/>
<path d="M90.0595 29.6875L175.747 109.939C175.747 109.939 141.352 136.076 102.785 100.66C65.9811 66.8538 90.0595 29.6875 90.0595 29.6875Z" fill="#F2D025"/>
<path d="M91.4629 30.9886C91.4629 30.9886 68.181 66.4558 104.068 99.8574C137.666 131.13 174.583 108.941 174.583 108.941L91.4629 30.9886Z" fill="#F9EF32"/>
<path d="M94.3265 33.6416C94.3265 33.6416 74.4456 68.1739 106.596 97.6972C140.283 128.629 172.023 106.559 172.023 106.559L94.3265 33.6416Z" fill="#FFF4C5"/>
<path d="M96.9435 36.1493C96.9435 36.1493 78.624 67.5296 108.297 94.7727C139.392 123.323 168.527 103.174 168.527 103.174L96.9435 36.1493Z" fill="#FCDF23"/>
<path d="M130.011 67.0875C128.576 68.9319 128.766 71.6038 130.51 73.2208C132.255 74.8442 134.935 74.8316 136.667 73.2651L130.011 67.0875Z" fill="#FFF4C5"/>
<path d="M90.5147 54.6377L130.144 68.5087L130.277 69.532L90.2871 56.0463L90.5147 54.6377Z" fill="#FFF4C5"/>
<path d="M92.9736 75.6779L131.029 69.6962L131.326 70.151L93.3972 76.9728L92.9736 75.6779Z" fill="#FFF4C5"/>
<path d="M131.553 71.2627L107.614 97.0214L108.48 97.6404L132.223 71.7048L131.553 71.2627Z" fill="#FFF4C5"/>
<path d="M133.665 72.6839L132.337 110.229L134.114 110.254L134.411 72.6523L133.665 72.6839Z" fill="#FFF4C5"/>
<path d="M133.342 71.4774L161.922 108.107L160.36 108.821L132.799 72.0585L133.342 71.4774Z" fill="#FFF4C5"/>
<path d="M98.7514 80.3837C99.9462 80.1437 101.059 79.6194 102.222 79.272C102.633 79.152 102.437 78.5203 102.032 78.6403C100.869 78.9877 99.7565 79.512 98.5618 79.752C98.1383 79.8341 98.3342 80.4658 98.7514 80.3837Z" fill="#FFF424"/>
<path d="M100.515 82.5628C101.375 82.3418 102.197 81.9312 102.943 81.4575C103.303 81.2301 102.955 80.6679 102.595 80.8953C101.893 81.3438 101.135 81.7228 100.325 81.9312C99.9083 82.0323 100.104 82.6639 100.515 82.5628Z" fill="#FFF424"/>
<path d="M103.651 80.0615C104.485 79.752 105.319 79.4362 106.078 78.9561C106.438 78.7287 106.091 78.1666 105.73 78.394C105.022 78.8424 104.245 79.133 103.461 79.4299C103.063 79.5751 103.252 80.2131 103.651 80.0615Z" fill="#FFF424"/>
<path d="M104.902 77.5981C105.851 77.1623 106.856 76.8717 107.88 76.6822C108.297 76.6001 108.101 75.9747 107.69 76.0505C106.609 76.2527 105.56 76.5811 104.561 77.0422C104.169 77.2128 104.523 77.775 104.902 77.5981Z" fill="#FFF424"/>
<path d="M112.406 76.1011C113.253 76.0569 114.068 75.7727 114.922 75.7285C115.345 75.7032 115.326 75.0463 114.896 75.0652C114.049 75.1094 113.234 75.3937 112.38 75.4379C111.951 75.4632 111.976 76.1264 112.406 76.1011Z" fill="#FFF424"/>
<path d="M108.929 80.2574C109.871 79.8026 110.743 79.2341 111.748 78.9246C112.159 78.7983 111.963 78.1666 111.559 78.293C110.497 78.6214 109.574 79.2152 108.581 79.6952C108.196 79.8784 108.55 80.4406 108.929 80.2574Z" fill="#FFF424"/>
<path d="M104.744 84.7548C105.471 84.2747 106.185 83.7631 107.001 83.441C107.393 83.283 107.203 82.6514 106.811 82.8093C105.939 83.1567 105.174 83.681 104.396 84.1926C104.042 84.4263 104.39 84.9885 104.744 84.7548Z" fill="#FFF424"/>
<path d="M104.871 88.1151C105.528 87.7487 106.16 87.3318 106.792 86.9212C107.153 86.6875 106.805 86.1254 106.445 86.3591C105.812 86.7697 105.18 87.1865 104.523 87.5529C104.15 87.7613 104.498 88.3235 104.871 88.1151Z" fill="#FFF424"/>
<path d="M107.418 90.6354C107.88 90.1554 108.411 89.8269 108.992 89.5111C109.365 89.309 109.018 88.7468 108.645 88.9489C108.019 89.29 107.431 89.669 106.938 90.187C106.641 90.4965 107.121 90.9449 107.418 90.6354Z" fill="#FFF424"/>
<path d="M110.901 84.2494C111.622 83.7631 112.222 83.1188 112.949 82.6324C113.303 82.3924 112.956 81.8302 112.602 82.0702C111.881 82.5566 111.281 83.2009 110.554 83.6873C110.2 83.9273 110.547 84.4894 110.901 84.2494Z" fill="#FFF424"/>
<path d="M116.445 78.5772C117.166 78.0909 117.792 77.4718 118.493 76.9602C118.835 76.7076 118.487 76.1454 118.146 76.398C117.444 76.916 116.824 77.5287 116.097 78.0151C115.75 78.2488 116.091 78.811 116.445 78.5772Z" fill="#FFF424"/>
<path d="M117.646 74.9705C118.209 74.402 118.967 74.1367 119.701 73.8588C120.099 73.7072 119.909 73.0756 119.511 73.2272C118.664 73.543 117.811 73.8715 117.166 74.5221C116.862 74.8252 117.349 75.2737 117.646 74.9705Z" fill="#FFF424"/>
<path d="M123.399 73.5935C123.576 73.5808 123.721 73.5177 123.879 73.4419C123.987 73.385 124.119 73.2903 124.233 73.284C124.657 73.2461 124.631 72.5891 124.208 72.6207C124.031 72.6334 123.886 72.6965 123.728 72.7723C123.62 72.8292 123.487 72.9239 123.374 72.9302C122.95 72.9681 122.975 73.6314 123.399 73.5935Z" fill="#FFF424"/>
<path d="M127.381 72.3681C127.501 72.2354 127.666 72.0396 127.836 72.027C128.26 71.9891 128.241 71.3322 127.811 71.3638C127.432 71.3954 127.147 71.648 126.894 71.9133C126.604 72.2291 127.09 72.6776 127.381 72.3681Z" fill="#FFF424"/>
<path d="M97.4682 40.6214C98.2457 41.2151 99.0612 41.752 99.8387 42.3395C100.174 42.5984 100.629 42.1121 100.288 41.8531C99.51 41.2593 98.6945 40.7224 97.917 40.135C97.582 39.876 97.1268 40.3624 97.4682 40.6214Z" fill="#FFF424"/>
<path d="M97.8096 43.0974C98.5366 43.6217 99.4153 43.9122 100.047 44.5755C100.345 44.885 100.793 44.3986 100.496 44.0891C99.8578 43.4195 98.9917 43.1416 98.2584 42.611C97.9171 42.371 97.4619 42.8511 97.8096 43.0974Z" fill="#FFF424"/>
<path d="M103.126 45.1503C103.752 45.7124 104.46 46.142 105.18 46.5652C105.547 46.7799 105.851 46.1925 105.484 45.9777C104.814 45.5861 104.15 45.1882 103.575 44.6702C103.259 44.3797 102.804 44.866 103.126 45.1503Z" fill="#FFF424"/>
<path d="M95.5402 45.9272C96.008 46.3441 96.5643 46.6347 97.0826 46.9821C97.4366 47.2221 97.74 46.6347 97.386 46.3947C96.9183 46.0788 96.4125 45.8199 95.989 45.4409C95.6729 45.1566 95.2241 45.643 95.5402 45.9272Z" fill="#FFF424"/>
<path d="M99.8198 48.4412C100.344 48.6812 100.863 48.9402 101.35 49.256C101.71 49.4897 102.007 48.9023 101.653 48.6686C101.166 48.3527 100.648 48.0938 100.123 47.8537C99.744 47.6769 99.4342 48.2643 99.8198 48.4412Z" fill="#FFF424"/>
<path d="M96.1849 51.3152C97.4808 51.9026 98.7641 52.5153 100.054 53.1028C100.439 53.2796 100.749 52.6922 100.357 52.5153C99.0612 51.9279 97.7779 51.3152 96.4884 50.7278C96.1028 50.5572 95.7993 51.1383 96.1849 51.3152Z" fill="#FFF424"/>
<path d="M94.6932 53.4376C95.1357 53.8039 95.7425 53.9366 96.2293 54.2461C96.5896 54.4735 96.893 53.886 96.5327 53.6586C96.2862 53.5007 96.0143 53.3807 95.7488 53.2544C95.5529 53.1659 95.3063 53.0901 95.142 52.9512C94.8196 52.6859 94.3644 53.1659 94.6932 53.4376Z" fill="#FFF424"/>
<path d="M100.566 56.7031C101.185 56.9305 101.779 57.2211 102.405 57.4485C102.797 57.5937 103.113 57.0063 102.709 56.861C102.089 56.6336 101.495 56.3431 100.869 56.1157C100.477 55.9704 100.161 56.5578 100.566 56.7031Z" fill="#FFF424"/>
<path d="M103.695 53.8544C104.201 54.3092 104.795 54.6503 105.3 55.105C105.617 55.3893 106.065 54.9029 105.749 54.6187C105.244 54.1639 104.649 53.8228 104.144 53.368C103.828 53.0838 103.379 53.5701 103.695 53.8544Z" fill="#FFF424"/>
<path d="M104.965 50.9298C105.414 51.2267 105.863 51.5173 106.306 51.8141C106.66 52.0478 106.963 51.4604 106.609 51.2267C106.16 50.9298 105.711 50.6393 105.269 50.3424C104.915 50.1087 104.618 50.6961 104.965 50.9298Z" fill="#FFF424"/>
<path d="M113.253 57.2969C113.771 57.6569 114.277 58.0296 114.852 58.2949C115.238 58.4781 115.541 57.8907 115.156 57.7075C114.587 57.4359 114.075 57.0632 113.556 56.7095C113.209 56.4694 112.905 57.0569 113.253 57.2969Z" fill="#FFF424"/>
<path d="M119.334 61.6237C119.827 61.8574 120.244 62.2112 120.737 62.4449C121.123 62.6281 121.426 62.0406 121.041 61.8574C120.548 61.6237 120.131 61.27 119.638 61.0363C119.258 60.8531 118.948 61.4406 119.334 61.6237Z" fill="#FFF424"/>
<path d="M110.294 58.4024C110.825 58.6424 111.356 58.8887 111.881 59.154C112.26 59.3435 112.57 58.7624 112.185 58.5666C111.66 58.3013 111.129 58.0549 110.598 57.8149C110.219 57.6381 109.909 58.2255 110.294 58.4024Z" fill="#FFF424"/>
<path d="M93.6564 60.1078C94.592 60.2657 95.5149 60.4868 96.4252 60.7521C96.8361 60.8721 96.9752 60.2278 96.5706 60.1078C95.6603 59.8425 94.7374 59.6151 93.8018 59.4635C93.3846 59.394 93.2329 60.0383 93.6564 60.1078Z" fill="#FFF424"/>
<path d="M97.0004 62.8554C97.9486 63.0133 98.8905 63.2092 99.8324 63.4365C100.25 63.5376 100.389 62.8933 99.9778 62.7923C99.0422 62.5649 98.1003 62.3691 97.1521 62.2111C96.7286 62.1353 96.5832 62.7796 97.0004 62.8554Z" fill="#FFF424"/>
<path d="M100.642 61.6616C101.128 61.769 101.602 61.9395 102.089 62.0469C102.506 62.1416 102.652 61.491 102.235 61.4026C101.748 61.2952 101.274 61.1247 100.787 61.0173C100.37 60.9225 100.224 61.5668 100.642 61.6616Z" fill="#FFF424"/>
<path d="M104.485 64.5104C104.965 64.6114 105.452 64.6683 105.933 64.7694C106.35 64.8578 106.495 64.2135 106.078 64.1251C105.598 64.024 105.111 63.9672 104.637 63.8661C104.213 63.7777 104.068 64.4219 104.485 64.5104Z" fill="#FFF424"/>
<path d="M108.543 64.5482C108.86 64.5987 109.182 64.6556 109.504 64.6493C109.934 64.6366 109.909 63.9797 109.479 63.986C109.214 63.9924 108.948 63.9418 108.689 63.9039C108.512 63.8723 108.335 63.9734 108.297 64.1566C108.259 64.3208 108.366 64.5166 108.543 64.5482Z" fill="#FFF424"/>
<path d="M97.3924 68.2623C98.4038 68.5718 99.5037 68.3886 100.54 68.4707C100.964 68.5023 100.939 67.8391 100.515 67.8075C99.529 67.7317 98.4923 67.9086 97.5378 67.618C97.1269 67.4917 96.9815 68.136 97.3924 68.2623Z" fill="#FFF424"/>
<path d="M97.1016 71.7743C98.0687 71.7427 99.0296 71.7553 99.9841 71.5974C100.408 71.5279 100.205 70.8963 99.7945 70.9658C98.8969 71.1174 97.9803 71.0858 97.0763 71.1174C96.6528 71.13 96.678 71.7869 97.1016 71.7743Z" fill="#FFF424"/>
<path d="M105.155 71.787C105.838 71.7049 106.527 71.7364 107.216 71.7743C107.639 71.7996 107.614 71.1364 107.191 71.1111C106.502 71.0732 105.819 71.0416 105.13 71.1237C104.706 71.1806 104.725 71.8375 105.155 71.787Z" fill="#FFF424"/>
<path d="M104.409 68.5719C104.928 68.5529 105.452 68.5908 105.971 68.5782C106.4 68.5656 106.375 67.9023 105.945 67.915C105.427 67.9339 104.909 67.896 104.384 67.9086C103.96 67.9276 103.986 68.5908 104.409 68.5719Z" fill="#FFF424"/>
<path d="M109.321 68.0792C109.896 67.9971 110.484 67.9782 111.066 68.0161C111.489 68.0476 111.464 67.3844 111.04 67.3528C110.459 67.3149 109.877 67.3339 109.296 67.416C108.878 67.4792 108.897 68.1424 109.321 68.0792Z" fill="#FFF424"/>
<path d="M110.585 70.2204C111.142 70.1383 111.704 70.0562 112.26 69.9741C112.678 69.9109 112.659 69.254 112.235 69.3109C111.679 69.393 111.116 69.4751 110.56 69.5572C110.143 69.6204 110.162 70.2773 110.585 70.2204Z" fill="#FFF424"/>
<path d="M114.302 67.896C115.345 67.9908 116.382 68.1234 117.431 68.155C117.861 68.1676 117.83 67.5044 117.406 67.4918C116.357 67.4602 115.32 67.3275 114.277 67.2328C113.853 67.2012 113.885 67.8581 114.302 67.896Z" fill="#FFF424"/>
<path d="M117.741 90.2374C117.45 91.147 116.881 91.9302 116.432 92.764C116.23 93.1367 116.818 93.4462 117.02 93.0672C117.501 92.1766 118.076 91.3554 118.386 90.3827C118.519 89.9721 117.867 89.8332 117.741 90.2374Z" fill="#FFF424"/>
<path d="M118.531 93.8694C118.203 94.4821 117.937 95.139 117.532 95.7075C117.286 96.0485 117.766 96.5033 118.019 96.1559C118.468 95.5369 118.759 94.8421 119.125 94.1725C119.321 93.7999 118.734 93.4904 118.531 93.8694Z" fill="#FFF424"/>
<path d="M113.702 94.918C113.487 95.3159 113.335 95.7518 113.278 96.2002C113.228 96.6171 113.872 96.7687 113.923 96.3455C113.973 95.9476 114.1 95.5812 114.283 95.2275C114.492 94.8485 113.904 94.5453 113.702 94.918Z" fill="#FFF424"/>
<path d="M121.458 98.2214C121.464 98.7457 121.262 99.2573 121.155 99.769C121.066 100.186 121.711 100.331 121.799 99.9142C121.926 99.3458 122.128 98.7899 122.122 98.1962C122.109 97.773 121.452 97.7982 121.458 98.2214Z" fill="#FFF424"/>
<path d="M123.822 89.3847C123.639 90.0164 123.487 90.6544 123.266 91.2734C123.127 91.6776 123.772 91.8166 123.911 91.4187C124.126 90.7996 124.284 90.1617 124.467 89.53C124.587 89.1195 123.942 88.9805 123.822 89.3847Z" fill="#FFF424"/>
<path d="M123.746 84.7611C123.418 85.2664 123.152 85.8222 123.089 86.4223C123.045 86.8392 123.69 86.9908 123.734 86.5676C123.791 86.0117 124.031 85.5254 124.334 85.0643C124.568 84.7105 123.98 84.4073 123.746 84.7611Z" fill="#FFF424"/>
<path d="M129.36 76.2654C129.17 76.7707 129.012 77.2887 128.791 77.7813C128.62 78.1667 129.202 78.4762 129.379 78.0845C129.6 77.5919 129.758 77.0739 129.948 76.5686C130.093 76.177 129.512 75.8611 129.36 76.2654Z" fill="#FFF424"/>
<path d="M136.68 82.6829C136.566 83.2956 136.737 83.8704 137.028 84.4136C137.23 84.7926 137.793 84.4389 137.59 84.0662C137.382 83.6809 137.243 83.264 137.325 82.8282C137.401 82.405 136.756 82.2597 136.68 82.6829Z" fill="#FFF424"/>
<path d="M136.705 90.4901C136.699 91.5639 137.015 92.644 136.775 93.7052C136.68 94.1221 137.325 94.2674 137.42 93.8505C137.679 92.7198 137.363 91.6018 137.369 90.4648C137.369 90.0416 136.705 90.0669 136.705 90.4901Z" fill="#FFF424"/>
<path d="M140.321 93.7241C140.416 94.4505 140.555 95.1643 140.587 95.897C140.606 96.3202 141.269 96.3013 141.25 95.8717C141.219 95.139 141.08 94.4253 140.985 93.6989C140.922 93.282 140.264 93.3009 140.321 93.7241Z" fill="#FFF424"/>
<path d="M138.931 98.3288C138.962 98.9542 139.095 99.5669 139.126 100.192C139.145 100.615 139.809 100.596 139.79 100.167C139.759 99.5416 139.626 98.9289 139.594 98.3036C139.569 97.8804 138.905 97.8993 138.931 98.3288Z" fill="#FFF424"/>
<path d="M136.674 101.525C136.756 102.232 136.667 102.94 136.629 103.647C136.604 104.071 137.268 104.045 137.293 103.622C137.331 102.915 137.42 102.207 137.338 101.5C137.287 101.083 136.629 101.102 136.674 101.525Z" fill="#FFF424"/>
<path d="M140.365 104.904C140.492 105.365 140.511 105.833 140.53 106.313C140.542 106.736 141.206 106.717 141.194 106.288C141.175 105.757 141.143 105.227 140.998 104.715C140.884 104.304 140.252 104.494 140.365 104.904Z" fill="#FFF424"/>
<path d="M139.923 78.4446C140.429 79.1394 141.099 79.6826 141.668 80.3206C141.952 80.6364 142.401 80.15 142.117 79.8342C141.586 79.2405 140.953 78.7415 140.486 78.0972C140.233 77.7561 139.67 78.0972 139.923 78.4446Z" fill="#FFF424"/>
<path d="M145.41 85.1021C145.821 85.7211 146.295 86.2959 146.775 86.8707C147.047 87.1992 147.496 86.7065 147.224 86.3843C146.782 85.8601 146.352 85.3295 145.973 84.7547C145.732 84.3947 145.17 84.7421 145.41 85.1021Z" fill="#FFF424"/>
<path d="M148.659 87.1676C149.228 87.7045 149.721 88.292 150.107 88.9742C150.315 89.3468 150.878 88.9994 150.669 88.6267C150.252 87.894 149.721 87.2561 149.108 86.6813C148.798 86.3907 148.349 86.8771 148.659 87.1676Z" fill="#FFF424"/>
<path d="M150.518 91.766C151.017 92.4734 151.58 93.1303 152.092 93.8252C152.345 94.1662 152.907 93.8188 152.654 93.4778C152.142 92.7829 151.58 92.126 151.08 91.4186C150.84 91.0712 150.277 91.4186 150.518 91.766Z" fill="#FFF424"/>
<path d="M159.342 97.8109C160.006 98.43 160.638 99.0427 161.049 99.8575C161.239 100.236 161.801 99.8891 161.612 99.5101C161.176 98.6384 160.499 97.9815 159.791 97.3246C159.481 97.034 159.033 97.5204 159.342 97.8109Z" fill="#FFF424"/>
<path d="M157.819 98.6763C158.369 99.2005 158.792 99.8132 159.14 100.489C159.336 100.868 159.899 100.521 159.703 100.142C159.33 99.4153 158.856 98.7584 158.268 98.1899C157.958 97.8993 157.509 98.3794 157.819 98.6763Z" fill="#FFF424"/>
<path d="M159.69 103.78C160.171 104.247 160.461 104.854 160.822 105.416C161.049 105.776 161.612 105.429 161.384 105.069C160.992 104.456 160.67 103.812 160.139 103.3C159.836 102.997 159.387 103.483 159.69 103.78Z" fill="#FFF424"/>
<path d="M162.857 103.098C162.996 103.155 163.142 103.388 163.243 103.521C163.413 103.755 163.571 104.001 163.71 104.247C163.919 104.62 164.482 104.273 164.273 103.9C164.102 103.597 163.913 103.306 163.704 103.035C163.559 102.851 163.388 102.605 163.167 102.51C162.769 102.346 162.459 102.927 162.857 103.098Z" fill="#FFF424"/>
<path opacity="0.25" d="M122.147 94.4568C123.178 92.4987 122.887 89.132 122.021 86.5801C119.903 80.3584 112.033 75.6905 108.411 63.6702C107.134 59.4255 107.608 48.6117 106.754 47.4621C104.447 44.348 101.223 42.9268 101.223 42.9268C95.3 38.0315 93.4352 60.6446 93.865 65.0788C94.8322 75.0462 102.026 85.9232 109.308 92.8208C111.085 94.501 113.303 96.6549 115.845 96.9013C118.082 97.1224 120.573 97.4445 122.147 94.4568Z" fill="white"/>
<path d="M161.82 0L216.615 103.793C216.615 103.793 175.57 117.285 150.676 71.2311C126.92 27.2809 161.82 0 161.82 0Z" fill="#F2D025"/>
<path d="M162.724 1.69287C162.724 1.69287 129.132 27.6284 152.149 70.9027C173.698 111.417 215.843 102.479 215.843 102.479L162.724 1.69287Z" fill="#F9EF32"/>
<path d="M164.564 5.12903C164.564 5.12903 134.499 31.292 155.246 69.6773C176.986 109.901 214.194 99.3838 214.194 99.3838L164.564 5.12903Z" fill="#FFF4C5"/>
<path d="M166.22 8.35046C166.22 8.35046 138.652 32.0373 157.813 67.4666C177.883 104.595 212 95.0444 212 95.0444L166.22 8.35046Z" fill="#FCDF23"/>
<path d="M187.372 48.3781C185.412 49.654 184.717 52.2374 185.842 54.3408C186.961 56.4442 189.496 57.3096 191.651 56.3937L187.372 48.3781Z" fill="#FFF4C5"/>
<path d="M154.102 23.7311L187.03 49.7677L186.822 50.7783L153.426 24.9944L154.102 23.7311Z" fill="#FFF4C5"/>
<path d="M149.557 44.424L187.485 51.1763L187.618 51.7006L149.538 45.7883L149.557 44.424Z" fill="#FFF4C5"/>
<path d="M187.466 52.8312L156.428 69.3678L157.041 70.2394L187.96 53.4691L187.466 52.8312Z" fill="#FFF4C5"/>
<path d="M189.003 54.8588L175.487 89.9153L177.156 90.5217L189.717 55.0798L189.003 54.8588Z" fill="#FFF4C5"/>
<path d="M189.085 53.6144L204.142 97.5583L202.436 97.7225L188.389 53.9871L189.085 53.6144Z" fill="#FFF4C5"/>
<path d="M153.482 50.7531C154.69 50.9173 155.91 50.7847 157.124 50.8352C157.553 50.8542 157.572 50.1909 157.149 50.172C155.935 50.1215 154.715 50.2541 153.508 50.0899C153.084 50.033 153.065 50.6963 153.482 50.7531Z" fill="#FFF424"/>
<path d="M154.437 53.387C155.322 53.4565 156.232 53.3428 157.092 53.1344C157.509 53.0333 157.364 52.389 156.947 52.4901C156.137 52.6859 155.297 52.7933 154.462 52.7301C154.039 52.6922 154.013 53.3554 154.437 53.387Z" fill="#FFF424"/>
<path d="M158.217 52.0479C159.108 52.0226 160 51.9974 160.872 51.7952C161.289 51.7005 161.144 51.0562 160.727 51.151C159.911 51.3405 159.077 51.3657 158.242 51.391C157.819 51.3973 157.794 52.0605 158.217 52.0479Z" fill="#FFF424"/>
<path d="M160.208 50.1277C161.245 50.0267 162.288 50.0772 163.319 50.2288C163.742 50.292 163.761 49.6287 163.344 49.5656C162.25 49.4076 161.157 49.3697 160.063 49.4771C159.639 49.5277 159.791 50.1719 160.208 50.1277Z" fill="#FFF424"/>
<path d="M167.788 51.1574C168.603 51.3911 169.469 51.3911 170.285 51.6248C170.696 51.7448 170.885 51.1132 170.474 50.9931C169.659 50.7594 168.793 50.7594 167.977 50.5257C167.567 50.412 167.377 51.0437 167.788 51.1574Z" fill="#FFF424"/>
<path d="M163.148 53.9555C164.185 53.8292 165.196 53.5828 166.245 53.6144C166.675 53.627 166.694 52.9701 166.271 52.9512C165.158 52.9133 164.096 53.1786 163.003 53.3112C162.579 53.3618 162.731 53.9997 163.148 53.9555Z" fill="#FFF424"/>
<path d="M157.724 56.8422C158.571 56.6274 159.412 56.3747 160.291 56.3368C160.714 56.3179 160.739 55.6547 160.316 55.6736C159.38 55.7178 158.483 55.9642 157.579 56.1916C157.162 56.3053 157.307 56.9495 157.724 56.8422Z" fill="#FFF424"/>
<path d="M156.738 60.0636C157.478 59.9309 158.211 59.7477 158.944 59.5646C159.355 59.4635 159.21 58.8192 158.799 58.9203C158.065 59.1034 157.338 59.2929 156.593 59.4193C156.175 59.4888 156.321 60.133 156.738 60.0636Z" fill="#FFF424"/>
<path d="M158.331 63.2723C158.919 62.9691 159.538 62.8301 160.183 62.7228C160.607 62.6533 160.455 62.009 160.038 62.0785C159.33 62.1985 158.66 62.3627 158.015 62.6912C157.636 62.887 157.952 63.4681 158.331 63.2723Z" fill="#FFF424"/>
<path d="M163.704 58.3708C164.545 58.1434 165.323 57.7329 166.163 57.5055C166.574 57.3918 166.429 56.7475 166.018 56.8612C165.177 57.0886 164.4 57.4991 163.559 57.7265C163.154 57.8402 163.293 58.4845 163.704 58.3708Z" fill="#FFF424"/>
<path d="M170.803 54.8145C171.644 54.5935 172.434 54.2082 173.262 53.9492C173.667 53.8229 173.521 53.1786 173.117 53.3049C172.289 53.5639 171.499 53.9429 170.652 54.1703C170.247 54.2776 170.392 54.9282 170.803 54.8145Z" fill="#FFF424"/>
<path d="M173.117 51.8015C173.837 51.4478 174.64 51.4415 175.424 51.4226C175.848 51.4099 175.879 50.753 175.449 50.7593C174.545 50.7846 173.635 50.8099 172.807 51.2204C172.421 51.4036 172.731 51.9847 173.117 51.8015Z" fill="#FFF424"/>
<path d="M179.002 52.3701C179.173 52.4143 179.331 52.408 179.502 52.3828C179.622 52.3638 179.78 52.3196 179.887 52.3449C180.298 52.4522 180.494 51.8206 180.077 51.7132C179.906 51.669 179.748 51.6753 179.577 51.7006C179.457 51.7195 179.299 51.7637 179.192 51.7385C178.781 51.6374 178.585 52.2691 179.002 52.3701Z" fill="#FFF424"/>
<path d="M183.162 52.509C183.32 52.4269 183.541 52.2943 183.705 52.3385C184.116 52.4459 184.312 51.8142 183.895 51.7068C183.522 51.6121 183.174 51.7574 182.852 51.9279C182.473 52.1301 182.782 52.7112 183.162 52.509Z" fill="#FFF424"/>
<path d="M165.253 12.7467C165.797 13.5615 166.391 14.3322 166.934 15.147C167.168 15.5007 167.756 15.1912 167.516 14.8375C166.972 14.0226 166.378 13.252 165.834 12.4372C165.601 12.0835 165.019 12.393 165.253 12.7467Z" fill="#FFF424"/>
<path d="M164.766 15.2038C165.285 15.9366 166.018 16.4987 166.397 17.3262C166.574 17.7115 167.156 17.402 166.979 17.0167C166.593 16.1766 165.866 15.6334 165.348 14.8943C165.108 14.5532 164.52 14.8564 164.766 15.2038Z" fill="#FFF424"/>
<path d="M169.122 18.8737C169.526 19.6064 170.064 20.2444 170.607 20.876C170.885 21.1981 171.366 20.7434 171.088 20.4212C170.582 19.8338 170.089 19.24 169.71 18.5578C169.501 18.1915 168.913 18.501 169.122 18.8737Z" fill="#FFF424"/>
<path d="M161.7 17.1367C162.01 17.6862 162.44 18.141 162.813 18.64C163.066 18.9811 163.546 18.52 163.293 18.1852C162.952 17.7304 162.56 17.3262 162.282 16.8272C162.08 16.4545 161.492 16.764 161.7 17.1367Z" fill="#FFF424"/>
<path d="M164.924 20.9076C165.341 21.3055 165.746 21.7224 166.1 22.1772C166.365 22.512 166.84 22.0572 166.58 21.7224C166.226 21.2676 165.822 20.8507 165.405 20.4528C165.101 20.1622 164.614 20.617 164.924 20.9076Z" fill="#FFF424"/>
<path d="M160.55 22.4425C161.58 23.4215 162.592 24.4196 163.622 25.3986C163.932 25.6892 164.412 25.2407 164.102 24.9438C163.072 23.9648 162.061 22.9668 161.03 21.9877C160.721 21.6971 160.24 22.1519 160.55 22.4425Z" fill="#FFF424"/>
<path d="M158.451 23.9648C158.748 24.4575 159.279 24.7797 159.64 25.2281C159.905 25.5629 160.385 25.1018 160.12 24.7734C159.937 24.5397 159.722 24.3375 159.507 24.1354C159.355 23.9901 159.146 23.8322 159.033 23.6553C158.811 23.289 158.23 23.5985 158.451 23.9648Z" fill="#FFF424"/>
<path d="M162.927 28.9611C163.439 29.378 163.906 29.8454 164.418 30.2623C164.741 30.5276 165.228 30.0791 164.899 29.8075C164.387 29.3906 163.919 28.9232 163.407 28.5063C163.085 28.241 162.598 28.6958 162.927 28.9611Z" fill="#FFF424"/>
<path d="M166.821 27.2935C167.149 27.8873 167.598 28.4052 167.933 28.999C168.142 29.3717 168.723 29.0622 168.515 28.6895C168.186 28.0957 167.737 27.5778 167.402 26.984C167.194 26.605 166.612 26.9209 166.821 27.2935Z" fill="#FFF424"/>
<path d="M168.976 24.9438C169.305 25.3671 169.627 25.7966 169.956 26.2198C170.215 26.5546 170.696 26.0998 170.437 25.765C170.108 25.3418 169.785 24.9123 169.457 24.4891C169.198 24.148 168.717 24.6091 168.976 24.9438Z" fill="#FFF424"/>
<path d="M174.729 33.6607C175.102 34.166 175.462 34.6839 175.911 35.1261C176.214 35.423 176.695 34.9682 176.391 34.6713C175.942 34.2292 175.582 33.7112 175.209 33.2059C174.956 32.8648 174.482 33.3196 174.729 33.6607Z" fill="#FFF424"/>
<path d="M179.072 39.7307C179.457 40.116 179.742 40.5835 180.127 40.9624C180.431 41.2593 180.911 40.8109 180.608 40.5077C180.222 40.1224 179.938 39.6549 179.552 39.2759C179.249 38.9791 178.762 39.4339 179.072 39.7307Z" fill="#FFF424"/>
<path d="M171.574 33.7427C171.998 34.1469 172.421 34.5512 172.832 34.9681C173.129 35.2713 173.61 34.8228 173.313 34.5133C172.902 34.0964 172.485 33.6858 172.055 33.2879C171.745 32.9973 171.265 33.4458 171.574 33.7427Z" fill="#FFF424"/>
<path d="M155.29 29.9276C156.125 30.3824 156.921 30.894 157.699 31.4436C158.047 31.6899 158.394 31.1277 158.047 30.8814C157.269 30.3319 156.472 29.8202 155.638 29.3654C155.265 29.1633 154.911 29.7255 155.29 29.9276Z" fill="#FFF424"/>
<path d="M157.553 33.6164C158.401 34.0775 159.229 34.5702 160.038 35.0882C160.398 35.3156 160.746 34.7534 160.385 34.526C159.576 34.0081 158.748 33.5154 157.901 33.0543C157.528 32.8521 157.18 33.408 157.553 33.6164Z" fill="#FFF424"/>
<path d="M161.384 33.6733C161.808 33.9323 162.2 34.2481 162.63 34.5071C162.99 34.7281 163.338 34.166 162.977 33.9449C162.554 33.6859 162.162 33.3701 161.732 33.1111C161.365 32.8837 161.018 33.4459 161.384 33.6733Z" fill="#FFF424"/>
<path d="M164.09 37.621C164.513 37.8674 164.95 38.0885 165.373 38.3348C165.74 38.5496 166.087 37.9874 165.721 37.7726C165.297 37.5263 164.861 37.3052 164.438 37.0589C164.071 36.8378 163.723 37.4 164.09 37.621Z" fill="#FFF424"/>
<path d="M167.914 38.9791C168.199 39.1307 168.483 39.2886 168.793 39.3897C169.198 39.5223 169.393 38.8844 168.983 38.758C168.73 38.6759 168.496 38.5433 168.262 38.4169C168.104 38.3348 167.908 38.3664 167.807 38.5243C167.712 38.6696 167.75 38.8907 167.914 38.9791Z" fill="#FFF424"/>
<path d="M156.156 38.8528C157.01 39.4781 158.11 39.6613 159.064 40.0719C159.456 40.2424 159.646 39.6044 159.254 39.4402C158.35 39.0486 157.307 38.8781 156.498 38.2906C156.156 38.038 155.809 38.6001 156.156 38.8528Z" fill="#FFF424"/>
<path d="M154.74 42.0805C155.663 42.3648 156.567 42.6932 157.528 42.8512C157.952 42.9206 157.971 42.2574 157.553 42.1879C156.656 42.0363 155.802 41.7142 154.936 41.4426C154.519 41.3226 154.33 41.9542 154.74 42.0805Z" fill="#FFF424"/>
<path d="M162.339 44.7208C163.015 44.8661 163.654 45.1187 164.286 45.3777C164.684 45.5356 164.867 44.9039 164.475 44.746C163.837 44.4871 163.198 44.2344 162.528 44.0891C162.118 43.9944 161.922 44.626 162.339 44.7208Z" fill="#FFF424"/>
<path d="M162.686 41.4362C163.186 41.5878 163.66 41.7963 164.159 41.9479C164.564 42.0742 164.76 41.4425 164.349 41.3162C163.85 41.1646 163.376 40.9562 162.876 40.8046C162.472 40.6782 162.282 41.3099 162.686 41.4362Z" fill="#FFF424"/>
<path d="M167.491 42.5732C168.066 42.6869 168.622 42.8511 169.16 43.0785C169.552 43.2427 169.741 42.6111 169.349 42.4469C168.812 42.2195 168.256 42.0489 167.68 41.9416C167.27 41.8594 167.074 42.4911 167.491 42.5732Z" fill="#FFF424"/>
<path d="M167.99 45.0051C168.546 45.1061 169.103 45.2135 169.653 45.3146C170.07 45.3904 170.266 44.7587 169.842 44.6829C169.286 44.5819 168.73 44.4745 168.18 44.3734C167.769 44.2913 167.567 44.923 167.99 45.0051Z" fill="#FFF424"/>
<path d="M172.263 44.026C173.218 44.4555 174.154 44.9229 175.14 45.2893C175.538 45.4409 175.728 44.8092 175.329 44.6576C174.35 44.2913 173.414 43.8239 172.453 43.3943C172.068 43.2175 171.878 43.8491 172.263 44.026Z" fill="#FFF424"/>
<path d="M168.218 66.2601C167.649 67.0244 166.852 67.5739 166.157 68.2182C165.841 68.5088 166.296 68.9888 166.612 68.6983C167.358 68.0098 168.174 67.4223 168.78 66.6075C169.033 66.2664 168.471 65.919 168.218 66.2601Z" fill="#FFF424"/>
<path d="M167.775 69.9489C167.263 70.4227 166.802 70.9533 166.226 71.3575C165.885 71.5975 166.189 72.185 166.536 71.9386C167.162 71.4965 167.668 70.9406 168.224 70.4227C168.546 70.1384 168.091 69.6584 167.775 69.9489Z" fill="#FFF424"/>
<path d="M162.87 69.3678C162.541 69.671 162.25 70.031 162.054 70.4416C161.871 70.8206 162.427 71.1743 162.617 70.789C162.794 70.429 163.034 70.1195 163.325 69.8479C163.641 69.5573 163.186 69.0773 162.87 69.3678Z" fill="#FFF424"/>
<path d="M169.122 75.021C168.957 75.52 168.597 75.9369 168.325 76.3854C168.104 76.7454 168.666 77.0991 168.888 76.7328C169.191 76.2338 169.564 75.7727 169.754 75.2168C169.887 74.8126 169.254 74.6168 169.122 75.021Z" fill="#FFF424"/>
<path d="M174.242 67.4413C173.863 67.9782 173.509 68.534 173.098 69.0457C172.832 69.3804 173.401 69.7215 173.66 69.3931C174.071 68.8751 174.425 68.3256 174.805 67.7887C175.051 67.4413 174.489 67.0939 174.242 67.4413Z" fill="#FFF424"/>
<path d="M175.683 63.045C175.209 63.4113 174.773 63.8535 174.52 64.403C174.343 64.782 174.906 65.1358 175.083 64.7504C175.317 64.2451 175.702 63.8661 176.138 63.525C176.473 63.2597 176.018 62.7797 175.683 63.045Z" fill="#FFF424"/>
<path d="M183.762 56.8421C183.414 57.259 183.098 57.6949 182.732 58.0928C182.441 58.4023 182.896 58.8824 183.187 58.5729C183.553 58.1749 183.876 57.7391 184.217 57.3222C184.489 56.9937 184.034 56.5137 183.762 56.8421Z" fill="#FFF424"/>
<path d="M188.585 65.2937C188.276 65.8369 188.25 66.4369 188.345 67.0433C188.415 67.4665 189.059 67.3149 188.99 66.8981C188.92 66.4685 188.927 66.0264 189.148 65.6411C189.357 65.2684 188.794 64.921 188.585 65.2937Z" fill="#FFF424"/>
<path d="M186.057 72.6839C185.696 73.6945 185.646 74.8189 185.071 75.7474C184.843 76.1074 185.406 76.4549 185.633 76.0948C186.246 75.1094 186.31 73.9472 186.689 72.8797C186.834 72.4755 186.202 72.286 186.057 72.6839Z" fill="#FFF424"/>
<path d="M188.421 76.9223C188.276 77.6361 188.175 78.3625 187.966 79.0636C187.846 79.4742 188.478 79.6637 188.598 79.2531C188.807 78.552 188.908 77.8256 189.053 77.1118C189.135 76.7013 188.503 76.5055 188.421 76.9223Z" fill="#FFF424"/>
<path d="M185.602 80.8196C185.425 81.4197 185.355 82.045 185.178 82.6451C185.058 83.0557 185.69 83.2452 185.81 82.8346C185.987 82.2345 186.063 81.6092 186.234 81.0091C186.354 80.5985 185.722 80.409 185.602 80.8196Z" fill="#FFF424"/>
<path d="M182.428 83.1062C182.277 83.801 181.96 84.439 181.689 85.0959C181.524 85.4875 182.163 85.677 182.321 85.2854C182.593 84.6285 182.902 83.9905 183.06 83.2957C183.155 82.8851 182.523 82.6893 182.428 83.1062Z" fill="#FFF424"/>
<path d="M184.818 87.5024C184.786 87.9762 184.653 88.431 184.514 88.8857C184.388 89.2963 185.02 89.4858 185.146 89.0752C185.298 88.5699 185.444 88.0583 185.475 87.5277C185.5 87.1045 184.843 87.0792 184.818 87.5024Z" fill="#FFF424"/>
<path d="M193.036 62.3438C193.288 63.1649 193.744 63.8977 194.072 64.6872C194.237 65.0788 194.818 64.763 194.654 64.3777C194.35 63.645 193.908 62.9628 193.68 62.1985C193.554 61.7943 192.909 61.9395 193.036 62.3438Z" fill="#FFF424"/>
<path d="M196.045 70.4227C196.234 71.1428 196.493 71.8439 196.759 72.5387C196.911 72.9367 197.492 72.6208 197.341 72.2292C197.094 71.5849 196.86 70.947 196.689 70.2837C196.588 69.8668 195.937 70.0121 196.045 70.4227Z" fill="#FFF424"/>
<path d="M198.441 73.4419C198.807 74.1367 199.079 74.8505 199.218 75.6211C199.294 76.0443 199.939 75.8927 199.863 75.4758C199.711 74.6483 199.414 73.8714 199.022 73.126C198.826 72.7534 198.245 73.0629 198.441 73.4419Z" fill="#FFF424"/>
<path d="M198.7 78.394C198.94 79.2278 199.256 80.03 199.515 80.8575C199.642 81.2617 200.286 81.1228 200.16 80.7122C199.907 79.8847 199.585 79.0825 199.344 78.2488C199.231 77.8445 198.586 77.9835 198.7 78.394Z" fill="#FFF424"/>
<path d="M205.072 86.9844C205.495 87.7803 205.894 88.5699 206.014 89.4795C206.071 89.9027 206.715 89.7511 206.658 89.3342C206.532 88.3741 206.102 87.5213 205.653 86.6749C205.451 86.2959 204.869 86.6055 205.072 86.9844Z" fill="#FFF424"/>
<path d="M203.346 87.3066C203.694 87.9824 203.896 88.7025 204.003 89.4542C204.067 89.8774 204.711 89.7258 204.648 89.3089C204.534 88.5004 204.3 87.7235 203.927 86.9971C203.732 86.6118 203.15 86.9276 203.346 87.3066Z" fill="#FFF424"/>
<path d="M203.447 92.7388C203.75 93.3389 203.826 94.0085 203.984 94.6527C204.086 95.0696 204.73 94.9243 204.629 94.5074C204.458 93.8 204.364 93.0862 204.035 92.4293C203.839 92.0503 203.257 92.3598 203.447 92.7388Z" fill="#FFF424"/>
<path d="M206.665 93.1242C206.778 93.2252 206.842 93.4905 206.892 93.6484C206.981 93.9264 207.044 94.2043 207.094 94.4885C207.17 94.9117 207.815 94.7602 207.739 94.3433C207.676 94.0022 207.588 93.6674 207.48 93.3389C207.404 93.1179 207.322 92.8273 207.139 92.6631C206.829 92.3852 206.342 92.8399 206.665 93.1242Z" fill="#FFF424"/>
<path opacity="0.25" d="M171.005 71.6859C172.617 70.1699 173.446 66.8917 173.458 64.2008C173.49 57.6317 167.573 50.652 168.072 38.1074C168.249 33.6795 172.225 23.611 171.796 22.2467C170.632 18.5515 168.047 16.1576 168.047 16.1576C164.052 9.60105 154.905 30.3634 153.862 34.6965C151.523 44.4365 154.766 57.0632 159.406 65.9568C160.537 68.1234 161.928 70.8837 164.248 71.9449C166.29 72.8797 168.54 73.9977 171.005 71.6859Z" fill="white"/>
<path d="M99.1939 156.554C99.9272 159.561 100.679 162.612 102.519 165.36C103.859 167.368 105.737 169.156 107.595 170.931C113.013 176.091 118.43 181.252 123.848 186.413C130.858 193.095 137.9 199.797 146.112 205.728C165.727 219.903 191.556 229.188 218.6 233.805C245.643 238.423 273.899 238.543 301.474 236.048C317.043 234.639 332.701 232.346 346.665 227.186C360.623 222.025 372.843 213.694 378.108 203.05C381.06 197.081 381.737 190.645 381.541 184.309C381.351 178.22 380.378 172.15 378.639 166.193C377.609 162.663 376.13 158.955 372.375 156.567C367.722 153.605 360.901 153.459 354.687 153.466C342.797 153.485 330.912 153.497 319.022 153.516C313.699 153.523 306.474 152.19 306.809 148.362C307.055 145.532 311.619 144.06 315.52 143.656C327.417 142.431 339.295 145.324 351.211 146.442C363.126 147.56 377.065 146.233 383.905 139.121C386.459 136.462 387.711 133.284 388.848 130.158C391.067 124.075 393.021 117.942 394.708 111.771C396.188 106.37 397.446 100.723 395.347 95.436C392.667 88.6837 384.935 83.5989 376.781 79.7459C352.886 68.4456 323.441 64.8137 294.849 64.5357C263.747 64.2325 232.323 67.6561 203.662 76.3539C181.385 83.1126 161.182 92.8084 139.613 100.584C128.886 104.45 117.785 107.88 106.148 110.052C102.266 110.779 94.6868 110.722 91.526 112.661C87.6194 115.055 90.0468 119.142 90.8244 122.319C93.6184 133.727 96.4062 145.141 99.1939 156.554Z" fill="#BAC3D1"/>
<path d="M305.285 111.935C300.159 113.027 294.122 113.76 289.886 111.417C298.218 120.329 291.808 133.152 280.215 139.91C268.621 146.669 253.412 149.032 238.955 151.678C234.34 152.525 229.397 153.573 226.495 156.289C224.03 158.595 223.511 161.74 224.175 164.614C226.773 175.807 244.77 182.92 246.224 194.22C246.888 199.355 243.841 204.427 239.587 208.583C229.928 218.008 213.985 223.547 197.783 224.608C192.934 224.924 188.073 224.867 183.256 224.488C194.49 228.487 206.424 231.512 218.606 233.597C245.649 238.214 273.906 238.334 301.48 235.839C317.05 234.431 332.708 232.138 346.672 226.977C360.63 221.816 372.849 213.485 378.115 202.842C381.067 196.873 381.743 190.436 381.547 184.101C381.358 178.012 380.384 171.941 378.646 165.985C377.615 162.454 376.136 158.746 372.381 156.359C367.729 153.396 360.908 153.251 354.694 153.257C342.803 153.276 330.919 153.289 319.028 153.308C313.706 153.314 306.48 151.981 306.815 148.154C307.062 145.324 311.626 143.852 315.526 143.448C327.423 142.222 339.301 145.115 351.217 146.233C363.133 147.351 377.072 146.025 383.911 138.912C386.465 136.253 387.717 133.076 388.855 129.949C391.074 123.867 393.027 117.733 394.715 111.562C396.194 106.161 397.452 100.514 395.353 95.2276C392.888 89.0184 386.143 84.2179 378.734 80.4849C376.996 81.4639 375.283 82.4556 373.588 83.4284C352.936 95.3729 330.691 106.534 305.285 111.935Z" fill="#9DA5B2"/>
<path d="M262.508 107.267C274.563 109.598 285.733 123.14 298.117 124.258C318.44 126.09 339.314 126.065 359.15 122.376C374.492 119.527 390.536 113.318 395.151 102.409C398.109 95.4107 395.638 87.6225 390.246 81.4197C384.853 75.2169 376.8 70.4353 368.234 66.4938C344.365 55.5094 316.095 50.4625 287.977 47.9865C247.508 44.424 204.73 46.1421 168.723 59.912C136.832 72.1092 112.93 92.6252 89.8699 112.636C97.5315 116.085 101.773 122.262 106.167 127.947C125.763 153.289 155.714 174.417 191.297 188.011C226.887 201.604 267.983 207.617 308.117 205.09C325.653 203.991 343.669 201.073 357.5 193.241C371.338 185.408 379.853 171.657 374.113 159.675C368.62 148.204 351.843 141.256 335.224 139.222C318.605 137.194 305.02 134.763 288.186 135.356C272.357 135.912 250.156 134.2 234.713 131.642C218.062 128.888 218.005 118.75 219.472 116.261C229.953 98.5248 250.833 105.012 262.508 107.267Z" fill="#F28564"/>
<path d="M252.761 51.9595C263.716 51.9595 275.303 52.4901 287.206 53.5387C319.818 56.4127 345.414 62.2933 365.453 71.5154C374.783 75.8106 381.313 80.1879 385.416 84.9127C387.458 87.2561 391.921 93.3831 389.31 99.548C386.288 106.686 374.505 112.806 357.798 115.908C347.184 117.878 335.508 118.876 323.099 118.876C315.318 118.876 307.011 118.485 298.427 117.708C293.395 117.253 287.996 113.722 282.282 109.983C276.384 106.123 270.284 102.131 263.425 100.805C262.382 100.603 261.231 100.363 260.018 100.104C254.885 99.0174 248.494 97.6657 241.888 97.6657C229.27 97.6657 219.889 102.719 214.01 112.686C212.076 115.965 212.095 120.79 214.061 124.985C216.128 129.406 221.179 135.11 233.499 137.144C247.824 139.512 266.706 141.041 281.605 141.041C283.906 141.041 286.119 141.003 288.173 140.934C289.817 140.877 291.479 140.845 293.129 140.845C304.211 140.845 313.895 142.115 325.109 143.587C328.055 143.972 331.109 144.37 334.257 144.755C351.021 146.802 364.422 153.491 368.399 161.797C372.767 170.918 364.593 181.606 354.27 187.455C343.397 193.613 328.1 197.233 307.504 198.528C301.695 198.894 295.772 199.077 289.899 199.077C256.193 199.077 222.772 193.114 193.238 181.833C175.999 175.251 160.114 166.863 146.011 156.914C131.99 147.023 120.124 135.855 110.743 123.728C110.364 123.235 109.985 122.742 109.605 122.249C106.843 118.643 103.84 114.72 99.7882 111.379C119.694 94.2295 142.268 75.9433 170.658 65.0852C193.44 56.3748 221.059 51.9595 252.761 51.9595ZM252.761 45.8831C223.423 45.8831 194.224 49.5656 168.49 59.413C136.598 71.6101 112.697 92.1261 89.636 112.137C97.2976 115.586 101.539 121.763 105.933 127.448C125.529 152.79 155.48 173.918 191.063 187.512C221.343 199.077 255.618 205.154 289.893 205.154C295.898 205.154 301.897 204.964 307.877 204.591C325.413 203.492 343.429 200.574 357.26 192.742C371.098 184.909 379.613 171.158 373.873 159.176C368.38 147.705 351.603 140.757 334.984 138.723C320.097 136.904 307.65 134.769 293.117 134.769C291.423 134.769 289.703 134.8 287.946 134.857C285.923 134.927 283.793 134.965 281.593 134.965C266.554 134.965 247.944 133.373 234.479 131.149C217.828 128.395 217.771 118.257 219.238 115.769C224.814 106.313 233.354 103.736 241.881 103.736C249.353 103.736 256.813 105.713 262.268 106.768C274.323 109.099 285.493 122.641 297.877 123.759C306.227 124.511 314.673 124.953 323.093 124.953C335.173 124.953 347.222 124.05 358.904 121.877C374.246 119.028 390.29 112.819 394.904 101.91C397.863 94.9117 395.391 87.1235 389.999 80.9207C384.607 74.7179 376.553 69.9363 367.988 65.9948C344.118 55.0104 315.849 49.9635 287.731 47.4874C276.201 46.4705 264.468 45.8831 252.761 45.8831Z" fill="#FFBDBB"/>
<path d="M175.045 216.681C175.879 219.536 181.695 221.76 183.939 219.517C184.42 219.044 184.634 218.077 184.198 217.49C183.225 216.176 181.619 215.955 180.083 215.671C178.692 215.412 177.321 214.862 175.905 215.165C175.266 215.298 174.868 216.068 175.045 216.681Z" fill="#9DA5B2"/>
<path d="M186.139 214.666C185.905 215.835 187.201 216.763 188.061 217.338C189.059 218.001 190.709 218.961 191.929 218.469C192.606 218.197 193.036 217.471 192.618 216.77C191.942 215.633 190.197 215.228 189.034 214.723C188.44 214.47 186.392 213.409 186.139 214.666Z" fill="#9DA5B2"/>
<path d="M198.403 217.022C199.123 218.046 200.248 219.328 201.525 219.574C202.176 219.7 202.72 218.93 202.202 218.412C201.753 217.97 201.209 217.717 200.697 217.357C200.236 217.029 199.831 216.631 199.465 216.201C198.978 215.62 197.96 216.391 198.403 217.022Z" fill="#9DA5B2"/>
<path d="M181.272 208.11C184.306 210.396 188.617 213.921 192.72 212.992C194.117 212.676 194.496 210.832 193.548 209.872C192.176 208.476 189.989 208.053 188.149 207.554C186.126 207.004 184.053 206.808 182.017 206.354C180.899 206.107 180.424 207.472 181.272 208.11Z" fill="#9DA5B2"/>
<path d="M201.728 211.193C201.754 211.193 201.754 211.154 201.728 211.154C201.702 211.154 201.702 211.193 201.728 211.193Z" fill="#9DA5B2"/>
<path d="M201.481 212.064C203.289 212.626 205.426 214.439 207.366 213.479C207.727 213.302 207.847 212.853 207.765 212.493C207.227 210.011 203.624 210.226 201.721 210.245C200.678 210.257 200.489 211.754 201.481 212.064Z" fill="#9DA5B2"/>
<path d="M213.365 214.155C214.604 214.199 216.305 214.59 217.266 213.618C217.803 213.074 217.664 212.196 217.032 211.799C215.894 211.085 214.282 211.868 213.1 212.196C211.994 212.5 212.246 214.11 213.365 214.155Z" fill="#9DA5B2"/>
<path d="M211.968 207.206C215.015 207.781 217.841 208.83 220.901 207.775C221.564 207.548 221.59 206.619 220.901 206.404C217.961 205.476 215.129 206.234 212.114 206.158C211.52 206.139 211.368 207.093 211.968 207.206Z" fill="#9DA5B2"/>
<path d="M230.56 207.825C231.906 208.956 233.404 209.72 235.067 210.276C236.824 210.864 238.676 211.514 240.396 210.579C241.312 210.08 241.749 208.672 241.129 207.781C239.985 206.133 238.234 205.905 236.356 205.615C234.593 205.343 232.867 205.305 231.116 205.716C230.244 205.924 229.833 207.219 230.56 207.825Z" fill="#9DA5B2"/>
<path d="M198.131 200.107C199.477 200.808 200.413 202.077 202.044 202.103C203.042 202.115 203.359 200.959 202.802 200.277C201.696 198.938 199.92 199.254 198.384 199.178C197.891 199.153 197.695 199.879 198.131 200.107Z" fill="#9DA5B2"/>
<path d="M182.359 194.201C183.377 194.769 184.331 195.464 185.393 195.938C185.88 196.153 186.386 196.412 186.891 196.576C187.473 196.765 187.96 196.645 188.554 196.519C189.395 196.329 189.477 195.338 189.015 194.763C187.637 193.057 184.944 193.171 182.934 192.836C182.144 192.704 181.569 193.759 182.359 194.201Z" fill="#9DA5B2"/>
<path d="M144.626 196.683C145.827 198.976 147.136 200.764 149.089 202.488C150.726 203.934 153.053 205.855 155.354 205.665C156.125 205.602 156.529 204.888 156.201 204.193C155.303 202.292 152.806 201.01 151.125 199.848C149.228 198.534 147.3 197.226 145.448 195.856C144.93 195.47 144.367 196.197 144.626 196.683Z" fill="#9DA5B2"/>
<path d="M163.85 208.324C164.829 208.842 165.696 209.506 166.751 209.872C167.586 210.163 168.54 209.544 168.768 208.729C169.002 207.882 168.483 206.941 167.624 206.714C166.562 206.43 165.455 206.518 164.368 206.398C163.338 206.291 162.984 207.87 163.85 208.324Z" fill="#9DA5B2"/>
<path d="M163.729 198.382C164.52 199.052 165.354 200.037 166.391 200.233C166.84 200.315 167.288 200.214 167.573 199.829C167.826 199.494 167.921 198.951 167.661 198.578C167.465 198.3 167.295 198.028 167.004 197.839C166.789 197.7 166.542 197.605 166.309 197.498C165.841 197.277 165.373 197.062 164.912 196.841C164.469 196.633 163.957 196.683 163.647 197.094C163.382 197.46 163.35 198.066 163.729 198.382Z" fill="#9DA5B2"/>
<path d="M162.781 191.099C163.186 191.358 163.597 191.617 164.001 191.876C164.488 192.186 164.918 192.47 165.525 192.318C165.91 192.217 166.239 191.731 166.087 191.333C165.835 190.689 165.373 190.518 164.766 190.272C164.298 190.082 163.837 189.893 163.369 189.71C162.541 189.362 162.08 190.651 162.781 191.099Z" fill="#9DA5B2"/>
<path d="M159.456 180.437C161.624 181.473 164.298 183.621 166.84 183.317C167.674 183.216 168.268 182.237 167.573 181.555C165.689 179.717 162.364 179.805 159.943 179.3C159.285 179.161 158.78 180.115 159.456 180.437Z" fill="#9DA5B2"/>
<path d="M115.187 165.619C116.572 167.236 118.045 168.581 119.612 170.021C120.902 171.209 122.564 173.078 124.36 173.344C125.58 173.527 126.699 172.643 126.376 171.329C125.889 169.333 123.683 167.918 122.027 166.895C120.036 165.669 118.234 164.816 115.958 164.305C115.162 164.128 114.682 165.025 115.187 165.619Z" fill="#9DA5B2"/>
<path d="M116.148 152.594C117.134 154.211 118.727 156.592 120.902 156.428C121.761 156.365 122.564 155.392 121.976 154.552C120.845 152.929 118.544 152.708 116.875 151.861C116.42 151.634 115.857 152.114 116.148 152.594Z" fill="#9DA5B2"/>
<path d="M101.356 132.362C101.95 133.051 102.487 133.771 103.145 134.402C103.802 135.028 104.605 135.331 105.496 135.495C106.091 135.603 106.483 135.066 106.242 134.529C105.869 133.701 105.376 133.006 104.605 132.514C103.84 132.027 103.006 131.68 102.197 131.276C101.482 130.909 100.838 131.762 101.356 132.362Z" fill="#9DA5B2"/>
<path d="M119.682 149.417C120.194 149.916 120.699 150.535 121.287 150.939C121.863 151.331 122.45 151.855 123.083 152.145C123.588 152.379 124.151 151.899 123.86 151.369C123.525 150.75 122.975 150.225 122.552 149.669C122.122 149.101 121.464 148.64 120.933 148.16C120.093 147.389 118.854 148.608 119.682 149.417Z" fill="#9DA5B2"/>
<path d="M253.165 123.911C253.191 123.911 253.191 123.873 253.165 123.873C253.146 123.873 253.146 123.911 253.165 123.911Z" fill="#9DA5B2"/>
<path d="M252.647 124.782C255.473 126.33 258.324 128.635 261.775 127.833C262.578 127.644 262.982 126.425 262.293 125.869C259.752 123.822 256.37 124.018 253.443 122.9C252.343 122.477 251.635 124.227 252.647 124.782Z" fill="#9DA5B2"/>
<path d="M265.252 131.794C268.248 133.019 272.287 134.706 275.436 133.076C276.441 132.558 276.567 130.726 275.436 130.246C272.414 128.97 268.621 130.132 265.454 130.284C264.544 130.335 264.468 131.478 265.252 131.794Z" fill="#9DA5B2"/>
<path d="M278.754 129.791C281.757 131.541 284.772 132.659 288.287 132.798C291.568 132.931 291.498 127.985 288.287 127.745C285.487 127.53 282.629 127.574 279.854 127.189C278.356 126.981 277.237 128.907 278.754 129.791Z" fill="#9DA5B2"/>
<path d="M273.438 119.748C275.113 120.847 276.668 121.965 278.495 122.837C279.475 123.304 281.896 123.81 282.465 122.369C282.977 121.081 281.289 119.704 280.297 119.331C278.306 118.58 276.314 118.257 274.247 117.828C273.084 117.588 272.427 119.085 273.438 119.748Z" fill="#9DA5B2"/>
<path d="M258.45 114.392C260.163 115.674 263.684 117.367 265.587 115.598C266.149 115.074 265.928 114.234 265.359 113.836C264.487 113.23 263.267 113.451 262.249 113.337C261.212 113.223 260.138 113.078 259.164 112.705C258.102 112.288 257.685 113.817 258.45 114.392Z" fill="#9DA5B2"/>
<path d="M250.226 111.132C251.857 111.372 253.993 112.37 255.435 111.177C255.839 110.842 255.833 110.052 255.435 109.718C253.993 108.524 251.857 109.515 250.226 109.762C249.543 109.863 249.543 111.031 250.226 111.132Z" fill="#9DA5B2"/>
<path d="M256.623 109.465C257.344 109.762 258.064 110.084 258.798 110.368C259.569 110.659 260.22 110.899 261.004 110.558C261.44 110.362 261.592 109.673 261.339 109.294C260.877 108.606 260.15 108.467 259.373 108.315C258.608 108.164 257.83 108.056 257.059 107.93C256.022 107.747 255.675 109.067 256.623 109.465Z" fill="#9DA5B2"/>
<path d="M126.869 106.035C125.75 107.033 124.821 108.176 124.486 109.433C123.923 111.562 125.137 113.754 126.913 115.497C130.504 119.015 136.465 121.144 142.527 121.371C148.59 121.593 154.664 119.995 159.374 117.234C163.375 114.891 166.561 111.335 165.847 107.658C165.114 103.887 160.366 101.02 155.252 100.053C146.295 98.3542 132.837 100.691 126.869 106.035Z" fill="#F4ECE1"/>
<path d="M133.5 108.694C132.982 109.01 132.457 109.383 132.35 109.863C132.198 110.545 132.938 111.164 133.696 111.594C138.362 114.24 145.214 113.899 150.606 112.105C152.844 111.36 155.246 109.958 154.823 108.208C153.388 102.302 136.832 106.66 133.5 108.694Z" fill="#F2DCCC"/>
<path d="M140.018 91.7471C147.098 81.7418 158.173 73.2209 171.568 67.4665C175.513 65.7737 181.537 64.6367 183.945 67.4539C186.537 70.4795 181.619 74.5789 183.566 77.8445C191.266 77.175 197.739 73.5556 204.098 70.3532C219.143 62.7734 236.66 56.7285 255.017 57.1075C257.957 57.1706 260.972 57.4107 263.564 58.4087C266.156 59.4004 268.261 61.289 268.292 63.405C268.318 65.0915 267.091 66.6327 266.377 68.2371C265.669 69.8415 265.663 71.8881 267.534 72.8987C269.253 73.8272 271.674 73.4482 273.735 73.0061C284.418 70.7385 295.026 68.0855 306.063 67.0117C317.106 65.9379 328.839 66.5696 338.523 70.5363C340.938 71.528 343.41 72.9492 343.726 74.9389C344.364 78.9183 336.324 81.2491 336.09 85.2538C344.718 83.5231 354.036 83.6241 362.589 85.5254C366.698 86.4413 371.161 88.2478 371.755 91.3113C372.356 94.4316 368.632 97.053 365.029 98.8406C353.139 104.74 338.707 107.949 324.269 107.898C320.83 107.886 317.283 107.677 314.205 106.572C311.126 105.467 308.585 103.294 308.49 100.824C308.377 97.7289 311.961 94.8106 310.861 91.8166C299.71 93.1178 288.173 94.4064 277.237 92.3725C270.277 91.0776 263.893 88.4878 256.945 87.155C241.287 84.1484 224.693 87.8246 209.87 92.5304C204.737 94.16 199.047 95.9539 193.718 94.6969C190.88 94.0274 188.56 92.562 185.949 91.5134C177.997 88.3299 168.104 89.3027 159.418 91.2545C150.733 93.2063 142.274 96.0739 133.197 96.4719C132.394 95.3286 133.241 93.7495 134.904 93.2884L140.018 91.7471Z" fill="#FC8B75"/>
<path d="M149.961 148.457C156.668 154.502 164.918 160.824 175.645 161.26C175.418 159.188 175.19 157.117 174.963 155.045C174.697 152.619 175.197 149.398 178.509 148.899C181.537 148.444 183.8 150.781 185.235 152.752C191.91 161.911 200.217 170.59 211.096 177.348C221.975 184.107 235.611 188.851 249.954 189.451C251.964 189.533 254.588 189.198 254.91 187.764C255.049 187.139 254.651 186.526 254.252 185.964C250.03 180.014 244.182 174.07 244.834 167.406C244.928 166.44 245.225 165.391 246.262 164.766C247.634 163.938 249.809 164.21 251.212 165.006C252.615 165.808 253.456 166.996 254.316 168.133C260.473 176.218 269.999 182.957 281.34 187.24C288.414 189.912 296.979 191.624 304.312 189.35C305.298 189.047 306.291 188.636 306.79 187.954C307.744 186.653 306.48 185.118 305.349 183.892C301.486 179.711 298.553 175.087 296.701 170.249C295.98 168.373 295.607 166.029 297.674 164.772C300.355 163.143 304.369 164.791 306.999 166.465C316.323 172.403 325.508 179.357 337.702 181.138C340.034 181.479 342.576 181.599 344.7 180.829C347.588 179.78 349.023 177.273 348.859 174.948C348.701 172.624 347.222 170.457 345.54 168.467C338.138 159.719 326.039 153.093 312.359 150.276C298.673 147.465 283.54 148.495 270.84 153.112C270.328 153.295 269.778 153.523 269.582 153.914C269.392 154.293 269.607 154.71 269.816 155.083C270.404 156.138 270.992 157.186 271.58 158.241C252.034 157.679 238.202 142.14 218.675 141.325C212.044 141.047 205.362 142.551 198.807 141.768C191.007 140.839 184.66 136.866 179.053 132.849C176.53 131.042 173.654 129.065 170.102 129.078C167.718 129.084 165.556 130.013 163.312 130.581C157.825 131.983 151.845 131.187 146.719 129.412C142.698 128.017 138.829 125.3 134.771 128.358C130.706 131.421 135.365 134.548 137.995 137.15C141.864 140.984 145.852 144.755 149.961 148.457Z" fill="#FC8B75"/>
<path d="M127.356 144.566C130.251 143.745 132.818 142.026 135.46 140.637C138.469 139.051 141.604 137.902 144.892 137.043C150.967 135.457 157.25 134.819 163.388 133.575C169.925 132.248 176.107 129.886 182.371 127.669C189.154 125.262 196.045 123.039 202.739 120.399C202.929 120.323 202.859 120.032 202.657 120.089C189.287 124.024 176.322 129.981 162.516 132.255C156.314 133.278 150.037 133.802 143.95 135.419C137.9 137.03 132.192 140.321 127.059 143.846C126.705 144.086 126.907 144.692 127.356 144.566Z" fill="#FFBDBB"/>
<path d="M172.756 175.068C171.107 168.297 177.308 163.856 182.763 161.342C188.231 158.822 194.104 157.281 199.408 154.369C204.49 151.577 208.89 147.673 214.642 146.24C219.971 144.907 225.654 145.166 230.667 142.683C230.876 142.582 230.692 142.285 230.49 142.374C224.137 145.21 216.836 144.168 210.451 146.953C207.777 148.122 205.356 149.745 202.903 151.299C199.856 153.226 196.664 154.716 193.282 155.967C187.681 158.026 181.531 159.776 176.79 163.547C173.509 166.156 169.804 170.943 172.529 175.169C172.605 175.277 172.788 175.207 172.756 175.068Z" fill="#FFBDBB"/>
<path d="M217.436 191.238C217.626 184.928 225.047 180.197 229.997 177.412C235.402 174.373 240.971 172.466 245.371 167.918C254.625 158.361 267.426 153.327 279.115 147.44C279.26 147.37 279.134 147.149 278.988 147.225C272.155 150.674 265.201 153.946 258.507 157.654C252.388 161.045 247.609 166.143 241.262 169.112C235.092 171.992 228.726 174.373 223.277 178.567C219.876 181.189 213.245 186.621 216.21 191.573C216.551 192.142 217.417 191.889 217.436 191.238Z" fill="#FFBDBB"/>
<path d="M301.145 201.06C292.763 191.409 306.973 182.067 312.473 175.232C315.374 171.626 316.348 166.623 320.115 163.774C324.123 160.736 329.092 159.845 333.675 158.058C334.098 157.894 333.94 157.268 333.485 157.369C328.611 158.456 323.011 160.584 319.319 164.046C317.353 165.89 316.417 168.227 315.039 170.482C313.301 173.325 310.918 175.504 308.421 177.658C304.255 181.252 299.552 184.979 297.466 190.24C295.873 194.264 296.151 199.955 300.696 201.844C301.164 202.027 301.41 201.37 301.145 201.06Z" fill="#FFBDBB"/>
<path d="M144.809 75.8296C147.37 76.9034 150.031 76.8592 152.768 76.7518C156.011 76.6192 159.071 76.6508 162.238 77.5035C167.965 79.051 172.788 82.3861 178.231 84.5969C188.933 88.9427 200.678 88.9174 211.381 93.3389C211.507 93.3895 211.564 93.181 211.437 93.1305C205.995 91.0018 200.381 89.6627 194.622 88.7026C191.632 88.2036 188.642 87.7236 185.747 86.8077C182.447 85.7655 179.716 83.8326 176.809 82.0387C172.295 79.2532 167.56 76.455 162.339 75.2485C156.479 73.8968 150.796 75.4822 144.904 75.0906C144.449 75.0653 144.449 75.678 144.809 75.8296Z" fill="#FFBDBB"/>
<path d="M196.639 55.6294C201.854 56.2358 207.265 57.398 211.874 60.0004C216.52 62.6281 218.922 66.159 221.394 70.7448C222.399 72.6081 223.606 74.4462 225.269 75.7979C227.247 77.4087 229.751 78.3498 231.931 79.6447C237.039 82.6703 241.154 86.5928 245.737 90.288C246.212 90.667 247.084 90.1617 246.66 89.5742C243.5 85.2095 238.683 81.7986 234.207 78.8804C231.464 77.0928 228.644 75.5327 226.457 73.025C224.586 70.8774 223.518 68.2055 222.07 65.78C217.038 57.3285 206.115 53.3112 196.633 54.5303C195.937 54.6124 195.925 55.5409 196.639 55.6294Z" fill="#FFBDBB"/>
<path d="M256.623 50.5383C258.911 53.2102 261.231 55.4589 262.666 58.7435C264.215 62.287 265.189 66.0895 267.003 69.5194C268.545 72.4313 270.707 74.8126 272.977 77.1624C275.549 79.8216 278.255 82.6577 281.39 84.66C281.574 84.7737 281.725 84.5274 281.605 84.3821C278.856 81.0217 275.233 78.4825 272.604 74.9832C270.126 71.686 268.438 68.1298 267.464 64.1188C266.086 58.4529 264.057 50.7215 257.356 49.294C256.598 49.1297 256.136 49.9698 256.623 50.5383Z" fill="#FFBDBB"/>
<path d="M308.218 54.0692C311.095 62.5333 305.216 69.9552 305.747 78.3562C306 82.3734 307.567 86.1633 308.2 90.1238C309.04 95.4044 309.021 100.754 308.244 106.041C308.181 106.49 308.857 106.686 308.933 106.231C309.691 101.392 309.925 96.5287 309.394 91.6587C308.863 86.8013 307.156 81.8744 307.713 76.9665C308.579 69.3678 314.54 60.8089 308.579 53.8608C308.433 53.7029 308.149 53.8734 308.218 54.0692Z" fill="#FFBDBB"/>
<path d="M368.639 70.1953C363.866 71.6354 360.775 77.1876 358.202 81.0849C354.839 86.1697 351.426 91.8103 349.504 97.6278C349.321 98.19 350.155 98.5184 350.446 98.0258C353.335 93.1747 355.794 88.1088 358.828 83.3273C360.301 81.0091 361.831 78.7162 363.487 76.5181C365.118 74.3515 367.09 72.6271 368.873 70.6121C369.037 70.4353 368.892 70.1195 368.639 70.1953Z" fill="#FFBDBB"/>
<path d="M401.883 207.048L403.16 217.515C403.16 217.515 411.176 231.765 434.205 231.62C460.129 231.449 477.526 220.945 474.972 205.671C474.561 203.195 470.06 197.024 470.06 197.024L401.352 206.556L401.883 207.048Z" fill="#59B24F"/>
<path d="M437.704 221.656C456.96 220.463 472.07 211.44 471.453 201.503C470.836 191.566 454.726 184.477 435.47 185.67C416.214 186.864 401.104 195.887 401.721 205.824C402.338 215.761 418.448 222.85 437.704 221.656Z" fill="#84D17D"/>
<path d="M468.998 200.53C470.484 207.996 457.676 216.687 440.021 218.424C422.371 220.161 405.43 213.952 403.944 206.493C402.459 199.026 416.366 189.508 434.015 187.777C451.665 186.033 467.506 193.064 468.998 200.53Z" fill="#B0EDA9"/>
<path d="M416.201 203.328C415.493 202.962 414.722 202.463 414.551 201.717C414.273 200.517 415.658 199.785 416.846 199.545C419.305 199.052 421.929 199.096 424.476 199.658C423.547 198.875 422.738 197.953 422.08 196.942C421.941 196.727 421.802 196.487 421.834 196.254C421.903 195.698 422.706 195.685 423.281 195.824C426.227 196.525 429.116 197.637 431.815 199.109C430.937 198.149 430.159 197.056 429.862 195.837C429.565 194.618 429.837 193.272 430.779 192.546C432.011 191.598 434.009 192.015 435.349 193.076C436.683 194.138 437.498 195.685 438.206 197.188C439.989 195.123 442.701 193.86 445.583 193.759C446.26 193.733 447.056 193.828 447.486 194.384C448.144 195.243 447.391 196.31 446.664 196.986C449.73 195.66 453.669 196.108 456.665 198.117C457.038 198.363 457.423 198.692 457.474 199.109C457.506 199.361 457.405 199.595 457.284 199.81C456.431 201.408 454.819 202.482 453.062 203.088C451.304 203.701 449.395 203.89 447.505 204.086C449.471 204.484 451.405 205.141 453.239 206.025C453.473 206.139 453.725 206.278 453.814 206.512C453.89 206.701 453.833 206.91 453.763 207.093C452.954 209.196 450.343 210.087 447.967 209.771C445.583 209.455 443.371 208.192 441.241 206.96C442.372 207.977 443.327 209.329 443.365 210.763C443.403 212.19 442.22 213.573 440.754 213.359C440.103 213.264 439.508 212.891 438.965 212.487C437.315 211.274 435.912 209.733 434.875 208.002C435.197 210.422 433.503 212.752 431.114 213.176C430.494 213.283 429.786 213.258 429.255 212.86C428.623 212.386 428.44 211.502 428.617 210.801C428.794 210.093 429.268 209.518 429.723 208.969C428.225 210.257 426.17 211.533 424.211 210.624C423.623 210.352 423.066 209.777 423.136 209.177C423.187 208.798 423.471 208.514 423.749 208.261C424.47 207.611 426.587 206.619 426.727 205.703C423.029 205.419 419.703 205.122 416.201 203.328Z" fill="#C1FFB8"/>
<path d="M445.204 186.627L446.481 197.094C446.481 197.094 454.497 211.344 477.526 211.198C503.45 211.028 520.846 200.524 518.292 185.25C517.882 182.774 513.381 176.603 513.381 176.603L444.673 186.135L445.204 186.627Z" fill="#59B24F"/>
<path d="M481.047 201.189C500.303 199.994 515.412 190.969 514.794 181.032C514.176 171.095 498.065 164.008 478.81 165.203C459.554 166.398 444.444 175.423 445.062 185.36C445.68 195.298 461.791 202.384 481.047 201.189Z" fill="#84D17D"/>
<path d="M512.319 180.102C513.804 187.568 500.997 196.26 483.341 197.997C465.692 199.734 448.75 193.525 447.265 186.065C445.779 178.599 459.687 169.08 477.336 167.343C494.985 165.606 510.827 172.643 512.319 180.102Z" fill="#B0EDA9"/>
<path d="M459.522 182.907C458.814 182.54 458.043 182.041 457.872 181.296C457.594 180.096 458.979 179.363 460.167 179.123C462.626 178.631 465.249 178.675 467.797 179.237C466.868 178.454 466.059 177.531 465.401 176.521C465.262 176.306 465.123 176.066 465.155 175.832C465.224 175.276 466.027 175.264 466.602 175.403C469.548 176.104 472.437 177.216 475.136 178.687C474.257 177.727 473.48 176.635 473.183 175.415C472.886 174.196 473.157 172.851 474.099 172.125C475.332 171.177 477.33 171.594 478.67 172.655C480.004 173.716 480.819 175.258 481.527 176.767C483.31 174.702 486.022 173.438 488.904 173.337C489.581 173.312 490.377 173.407 490.807 173.963C491.464 174.822 490.712 175.889 489.985 176.565C493.051 175.239 496.989 175.687 499.986 177.696C500.359 177.942 500.744 178.271 500.795 178.687C500.826 178.94 500.725 179.174 500.605 179.389C499.752 180.987 498.14 182.06 496.382 182.667C494.625 183.279 492.716 183.469 490.826 183.665C492.792 184.063 494.726 184.72 496.559 185.604C496.793 185.718 497.046 185.857 497.135 186.09C497.211 186.28 497.154 186.488 497.084 186.671C496.275 188.775 493.664 189.665 491.287 189.35C488.904 189.034 486.692 187.771 484.561 186.539C485.693 187.556 486.647 188.907 486.685 190.341C486.723 191.769 485.541 193.152 484.075 192.937C483.424 192.843 482.829 192.47 482.286 192.066C480.636 190.853 479.232 189.312 478.196 187.581C478.518 190 476.824 192.331 474.434 192.754C473.815 192.862 473.107 192.836 472.576 192.438C471.944 191.965 471.76 191.08 471.937 190.379C472.114 189.672 472.589 189.097 473.044 188.547C471.546 189.836 469.491 191.112 467.531 190.202C466.943 189.931 466.387 189.356 466.457 188.756C466.507 188.377 466.792 188.093 467.07 187.84C467.791 187.189 469.908 186.198 470.047 185.282C466.349 184.998 463.024 184.701 459.522 182.907Z" fill="#C1FFB8"/>
<path d="M464.409 154.83L465.686 165.296C465.686 165.296 473.701 179.546 496.73 179.401C522.654 179.231 540.051 168.726 537.497 153.453C537.086 150.977 532.585 144.806 532.585 144.806L463.878 154.337L464.409 154.83Z" fill="#59B24F"/>
<path d="M500.243 169.384C519.499 168.189 534.608 159.164 533.991 149.227C533.373 139.29 517.262 132.203 498.006 133.398C478.75 134.593 463.641 143.618 464.259 153.555C464.877 163.493 480.987 170.58 500.243 169.384Z" fill="#84D17D"/>
<path d="M531.517 148.305C533.003 155.771 520.195 164.463 502.54 166.2C484.89 167.937 467.949 161.728 466.463 154.268C464.978 146.802 478.885 137.283 496.534 135.546C514.19 133.809 530.031 140.839 531.517 148.305Z" fill="#B0EDA9"/>
<path d="M478.727 151.103C478.019 150.737 477.248 150.238 477.077 149.493C476.799 148.292 478.183 147.56 479.372 147.32C481.831 146.827 484.454 146.871 487.001 147.433C486.072 146.65 485.263 145.728 484.606 144.717C484.467 144.502 484.328 144.262 484.359 144.029C484.429 143.473 485.231 143.46 485.807 143.599C488.753 144.3 491.641 145.412 494.341 146.884C493.462 145.924 492.684 144.831 492.387 143.612C492.09 142.393 492.362 141.047 493.304 140.321C494.537 139.373 496.534 139.79 497.874 140.852C499.208 141.913 500.024 143.454 500.732 144.964C502.514 142.898 505.226 141.635 508.109 141.534C508.785 141.508 509.582 141.603 510.012 142.159C510.669 143.018 509.917 144.086 509.19 144.761C512.256 143.435 516.194 143.883 519.19 145.892C519.563 146.138 519.949 146.467 519.999 146.884C520.031 147.136 519.93 147.37 519.81 147.585C518.956 149.183 517.344 150.257 515.587 150.863C513.83 151.476 511.921 151.665 510.03 151.861C511.996 152.259 513.931 152.916 515.764 153.8C515.998 153.914 516.251 154.053 516.339 154.287C516.415 154.476 516.358 154.685 516.289 154.868C515.48 156.971 512.869 157.862 510.492 157.546C508.109 157.23 505.896 155.967 503.766 154.735C504.897 155.752 505.852 157.104 505.89 158.538C505.928 159.965 504.746 161.349 503.279 161.134C502.628 161.039 502.034 160.666 501.49 160.262C499.84 159.049 498.437 157.508 497.4 155.777C497.723 158.197 496.028 160.527 493.639 160.951C493.019 161.058 492.311 161.033 491.78 160.635C491.148 160.161 490.965 159.277 491.142 158.576C491.319 157.868 491.793 157.293 492.248 156.744C490.75 158.032 488.696 159.308 486.736 158.399C486.148 158.127 485.592 157.552 485.661 156.952C485.712 156.573 485.996 156.289 486.275 156.036C486.995 155.386 489.113 154.394 489.252 153.478C485.554 153.194 482.229 152.897 478.727 151.103Z" fill="#C1FFB8"/>
</svg>
