<svg width="162" height="246" viewBox="0 0 162 246" fill="none" xmlns="http://www.w3.org/2000/svg">
<path d="M103.447 24.098C108.637 33.755 115.755 39.781 85.3391 61.505C54.9231 83.229 84.2471 78.521 81.3541 94.445C78.4611 110.369 52.3841 106.753 59.6301 126.308C66.8761 145.863 79.1841 136.447 73.3851 159.617C67.5861 182.787 62.5231 177.725 75.5551 199.449C88.5871 221.173 62.5231 245.789 62.5231 245.789H31.6341C31.6341 245.789 64.4611 228.901 53.3581 206.695C42.2551 184.489 44.6661 170.495 51.4301 154.555C58.1941 138.615 18.6031 128.974 35.0241 102.897C51.4451 76.82 25.3671 58.967 60.1241 47.864C94.8811 36.761 55.0621 7.064 79.6781 1.041C104.294 -4.982 99.5281 16.809 103.447 24.098Z" fill="#E6EAF5"/>
<path d="M42.5809 13.259C45.6319 18.572 49.8159 21.888 31.9369 33.841C14.0579 45.794 31.2949 43.204 29.5949 51.965C27.8949 60.726 12.5669 58.737 16.8259 69.497C21.0849 80.257 28.3199 75.076 24.9109 87.824C21.5019 100.572 18.5259 97.787 26.1859 109.74C33.8459 121.693 18.5259 135.24 18.5259 135.24H0.371899C0.371899 135.24 19.6719 125.948 13.1409 113.729C6.60991 101.51 8.03192 93.81 12.0079 85.04C15.9839 76.27 -7.2921 70.965 2.3639 56.617C12.0199 42.269 -3.31208 32.446 17.1169 26.337C37.5459 20.228 14.1409 3.89 28.6109 0.574004C43.0809 -2.742 40.2799 9.249 42.5809 13.259Z" fill="white"/>
<path d="M104.656 97.144C100.564 103.613 94.9509 107.651 118.934 122.205C142.917 136.759 119.795 133.605 122.076 144.273C124.357 154.941 144.919 152.519 139.205 165.619C133.491 178.719 123.786 172.411 128.359 187.934C132.932 203.457 136.924 200.065 126.648 214.619C116.372 229.173 136.923 245.665 136.923 245.665H161.286C161.286 245.665 135.402 234.351 144.157 219.474C152.912 204.597 151.011 195.221 145.678 184.543C140.345 173.865 171.562 167.405 158.614 149.935C145.666 132.465 166.228 120.504 138.824 113.066C111.42 105.628 142.816 85.735 123.405 81.697C103.994 77.659 107.742 92.261 104.656 97.144Z" fill="#242C5B"/>
<path d="M150.581 13.259C153.632 18.572 157.816 21.888 139.937 33.841C122.058 45.794 139.295 43.204 137.595 51.965C135.895 60.726 120.567 58.737 124.826 69.497C129.085 80.257 136.32 75.076 132.911 87.824C129.502 100.572 126.526 97.787 134.186 109.74C141.846 121.693 126.526 135.24 126.526 135.24H108.372C108.372 135.24 127.672 125.948 121.141 113.729C114.61 101.51 116.032 93.81 120.008 85.04C123.984 76.27 100.708 70.965 110.364 56.617C120.02 42.269 104.688 32.446 125.117 26.337C145.546 20.228 122.141 3.89 136.611 0.574004C151.081 -2.742 148.28 9.249 150.581 13.259Z" fill="white"/>
</svg>
